%TF.GenerationSoftware,KiCad,Pcbnew,7.0.7*%
%TF.CreationDate,2023-09-28T02:10:51+03:00*%
%TF.ProjectId,main,6d61696e-2e6b-4696-9361-645f70636258,rev?*%
%TF.SameCoordinates,Original*%
%TF.FileFunction,Copper,L2,Bot*%
%TF.FilePolarity,Positive*%
%FSLAX46Y46*%
G04 Gerber Fmt 4.6, Leading zero omitted, Abs format (unit mm)*
G04 Created by KiCad (PCBNEW 7.0.7) date 2023-09-28 02:10:51*
%MOMM*%
%LPD*%
G01*
G04 APERTURE LIST*
%TA.AperFunction,ComponentPad*%
%ADD10R,1.800000X1.800000*%
%TD*%
%TA.AperFunction,ComponentPad*%
%ADD11C,1.800000*%
%TD*%
%TA.AperFunction,ComponentPad*%
%ADD12R,1.600000X1.600000*%
%TD*%
%TA.AperFunction,ComponentPad*%
%ADD13O,1.600000X1.600000*%
%TD*%
%TA.AperFunction,ComponentPad*%
%ADD14C,1.600000*%
%TD*%
%TA.AperFunction,ComponentPad*%
%ADD15R,1.700000X1.700000*%
%TD*%
%TA.AperFunction,ComponentPad*%
%ADD16O,1.700000X1.700000*%
%TD*%
%TA.AperFunction,ComponentPad*%
%ADD17C,4.000000*%
%TD*%
%TA.AperFunction,ComponentPad*%
%ADD18C,1.400000*%
%TD*%
%TA.AperFunction,ComponentPad*%
%ADD19O,1.400000X1.400000*%
%TD*%
%TA.AperFunction,ComponentPad*%
%ADD20R,1.440000X1.440000*%
%TD*%
%TA.AperFunction,ComponentPad*%
%ADD21O,1.440000X1.440000*%
%TD*%
%TA.AperFunction,ComponentPad*%
%ADD22R,4.400000X1.800000*%
%TD*%
%TA.AperFunction,ComponentPad*%
%ADD23O,4.000000X1.800000*%
%TD*%
%TA.AperFunction,ComponentPad*%
%ADD24O,1.800000X4.000000*%
%TD*%
%TA.AperFunction,ComponentPad*%
%ADD25C,5.000000*%
%TD*%
%TA.AperFunction,ComponentPad*%
%ADD26C,2.000000*%
%TD*%
%TA.AperFunction,ComponentPad*%
%ADD27R,1.500000X1.500000*%
%TD*%
%TA.AperFunction,ComponentPad*%
%ADD28C,1.500000*%
%TD*%
%TA.AperFunction,ComponentPad*%
%ADD29R,2.032000X2.032000*%
%TD*%
%TA.AperFunction,ComponentPad*%
%ADD30C,2.032000*%
%TD*%
%TA.AperFunction,ComponentPad*%
%ADD31R,1.905000X2.000000*%
%TD*%
%TA.AperFunction,ComponentPad*%
%ADD32O,1.905000X2.000000*%
%TD*%
%TA.AperFunction,ViaPad*%
%ADD33C,0.800000*%
%TD*%
%TA.AperFunction,Conductor*%
%ADD34C,0.250000*%
%TD*%
%TA.AperFunction,Conductor*%
%ADD35C,1.000000*%
%TD*%
G04 APERTURE END LIST*
D10*
%TO.P,D1,1,K*%
%TO.N,Net-(D1-K)*%
X129540000Y73660000D03*
D11*
%TO.P,D1,2,A*%
%TO.N,+5V*%
X132080000Y73660000D03*
%TD*%
D12*
%TO.P,U4,1,OE*%
%TO.N,GND*%
X83820000Y72390000D03*
D13*
%TO.P,U4,2,D0*%
%TO.N,AD_{7}*%
X83820000Y69850000D03*
%TO.P,U4,3,D1*%
%TO.N,AD_{6}*%
X83820000Y67310000D03*
%TO.P,U4,4,D2*%
%TO.N,AD_{5}*%
X83820000Y64770000D03*
%TO.P,U4,5,D3*%
%TO.N,AD_{4}*%
X83820000Y62230000D03*
%TO.P,U4,6,D4*%
%TO.N,AD_{3}*%
X83820000Y59690000D03*
%TO.P,U4,7,D5*%
%TO.N,AD_{2}*%
X83820000Y57150000D03*
%TO.P,U4,8,D6*%
%TO.N,AD_{1}*%
X83820000Y54610000D03*
%TO.P,U4,9,D7*%
%TO.N,AD_{0}*%
X83820000Y52070000D03*
%TO.P,U4,10,GND*%
%TO.N,GND*%
X83820000Y49530000D03*
%TO.P,U4,11,Load*%
%TO.N,ALE*%
X91440000Y49530000D03*
%TO.P,U4,12,Q7*%
%TO.N,A_{0}*%
X91440000Y52070000D03*
%TO.P,U4,13,Q6*%
%TO.N,A_{1}*%
X91440000Y54610000D03*
%TO.P,U4,14,Q5*%
%TO.N,A_{2}*%
X91440000Y57150000D03*
%TO.P,U4,15,Q4*%
%TO.N,A_{3}*%
X91440000Y59690000D03*
%TO.P,U4,16,Q3*%
%TO.N,A_{4}*%
X91440000Y62230000D03*
%TO.P,U4,17,Q2*%
%TO.N,A_{5}*%
X91440000Y64770000D03*
%TO.P,U4,18,Q1*%
%TO.N,A_{6}*%
X91440000Y67310000D03*
%TO.P,U4,19,Q0*%
%TO.N,A_{7}*%
X91440000Y69850000D03*
%TO.P,U4,20,VCC*%
%TO.N,+5V*%
X91440000Y72390000D03*
%TD*%
D14*
%TO.P,C2,1*%
%TO.N,+5V*%
X40640000Y88900000D03*
%TO.P,C2,2*%
%TO.N,GND*%
X53340000Y88900000D03*
%TD*%
D12*
%TO.P,RN4,1,common*%
%TO.N,GND*%
X106680000Y25400000D03*
D13*
%TO.P,RN4,2,R1*%
%TO.N,Net-(RN4-R1)*%
X109220000Y25400000D03*
%TO.P,RN4,3,R2*%
%TO.N,Net-(RN4-R2)*%
X111760000Y25400000D03*
%TO.P,RN4,4,R3*%
%TO.N,Net-(RN4-R3)*%
X114300000Y25400000D03*
%TO.P,RN4,5,R4*%
%TO.N,Net-(RN4-R4)*%
X116840000Y25400000D03*
%TO.P,RN4,6,R5*%
%TO.N,Net-(RN4-R5)*%
X119380000Y25400000D03*
%TO.P,RN4,7,R6*%
%TO.N,Net-(RN4-R6)*%
X121920000Y25400000D03*
%TO.P,RN4,8,R7*%
%TO.N,Net-(RN4-R7)*%
X124460000Y25400000D03*
%TO.P,RN4,9,R8*%
%TO.N,Net-(RN4-R8)*%
X127000000Y25400000D03*
%TD*%
D15*
%TO.P,J2,1,Pin_1*%
%TO.N,GND*%
X17780000Y85090000D03*
D16*
%TO.P,J2,2,Pin_2*%
%TO.N,+5V*%
X17780000Y87630000D03*
%TO.P,J2,3,Pin_3*%
%TO.N,PS2CLK*%
X17780000Y90170000D03*
%TO.P,J2,4,Pin_4*%
%TO.N,PS2DATA*%
X17780000Y92710000D03*
%TD*%
D17*
%TO.P,H1,*%
%TO.N,*%
X19050000Y13970000D03*
%TD*%
D18*
%TO.P,R4,1*%
%TO.N,+5V*%
X33020000Y86360000D03*
D19*
%TO.P,R4,2*%
%TO.N,PS2CLK*%
X25400000Y86360000D03*
%TD*%
D14*
%TO.P,C10,1*%
%TO.N,+5V*%
X111760000Y34290000D03*
%TO.P,C10,2*%
%TO.N,GND*%
X124460000Y34290000D03*
%TD*%
D12*
%TO.P,U1,1,GND*%
%TO.N,GND*%
X22860000Y57150000D03*
D13*
%TO.P,U1,2,A14*%
%TO.N,A_{14}*%
X25400000Y57150000D03*
%TO.P,U1,3,A13*%
%TO.N,A_{13}*%
X27940000Y57150000D03*
%TO.P,U1,4,A12*%
%TO.N,A_{12}*%
X30480000Y57150000D03*
%TO.P,U1,5,A11*%
%TO.N,A_{11}*%
X33020000Y57150000D03*
%TO.P,U1,6,A10*%
%TO.N,A_{10}*%
X35560000Y57150000D03*
%TO.P,U1,7,A9*%
%TO.N,A_{9}*%
X38100000Y57150000D03*
%TO.P,U1,8,A8*%
%TO.N,A_{8}*%
X40640000Y57150000D03*
%TO.P,U1,9,AD7*%
%TO.N,AD_{7}*%
X43180000Y57150000D03*
%TO.P,U1,10,AD6*%
%TO.N,AD_{6}*%
X45720000Y57150000D03*
%TO.P,U1,11,AD5*%
%TO.N,AD_{5}*%
X48260000Y57150000D03*
%TO.P,U1,12,AD4*%
%TO.N,AD_{4}*%
X50800000Y57150000D03*
%TO.P,U1,13,AD3*%
%TO.N,AD_{3}*%
X53340000Y57150000D03*
%TO.P,U1,14,AD2*%
%TO.N,AD_{2}*%
X55880000Y57150000D03*
%TO.P,U1,15,AD1*%
%TO.N,AD_{1}*%
X58420000Y57150000D03*
%TO.P,U1,16,AD0*%
%TO.N,AD_{0}*%
X60960000Y57150000D03*
%TO.P,U1,17,NMI*%
%TO.N,Net-(RN1B-R2.2)*%
X63500000Y57150000D03*
%TO.P,U1,18,INTR*%
%TO.N,INT*%
X66040000Y57150000D03*
%TO.P,U1,19,CLK*%
%TO.N,CLK*%
X68580000Y57150000D03*
%TO.P,U1,20,GND*%
%TO.N,GND*%
X71120000Y57150000D03*
%TO.P,U1,21,RESET*%
%TO.N,RES*%
X71120000Y72390000D03*
%TO.P,U1,22,READY*%
%TO.N,Net-(RN1A-R1.2)*%
X68580000Y72390000D03*
%TO.P,U1,23,~{TEST}*%
%TO.N,GND*%
X66040000Y72390000D03*
%TO.P,U1,24,~{INTA}*%
%TO.N,unconnected-(U1-~{INTA}-Pad24)*%
X63500000Y72390000D03*
%TO.P,U1,25,ALE*%
%TO.N,ALE*%
X60960000Y72390000D03*
%TO.P,U1,26,DEN*%
%TO.N,unconnected-(U1-DEN-Pad26)*%
X58420000Y72390000D03*
%TO.P,U1,27,DT/~{R}*%
%TO.N,unconnected-(U1-DT{slash}~{R}-Pad27)*%
X55880000Y72390000D03*
%TO.P,U1,28,IO/~{M}*%
%TO.N,IO{slash}~{M}*%
X53340000Y72390000D03*
%TO.P,U1,29,WR*%
%TO.N,~{WR}*%
X50800000Y72390000D03*
%TO.P,U1,30,HLDA*%
%TO.N,unconnected-(U1-HLDA-Pad30)*%
X48260000Y72390000D03*
%TO.P,U1,31,HOLD*%
%TO.N,unconnected-(U1-HOLD-Pad31)*%
X45720000Y72390000D03*
%TO.P,U1,32,~{RD}*%
%TO.N,~{RD}*%
X43180000Y72390000D03*
%TO.P,U1,33,MN/~{MX}*%
%TO.N,Net-(RN1D-R4.2)*%
X40640000Y72390000D03*
%TO.P,U1,34,~{SSO}*%
%TO.N,unconnected-(U1-~{SSO}-Pad34)*%
X38100000Y72390000D03*
%TO.P,U1,35,A19/S6*%
%TO.N,AS_{19}*%
X35560000Y72390000D03*
%TO.P,U1,36,A18/S5*%
%TO.N,AS_{18}*%
X33020000Y72390000D03*
%TO.P,U1,37,A17/S4*%
%TO.N,AS_{17}*%
X30480000Y72390000D03*
%TO.P,U1,38,A16/S3*%
%TO.N,AS_{16}*%
X27940000Y72390000D03*
%TO.P,U1,39,A15*%
%TO.N,A_{15}*%
X25400000Y72390000D03*
%TO.P,U1,40,VCC*%
%TO.N,+5V*%
X22860000Y72390000D03*
%TD*%
D14*
%TO.P,C5,1*%
%TO.N,+5V*%
X87630000Y67310000D03*
%TO.P,C5,2*%
%TO.N,GND*%
X87630000Y54610000D03*
%TD*%
%TO.P,C7,1*%
%TO.N,+5V*%
X53340000Y45720000D03*
%TO.P,C7,2*%
%TO.N,GND*%
X66040000Y45720000D03*
%TD*%
D12*
%TO.P,U14,1,1OE*%
%TO.N,IN~{EN}*%
X106680000Y30480000D03*
D13*
%TO.P,U14,2,1A0*%
%TO.N,Net-(RN4-R1)*%
X109220000Y30480000D03*
%TO.P,U14,3,2Y0*%
%TO.N,AD_{4}*%
X111760000Y30480000D03*
%TO.P,U14,4,1A1*%
%TO.N,Net-(RN4-R2)*%
X114300000Y30480000D03*
%TO.P,U14,5,2Y1*%
%TO.N,AD_{5}*%
X116840000Y30480000D03*
%TO.P,U14,6,1A2*%
%TO.N,Net-(RN4-R3)*%
X119380000Y30480000D03*
%TO.P,U14,7,2Y2*%
%TO.N,AD_{6}*%
X121920000Y30480000D03*
%TO.P,U14,8,1A3*%
%TO.N,Net-(RN4-R4)*%
X124460000Y30480000D03*
%TO.P,U14,9,2Y3*%
%TO.N,AD_{7}*%
X127000000Y30480000D03*
%TO.P,U14,10,GND*%
%TO.N,GND*%
X129540000Y30480000D03*
%TO.P,U14,11,2A3*%
%TO.N,Net-(RN4-R8)*%
X129540000Y38100000D03*
%TO.P,U14,12,1Y3*%
%TO.N,AD_{3}*%
X127000000Y38100000D03*
%TO.P,U14,13,2A2*%
%TO.N,Net-(RN4-R7)*%
X124460000Y38100000D03*
%TO.P,U14,14,1Y2*%
%TO.N,AD_{2}*%
X121920000Y38100000D03*
%TO.P,U14,15,2A1*%
%TO.N,Net-(RN4-R6)*%
X119380000Y38100000D03*
%TO.P,U14,16,1Y1*%
%TO.N,AD_{1}*%
X116840000Y38100000D03*
%TO.P,U14,17,2A0*%
%TO.N,Net-(RN4-R5)*%
X114300000Y38100000D03*
%TO.P,U14,18,1Y0*%
%TO.N,AD_{0}*%
X111760000Y38100000D03*
%TO.P,U14,19,2OE*%
%TO.N,IN~{EN}*%
X109220000Y38100000D03*
%TO.P,U14,20,VCC*%
%TO.N,+5V*%
X106680000Y38100000D03*
%TD*%
D14*
%TO.P,C3,1*%
%TO.N,+5V*%
X25400000Y66040000D03*
%TO.P,C3,2*%
%TO.N,GND*%
X25400000Y63540000D03*
%TD*%
D20*
%TO.P,U2,1,A15*%
%TO.N,A_{15}*%
X33420000Y17780000D03*
D21*
%TO.P,U2,2,A12*%
%TO.N,A_{12}*%
X35960000Y17780000D03*
%TO.P,U2,3,A7*%
%TO.N,A_{7}*%
X38500000Y17780000D03*
%TO.P,U2,4,A6*%
%TO.N,A_{6}*%
X41040000Y17780000D03*
%TO.P,U2,5,A5*%
%TO.N,A_{5}*%
X43580000Y17780000D03*
%TO.P,U2,6,A4*%
%TO.N,A_{4}*%
X46120000Y17780000D03*
%TO.P,U2,7,A3*%
%TO.N,A_{3}*%
X48660000Y17780000D03*
%TO.P,U2,8,A2*%
%TO.N,A_{2}*%
X51200000Y17780000D03*
%TO.P,U2,9,A1*%
%TO.N,A_{1}*%
X53740000Y17780000D03*
%TO.P,U2,10,A0*%
%TO.N,A_{0}*%
X56280000Y17780000D03*
%TO.P,U2,11,D0*%
%TO.N,AD_{0}*%
X58820000Y17780000D03*
%TO.P,U2,12,D1*%
%TO.N,AD_{1}*%
X61360000Y17780000D03*
%TO.P,U2,13,D2*%
%TO.N,AD_{2}*%
X63900000Y17780000D03*
%TO.P,U2,14,GND*%
%TO.N,GND*%
X66440000Y17780000D03*
%TO.P,U2,15,D3*%
%TO.N,AD_{3}*%
X66440000Y33020000D03*
%TO.P,U2,16,D4*%
%TO.N,AD_{4}*%
X63900000Y33020000D03*
%TO.P,U2,17,D5*%
%TO.N,AD_{5}*%
X61360000Y33020000D03*
%TO.P,U2,18,D6*%
%TO.N,AD_{6}*%
X58820000Y33020000D03*
%TO.P,U2,19,D7*%
%TO.N,AD_{7}*%
X56280000Y33020000D03*
%TO.P,U2,20,~{CE}*%
%TO.N,ROM~{EN}*%
X53740000Y33020000D03*
%TO.P,U2,21,A10*%
%TO.N,A_{10}*%
X51200000Y33020000D03*
%TO.P,U2,22,~{OE}*%
%TO.N,~{RD}*%
X48660000Y33020000D03*
%TO.P,U2,23,A11*%
%TO.N,A_{11}*%
X46120000Y33020000D03*
%TO.P,U2,24,A9*%
%TO.N,A_{9}*%
X43580000Y33020000D03*
%TO.P,U2,25,A8*%
%TO.N,A_{8}*%
X41040000Y33020000D03*
%TO.P,U2,26,A13*%
%TO.N,A_{13}*%
X38500000Y33020000D03*
%TO.P,U2,27,A14*%
%TO.N,A_{14}*%
X35960000Y33020000D03*
%TO.P,U2,28,VCC*%
%TO.N,+5V*%
X33420000Y33020000D03*
%TD*%
D14*
%TO.P,C6,1*%
%TO.N,+5V*%
X107950000Y96520000D03*
%TO.P,C6,2*%
%TO.N,GND*%
X107950000Y67310000D03*
%TD*%
D10*
%TO.P,D2,1,K*%
%TO.N,Net-(D2-K)*%
X121920000Y73660000D03*
D11*
%TO.P,D2,2,A*%
%TO.N,RES*%
X119380000Y73660000D03*
%TD*%
D14*
%TO.P,C4,1*%
%TO.N,+5V*%
X87630000Y99060000D03*
%TO.P,C4,2*%
%TO.N,GND*%
X87630000Y86360000D03*
%TD*%
D12*
%TO.P,RN3,1,common*%
%TO.N,GND*%
X77470000Y25400000D03*
D13*
%TO.P,RN3,2,R1*%
%TO.N,Net-(RN3-R1)*%
X80010000Y25400000D03*
%TO.P,RN3,3,R2*%
%TO.N,Net-(RN3-R2)*%
X82550000Y25400000D03*
%TO.P,RN3,4,R3*%
%TO.N,Net-(RN3-R3)*%
X85090000Y25400000D03*
%TO.P,RN3,5,R4*%
%TO.N,Net-(RN3-R4)*%
X87630000Y25400000D03*
%TO.P,RN3,6,R5*%
%TO.N,Net-(RN3-R5)*%
X90170000Y25400000D03*
%TO.P,RN3,7,R6*%
%TO.N,Net-(RN3-R6)*%
X92710000Y25400000D03*
%TO.P,RN3,8,R7*%
%TO.N,Net-(RN3-R7)*%
X95250000Y25400000D03*
%TO.P,RN3,9,R8*%
%TO.N,Net-(RN3-R8)*%
X97790000Y25400000D03*
%TD*%
D17*
%TO.P,H2,*%
%TO.N,*%
X130810000Y13970000D03*
%TD*%
D22*
%TO.P,J1,1*%
%TO.N,Net-(U10-IN)*%
X126330000Y95250000D03*
D23*
%TO.P,J1,2*%
%TO.N,GND*%
X126330000Y101050000D03*
D24*
%TO.P,J1,3*%
%TO.N,N/C*%
X121530000Y98250000D03*
%TD*%
D12*
%TO.P,U13,1,~{Mr}*%
%TO.N,Net-(U13-~{Mr})*%
X77470000Y30480000D03*
D13*
%TO.P,U13,2,Q0*%
%TO.N,Net-(U13-Q0)*%
X80010000Y30480000D03*
%TO.P,U13,3,D0*%
%TO.N,AD_{0}*%
X82550000Y30480000D03*
%TO.P,U13,4,D1*%
%TO.N,AD_{1}*%
X85090000Y30480000D03*
%TO.P,U13,5,Q1*%
%TO.N,Net-(U13-Q1)*%
X87630000Y30480000D03*
%TO.P,U13,6,Q2*%
%TO.N,Net-(U13-Q2)*%
X90170000Y30480000D03*
%TO.P,U13,7,D2*%
%TO.N,AD_{2}*%
X92710000Y30480000D03*
%TO.P,U13,8,D3*%
%TO.N,AD_{3}*%
X95250000Y30480000D03*
%TO.P,U13,9,Q3*%
%TO.N,Net-(U13-Q3)*%
X97790000Y30480000D03*
%TO.P,U13,10,GND*%
%TO.N,GND*%
X100330000Y30480000D03*
%TO.P,U13,11,Cp*%
%TO.N,OUT~{EN}*%
X100330000Y38100000D03*
%TO.P,U13,12,Q4*%
%TO.N,Net-(U13-Q4)*%
X97790000Y38100000D03*
%TO.P,U13,13,D4*%
%TO.N,AD_{4}*%
X95250000Y38100000D03*
%TO.P,U13,14,D5*%
%TO.N,AD_{5}*%
X92710000Y38100000D03*
%TO.P,U13,15,Q5*%
%TO.N,Net-(U13-Q5)*%
X90170000Y38100000D03*
%TO.P,U13,16,Q6*%
%TO.N,Net-(U13-Q6)*%
X87630000Y38100000D03*
%TO.P,U13,17,D6*%
%TO.N,AD_{6}*%
X85090000Y38100000D03*
%TO.P,U13,18,D7*%
%TO.N,AD_{7}*%
X82550000Y38100000D03*
%TO.P,U13,19,Q7*%
%TO.N,Net-(U13-Q7)*%
X80010000Y38100000D03*
%TO.P,U13,20,VCC*%
%TO.N,+5V*%
X77470000Y38100000D03*
%TD*%
D12*
%TO.P,RN1,1,R1*%
%TO.N,+5V*%
X77470000Y41890000D03*
D13*
%TO.P,RN1,2,R1.2*%
%TO.N,Net-(RN1A-R1.2)*%
X77470000Y44430000D03*
%TO.P,RN1,3,R2.2*%
%TO.N,Net-(RN1B-R2.2)*%
X77470000Y46970000D03*
%TO.P,RN1,4,R3.2*%
%TO.N,unconnected-(RN1C-R3.2-Pad4)*%
X77470000Y49510000D03*
%TO.P,RN1,5,R4.2*%
%TO.N,Net-(RN1D-R4.2)*%
X77470000Y52050000D03*
%TD*%
D18*
%TO.P,R3,1*%
%TO.N,Net-(D2-K)*%
X124460000Y69850000D03*
D19*
%TO.P,R3,2*%
%TO.N,GND*%
X124460000Y77470000D03*
%TD*%
D14*
%TO.P,U11,*%
%TO.N,*%
X34290000Y49530000D03*
X34290000Y41910000D03*
D12*
%TO.P,U11,1,EN*%
%TO.N,unconnected-(U11-EN-Pad1)*%
X26670000Y41910000D03*
D13*
%TO.P,U11,2*%
%TO.N,unconnected-(U11-Pad2)*%
X29210000Y41910000D03*
%TO.P,U11,3*%
%TO.N,unconnected-(U11-Pad3)*%
X31750000Y41910000D03*
D14*
%TO.P,U11,5*%
%TO.N,GND*%
X36830000Y41910000D03*
%TO.P,U11,6*%
X39370000Y41910000D03*
%TO.P,U11,7,GND*%
X41910000Y41910000D03*
%TO.P,U11,8,OUT*%
%TO.N,Net-(U11-OUT)*%
X41910000Y49530000D03*
%TO.P,U11,9*%
X39370000Y49530000D03*
%TO.P,U11,10*%
X36830000Y49530000D03*
%TO.P,U11,12*%
%TO.N,+5V*%
X31750000Y49530000D03*
%TO.P,U11,13*%
X29210000Y49530000D03*
%TO.P,U11,14,Vcc*%
X26670000Y49530000D03*
%TD*%
D12*
%TO.P,U3,1,A18*%
%TO.N,A_{18}*%
X100330000Y100330000D03*
D13*
%TO.P,U3,2,A16*%
%TO.N,A_{16}*%
X100330000Y97790000D03*
%TO.P,U3,3,A14*%
%TO.N,A_{14}*%
X100330000Y95250000D03*
%TO.P,U3,4,A12*%
%TO.N,A_{12}*%
X100330000Y92710000D03*
%TO.P,U3,5,A7*%
%TO.N,A_{7}*%
X100330000Y90170000D03*
%TO.P,U3,6,A6*%
%TO.N,A_{6}*%
X100330000Y87630000D03*
%TO.P,U3,7,A5*%
%TO.N,A_{5}*%
X100330000Y85090000D03*
%TO.P,U3,8,A4*%
%TO.N,A_{4}*%
X100330000Y82550000D03*
%TO.P,U3,9,A3*%
%TO.N,A_{3}*%
X100330000Y80010000D03*
%TO.P,U3,10,A2*%
%TO.N,A_{2}*%
X100330000Y77470000D03*
%TO.P,U3,11,A1*%
%TO.N,A_{1}*%
X100330000Y74930000D03*
%TO.P,U3,12,A0*%
%TO.N,A_{0}*%
X100330000Y72390000D03*
%TO.P,U3,13,DQ0*%
%TO.N,AD_{0}*%
X100330000Y69850000D03*
%TO.P,U3,14,DQ1*%
%TO.N,AD_{1}*%
X100330000Y67310000D03*
%TO.P,U3,15,DQ2*%
%TO.N,AD_{2}*%
X100330000Y64770000D03*
%TO.P,U3,16,VSS*%
%TO.N,GND*%
X100330000Y62230000D03*
%TO.P,U3,17,DQ3*%
%TO.N,AD_{3}*%
X115570000Y62230000D03*
%TO.P,U3,18,DQ4*%
%TO.N,AD_{4}*%
X115570000Y64770000D03*
%TO.P,U3,19,DQ5*%
%TO.N,AD_{5}*%
X115570000Y67310000D03*
%TO.P,U3,20,DQ6*%
%TO.N,AD_{6}*%
X115570000Y69850000D03*
%TO.P,U3,21,DQ7*%
%TO.N,AD_{7}*%
X115570000Y72390000D03*
%TO.P,U3,22,CE#*%
%TO.N,RAM~{EN}*%
X115570000Y74930000D03*
%TO.P,U3,23,A10*%
%TO.N,A_{10}*%
X115570000Y77470000D03*
%TO.P,U3,24,OE#*%
%TO.N,~{RD}*%
X115570000Y80010000D03*
%TO.P,U3,25,A11*%
%TO.N,A_{11}*%
X115570000Y82550000D03*
%TO.P,U3,26,A9*%
%TO.N,A_{9}*%
X115570000Y85090000D03*
%TO.P,U3,27,A8*%
%TO.N,A_{8}*%
X115570000Y87630000D03*
%TO.P,U3,28,A13*%
%TO.N,A_{13}*%
X115570000Y90170000D03*
%TO.P,U3,29,WE#*%
%TO.N,~{WR}*%
X115570000Y92710000D03*
%TO.P,U3,30,A17*%
%TO.N,A_{17}*%
X115570000Y95250000D03*
%TO.P,U3,31,A15*%
%TO.N,A_{15}*%
X115570000Y97790000D03*
%TO.P,U3,32,VCC*%
%TO.N,+5V*%
X115570000Y100330000D03*
%TD*%
D12*
%TO.P,SW6,1*%
%TO.N,+5V*%
X106680000Y12700000D03*
D13*
%TO.P,SW6,2*%
X109220000Y12700000D03*
%TO.P,SW6,3*%
X111760000Y12700000D03*
%TO.P,SW6,4*%
X114300000Y12700000D03*
%TO.P,SW6,5*%
X116840000Y12700000D03*
%TO.P,SW6,6*%
X119380000Y12700000D03*
%TO.P,SW6,7*%
X121920000Y12700000D03*
%TO.P,SW6,8*%
X124460000Y12700000D03*
%TO.P,SW6,9*%
%TO.N,Net-(RN4-R8)*%
X124460000Y20320000D03*
%TO.P,SW6,10*%
%TO.N,Net-(RN4-R7)*%
X121920000Y20320000D03*
%TO.P,SW6,11*%
%TO.N,Net-(RN4-R6)*%
X119380000Y20320000D03*
%TO.P,SW6,12*%
%TO.N,Net-(RN4-R5)*%
X116840000Y20320000D03*
%TO.P,SW6,13*%
%TO.N,Net-(RN4-R4)*%
X114300000Y20320000D03*
%TO.P,SW6,14*%
%TO.N,Net-(RN4-R3)*%
X111760000Y20320000D03*
%TO.P,SW6,15*%
%TO.N,Net-(RN4-R2)*%
X109220000Y20320000D03*
%TO.P,SW6,16*%
%TO.N,Net-(RN4-R1)*%
X106680000Y20320000D03*
%TD*%
D14*
%TO.P,C8,1*%
%TO.N,+5V*%
X114300000Y52150000D03*
%TO.P,C8,2*%
%TO.N,GND*%
X101600000Y52150000D03*
%TD*%
%TO.P,C11,1*%
%TO.N,+5V*%
X20720000Y26670000D03*
%TO.P,C11,2*%
%TO.N,GND*%
X20720000Y24170000D03*
%TD*%
D18*
%TO.P,R5,1*%
%TO.N,+5V*%
X33020000Y91440000D03*
D19*
%TO.P,R5,2*%
%TO.N,PS2DATA*%
X25400000Y91440000D03*
%TD*%
D25*
%TO.P,LCD1,*%
%TO.N,*%
X20320000Y105410000D03*
X20320000Y50450000D03*
D26*
X33020000Y105410000D03*
X63500000Y105410000D03*
X66040000Y105410000D03*
D25*
X113280000Y105410000D03*
D26*
%TO.P,LCD1,1,GND*%
%TO.N,GND*%
X27940000Y105410000D03*
%TO.P,LCD1,2,Vdd*%
%TO.N,+5V*%
X30480000Y105410000D03*
%TO.P,LCD1,4,RS*%
%TO.N,Net-(LCD1-RS)*%
X35560000Y105410000D03*
%TO.P,LCD1,5,R~{W}*%
%TO.N,Net-(LCD1-R~{W})*%
X38100000Y105410000D03*
%TO.P,LCD1,6,E*%
%TO.N,Net-(LCD1-E)*%
X40640000Y105410000D03*
%TO.P,LCD1,7,D_{0}*%
%TO.N,Net-(LCD1-D_{0})*%
X43180000Y105410000D03*
%TO.P,LCD1,8,D_{1}*%
%TO.N,Net-(LCD1-D_{1})*%
X45720000Y105410000D03*
%TO.P,LCD1,9,D_{2}*%
%TO.N,Net-(LCD1-D_{2})*%
X48260000Y105410000D03*
%TO.P,LCD1,10,D_{3}*%
%TO.N,Net-(LCD1-D_{3})*%
X50800000Y105410000D03*
%TO.P,LCD1,11,D_{4}*%
%TO.N,Net-(LCD1-D_{4})*%
X53340000Y105410000D03*
%TO.P,LCD1,12,D_{5}*%
%TO.N,Net-(LCD1-D_{5})*%
X55880000Y105410000D03*
%TO.P,LCD1,13,D_{6}*%
%TO.N,Net-(LCD1-D_{6})*%
X58420000Y105410000D03*
%TO.P,LCD1,14,D_{7}*%
%TO.N,Net-(LCD1-D_{7})*%
X60960000Y105410000D03*
%TD*%
D14*
%TO.P,R1,1*%
%TO.N,INT*%
X66040000Y59690000D03*
D13*
%TO.P,R1,2*%
%TO.N,GND*%
X66040000Y69850000D03*
%TD*%
D12*
%TO.P,U12,1,PA3*%
%TO.N,Net-(LCD1-D_{3})*%
X71120000Y96520000D03*
D13*
%TO.P,U12,2,PA2*%
%TO.N,Net-(LCD1-D_{2})*%
X68580000Y96520000D03*
%TO.P,U12,3,PA1*%
%TO.N,Net-(LCD1-D_{1})*%
X66040000Y96520000D03*
%TO.P,U12,4,PA0*%
%TO.N,Net-(LCD1-D_{0})*%
X63500000Y96520000D03*
%TO.P,U12,5,~{RD}*%
%TO.N,~{RD}*%
X60960000Y96520000D03*
%TO.P,U12,6,~{CS}*%
%TO.N,IO~{EN}*%
X58420000Y96520000D03*
%TO.P,U12,7,GND*%
%TO.N,GND*%
X55880000Y96520000D03*
%TO.P,U12,8,A1*%
%TO.N,A_{1}*%
X53340000Y96520000D03*
%TO.P,U12,9,A0*%
%TO.N,A_{0}*%
X50800000Y96520000D03*
%TO.P,U12,10,PC7*%
%TO.N,unconnected-(U12-PC7-Pad10)*%
X48260000Y96520000D03*
%TO.P,U12,11,PC6*%
%TO.N,Net-(LCD1-E)*%
X45720000Y96520000D03*
%TO.P,U12,12,PC5*%
%TO.N,Net-(LCD1-R~{W})*%
X43180000Y96520000D03*
%TO.P,U12,13,PC4*%
%TO.N,Net-(LCD1-RS)*%
X40640000Y96520000D03*
%TO.P,U12,14,PC0*%
%TO.N,INT*%
X38100000Y96520000D03*
%TO.P,U12,15,PC1*%
%TO.N,unconnected-(U12-PC1-Pad15)*%
X35560000Y96520000D03*
%TO.P,U12,16,PC2*%
%TO.N,PS2CLK*%
X33020000Y96520000D03*
%TO.P,U12,17,PC3*%
%TO.N,unconnected-(U12-PC3-Pad17)*%
X30480000Y96520000D03*
%TO.P,U12,18,PB0*%
%TO.N,PS2DATA*%
X27940000Y96520000D03*
%TO.P,U12,19,PB1*%
%TO.N,unconnected-(U12-PB1-Pad19)*%
X25400000Y96520000D03*
%TO.P,U12,20,PB2*%
%TO.N,unconnected-(U12-PB2-Pad20)*%
X22860000Y96520000D03*
%TO.P,U12,21,PB3*%
%TO.N,unconnected-(U12-PB3-Pad21)*%
X22860000Y81280000D03*
%TO.P,U12,22,PB4*%
%TO.N,unconnected-(U12-PB4-Pad22)*%
X25400000Y81280000D03*
%TO.P,U12,23,PB5*%
%TO.N,unconnected-(U12-PB5-Pad23)*%
X27940000Y81280000D03*
%TO.P,U12,24,PB6*%
%TO.N,unconnected-(U12-PB6-Pad24)*%
X30480000Y81280000D03*
%TO.P,U12,25,PB7*%
%TO.N,unconnected-(U12-PB7-Pad25)*%
X33020000Y81280000D03*
%TO.P,U12,26,VCC*%
%TO.N,+5V*%
X35560000Y81280000D03*
%TO.P,U12,27,D7*%
%TO.N,AD_{7}*%
X38100000Y81280000D03*
%TO.P,U12,28,D6*%
%TO.N,AD_{6}*%
X40640000Y81280000D03*
%TO.P,U12,29,D5*%
%TO.N,AD_{5}*%
X43180000Y81280000D03*
%TO.P,U12,30,D4*%
%TO.N,AD_{4}*%
X45720000Y81280000D03*
%TO.P,U12,31,D3*%
%TO.N,AD_{3}*%
X48260000Y81280000D03*
%TO.P,U12,32,D2*%
%TO.N,AD_{2}*%
X50800000Y81280000D03*
%TO.P,U12,33,D1*%
%TO.N,AD_{1}*%
X53340000Y81280000D03*
%TO.P,U12,34,D0*%
%TO.N,AD_{0}*%
X55880000Y81280000D03*
%TO.P,U12,35,RESET*%
%TO.N,RES*%
X58420000Y81280000D03*
%TO.P,U12,36,~{WR}*%
%TO.N,~{WR}*%
X60960000Y81280000D03*
%TO.P,U12,37,PA7*%
%TO.N,Net-(LCD1-D_{7})*%
X63500000Y81280000D03*
%TO.P,U12,38,PA6*%
%TO.N,Net-(LCD1-D_{6})*%
X66040000Y81280000D03*
%TO.P,U12,39,PA5*%
%TO.N,Net-(LCD1-D_{5})*%
X68580000Y81280000D03*
%TO.P,U12,40,PA4*%
%TO.N,Net-(LCD1-D_{4})*%
X71120000Y81280000D03*
%TD*%
D27*
%TO.P,U7,1,~{RST}*%
%TO.N,Net-(U7-~{RST})*%
X123190000Y62230000D03*
D28*
%TO.P,U7,2,VCC*%
%TO.N,+5V*%
X125730000Y62230000D03*
%TO.P,U7,3,GND*%
%TO.N,GND*%
X128270000Y62230000D03*
%TD*%
D14*
%TO.P,C9,1*%
%TO.N,+5V*%
X82550000Y34290000D03*
%TO.P,C9,2*%
%TO.N,GND*%
X95250000Y34290000D03*
%TD*%
D18*
%TO.P,R2,1*%
%TO.N,Net-(D1-K)*%
X127000000Y69850000D03*
D19*
%TO.P,R2,2*%
%TO.N,GND*%
X127000000Y77470000D03*
%TD*%
D12*
%TO.P,U8,1*%
%TO.N,Net-(U6-IO7)*%
X115570000Y55960000D03*
D13*
%TO.P,U8,2*%
X113030000Y55960000D03*
%TO.P,U8,3*%
%TO.N,CLK*%
X110490000Y55960000D03*
%TO.P,U8,4*%
%TO.N,RES*%
X107950000Y55960000D03*
%TO.P,U8,5*%
X105410000Y55960000D03*
%TO.P,U8,6*%
%TO.N,Net-(U13-~{Mr})*%
X102870000Y55960000D03*
%TO.P,U8,7,GND*%
%TO.N,GND*%
X100330000Y55960000D03*
%TO.P,U8,8*%
%TO.N,RES*%
X100330000Y48340000D03*
%TO.P,U8,9*%
%TO.N,Net-(U7-~{RST})*%
X102870000Y48340000D03*
%TO.P,U8,10*%
X105410000Y48340000D03*
%TO.P,U8,11*%
%TO.N,unconnected-(U8-Pad11)*%
X107950000Y48340000D03*
%TO.P,U8,12*%
%TO.N,unconnected-(U8-Pad12)*%
X110490000Y48340000D03*
%TO.P,U8,13*%
%TO.N,unconnected-(U8-Pad13)*%
X113030000Y48340000D03*
%TO.P,U8,14,VCC*%
%TO.N,+5V*%
X115570000Y48340000D03*
%TD*%
D12*
%TO.P,U6,1,I1/CLK*%
%TO.N,Net-(U11-OUT)*%
X48260000Y41910000D03*
D13*
%TO.P,U6,2,I2*%
%TO.N,A_{8}*%
X50800000Y41910000D03*
%TO.P,U6,3,I3*%
%TO.N,A_{16}*%
X53340000Y41910000D03*
%TO.P,U6,4,I4*%
%TO.N,A_{17}*%
X55880000Y41910000D03*
%TO.P,U6,5,I5*%
%TO.N,A_{18}*%
X58420000Y41910000D03*
%TO.P,U6,6,I6*%
%TO.N,A_{19}*%
X60960000Y41910000D03*
%TO.P,U6,7,I7*%
%TO.N,~{RD}*%
X63500000Y41910000D03*
%TO.P,U6,8,I8*%
%TO.N,~{WR}*%
X66040000Y41910000D03*
%TO.P,U6,9,I9*%
%TO.N,IO{slash}~{M}*%
X68580000Y41910000D03*
%TO.P,U6,10,GND*%
%TO.N,GND*%
X71120000Y41910000D03*
%TO.P,U6,11,I10/~{OE}*%
X71120000Y49530000D03*
%TO.P,U6,12,IO8*%
%TO.N,unconnected-(U6-IO8-Pad12)*%
X68580000Y49530000D03*
%TO.P,U6,13,IO7*%
%TO.N,Net-(U6-IO7)*%
X66040000Y49530000D03*
%TO.P,U6,14,IO6*%
%TO.N,unconnected-(U6-IO6-Pad14)*%
X63500000Y49530000D03*
%TO.P,U6,15,IO5*%
%TO.N,IO~{EN}*%
X60960000Y49530000D03*
%TO.P,U6,16,IO4*%
%TO.N,IN~{EN}*%
X58420000Y49530000D03*
%TO.P,U6,17,I03*%
%TO.N,OUT~{EN}*%
X55880000Y49530000D03*
%TO.P,U6,18,IO2*%
%TO.N,RAM~{EN}*%
X53340000Y49530000D03*
%TO.P,U6,19,IO1*%
%TO.N,ROM~{EN}*%
X50800000Y49530000D03*
%TO.P,U6,20,VCC*%
%TO.N,+5V*%
X48260000Y49530000D03*
%TD*%
D29*
%TO.P,BAR1,1,A*%
%TO.N,Net-(U13-Q0)*%
X77470000Y12700000D03*
D30*
%TO.P,BAR1,2,A*%
%TO.N,Net-(U13-Q1)*%
X80010000Y12700000D03*
%TO.P,BAR1,3,A*%
%TO.N,Net-(U13-Q2)*%
X82550000Y12700000D03*
%TO.P,BAR1,4,A*%
%TO.N,Net-(U13-Q3)*%
X85090000Y12700000D03*
%TO.P,BAR1,5,A*%
%TO.N,Net-(U13-Q4)*%
X87630000Y12700000D03*
%TO.P,BAR1,6,A*%
%TO.N,Net-(U13-Q5)*%
X90170000Y12700000D03*
%TO.P,BAR1,7,A*%
%TO.N,Net-(U13-Q6)*%
X92710000Y12700000D03*
%TO.P,BAR1,8,A*%
%TO.N,Net-(U13-Q7)*%
X95250000Y12700000D03*
%TO.P,BAR1,9,A*%
%TO.N,unconnected-(BAR1-A-Pad9)*%
X97790000Y12700000D03*
%TO.P,BAR1,10,A*%
%TO.N,unconnected-(BAR1-A-Pad10)*%
X100330000Y12700000D03*
%TO.P,BAR1,11,K*%
%TO.N,unconnected-(BAR1-K-Pad11)*%
X100330000Y20320000D03*
%TO.P,BAR1,12,K*%
%TO.N,unconnected-(BAR1-K-Pad12)*%
X97790000Y20320000D03*
%TO.P,BAR1,13,K*%
%TO.N,Net-(RN3-R8)*%
X95250000Y20320000D03*
%TO.P,BAR1,14,K*%
%TO.N,Net-(RN3-R7)*%
X92710000Y20320000D03*
%TO.P,BAR1,15,K*%
%TO.N,Net-(RN3-R6)*%
X90170000Y20320000D03*
%TO.P,BAR1,16,K*%
%TO.N,Net-(RN3-R5)*%
X87630000Y20320000D03*
%TO.P,BAR1,17,K*%
%TO.N,Net-(RN3-R4)*%
X85090000Y20320000D03*
%TO.P,BAR1,18,K*%
%TO.N,Net-(RN3-R3)*%
X82550000Y20320000D03*
%TO.P,BAR1,19,K*%
%TO.N,Net-(RN3-R2)*%
X80010000Y20320000D03*
%TO.P,BAR1,20,K*%
%TO.N,Net-(RN3-R1)*%
X77470000Y20320000D03*
%TD*%
D12*
%TO.P,U5,1,OE*%
%TO.N,GND*%
X83820000Y104140000D03*
D13*
%TO.P,U5,2,D0*%
%TO.N,AS_{16}*%
X83820000Y101600000D03*
%TO.P,U5,3,D1*%
%TO.N,AS_{17}*%
X83820000Y99060000D03*
%TO.P,U5,4,D2*%
%TO.N,AS_{18}*%
X83820000Y96520000D03*
%TO.P,U5,5,D3*%
%TO.N,AS_{19}*%
X83820000Y93980000D03*
%TO.P,U5,6,D4*%
%TO.N,GND*%
X83820000Y91440000D03*
%TO.P,U5,7,D5*%
X83820000Y88900000D03*
%TO.P,U5,8,D6*%
X83820000Y86360000D03*
%TO.P,U5,9,D7*%
X83820000Y83820000D03*
%TO.P,U5,10,GND*%
X83820000Y81280000D03*
%TO.P,U5,11,Load*%
%TO.N,ALE*%
X91440000Y81280000D03*
%TO.P,U5,12,Q7*%
%TO.N,unconnected-(U5-Q7-Pad12)*%
X91440000Y83820000D03*
%TO.P,U5,13,Q6*%
%TO.N,unconnected-(U5-Q6-Pad13)*%
X91440000Y86360000D03*
%TO.P,U5,14,Q5*%
%TO.N,unconnected-(U5-Q5-Pad14)*%
X91440000Y88900000D03*
%TO.P,U5,15,Q4*%
%TO.N,unconnected-(U5-Q4-Pad15)*%
X91440000Y91440000D03*
%TO.P,U5,16,Q3*%
%TO.N,A_{19}*%
X91440000Y93980000D03*
%TO.P,U5,17,Q2*%
%TO.N,A_{18}*%
X91440000Y96520000D03*
%TO.P,U5,18,Q1*%
%TO.N,A_{17}*%
X91440000Y99060000D03*
%TO.P,U5,19,Q0*%
%TO.N,A_{16}*%
X91440000Y101600000D03*
%TO.P,U5,20,VCC*%
%TO.N,+5V*%
X91440000Y104140000D03*
%TD*%
D26*
%TO.P,SW1,1,1*%
%TO.N,Net-(U7-~{RST})*%
X129540000Y48895000D03*
X123040000Y48895000D03*
%TO.P,SW1,2,2*%
%TO.N,GND*%
X129540000Y53395000D03*
X123040000Y53395000D03*
%TD*%
D31*
%TO.P,U10,1,IN*%
%TO.N,Net-(U10-IN)*%
X123190000Y86360000D03*
D32*
%TO.P,U10,2,GND*%
%TO.N,GND*%
X125730000Y86360000D03*
%TO.P,U10,3,OUT*%
%TO.N,+5V*%
X128270000Y86360000D03*
%TD*%
D33*
%TO.N,Net-(U13-~{Mr})*%
X84334900Y46190500D03*
%TO.N,OUT~{EN}*%
X60132000Y43378500D03*
%TO.N,Net-(U13-Q7)*%
X74262800Y18668000D03*
%TO.N,Net-(U13-Q6)*%
X92524800Y36423400D03*
%TO.N,INT*%
X57567300Y67819300D03*
X39926400Y67819300D03*
%TO.N,IO~{EN}*%
X72172900Y51757600D03*
%TO.N,Net-(LCD1-D_{5})*%
X62663500Y103884600D03*
%TO.N,Net-(RN1D-R4.2)*%
X47601900Y54785400D03*
%TO.N,A_{19}*%
X58363500Y52848200D03*
X76780200Y54402500D03*
%TO.N,IO{slash}~{M}*%
X57500700Y69483400D03*
%TO.N,A_{17}*%
X77851900Y54587200D03*
X54760000Y48186500D03*
%TO.N,RAM~{EN}*%
X74355100Y65849400D03*
%TO.N,A_{16}*%
X78190200Y71803700D03*
X62151700Y64335500D03*
X62229600Y45905700D03*
%TO.N,A_{18}*%
X75813100Y44358000D03*
%TO.N,A_{8}*%
X85681500Y72534700D03*
%TO.N,A_{9}*%
X48760400Y43793000D03*
%TO.N,A_{11}*%
X77784100Y68057600D03*
%TO.N,~{RD}*%
X64714100Y74260200D03*
%TO.N,ROM~{EN}*%
X45253900Y46920500D03*
%TO.N,AD_{4}*%
X73225800Y61447900D03*
X95250000Y42456100D03*
%TO.N,A_{12}*%
X78578300Y66653500D03*
%TO.N,A_{0}*%
X80953600Y74427200D03*
X66280200Y87974600D03*
X75634700Y74639300D03*
%TO.N,A_{1}*%
X68847700Y75690800D03*
X79240900Y51560000D03*
%TO.N,A_{2}*%
X98611900Y56789800D03*
X99241400Y29044800D03*
%TO.N,A_{3}*%
X74190700Y57455900D03*
%TO.N,A_{4}*%
X79790300Y63427200D03*
%TO.N,A_{5}*%
X90236000Y53062300D03*
X72435400Y50560800D03*
%TO.N,A_{6}*%
X81600300Y66537300D03*
X74658900Y30481500D03*
%TO.N,A_{7}*%
X82354300Y80102400D03*
%TO.N,AD_{3}*%
X94059400Y43005600D03*
%TO.N,AD_{2}*%
X98251100Y45390100D03*
X91780800Y45390100D03*
%TO.N,AD_{1}*%
X97435200Y44602700D03*
X90792700Y44429300D03*
%TO.N,AD_{0}*%
X56500100Y79107900D03*
X104551100Y58416800D03*
%TO.N,Net-(RN1B-R2.2)*%
X64780700Y50339700D03*
%TD*%
D34*
%TO.N,Net-(U13-~{Mr})*%
X77470000Y30480000D02*
X77470000Y31656900D01*
X83820000Y45675600D02*
X84334900Y46190500D01*
X83820000Y37660300D02*
X83820000Y45675600D01*
X77816600Y31656900D02*
X83820000Y37660300D01*
X77470000Y31656900D02*
X77816600Y31656900D01*
%TO.N,OUT~{EN}*%
X55880000Y49530000D02*
X55880000Y48353100D01*
X60132000Y43820100D02*
X60132000Y43378500D01*
X55880000Y48072100D02*
X60132000Y43820100D01*
X55880000Y48353100D02*
X55880000Y48072100D01*
%TO.N,IN~{EN}*%
X106680000Y34383100D02*
X106680000Y30480000D01*
X109220000Y36923100D02*
X106680000Y34383100D01*
X109220000Y38100000D02*
X109220000Y36923100D01*
%TO.N,Net-(RN4-R8)*%
X127000000Y24036900D02*
X127000000Y25400000D01*
X124460000Y21496900D02*
X127000000Y24036900D01*
X124460000Y20320000D02*
X124460000Y21496900D01*
X129540000Y38100000D02*
X129540000Y36923100D01*
X127000000Y25400000D02*
X127000000Y26576900D01*
X129540000Y36213300D02*
X129540000Y36923100D01*
X128363100Y35036400D02*
X129540000Y36213300D01*
X128363100Y27940000D02*
X128363100Y35036400D01*
X127000000Y26576900D02*
X128363100Y27940000D01*
%TO.N,Net-(RN4-R7)*%
X121920000Y20320000D02*
X121920000Y21496900D01*
X124460000Y24036900D02*
X124460000Y25400000D01*
X121920000Y21496900D02*
X124460000Y24036900D01*
X125650600Y35732500D02*
X124460000Y36923100D01*
X125650600Y27767500D02*
X125650600Y35732500D01*
X124460000Y26576900D02*
X125650600Y27767500D01*
X124460000Y25400000D02*
X124460000Y26576900D01*
X124460000Y38100000D02*
X124460000Y36923100D01*
%TO.N,Net-(RN4-R6)*%
X119380000Y20320000D02*
X119380000Y21496900D01*
X119380000Y38100000D02*
X119380000Y36923100D01*
X121920000Y24036900D02*
X121920000Y25400000D01*
X119380000Y21496900D02*
X121920000Y24036900D01*
X120743100Y35560000D02*
X119380000Y36923100D01*
X120743100Y27753800D02*
X120743100Y35560000D01*
X121920000Y26576900D02*
X120743100Y27753800D01*
X121920000Y25400000D02*
X121920000Y26576900D01*
%TO.N,Net-(RN4-R5)*%
X115663100Y35560000D02*
X114300000Y36923100D01*
X115663100Y22673800D02*
X115663100Y35560000D01*
X116840000Y21496900D02*
X115663100Y22673800D01*
X116840000Y20320000D02*
X116840000Y21496900D01*
X114300000Y38100000D02*
X114300000Y36923100D01*
%TO.N,Net-(RN4-R3)*%
X111760000Y20320000D02*
X112473500Y20320000D01*
X114300000Y25400000D02*
X114300000Y24223100D01*
X112473500Y22396600D02*
X112473500Y20320000D01*
X114300000Y24223100D02*
X112473500Y22396600D01*
X118110000Y28033100D02*
X119380000Y29303100D01*
X118110000Y19902700D02*
X118110000Y28033100D01*
X117315800Y19108500D02*
X118110000Y19902700D01*
X113685000Y19108500D02*
X117315800Y19108500D01*
X112473500Y20320000D02*
X113685000Y19108500D01*
X119380000Y30480000D02*
X119380000Y29303100D01*
%TO.N,Net-(RN4-R2)*%
X111760000Y26763100D02*
X111760000Y25400000D01*
X114300000Y29303100D02*
X111760000Y26763100D01*
X114300000Y30480000D02*
X114300000Y29303100D01*
X111760000Y24036900D02*
X111760000Y25400000D01*
X109220000Y21496900D02*
X111760000Y24036900D01*
X109220000Y20320000D02*
X109220000Y21496900D01*
%TO.N,Net-(RN4-R1)*%
X109220000Y30480000D02*
X109220000Y25400000D01*
%TO.N,Net-(RN3-R1)*%
X77470000Y21683100D02*
X80010000Y24223100D01*
X77470000Y20320000D02*
X77470000Y21683100D01*
X80010000Y25400000D02*
X80010000Y24223100D01*
%TO.N,Net-(RN3-R2)*%
X82550000Y22860000D02*
X82550000Y25400000D01*
X80010000Y20320000D02*
X82550000Y22860000D01*
%TO.N,Net-(RN3-R3)*%
X85090000Y22860000D02*
X85090000Y25400000D01*
X82550000Y20320000D02*
X85090000Y22860000D01*
%TO.N,Net-(RN3-R4)*%
X87630000Y22860000D02*
X87630000Y25400000D01*
X85090000Y20320000D02*
X87630000Y22860000D01*
%TO.N,Net-(RN3-R5)*%
X90170000Y22860000D02*
X90170000Y25400000D01*
X87630000Y20320000D02*
X90170000Y22860000D01*
%TO.N,Net-(RN3-R6)*%
X92710000Y22860000D02*
X92710000Y25400000D01*
X90170000Y20320000D02*
X92710000Y22860000D01*
%TO.N,Net-(RN3-R8)*%
X95250000Y21683100D02*
X97790000Y24223100D01*
X95250000Y20320000D02*
X95250000Y21683100D01*
X97790000Y25400000D02*
X97790000Y24223100D01*
%TO.N,Net-(U13-Q7)*%
X80010000Y38100000D02*
X80010000Y36923100D01*
X73882000Y19048800D02*
X74262800Y18668000D01*
X73882000Y30803200D02*
X73882000Y19048800D01*
X80001900Y36923100D02*
X73882000Y30803200D01*
X80010000Y36923100D02*
X80001900Y36923100D01*
%TO.N,Net-(U13-Q6)*%
X92524800Y32893300D02*
X92524800Y36423400D01*
X94073100Y31345000D02*
X92524800Y32893300D01*
X94073100Y29990900D02*
X94073100Y31345000D01*
X96467500Y27596500D02*
X94073100Y29990900D01*
X98065100Y27596500D02*
X96467500Y27596500D01*
X102237700Y23423900D02*
X98065100Y27596500D01*
X102237700Y19503500D02*
X102237700Y23423900D01*
X97585300Y14851100D02*
X102237700Y19503500D01*
X94861100Y14851100D02*
X97585300Y14851100D01*
X92710000Y12700000D02*
X94861100Y14851100D01*
%TO.N,Net-(U13-Q5)*%
X90170000Y32517600D02*
X90170000Y38100000D01*
X91440000Y31247600D02*
X90170000Y32517600D01*
X91440000Y30083200D02*
X91440000Y31247600D01*
X94883000Y26640200D02*
X91440000Y30083200D01*
X98276900Y26640200D02*
X94883000Y26640200D01*
X101729400Y23187700D02*
X98276900Y26640200D01*
X101729400Y19728300D02*
X101729400Y23187700D01*
X99917800Y17916700D02*
X101729400Y19728300D01*
X95386700Y17916700D02*
X99917800Y17916700D01*
X90170000Y12700000D02*
X95386700Y17916700D01*
%TO.N,INT*%
X38100000Y96520000D02*
X38100000Y95343100D01*
X36909400Y70836300D02*
X39926400Y67819300D01*
X36909400Y94152500D02*
X36909400Y70836300D01*
X38100000Y95343100D02*
X36909400Y94152500D01*
X66040000Y61546200D02*
X66040000Y59690000D01*
X59766900Y67819300D02*
X66040000Y61546200D01*
X57567300Y67819300D02*
X59766900Y67819300D01*
%TO.N,IO~{EN}*%
X72296900Y51881600D02*
X72172900Y51757600D01*
X72296900Y66786500D02*
X72296900Y51881600D01*
X67310000Y71773400D02*
X72296900Y66786500D01*
X67310000Y72897100D02*
X67310000Y71773400D01*
X65590400Y74616700D02*
X67310000Y72897100D01*
X65475600Y74616700D02*
X65590400Y74616700D01*
X62837800Y77254500D02*
X65475600Y74616700D01*
X60750000Y77254500D02*
X62837800Y77254500D01*
X57240600Y80763900D02*
X60750000Y77254500D01*
X57240600Y94163700D02*
X57240600Y80763900D01*
X58420000Y95343100D02*
X57240600Y94163700D01*
X58420000Y96520000D02*
X58420000Y95343100D01*
%TO.N,Net-(LCD1-D_{7})*%
X63500000Y90352300D02*
X63500000Y81280000D01*
X62230000Y91622300D02*
X63500000Y90352300D01*
X62230000Y103219500D02*
X62230000Y91622300D01*
X60960000Y104489500D02*
X62230000Y103219500D01*
X60960000Y105410000D02*
X60960000Y104489500D01*
%TO.N,Net-(LCD1-D_{6})*%
X66040000Y81280000D02*
X66040000Y82456900D01*
X65477300Y83019600D02*
X66040000Y82456900D01*
X65477300Y89339500D02*
X65477300Y83019600D01*
X67310000Y91172200D02*
X65477300Y89339500D01*
X67310000Y103638400D02*
X67310000Y91172200D01*
X67462900Y103791300D02*
X67310000Y103638400D01*
X67462900Y105992100D02*
X67462900Y103791300D01*
X66645000Y106810000D02*
X67462900Y105992100D01*
X59820000Y106810000D02*
X66645000Y106810000D01*
X58420000Y105410000D02*
X59820000Y106810000D01*
%TO.N,Net-(LCD1-D_{5})*%
X64770000Y101778100D02*
X62663500Y103884600D01*
X64770000Y80784900D02*
X64770000Y101778100D01*
X65472700Y80082200D02*
X64770000Y80784900D01*
X66573100Y80082200D02*
X65472700Y80082200D01*
X67403100Y80912200D02*
X66573100Y80082200D01*
X67403100Y81280000D02*
X67403100Y80912200D01*
X68580000Y81280000D02*
X67403100Y81280000D01*
%TO.N,Net-(LCD1-D_{4})*%
X71120000Y81280000D02*
X71120000Y82456900D01*
X55266400Y107336400D02*
X53340000Y105410000D01*
X66888200Y107336400D02*
X55266400Y107336400D01*
X69797800Y104426800D02*
X66888200Y107336400D01*
X69797800Y83779100D02*
X69797800Y104426800D01*
X71120000Y82456900D02*
X69797800Y83779100D01*
%TO.N,Net-(LCD1-E)*%
X45720000Y100330000D02*
X40640000Y105410000D01*
X45720000Y96520000D02*
X45720000Y100330000D01*
%TO.N,Net-(LCD1-R~{W})*%
X43180000Y100330000D02*
X38100000Y105410000D01*
X43180000Y96520000D02*
X43180000Y100330000D01*
%TO.N,Net-(U13-Q4)*%
X97790000Y38100000D02*
X97790000Y36923100D01*
X96599400Y35732500D02*
X97790000Y36923100D01*
X96599400Y29715100D02*
X96599400Y35732500D01*
X98062700Y28251800D02*
X96599400Y29715100D01*
X98165700Y28251800D02*
X98062700Y28251800D01*
X102741100Y23676400D02*
X98165700Y28251800D01*
X102741100Y13139900D02*
X102741100Y23676400D01*
X100886700Y11285500D02*
X102741100Y13139900D01*
X89044500Y11285500D02*
X100886700Y11285500D01*
X87630000Y12700000D02*
X89044500Y11285500D01*
%TO.N,Net-(U13-Q3)*%
X97790000Y30480000D02*
X97790000Y29303100D01*
X97876500Y29303100D02*
X97790000Y29303100D01*
X103243000Y23936600D02*
X97876500Y29303100D01*
X103243000Y12928500D02*
X103243000Y23936600D01*
X101074900Y10760400D02*
X103243000Y12928500D01*
X87029600Y10760400D02*
X101074900Y10760400D01*
X85090000Y12700000D02*
X87029600Y10760400D01*
%TO.N,Net-(U13-Q2)*%
X90170000Y30480000D02*
X88993100Y30480000D01*
X88993100Y30114200D02*
X88993100Y30480000D01*
X86818900Y27940000D02*
X88993100Y30114200D01*
X80862100Y27940000D02*
X86818900Y27940000D01*
X78728900Y25806800D02*
X80862100Y27940000D01*
X78728900Y24525900D02*
X78728900Y25806800D01*
X76073300Y21870300D02*
X78728900Y24525900D01*
X76073300Y19375800D02*
X76073300Y21870300D01*
X82550000Y12899100D02*
X76073300Y19375800D01*
X82550000Y12700000D02*
X82550000Y12899100D01*
%TO.N,ALE*%
X91440000Y49530000D02*
X91440000Y50706900D01*
X91440000Y81280000D02*
X91440000Y80103100D01*
X91074200Y50706900D02*
X91440000Y50706900D01*
X89459100Y52322000D02*
X91074200Y50706900D01*
X89459100Y78122200D02*
X89459100Y52322000D01*
X91440000Y80103100D02*
X89459100Y78122200D01*
%TO.N,Net-(RN1D-R4.2)*%
X40640000Y72390000D02*
X40640000Y71213100D01*
X46138800Y54785400D02*
X47601900Y54785400D01*
X44383500Y56540700D02*
X46138800Y54785400D01*
X44383500Y58325400D02*
X44383500Y56540700D01*
X41224800Y61484100D02*
X44383500Y58325400D01*
X41224800Y70628300D02*
X41224800Y61484100D01*
X40640000Y71213100D02*
X41224800Y70628300D01*
%TO.N,Net-(U11-OUT)*%
X48260000Y41910000D02*
X48260000Y43086900D01*
X46032400Y45314500D02*
X48260000Y43086900D01*
X46032400Y47240700D02*
X46032400Y45314500D01*
X43743100Y49530000D02*
X46032400Y47240700D01*
X41910000Y49530000D02*
X43743100Y49530000D01*
D35*
%TO.N,Net-(U7-~{RST})*%
X131290000Y50645000D02*
X129540000Y48895000D01*
X131290000Y54130000D02*
X131290000Y50645000D01*
X123190000Y62230000D02*
X131290000Y54130000D01*
D34*
%TO.N,Net-(U13-Q1)*%
X87630000Y30480000D02*
X86453100Y30480000D01*
X86453100Y30114200D02*
X86453100Y30480000D01*
X84783500Y28444600D02*
X86453100Y30114200D01*
X78380500Y28444600D02*
X84783500Y28444600D01*
X75571400Y25635500D02*
X78380500Y28444600D01*
X75571400Y19167900D02*
X75571400Y25635500D01*
X80010000Y14729300D02*
X75571400Y19167900D01*
X80010000Y12700000D02*
X80010000Y14729300D01*
%TO.N,Net-(U13-Q0)*%
X75069500Y16493400D02*
X77470000Y14092900D01*
X75069500Y25915800D02*
X75069500Y16493400D01*
X78833100Y29679400D02*
X75069500Y25915800D01*
X78833100Y30480000D02*
X78833100Y29679400D01*
X80010000Y30480000D02*
X78833100Y30480000D01*
X77470000Y12700000D02*
X77470000Y14092900D01*
%TO.N,Net-(LCD1-RS)*%
X35560000Y102776900D02*
X35560000Y105410000D01*
X40640000Y97696900D02*
X35560000Y102776900D01*
X40640000Y96520000D02*
X40640000Y97696900D01*
%TO.N,A_{19}*%
X91440000Y93980000D02*
X90263100Y93980000D01*
X60960000Y41910000D02*
X60960000Y43086900D01*
X76780200Y69295000D02*
X76780200Y54402500D01*
X78967100Y71481900D02*
X76780200Y69295000D01*
X78967100Y83190700D02*
X78967100Y71481900D01*
X83406400Y87630000D02*
X78967100Y83190700D01*
X84278900Y87630000D02*
X83406400Y87630000D01*
X90263100Y93614200D02*
X84278900Y87630000D01*
X90263100Y93980000D02*
X90263100Y93614200D01*
X57243100Y51727800D02*
X58363500Y52848200D01*
X57243100Y47580500D02*
X57243100Y51727800D01*
X60960000Y43863600D02*
X57243100Y47580500D01*
X60960000Y43086900D02*
X60960000Y43863600D01*
%TO.N,~{WR}*%
X64268100Y43681900D02*
X66040000Y41910000D01*
X63314500Y43681900D02*
X64268100Y43681900D01*
X59690000Y47306400D02*
X63314500Y43681900D01*
X59690000Y52641900D02*
X59690000Y47306400D01*
X57687400Y54644500D02*
X59690000Y52641900D01*
X56710600Y54644500D02*
X57687400Y54644500D01*
X54610000Y56745100D02*
X56710600Y54644500D01*
X54610000Y57980500D02*
X54610000Y56745100D01*
X50800000Y61790500D02*
X54610000Y57980500D01*
X50800000Y72390000D02*
X50800000Y61790500D01*
%TO.N,IO{slash}~{M}*%
X58880300Y69483400D02*
X57500700Y69483400D01*
X67403100Y60960600D02*
X58880300Y69483400D01*
X67403100Y44263800D02*
X67403100Y60960600D01*
X68580000Y43086900D02*
X67403100Y44263800D01*
X68580000Y41910000D02*
X68580000Y43086900D01*
%TO.N,RES*%
X119380000Y69363400D02*
X119380000Y73660000D01*
X116056600Y66040000D02*
X119380000Y69363400D01*
X115171100Y66040000D02*
X116056600Y66040000D01*
X107950000Y58818900D02*
X115171100Y66040000D01*
X107950000Y57136900D02*
X107950000Y58818900D01*
X107950000Y55960000D02*
X107950000Y57136900D01*
X71120000Y72390000D02*
X69943100Y72390000D01*
X58420000Y81280000D02*
X59596900Y81280000D01*
X105410000Y54229100D02*
X105410000Y55960000D01*
X100697800Y49516900D02*
X105410000Y54229100D01*
X100330000Y49516900D02*
X100697800Y49516900D01*
X100330000Y48340000D02*
X100330000Y49516900D01*
X59596900Y80977100D02*
X59596900Y81280000D01*
X60954400Y79619600D02*
X59596900Y80977100D01*
X61192200Y79619600D02*
X60954400Y79619600D01*
X65575000Y75236800D02*
X61192200Y79619600D01*
X67399700Y75236800D02*
X65575000Y75236800D01*
X69943100Y72693400D02*
X67399700Y75236800D01*
X69943100Y72390000D02*
X69943100Y72693400D01*
%TO.N,A_{17}*%
X55880000Y47066500D02*
X55880000Y41910000D01*
X54760000Y48186500D02*
X55880000Y47066500D01*
X77851900Y54327000D02*
X77851900Y54587200D01*
X77131800Y53606900D02*
X77851900Y54327000D01*
X76477200Y53606900D02*
X77131800Y53606900D01*
X76003300Y54080800D02*
X76477200Y53606900D01*
X76003300Y72489600D02*
X76003300Y54080800D01*
X77415400Y73901700D02*
X76003300Y72489600D01*
X77415400Y99868400D02*
X77415400Y73901700D01*
X82908400Y105361400D02*
X77415400Y99868400D01*
X85328900Y105361400D02*
X82908400Y105361400D01*
X87753800Y102936500D02*
X85328900Y105361400D01*
X91779200Y102936500D02*
X87753800Y102936500D01*
X92650600Y102065100D02*
X91779200Y102936500D01*
X92650600Y100270600D02*
X92650600Y102065100D01*
X91440000Y99060000D02*
X92650600Y100270600D01*
%TO.N,RAM~{EN}*%
X115570000Y74930000D02*
X115570000Y76106900D01*
X115935800Y76106900D02*
X115570000Y76106900D01*
X117349200Y77520300D02*
X115935800Y76106900D01*
X117349200Y92612900D02*
X117349200Y77520300D01*
X115982100Y93980000D02*
X117349200Y92612900D01*
X115109000Y93980000D02*
X115982100Y93980000D01*
X102702900Y106386100D02*
X115109000Y93980000D01*
X82439900Y106386100D02*
X102702900Y106386100D01*
X76411600Y100357800D02*
X82439900Y106386100D01*
X76411600Y74317500D02*
X76411600Y100357800D01*
X74355100Y72261000D02*
X76411600Y74317500D01*
X74355100Y65849400D02*
X74355100Y72261000D01*
%TO.N,A_{16}*%
X78190200Y85010400D02*
X78190200Y71803700D01*
X83349800Y90170000D02*
X78190200Y85010400D01*
X84231500Y90170000D02*
X83349800Y90170000D01*
X90263100Y96201600D02*
X84231500Y90170000D01*
X90263100Y99614100D02*
X90263100Y96201600D01*
X91072100Y100423100D02*
X90263100Y99614100D01*
X91440000Y100423100D02*
X91072100Y100423100D01*
X91440000Y101600000D02*
X91440000Y100423100D01*
X62229600Y64257600D02*
X62229600Y45905700D01*
X62151700Y64335500D02*
X62229600Y64257600D01*
%TO.N,A_{18}*%
X91440000Y96520000D02*
X92616900Y96520000D01*
X95756800Y99659900D02*
X95756800Y100330000D01*
X92616900Y96520000D02*
X95756800Y99659900D01*
X95756800Y100330000D02*
X100330000Y100330000D01*
X76918000Y43253100D02*
X75813100Y44358000D01*
X78019000Y43253100D02*
X76918000Y43253100D01*
X78683700Y43917800D02*
X78019000Y43253100D01*
X78683700Y50053200D02*
X78683700Y43917800D01*
X77956900Y50780000D02*
X78683700Y50053200D01*
X77071800Y50780000D02*
X77956900Y50780000D01*
X75501400Y52350400D02*
X77071800Y50780000D01*
X75501400Y72697500D02*
X75501400Y52350400D01*
X76913500Y74109600D02*
X75501400Y72697500D01*
X76913500Y100076300D02*
X76913500Y74109600D01*
X82714100Y105876900D02*
X76913500Y100076300D01*
X91400600Y105876900D02*
X82714100Y105876900D01*
X95756800Y101520700D02*
X91400600Y105876900D01*
X95756800Y100330000D02*
X95756800Y101520700D01*
%TO.N,A_{14}*%
X35264600Y34116900D02*
X35960000Y34116900D01*
X27939900Y41441600D02*
X35264600Y34116900D01*
X27939900Y44927900D02*
X27939900Y41441600D01*
X25400000Y47467800D02*
X27939900Y44927900D01*
X25400000Y57150000D02*
X25400000Y47467800D01*
X35960000Y33020000D02*
X35960000Y34116900D01*
%TO.N,A_{13}*%
X35560000Y37056900D02*
X38500000Y34116900D01*
X35560000Y51574200D02*
X35560000Y37056900D01*
X31750000Y55384200D02*
X35560000Y51574200D01*
X31750000Y57554600D02*
X31750000Y55384200D01*
X30958500Y58346100D02*
X31750000Y57554600D01*
X29945200Y58346100D02*
X30958500Y58346100D01*
X29116900Y57517800D02*
X29945200Y58346100D01*
X29116900Y57150000D02*
X29116900Y57517800D01*
X27940000Y57150000D02*
X29116900Y57150000D01*
X38500000Y33020000D02*
X38500000Y34116900D01*
%TO.N,A_{8}*%
X50800000Y41910000D02*
X50800000Y43086900D01*
X42971700Y53641400D02*
X40640000Y55973100D01*
X42971700Y53060000D02*
X42971700Y53641400D01*
X50800000Y45231700D02*
X42971700Y53060000D01*
X50800000Y43086900D02*
X50800000Y45231700D01*
X40640000Y57150000D02*
X40640000Y55973100D01*
X85681500Y77240200D02*
X85681500Y72534700D01*
X90991300Y82550000D02*
X85681500Y77240200D01*
X91910600Y82550000D02*
X90991300Y82550000D01*
X92648000Y83287400D02*
X91910600Y82550000D01*
X92648000Y84179500D02*
X92648000Y83287400D01*
X99820800Y91352300D02*
X92648000Y84179500D01*
X103177700Y91352300D02*
X99820800Y91352300D01*
X106900000Y87630000D02*
X103177700Y91352300D01*
X115570000Y87630000D02*
X106900000Y87630000D01*
%TO.N,A_{9}*%
X48760400Y45312700D02*
X48760400Y43793000D01*
X38100000Y55973100D02*
X48760400Y45312700D01*
X38100000Y57150000D02*
X38100000Y55973100D01*
%TO.N,A_{11}*%
X38100000Y50893100D02*
X33020000Y55973100D01*
X38100000Y45824600D02*
X38100000Y50893100D01*
X40546900Y43377700D02*
X38100000Y45824600D01*
X40546900Y39690000D02*
X40546900Y43377700D01*
X46120000Y34116900D02*
X40546900Y39690000D01*
X46120000Y33020000D02*
X46120000Y34116900D01*
X33020000Y57150000D02*
X33020000Y55973100D01*
X115570000Y82550000D02*
X115570000Y83726900D01*
X79674800Y69948300D02*
X77784100Y68057600D01*
X79674800Y81390400D02*
X79674800Y69948300D01*
X83374400Y85090000D02*
X79674800Y81390400D01*
X84285300Y85090000D02*
X83374400Y85090000D01*
X89458400Y90263100D02*
X84285300Y85090000D01*
X93675000Y90263100D02*
X89458400Y90263100D01*
X99877000Y96465100D02*
X93675000Y90263100D01*
X102860800Y96465100D02*
X99877000Y96465100D01*
X110425900Y88900000D02*
X102860800Y96465100D01*
X116042800Y88900000D02*
X110425900Y88900000D01*
X116784900Y88157900D02*
X116042800Y88900000D01*
X116784900Y84574000D02*
X116784900Y88157900D01*
X115937800Y83726900D02*
X116784900Y84574000D01*
X115570000Y83726900D02*
X115937800Y83726900D01*
%TO.N,~{RD}*%
X63500000Y41910000D02*
X64676900Y41910000D01*
X52124900Y96979800D02*
X52124900Y82459100D01*
X53396100Y98251000D02*
X52124900Y96979800D01*
X59229000Y98251000D02*
X53396100Y98251000D01*
X60960000Y96520000D02*
X59229000Y98251000D01*
X62914100Y74260200D02*
X64714100Y74260200D01*
X57280000Y79894300D02*
X62914100Y74260200D01*
X55595200Y79894300D02*
X57280000Y79894300D01*
X54612500Y80877000D02*
X55595200Y79894300D01*
X54612500Y81767000D02*
X54612500Y80877000D01*
X53920400Y82459100D02*
X54612500Y81767000D01*
X52124900Y82459100D02*
X53920400Y82459100D01*
X64676900Y41542200D02*
X64676900Y41910000D01*
X65532100Y40687000D02*
X64676900Y41542200D01*
X69045300Y40687000D02*
X65532100Y40687000D01*
X69770500Y41412200D02*
X69045300Y40687000D01*
X69770500Y63523100D02*
X69770500Y41412200D01*
X64714100Y68579500D02*
X69770500Y63523100D01*
X64714100Y74260200D02*
X64714100Y68579500D01*
X43180000Y75472600D02*
X43180000Y72390000D01*
X41989400Y76663200D02*
X43180000Y75472600D01*
X41989400Y81788500D02*
X41989400Y76663200D01*
X42660000Y82459100D02*
X41989400Y81788500D01*
X52124900Y82459100D02*
X42660000Y82459100D01*
%TO.N,A_{10}*%
X43624600Y41692300D02*
X51200000Y34116900D01*
X43624600Y43524600D02*
X43624600Y41692300D01*
X40640000Y46509200D02*
X43624600Y43524600D01*
X40640000Y50893100D02*
X40640000Y46509200D01*
X35560000Y55973100D02*
X40640000Y50893100D01*
X35560000Y57150000D02*
X35560000Y55973100D01*
X51200000Y33020000D02*
X51200000Y34116900D01*
%TO.N,ROM~{EN}*%
X53740000Y33020000D02*
X53740000Y34116900D01*
X45253900Y42603000D02*
X45253900Y46920500D01*
X53740000Y34116900D02*
X45253900Y42603000D01*
%TO.N,AD_{4}*%
X83820000Y62230000D02*
X83820000Y61053100D01*
X95250000Y38100000D02*
X95250000Y39276900D01*
X95250000Y39276900D02*
X95250000Y42456100D01*
X46896900Y62230000D02*
X50800000Y58326900D01*
X46896900Y78926200D02*
X46896900Y62230000D01*
X45720000Y80103100D02*
X46896900Y78926200D01*
X45720000Y81280000D02*
X45720000Y80103100D01*
X50800000Y57150000D02*
X50800000Y58326900D01*
X84187800Y61053100D02*
X83820000Y61053100D01*
X86400300Y58840600D02*
X84187800Y61053100D01*
X86400300Y54175500D02*
X86400300Y58840600D01*
X89413300Y51162500D02*
X86400300Y54175500D01*
X89413300Y49856800D02*
X89413300Y51162500D01*
X95250000Y44020100D02*
X89413300Y49856800D01*
X95250000Y42456100D02*
X95250000Y44020100D01*
X67715200Y36835200D02*
X63900000Y33020000D01*
X68501900Y36835200D02*
X67715200Y36835200D01*
X73225800Y41559100D02*
X68501900Y36835200D01*
X73225800Y61447900D02*
X73225800Y41559100D01*
%TO.N,A_{12}*%
X37071200Y19988100D02*
X35960000Y18876900D01*
X37071200Y34398300D02*
X37071200Y19988100D01*
X30480000Y40989500D02*
X37071200Y34398300D01*
X30480000Y57150000D02*
X30480000Y40989500D01*
X35960000Y17780000D02*
X35960000Y18876900D01*
X100330000Y92710000D02*
X99153100Y92710000D01*
X78578300Y66744800D02*
X78578300Y66653500D01*
X80176700Y68343200D02*
X78578300Y66744800D01*
X80176700Y79352200D02*
X80176700Y68343200D01*
X83374500Y82550000D02*
X80176700Y79352200D01*
X85956400Y82550000D02*
X83374500Y82550000D01*
X91036400Y87630000D02*
X85956400Y82550000D01*
X94073100Y87630000D02*
X91036400Y87630000D01*
X99153100Y92710000D02*
X94073100Y87630000D01*
%TO.N,A_{15}*%
X33420000Y17780000D02*
X33420000Y18876900D01*
X25400000Y72390000D02*
X25400000Y71213100D01*
X24178400Y28118500D02*
X33420000Y18876900D01*
X24178400Y58736000D02*
X24178400Y28118500D01*
X26594000Y61151600D02*
X24178400Y58736000D01*
X26594000Y70019100D02*
X26594000Y61151600D01*
X25400000Y71213100D02*
X26594000Y70019100D01*
%TO.N,A_{0}*%
X91440000Y52070000D02*
X91440000Y53246900D01*
X100330000Y72390000D02*
X100330000Y71213100D01*
X56280000Y17780000D02*
X56280000Y18876900D01*
X76985800Y39582700D02*
X56280000Y18876900D01*
X78715300Y39582700D02*
X76985800Y39582700D01*
X80088700Y40956100D02*
X78715300Y39582700D01*
X80088700Y41665900D02*
X80088700Y40956100D01*
X80589100Y42166300D02*
X80088700Y41665900D01*
X80589100Y65028900D02*
X80589100Y42166300D01*
X80320000Y65298000D02*
X80589100Y65028900D01*
X80320000Y67776700D02*
X80320000Y65298000D01*
X80953600Y68410300D02*
X80320000Y67776700D01*
X80953600Y74427200D02*
X80953600Y68410300D01*
X91805800Y53246900D02*
X91440000Y53246900D01*
X97512400Y58953500D02*
X91805800Y53246900D01*
X97512400Y68703200D02*
X97512400Y58953500D01*
X100022300Y71213100D02*
X97512400Y68703200D01*
X100330000Y71213100D02*
X100022300Y71213100D01*
X66280200Y86165900D02*
X66280200Y87974600D01*
X69850000Y82596100D02*
X66280200Y86165900D01*
X69850000Y80424000D02*
X69850000Y82596100D01*
X75634700Y74639300D02*
X69850000Y80424000D01*
%TO.N,A_{1}*%
X100330000Y74930000D02*
X100330000Y73753100D01*
X91440000Y54610000D02*
X91440000Y55786900D01*
X64968500Y79570000D02*
X68847700Y75690800D01*
X63520200Y79570000D02*
X64968500Y79570000D01*
X62230000Y80860200D02*
X63520200Y79570000D01*
X62230000Y86909900D02*
X62230000Y80860200D01*
X59690000Y89449900D02*
X62230000Y86909900D01*
X59690000Y96997300D02*
X59690000Y89449900D01*
X58965700Y97721600D02*
X59690000Y96997300D01*
X55350700Y97721600D02*
X58965700Y97721600D01*
X54516900Y96887800D02*
X55350700Y97721600D01*
X54516900Y96520000D02*
X54516900Y96887800D01*
X53340000Y96520000D02*
X54516900Y96520000D01*
X53740000Y17780000D02*
X53740000Y18876900D01*
X54735700Y18876900D02*
X53740000Y18876900D01*
X76518400Y40659600D02*
X54735700Y18876900D01*
X78372600Y40659600D02*
X76518400Y40659600D01*
X79084900Y41371900D02*
X78372600Y40659600D01*
X79084900Y42081700D02*
X79084900Y41371900D01*
X79240900Y42237700D02*
X79084900Y42081700D01*
X79240900Y51560000D02*
X79240900Y42237700D01*
X99962200Y73753100D02*
X100330000Y73753100D01*
X96652500Y70443400D02*
X99962200Y73753100D01*
X96652500Y60696800D02*
X96652500Y70443400D01*
X91742600Y55786900D02*
X96652500Y60696800D01*
X91440000Y55786900D02*
X91742600Y55786900D01*
%TO.N,A_{2}*%
X91440000Y57150000D02*
X91440000Y58326900D01*
X100330000Y77470000D02*
X100330000Y76293100D01*
X99153100Y29133100D02*
X99241400Y29044800D01*
X99153100Y56248600D02*
X99153100Y29133100D01*
X98611900Y56789800D02*
X99153100Y56248600D01*
X99964200Y76293100D02*
X100330000Y76293100D01*
X96150600Y72479500D02*
X99964200Y76293100D01*
X96150600Y62679700D02*
X96150600Y72479500D01*
X91797800Y58326900D02*
X96150600Y62679700D01*
X91440000Y58326900D02*
X91797800Y58326900D01*
%TO.N,A_{3}*%
X48660000Y17780000D02*
X49756900Y17780000D01*
X74190700Y41788800D02*
X74190700Y57455900D01*
X68401600Y35999700D02*
X74190700Y41788800D01*
X67799800Y35999700D02*
X68401600Y35999700D01*
X65170000Y33369900D02*
X67799800Y35999700D01*
X65170000Y32697800D02*
X65170000Y33369900D01*
X52381600Y19909400D02*
X65170000Y32697800D01*
X51772700Y19909400D02*
X52381600Y19909400D01*
X49756900Y17893600D02*
X51772700Y19909400D01*
X49756900Y17780000D02*
X49756900Y17893600D01*
X91805800Y60866900D02*
X91440000Y60866900D01*
X95648700Y64709800D02*
X91805800Y60866900D01*
X95648700Y74519600D02*
X95648700Y64709800D01*
X99962200Y78833100D02*
X95648700Y74519600D01*
X100330000Y78833100D02*
X99962200Y78833100D01*
X100330000Y80010000D02*
X100330000Y78833100D01*
X91440000Y59690000D02*
X91440000Y60866900D01*
%TO.N,A_{4}*%
X100330000Y82550000D02*
X100330000Y81373100D01*
X91440000Y62230000D02*
X91440000Y63406900D01*
X46120000Y17780000D02*
X47216900Y17780000D01*
X47216900Y17659600D02*
X47216900Y17780000D01*
X48216800Y16659700D02*
X47216900Y17659600D01*
X54173500Y16659700D02*
X48216800Y16659700D01*
X55059900Y17546100D02*
X54173500Y16659700D01*
X55059900Y18393700D02*
X55059900Y17546100D01*
X76750800Y40084600D02*
X55059900Y18393700D01*
X78507400Y40084600D02*
X76750800Y40084600D01*
X79586800Y41164000D02*
X78507400Y40084600D01*
X79586800Y41873800D02*
X79586800Y41164000D01*
X80017800Y42304800D02*
X79586800Y41873800D01*
X80017800Y63199700D02*
X80017800Y42304800D01*
X79790300Y63427200D02*
X80017800Y63199700D01*
X91795800Y63406900D02*
X91440000Y63406900D01*
X94313100Y65924200D02*
X91795800Y63406900D01*
X94313100Y75724000D02*
X94313100Y65924200D01*
X99962200Y81373100D02*
X94313100Y75724000D01*
X100330000Y81373100D02*
X99962200Y81373100D01*
%TO.N,A_{5}*%
X100330000Y85090000D02*
X100330000Y83913100D01*
X93716000Y67293200D02*
X91440000Y65017200D01*
X93716000Y77666900D02*
X93716000Y67293200D01*
X99962200Y83913100D02*
X93716000Y77666900D01*
X100330000Y83913100D02*
X99962200Y83913100D01*
X91440000Y64770000D02*
X91440000Y64893600D01*
X91440000Y64893600D02*
X91440000Y65017200D01*
X90236000Y63689600D02*
X90236000Y53062300D01*
X91440000Y64893600D02*
X90236000Y63689600D01*
X44676900Y17893600D02*
X44676900Y17780000D01*
X50738700Y23955400D02*
X44676900Y17893600D01*
X53855000Y23955400D02*
X50738700Y23955400D01*
X62630000Y32730400D02*
X53855000Y23955400D01*
X62630000Y33357200D02*
X62630000Y32730400D01*
X69459400Y40186600D02*
X62630000Y33357200D01*
X71101200Y40186600D02*
X69459400Y40186600D01*
X72435400Y41520800D02*
X71101200Y40186600D01*
X72435400Y50560800D02*
X72435400Y41520800D01*
X43580000Y17780000D02*
X44676900Y17780000D01*
%TO.N,A_{6}*%
X100330000Y87630000D02*
X100330000Y86453100D01*
X91440000Y67310000D02*
X91440000Y68486900D01*
X100013700Y86453100D02*
X100330000Y86453100D01*
X93204500Y79643900D02*
X100013700Y86453100D01*
X93204500Y69885600D02*
X93204500Y79643900D01*
X91805800Y68486900D02*
X93204500Y69885600D01*
X91440000Y68486900D02*
X91805800Y68486900D01*
X81298700Y37121300D02*
X74658900Y30481500D01*
X81298700Y40748600D02*
X81298700Y37121300D01*
X81600300Y41050200D02*
X81298700Y40748600D01*
X81600300Y66537300D02*
X81600300Y41050200D01*
%TO.N,A_{7}*%
X38500000Y17780000D02*
X39596900Y17780000D01*
X91805800Y71026900D02*
X91440000Y71026900D01*
X92629300Y71850400D02*
X91805800Y71026900D01*
X92629300Y81660200D02*
X92629300Y71850400D01*
X99962200Y88993100D02*
X92629300Y81660200D01*
X100330000Y88993100D02*
X99962200Y88993100D01*
X100330000Y90170000D02*
X100330000Y88993100D01*
X91440000Y69850000D02*
X91440000Y71026900D01*
X82354300Y68393500D02*
X82354300Y80102400D01*
X80823400Y66862600D02*
X82354300Y68393500D01*
X80823400Y65858000D02*
X80823400Y66862600D01*
X81094700Y65586700D02*
X80823400Y65858000D01*
X81094700Y41254400D02*
X81094700Y65586700D01*
X80796800Y40956500D02*
X81094700Y41254400D01*
X80796800Y40903400D02*
X80796800Y40956500D01*
X78740000Y38846600D02*
X80796800Y40903400D01*
X78740000Y37682000D02*
X78740000Y38846600D01*
X60057500Y18999500D02*
X78740000Y37682000D01*
X58464400Y18999500D02*
X60057500Y18999500D01*
X57550000Y18085100D02*
X58464400Y18999500D01*
X57550000Y17472400D02*
X57550000Y18085100D01*
X56170600Y16093000D02*
X57550000Y17472400D01*
X41170300Y16093000D02*
X56170600Y16093000D01*
X39596900Y17666400D02*
X41170300Y16093000D01*
X39596900Y17780000D02*
X39596900Y17666400D01*
%TO.N,AD_{7}*%
X127000000Y34736800D02*
X127000000Y30480000D01*
X128186300Y35923100D02*
X127000000Y34736800D01*
X128186300Y43690100D02*
X128186300Y35923100D01*
X128047500Y43828900D02*
X128186300Y43690100D01*
X128047500Y53352000D02*
X128047500Y43828900D01*
X122061900Y59337600D02*
X128047500Y53352000D01*
X122061900Y63856500D02*
X122061900Y59337600D01*
X123196900Y64991500D02*
X122061900Y63856500D01*
X123196900Y74732000D02*
X123196900Y64991500D01*
X122991500Y74937400D02*
X123196900Y74732000D01*
X118779400Y74937400D02*
X122991500Y74937400D01*
X116746900Y72904900D02*
X118779400Y74937400D01*
X116746900Y72390000D02*
X116746900Y72904900D01*
X115570000Y72390000D02*
X116746900Y72390000D01*
X38100000Y81280000D02*
X38100000Y80103100D01*
X43180000Y57150000D02*
X43180000Y58326900D01*
X56280000Y33020000D02*
X56280000Y34116900D01*
X41654200Y59852800D02*
X43180000Y58326900D01*
X39276900Y78926200D02*
X38100000Y80103100D01*
X39276900Y71549300D02*
X39276900Y78926200D01*
X39663200Y71163000D02*
X39276900Y71549300D01*
X39663200Y69653600D02*
X39663200Y71163000D01*
X40703300Y68613500D02*
X39663200Y69653600D01*
X40703300Y67793700D02*
X40703300Y68613500D01*
X40722900Y67774100D02*
X40703300Y67793700D01*
X40722900Y60784000D02*
X40722900Y67774100D01*
X41654200Y59852800D02*
X40722900Y60784000D01*
X39443300Y57641900D02*
X41654200Y59852800D01*
X39443300Y56407000D02*
X39443300Y57641900D01*
X42469800Y53380500D02*
X39443300Y56407000D01*
X42469800Y52672900D02*
X42469800Y53380500D01*
X48215700Y46927000D02*
X42469800Y52672900D01*
X48215700Y46924900D02*
X48215700Y46927000D01*
X49605500Y45535100D02*
X48215700Y46924900D01*
X49605500Y40791400D02*
X49605500Y45535100D01*
X56280000Y34116900D02*
X49605500Y40791400D01*
X82105900Y39721000D02*
X82550000Y39276900D01*
X82105900Y65939200D02*
X82105900Y39721000D01*
X82643100Y66476400D02*
X82105900Y65939200D01*
X82643100Y67864100D02*
X82643100Y66476400D01*
X83452100Y68673100D02*
X82643100Y67864100D01*
X83820000Y68673100D02*
X83452100Y68673100D01*
X83820000Y69850000D02*
X83820000Y68673100D01*
X82550000Y38100000D02*
X82550000Y39276900D01*
%TO.N,AD_{6}*%
X58820000Y33020000D02*
X58820000Y34116900D01*
X45720000Y57150000D02*
X45720000Y55973100D01*
X85090000Y38100000D02*
X85090000Y39276900D01*
X83820000Y67310000D02*
X83820000Y66133100D01*
X41910000Y62136900D02*
X45720000Y58326900D01*
X41910000Y75614300D02*
X41910000Y62136900D01*
X40640000Y76884300D02*
X41910000Y75614300D01*
X40640000Y81280000D02*
X40640000Y76884300D01*
X45720000Y57150000D02*
X45720000Y58326900D01*
X47512900Y55973100D02*
X45720000Y55973100D01*
X52070000Y51416000D02*
X47512900Y55973100D01*
X52070000Y40866900D02*
X52070000Y51416000D01*
X58820000Y34116900D02*
X52070000Y40866900D01*
X83515200Y66133100D02*
X83820000Y66133100D01*
X82612900Y65230800D02*
X83515200Y66133100D01*
X82612900Y49011100D02*
X82612900Y65230800D01*
X85111800Y46512200D02*
X82612900Y49011100D01*
X85111800Y39298700D02*
X85111800Y46512200D01*
X85090000Y39276900D02*
X85111800Y39298700D01*
%TO.N,AD_{5}*%
X48260000Y57150000D02*
X48260000Y55973100D01*
X61360000Y33020000D02*
X61360000Y34116900D01*
X54610000Y40866900D02*
X61360000Y34116900D01*
X54610000Y46758300D02*
X54610000Y40866900D01*
X53983100Y47385200D02*
X54610000Y46758300D01*
X53983100Y48508200D02*
X53983100Y47385200D01*
X54545800Y49070900D02*
X53983100Y48508200D01*
X54545800Y50055100D02*
X54545800Y49070900D01*
X48627800Y55973100D02*
X54545800Y50055100D01*
X48260000Y55973100D02*
X48627800Y55973100D01*
X44356900Y62230000D02*
X48260000Y58326900D01*
X44356900Y78926200D02*
X44356900Y62230000D01*
X43180000Y80103100D02*
X44356900Y78926200D01*
X43180000Y81280000D02*
X43180000Y80103100D01*
X48260000Y57150000D02*
X48260000Y58326900D01*
%TO.N,AD_{3}*%
X115570000Y62230000D02*
X116746900Y62230000D01*
X127000000Y51976900D02*
X127000000Y38100000D01*
X116746900Y62230000D02*
X127000000Y51976900D01*
X83820000Y59690000D02*
X83820000Y58513100D01*
X94059400Y33628700D02*
X94059400Y43005600D01*
X95250000Y32438100D02*
X94059400Y33628700D01*
X95250000Y30480000D02*
X95250000Y32438100D01*
X84187800Y58513100D02*
X83820000Y58513100D01*
X85521600Y57179300D02*
X84187800Y58513100D01*
X85521600Y54288500D02*
X85521600Y57179300D01*
X88334000Y51476100D02*
X85521600Y54288500D01*
X88334000Y50188300D02*
X88334000Y51476100D01*
X94059400Y44462900D02*
X88334000Y50188300D01*
X94059400Y43005600D02*
X94059400Y44462900D01*
X49436900Y62230000D02*
X53340000Y58326900D01*
X49436900Y78926200D02*
X49436900Y62230000D01*
X48260000Y80103100D02*
X49436900Y78926200D01*
X48260000Y81280000D02*
X48260000Y80103100D01*
X53340000Y57150000D02*
X53340000Y58326900D01*
%TO.N,AD_{2}*%
X50800000Y81280000D02*
X50800000Y80103100D01*
X55880000Y57150000D02*
X55880000Y58326900D01*
X100330000Y64770000D02*
X100330000Y63593100D01*
X83820000Y57150000D02*
X83820000Y55973100D01*
X91601800Y45390100D02*
X91780800Y45390100D01*
X87832100Y49159800D02*
X91601800Y45390100D01*
X87832100Y50729100D02*
X87832100Y49159800D01*
X84996900Y53564300D02*
X87832100Y50729100D01*
X84996900Y55164100D02*
X84996900Y53564300D01*
X84187900Y55973100D02*
X84996900Y55164100D01*
X83820000Y55973100D02*
X84187900Y55973100D01*
X92710000Y31998300D02*
X92710000Y30480000D01*
X91474300Y33234000D02*
X92710000Y31998300D01*
X91474300Y44007100D02*
X91474300Y33234000D01*
X91601800Y44134600D02*
X91474300Y44007100D01*
X91601800Y45390100D02*
X91601800Y44134600D01*
X99964200Y63593100D02*
X100330000Y63593100D01*
X99139000Y62767900D02*
X99964200Y63593100D01*
X99139000Y58415500D02*
X99139000Y62767900D01*
X97835000Y57111500D02*
X99139000Y58415500D01*
X97835000Y45806200D02*
X97835000Y57111500D01*
X98251100Y45390100D02*
X97835000Y45806200D01*
X51976900Y78926200D02*
X50800000Y80103100D01*
X51976900Y62230000D02*
X51976900Y78926200D01*
X55880000Y58326900D02*
X51976900Y62230000D01*
%TO.N,AD_{1}*%
X100330000Y67310000D02*
X100330000Y66133100D01*
X83820000Y54610000D02*
X83820000Y53433100D01*
X85090000Y30480000D02*
X85090000Y31656900D01*
X54516900Y62230000D02*
X58420000Y58326900D01*
X54516900Y78926200D02*
X54516900Y62230000D01*
X53340000Y80103100D02*
X54516900Y78926200D01*
X53340000Y81280000D02*
X53340000Y80103100D01*
X58420000Y57150000D02*
X58420000Y58326900D01*
X86726300Y48495700D02*
X90792700Y44429300D01*
X86726300Y50875800D02*
X86726300Y48495700D01*
X84169000Y53433100D02*
X86726300Y50875800D01*
X83820000Y53433100D02*
X84169000Y53433100D01*
X88900000Y42536600D02*
X90792700Y44429300D01*
X88900000Y35466900D02*
X88900000Y42536600D01*
X85090000Y31656900D02*
X88900000Y35466900D01*
X99962200Y66133100D02*
X100330000Y66133100D01*
X98620400Y64791300D02*
X99962200Y66133100D01*
X98620400Y58606700D02*
X98620400Y64791300D01*
X97333100Y57319400D02*
X98620400Y58606700D01*
X97333100Y44704800D02*
X97333100Y57319400D01*
X97435200Y44602700D02*
X97333100Y44704800D01*
%TO.N,AD_{0}*%
X60960000Y57150000D02*
X60960000Y58326900D01*
X86274800Y35381700D02*
X82550000Y31656900D01*
X86274800Y46471600D02*
X86274800Y35381700D01*
X84996900Y47749500D02*
X86274800Y46471600D01*
X84996900Y50084100D02*
X84996900Y47749500D01*
X84187900Y50893100D02*
X84996900Y50084100D01*
X83820000Y50893100D02*
X84187900Y50893100D01*
X83820000Y52070000D02*
X83820000Y50893100D01*
X82550000Y30480000D02*
X82550000Y31656900D01*
X111760000Y38100000D02*
X111760000Y39276900D01*
X100330000Y69850000D02*
X100330000Y68673100D01*
X56723800Y62563100D02*
X60960000Y58326900D01*
X56723800Y69805100D02*
X56723800Y62563100D01*
X57065600Y70146900D02*
X56723800Y69805100D01*
X57065600Y78542400D02*
X57065600Y70146900D01*
X56500100Y79107900D02*
X57065600Y78542400D01*
X104551100Y64819800D02*
X104551100Y58416800D01*
X100697800Y68673100D02*
X104551100Y64819800D01*
X100330000Y68673100D02*
X100697800Y68673100D01*
X106680000Y44356900D02*
X111760000Y39276900D01*
X106680000Y56362900D02*
X106680000Y44356900D01*
X104626100Y58416800D02*
X106680000Y56362900D01*
X104551100Y58416800D02*
X104626100Y58416800D01*
%TO.N,Net-(RN1B-R2.2)*%
X63500000Y57150000D02*
X63500000Y55973100D01*
X64780700Y54692400D02*
X64780700Y50339700D01*
X63500000Y55973100D02*
X64780700Y54692400D01*
%TO.N,Net-(RN1A-R1.2)*%
X77470000Y44430000D02*
X77470000Y45606900D01*
X68580000Y72390000D02*
X68580000Y71213100D01*
X77102000Y45606900D02*
X77470000Y45606900D01*
X74999500Y47709400D02*
X77102000Y45606900D01*
X74999500Y63735200D02*
X74999500Y47709400D01*
X73578200Y65156500D02*
X74999500Y63735200D01*
X73578200Y66214900D02*
X73578200Y65156500D01*
X68580000Y71213100D02*
X73578200Y66214900D01*
D35*
%TO.N,+5V*%
X128270000Y87630000D02*
X115570000Y100330000D01*
X128270000Y86360000D02*
X128270000Y87630000D01*
X132080000Y82550000D02*
X132080000Y73660000D01*
X128270000Y86360000D02*
X132080000Y82550000D01*
D34*
X31750000Y104140000D02*
X30480000Y105410000D01*
X31750000Y92710000D02*
X31750000Y104140000D01*
X33020000Y91440000D02*
X31750000Y92710000D01*
X109220000Y12700000D02*
X109220000Y13876900D01*
X29210000Y49530000D02*
X26670000Y49530000D01*
X110490000Y33020000D02*
X111760000Y34290000D01*
X110490000Y24224600D02*
X110490000Y33020000D01*
X108029400Y21764000D02*
X110490000Y24224600D01*
X108029400Y15067500D02*
X108029400Y21764000D01*
X109220000Y13876900D02*
X108029400Y15067500D01*
X115570000Y50880000D02*
X115570000Y48340000D01*
X114300000Y52150000D02*
X115570000Y50880000D01*
X113096500Y35626500D02*
X111760000Y34290000D01*
X113096500Y44689600D02*
X113096500Y35626500D01*
X115570000Y47163100D02*
X113096500Y44689600D01*
X115570000Y48340000D02*
X115570000Y47163100D01*
%TO.N,GND*%
X66040000Y69850000D02*
X66040000Y68673100D01*
X18240200Y86316900D02*
X17780000Y86316900D01*
X19006900Y87083600D02*
X18240200Y86316900D01*
X19006900Y96476900D02*
X19006900Y87083600D01*
X27940000Y105410000D02*
X19006900Y96476900D01*
X17780000Y85090000D02*
X17780000Y86316900D01*
X123266700Y35483300D02*
X124460000Y34290000D01*
X123266700Y43112300D02*
X123266700Y35483300D01*
X124416900Y44262500D02*
X123266700Y43112300D01*
X124416900Y52018100D02*
X124416900Y44262500D01*
X123040000Y53395000D02*
X124416900Y52018100D01*
X100330000Y53420000D02*
X101600000Y52150000D01*
X100330000Y55960000D02*
X100330000Y53420000D01*
X100330000Y55960000D02*
X100330000Y57136900D01*
X71120000Y41910000D02*
X71120000Y49530000D01*
X71120000Y57150000D02*
X71120000Y55973100D01*
X71120000Y49530000D02*
X71120000Y50706900D01*
X71120000Y57150000D02*
X71120000Y58326900D01*
X100330000Y57136900D02*
X100330000Y62230000D01*
X83820000Y81280000D02*
X83820000Y72390000D01*
X87630000Y62622300D02*
X87630000Y54610000D01*
X84996900Y65255400D02*
X87630000Y62622300D01*
X84996900Y70404100D02*
X84996900Y65255400D01*
X84187900Y71213100D02*
X84996900Y70404100D01*
X83820000Y71213100D02*
X84187900Y71213100D01*
X83820000Y72390000D02*
X83820000Y71213100D01*
X114300000Y73660000D02*
X107950000Y67310000D01*
X116628600Y73660000D02*
X114300000Y73660000D01*
X120438600Y77470000D02*
X116628600Y73660000D01*
X124460000Y77470000D02*
X120438600Y77470000D01*
X71120000Y55973100D02*
X71120000Y50706900D01*
X101506900Y29396200D02*
X105503100Y25400000D01*
X101506900Y30480000D02*
X101506900Y29396200D01*
X106680000Y25400000D02*
X105503100Y25400000D01*
X100330000Y30480000D02*
X101506900Y30480000D01*
X71120000Y63593100D02*
X71120000Y58326900D01*
X66040000Y68673100D02*
X71120000Y63593100D01*
X83452100Y102963100D02*
X83820000Y102963100D01*
X82643100Y102154100D02*
X83452100Y102963100D01*
X82643100Y93426000D02*
X82643100Y102154100D01*
X83452200Y92616900D02*
X82643100Y93426000D01*
X83820000Y92616900D02*
X83452200Y92616900D01*
X83820000Y91440000D02*
X83820000Y92616900D01*
X83820000Y104140000D02*
X83820000Y102963100D01*
X17780000Y71160000D02*
X17780000Y85090000D01*
X25400000Y63540000D02*
X17780000Y71160000D01*
%TD*%
M02*
