%TF.GenerationSoftware,KiCad,Pcbnew,7.0.7*%
%TF.CreationDate,2023-09-27T12:16:48+03:00*%
%TF.ProjectId,main,6d61696e-2e6b-4696-9361-645f70636258,rev?*%
%TF.SameCoordinates,Original*%
%TF.FileFunction,Copper,L2,Bot*%
%TF.FilePolarity,Positive*%
%FSLAX46Y46*%
G04 Gerber Fmt 4.6, Leading zero omitted, Abs format (unit mm)*
G04 Created by KiCad (PCBNEW 7.0.7) date 2023-09-27 12:16:48*
%MOMM*%
%LPD*%
G01*
G04 APERTURE LIST*
%TA.AperFunction,ComponentPad*%
%ADD10R,1.800000X1.800000*%
%TD*%
%TA.AperFunction,ComponentPad*%
%ADD11C,1.800000*%
%TD*%
%TA.AperFunction,ComponentPad*%
%ADD12R,1.600000X1.600000*%
%TD*%
%TA.AperFunction,ComponentPad*%
%ADD13O,1.600000X1.600000*%
%TD*%
%TA.AperFunction,ComponentPad*%
%ADD14C,1.600000*%
%TD*%
%TA.AperFunction,ComponentPad*%
%ADD15C,4.000000*%
%TD*%
%TA.AperFunction,ComponentPad*%
%ADD16R,1.440000X1.440000*%
%TD*%
%TA.AperFunction,ComponentPad*%
%ADD17O,1.440000X1.440000*%
%TD*%
%TA.AperFunction,ComponentPad*%
%ADD18R,4.400000X1.800000*%
%TD*%
%TA.AperFunction,ComponentPad*%
%ADD19O,4.000000X1.800000*%
%TD*%
%TA.AperFunction,ComponentPad*%
%ADD20O,1.800000X4.000000*%
%TD*%
%TA.AperFunction,ComponentPad*%
%ADD21C,1.400000*%
%TD*%
%TA.AperFunction,ComponentPad*%
%ADD22O,1.400000X1.400000*%
%TD*%
%TA.AperFunction,ComponentPad*%
%ADD23C,5.000000*%
%TD*%
%TA.AperFunction,ComponentPad*%
%ADD24C,2.000000*%
%TD*%
%TA.AperFunction,ComponentPad*%
%ADD25R,1.500000X1.500000*%
%TD*%
%TA.AperFunction,ComponentPad*%
%ADD26C,1.500000*%
%TD*%
%TA.AperFunction,ComponentPad*%
%ADD27R,2.032000X2.032000*%
%TD*%
%TA.AperFunction,ComponentPad*%
%ADD28C,2.032000*%
%TD*%
%TA.AperFunction,ComponentPad*%
%ADD29R,1.905000X2.000000*%
%TD*%
%TA.AperFunction,ComponentPad*%
%ADD30O,1.905000X2.000000*%
%TD*%
%TA.AperFunction,ViaPad*%
%ADD31C,0.800000*%
%TD*%
%TA.AperFunction,Conductor*%
%ADD32C,0.250000*%
%TD*%
%TA.AperFunction,Conductor*%
%ADD33C,1.000000*%
%TD*%
G04 APERTURE END LIST*
D10*
%TO.P,D1,1,K*%
%TO.N,Net-(D1-K)*%
X121920000Y73660000D03*
D11*
%TO.P,D1,2,A*%
%TO.N,+5V*%
X119380000Y73660000D03*
%TD*%
D12*
%TO.P,U4,1,OE*%
%TO.N,GND*%
X83820000Y72390000D03*
D13*
%TO.P,U4,2,D0*%
%TO.N,AD_{7}*%
X83820000Y69850000D03*
%TO.P,U4,3,D1*%
%TO.N,AD_{6}*%
X83820000Y67310000D03*
%TO.P,U4,4,D2*%
%TO.N,AD_{5}*%
X83820000Y64770000D03*
%TO.P,U4,5,D3*%
%TO.N,AD_{4}*%
X83820000Y62230000D03*
%TO.P,U4,6,D4*%
%TO.N,AD_{3}*%
X83820000Y59690000D03*
%TO.P,U4,7,D5*%
%TO.N,AD_{2}*%
X83820000Y57150000D03*
%TO.P,U4,8,D6*%
%TO.N,AD_{1}*%
X83820000Y54610000D03*
%TO.P,U4,9,D7*%
%TO.N,AD_{0}*%
X83820000Y52070000D03*
%TO.P,U4,10,GND*%
%TO.N,GND*%
X83820000Y49530000D03*
%TO.P,U4,11,Load*%
%TO.N,ALE*%
X91440000Y49530000D03*
%TO.P,U4,12,Q7*%
%TO.N,A_{0}*%
X91440000Y52070000D03*
%TO.P,U4,13,Q6*%
%TO.N,A_{1}*%
X91440000Y54610000D03*
%TO.P,U4,14,Q5*%
%TO.N,A_{2}*%
X91440000Y57150000D03*
%TO.P,U4,15,Q4*%
%TO.N,A_{3}*%
X91440000Y59690000D03*
%TO.P,U4,16,Q3*%
%TO.N,A_{4}*%
X91440000Y62230000D03*
%TO.P,U4,17,Q2*%
%TO.N,A_{5}*%
X91440000Y64770000D03*
%TO.P,U4,18,Q1*%
%TO.N,A_{6}*%
X91440000Y67310000D03*
%TO.P,U4,19,Q0*%
%TO.N,A_{7}*%
X91440000Y69850000D03*
%TO.P,U4,20,VCC*%
%TO.N,+5V*%
X91440000Y72390000D03*
%TD*%
D14*
%TO.P,C2,1*%
%TO.N,+5V*%
X40640000Y88900000D03*
%TO.P,C2,2*%
%TO.N,GND*%
X53340000Y88900000D03*
%TD*%
D12*
%TO.P,RN4,1,common*%
%TO.N,GND*%
X106680000Y25400000D03*
D13*
%TO.P,RN4,2,R1*%
%TO.N,Net-(RN4-R1)*%
X109220000Y25400000D03*
%TO.P,RN4,3,R2*%
%TO.N,Net-(RN4-R2)*%
X111760000Y25400000D03*
%TO.P,RN4,4,R3*%
%TO.N,Net-(RN4-R3)*%
X114300000Y25400000D03*
%TO.P,RN4,5,R4*%
%TO.N,Net-(RN4-R4)*%
X116840000Y25400000D03*
%TO.P,RN4,6,R5*%
%TO.N,Net-(RN4-R5)*%
X119380000Y25400000D03*
%TO.P,RN4,7,R6*%
%TO.N,Net-(RN4-R6)*%
X121920000Y25400000D03*
%TO.P,RN4,8,R7*%
%TO.N,Net-(RN4-R7)*%
X124460000Y25400000D03*
%TO.P,RN4,9,R8*%
%TO.N,Net-(RN4-R8)*%
X127000000Y25400000D03*
%TD*%
D15*
%TO.P,H1,*%
%TO.N,*%
X19050000Y13970000D03*
%TD*%
D14*
%TO.P,C10,1*%
%TO.N,+5V*%
X111760000Y34290000D03*
%TO.P,C10,2*%
%TO.N,GND*%
X124460000Y34290000D03*
%TD*%
D12*
%TO.P,U1,1,GND*%
%TO.N,GND*%
X22860000Y57150000D03*
D13*
%TO.P,U1,2,A14*%
%TO.N,A_{14}*%
X25400000Y57150000D03*
%TO.P,U1,3,A13*%
%TO.N,A_{13}*%
X27940000Y57150000D03*
%TO.P,U1,4,A12*%
%TO.N,A_{12}*%
X30480000Y57150000D03*
%TO.P,U1,5,A11*%
%TO.N,A_{11}*%
X33020000Y57150000D03*
%TO.P,U1,6,A10*%
%TO.N,A_{10}*%
X35560000Y57150000D03*
%TO.P,U1,7,A9*%
%TO.N,A_{9}*%
X38100000Y57150000D03*
%TO.P,U1,8,A8*%
%TO.N,A_{8}*%
X40640000Y57150000D03*
%TO.P,U1,9,AD7*%
%TO.N,AD_{7}*%
X43180000Y57150000D03*
%TO.P,U1,10,AD6*%
%TO.N,AD_{6}*%
X45720000Y57150000D03*
%TO.P,U1,11,AD5*%
%TO.N,AD_{5}*%
X48260000Y57150000D03*
%TO.P,U1,12,AD4*%
%TO.N,AD_{4}*%
X50800000Y57150000D03*
%TO.P,U1,13,AD3*%
%TO.N,AD_{3}*%
X53340000Y57150000D03*
%TO.P,U1,14,AD2*%
%TO.N,AD_{2}*%
X55880000Y57150000D03*
%TO.P,U1,15,AD1*%
%TO.N,AD_{1}*%
X58420000Y57150000D03*
%TO.P,U1,16,AD0*%
%TO.N,AD_{0}*%
X60960000Y57150000D03*
%TO.P,U1,17,NMI*%
%TO.N,Net-(RN1B-R2.2)*%
X63500000Y57150000D03*
%TO.P,U1,18,INTR*%
%TO.N,Net-(RN1C-R3.2)*%
X66040000Y57150000D03*
%TO.P,U1,19,CLK*%
%TO.N,CLK*%
X68580000Y57150000D03*
%TO.P,U1,20,GND*%
%TO.N,GND*%
X71120000Y57150000D03*
%TO.P,U1,21,RESET*%
%TO.N,RES*%
X71120000Y72390000D03*
%TO.P,U1,22,READY*%
%TO.N,Net-(RN1A-R1.2)*%
X68580000Y72390000D03*
%TO.P,U1,23,~{TEST}*%
%TO.N,GND*%
X66040000Y72390000D03*
%TO.P,U1,24,~{INTA}*%
%TO.N,unconnected-(U1-~{INTA}-Pad24)*%
X63500000Y72390000D03*
%TO.P,U1,25,ALE*%
%TO.N,ALE*%
X60960000Y72390000D03*
%TO.P,U1,26,DEN*%
%TO.N,unconnected-(U1-DEN-Pad26)*%
X58420000Y72390000D03*
%TO.P,U1,27,DT/~{R}*%
%TO.N,unconnected-(U1-DT{slash}~{R}-Pad27)*%
X55880000Y72390000D03*
%TO.P,U1,28,IO/~{M}*%
%TO.N,IO{slash}~{M}*%
X53340000Y72390000D03*
%TO.P,U1,29,WR*%
%TO.N,~{WR}*%
X50800000Y72390000D03*
%TO.P,U1,30,HLDA*%
%TO.N,unconnected-(U1-HLDA-Pad30)*%
X48260000Y72390000D03*
%TO.P,U1,31,HOLD*%
%TO.N,unconnected-(U1-HOLD-Pad31)*%
X45720000Y72390000D03*
%TO.P,U1,32,~{RD}*%
%TO.N,~{RD}*%
X43180000Y72390000D03*
%TO.P,U1,33,MN/~{MX}*%
%TO.N,Net-(RN1D-R4.2)*%
X40640000Y72390000D03*
%TO.P,U1,34,~{SSO}*%
%TO.N,unconnected-(U1-~{SSO}-Pad34)*%
X38100000Y72390000D03*
%TO.P,U1,35,A19/S6*%
%TO.N,AS_{19}*%
X35560000Y72390000D03*
%TO.P,U1,36,A18/S5*%
%TO.N,AS_{18}*%
X33020000Y72390000D03*
%TO.P,U1,37,A17/S4*%
%TO.N,AS_{17}*%
X30480000Y72390000D03*
%TO.P,U1,38,A16/S3*%
%TO.N,AS_{16}*%
X27940000Y72390000D03*
%TO.P,U1,39,A15*%
%TO.N,A_{15}*%
X25400000Y72390000D03*
%TO.P,U1,40,VCC*%
%TO.N,+5V*%
X22860000Y72390000D03*
%TD*%
D14*
%TO.P,C5,1*%
%TO.N,+5V*%
X87630000Y67310000D03*
%TO.P,C5,2*%
%TO.N,GND*%
X87630000Y54610000D03*
%TD*%
%TO.P,C7,1*%
%TO.N,+5V*%
X53340000Y45720000D03*
%TO.P,C7,2*%
%TO.N,GND*%
X66040000Y45720000D03*
%TD*%
D12*
%TO.P,U14,1,1OE*%
%TO.N,IN~{EN}*%
X106680000Y30480000D03*
D13*
%TO.P,U14,2,1A0*%
%TO.N,Net-(RN4-R1)*%
X109220000Y30480000D03*
%TO.P,U14,3,2Y0*%
%TO.N,AD_{4}*%
X111760000Y30480000D03*
%TO.P,U14,4,1A1*%
%TO.N,Net-(RN4-R2)*%
X114300000Y30480000D03*
%TO.P,U14,5,2Y1*%
%TO.N,AD_{5}*%
X116840000Y30480000D03*
%TO.P,U14,6,1A2*%
%TO.N,Net-(RN4-R3)*%
X119380000Y30480000D03*
%TO.P,U14,7,2Y2*%
%TO.N,AD_{6}*%
X121920000Y30480000D03*
%TO.P,U14,8,1A3*%
%TO.N,Net-(RN4-R4)*%
X124460000Y30480000D03*
%TO.P,U14,9,2Y3*%
%TO.N,AD_{7}*%
X127000000Y30480000D03*
%TO.P,U14,10,GND*%
%TO.N,GND*%
X129540000Y30480000D03*
%TO.P,U14,11,2A3*%
%TO.N,Net-(RN4-R8)*%
X129540000Y38100000D03*
%TO.P,U14,12,1Y3*%
%TO.N,AD_{3}*%
X127000000Y38100000D03*
%TO.P,U14,13,2A2*%
%TO.N,Net-(RN4-R7)*%
X124460000Y38100000D03*
%TO.P,U14,14,1Y2*%
%TO.N,AD_{2}*%
X121920000Y38100000D03*
%TO.P,U14,15,2A1*%
%TO.N,Net-(RN4-R6)*%
X119380000Y38100000D03*
%TO.P,U14,16,1Y1*%
%TO.N,AD_{1}*%
X116840000Y38100000D03*
%TO.P,U14,17,2A0*%
%TO.N,Net-(RN4-R5)*%
X114300000Y38100000D03*
%TO.P,U14,18,1Y0*%
%TO.N,AD_{0}*%
X111760000Y38100000D03*
%TO.P,U14,19,2OE*%
%TO.N,IN~{EN}*%
X109220000Y38100000D03*
%TO.P,U14,20,VCC*%
%TO.N,+5V*%
X106680000Y38100000D03*
%TD*%
D14*
%TO.P,C3,1*%
%TO.N,+5V*%
X25400000Y66040000D03*
%TO.P,C3,2*%
%TO.N,GND*%
X25400000Y63540000D03*
%TD*%
D16*
%TO.P,U2,1,A15*%
%TO.N,A_{15}*%
X33420000Y17780000D03*
D17*
%TO.P,U2,2,A12*%
%TO.N,A_{12}*%
X35960000Y17780000D03*
%TO.P,U2,3,A7*%
%TO.N,A_{7}*%
X38500000Y17780000D03*
%TO.P,U2,4,A6*%
%TO.N,A_{6}*%
X41040000Y17780000D03*
%TO.P,U2,5,A5*%
%TO.N,A_{5}*%
X43580000Y17780000D03*
%TO.P,U2,6,A4*%
%TO.N,A_{4}*%
X46120000Y17780000D03*
%TO.P,U2,7,A3*%
%TO.N,A_{3}*%
X48660000Y17780000D03*
%TO.P,U2,8,A2*%
%TO.N,A_{2}*%
X51200000Y17780000D03*
%TO.P,U2,9,A1*%
%TO.N,A_{1}*%
X53740000Y17780000D03*
%TO.P,U2,10,A0*%
%TO.N,A_{0}*%
X56280000Y17780000D03*
%TO.P,U2,11,D0*%
%TO.N,AD_{0}*%
X58820000Y17780000D03*
%TO.P,U2,12,D1*%
%TO.N,AD_{1}*%
X61360000Y17780000D03*
%TO.P,U2,13,D2*%
%TO.N,AD_{2}*%
X63900000Y17780000D03*
%TO.P,U2,14,GND*%
%TO.N,GND*%
X66440000Y17780000D03*
%TO.P,U2,15,D3*%
%TO.N,AD_{3}*%
X66440000Y33020000D03*
%TO.P,U2,16,D4*%
%TO.N,AD_{4}*%
X63900000Y33020000D03*
%TO.P,U2,17,D5*%
%TO.N,AD_{5}*%
X61360000Y33020000D03*
%TO.P,U2,18,D6*%
%TO.N,AD_{6}*%
X58820000Y33020000D03*
%TO.P,U2,19,D7*%
%TO.N,AD_{7}*%
X56280000Y33020000D03*
%TO.P,U2,20,~{CE}*%
%TO.N,ROM~{EN}*%
X53740000Y33020000D03*
%TO.P,U2,21,A10*%
%TO.N,A_{10}*%
X51200000Y33020000D03*
%TO.P,U2,22,~{OE}*%
%TO.N,~{RD}*%
X48660000Y33020000D03*
%TO.P,U2,23,A11*%
%TO.N,A_{11}*%
X46120000Y33020000D03*
%TO.P,U2,24,A9*%
%TO.N,A_{9}*%
X43580000Y33020000D03*
%TO.P,U2,25,A8*%
%TO.N,A_{8}*%
X41040000Y33020000D03*
%TO.P,U2,26,A13*%
%TO.N,A_{13}*%
X38500000Y33020000D03*
%TO.P,U2,27,A14*%
%TO.N,A_{14}*%
X35960000Y33020000D03*
%TO.P,U2,28,VCC*%
%TO.N,+5V*%
X33420000Y33020000D03*
%TD*%
D14*
%TO.P,C6,1*%
%TO.N,+5V*%
X107950000Y96520000D03*
%TO.P,C6,2*%
%TO.N,GND*%
X107950000Y67310000D03*
%TD*%
D10*
%TO.P,D2,1,K*%
%TO.N,Net-(D2-K)*%
X129540000Y73660000D03*
D11*
%TO.P,D2,2,A*%
%TO.N,RES*%
X132080000Y73660000D03*
%TD*%
D14*
%TO.P,C4,1*%
%TO.N,+5V*%
X87630000Y99060000D03*
%TO.P,C4,2*%
%TO.N,GND*%
X87630000Y86360000D03*
%TD*%
D12*
%TO.P,RN3,1,common*%
%TO.N,GND*%
X77470000Y25400000D03*
D13*
%TO.P,RN3,2,R1*%
%TO.N,Net-(RN3-R1)*%
X80010000Y25400000D03*
%TO.P,RN3,3,R2*%
%TO.N,Net-(RN3-R2)*%
X82550000Y25400000D03*
%TO.P,RN3,4,R3*%
%TO.N,Net-(RN3-R3)*%
X85090000Y25400000D03*
%TO.P,RN3,5,R4*%
%TO.N,Net-(RN3-R4)*%
X87630000Y25400000D03*
%TO.P,RN3,6,R5*%
%TO.N,Net-(RN3-R5)*%
X90170000Y25400000D03*
%TO.P,RN3,7,R6*%
%TO.N,Net-(RN3-R6)*%
X92710000Y25400000D03*
%TO.P,RN3,8,R7*%
%TO.N,Net-(RN3-R7)*%
X95250000Y25400000D03*
%TO.P,RN3,9,R8*%
%TO.N,Net-(RN3-R8)*%
X97790000Y25400000D03*
%TD*%
D15*
%TO.P,H2,*%
%TO.N,*%
X130810000Y13970000D03*
%TD*%
D18*
%TO.P,J1,1*%
%TO.N,Net-(U10-IN)*%
X126330000Y95250000D03*
D19*
%TO.P,J1,2*%
%TO.N,GND*%
X126330000Y101050000D03*
D20*
%TO.P,J1,3*%
%TO.N,N/C*%
X121530000Y98250000D03*
%TD*%
D12*
%TO.P,U13,1,~{Mr}*%
%TO.N,Net-(U13-~{Mr})*%
X77470000Y30480000D03*
D13*
%TO.P,U13,2,Q0*%
%TO.N,Net-(U13-Q0)*%
X80010000Y30480000D03*
%TO.P,U13,3,D0*%
%TO.N,AD_{0}*%
X82550000Y30480000D03*
%TO.P,U13,4,D1*%
%TO.N,AD_{1}*%
X85090000Y30480000D03*
%TO.P,U13,5,Q1*%
%TO.N,Net-(U13-Q1)*%
X87630000Y30480000D03*
%TO.P,U13,6,Q2*%
%TO.N,Net-(U13-Q2)*%
X90170000Y30480000D03*
%TO.P,U13,7,D2*%
%TO.N,AD_{2}*%
X92710000Y30480000D03*
%TO.P,U13,8,D3*%
%TO.N,AD_{3}*%
X95250000Y30480000D03*
%TO.P,U13,9,Q3*%
%TO.N,Net-(U13-Q3)*%
X97790000Y30480000D03*
%TO.P,U13,10,GND*%
%TO.N,GND*%
X100330000Y30480000D03*
%TO.P,U13,11,Cp*%
%TO.N,OUT~{EN}*%
X100330000Y38100000D03*
%TO.P,U13,12,Q4*%
%TO.N,Net-(U13-Q4)*%
X97790000Y38100000D03*
%TO.P,U13,13,D4*%
%TO.N,AD_{4}*%
X95250000Y38100000D03*
%TO.P,U13,14,D5*%
%TO.N,AD_{5}*%
X92710000Y38100000D03*
%TO.P,U13,15,Q5*%
%TO.N,Net-(U13-Q5)*%
X90170000Y38100000D03*
%TO.P,U13,16,Q6*%
%TO.N,Net-(U13-Q6)*%
X87630000Y38100000D03*
%TO.P,U13,17,D6*%
%TO.N,AD_{6}*%
X85090000Y38100000D03*
%TO.P,U13,18,D7*%
%TO.N,AD_{7}*%
X82550000Y38100000D03*
%TO.P,U13,19,Q7*%
%TO.N,Net-(U13-Q7)*%
X80010000Y38100000D03*
%TO.P,U13,20,VCC*%
%TO.N,+5V*%
X77470000Y38100000D03*
%TD*%
D12*
%TO.P,RN1,1,R1*%
%TO.N,+5V*%
X77470000Y41890000D03*
D13*
%TO.P,RN1,2,R1.2*%
%TO.N,Net-(RN1A-R1.2)*%
X77470000Y44430000D03*
%TO.P,RN1,3,R2.2*%
%TO.N,Net-(RN1B-R2.2)*%
X77470000Y46970000D03*
%TO.P,RN1,4,R3.2*%
%TO.N,Net-(RN1C-R3.2)*%
X77470000Y49510000D03*
%TO.P,RN1,5,R4.2*%
%TO.N,Net-(RN1D-R4.2)*%
X77470000Y52050000D03*
%TD*%
D21*
%TO.P,R3,1*%
%TO.N,Net-(D2-K)*%
X127000000Y69850000D03*
D22*
%TO.P,R3,2*%
%TO.N,GND*%
X127000000Y77470000D03*
%TD*%
D14*
%TO.P,U11,*%
%TO.N,*%
X34290000Y49530000D03*
X34290000Y41910000D03*
D12*
%TO.P,U11,1,EN*%
%TO.N,unconnected-(U11-EN-Pad1)*%
X26670000Y41910000D03*
D13*
%TO.P,U11,2*%
%TO.N,unconnected-(U11-Pad2)*%
X29210000Y41910000D03*
%TO.P,U11,3*%
%TO.N,unconnected-(U11-Pad3)*%
X31750000Y41910000D03*
D14*
%TO.P,U11,5*%
%TO.N,GND*%
X36830000Y41910000D03*
%TO.P,U11,6*%
X39370000Y41910000D03*
%TO.P,U11,7,GND*%
X41910000Y41910000D03*
%TO.P,U11,8,OUT*%
%TO.N,Net-(U11-OUT)*%
X41910000Y49530000D03*
%TO.P,U11,9*%
X39370000Y49530000D03*
%TO.P,U11,10*%
X36830000Y49530000D03*
%TO.P,U11,12*%
%TO.N,+5V*%
X31750000Y49530000D03*
%TO.P,U11,13*%
X29210000Y49530000D03*
%TO.P,U11,14,Vcc*%
X26670000Y49530000D03*
%TD*%
D12*
%TO.P,U3,1,A18*%
%TO.N,A_{18}*%
X100330000Y100330000D03*
D13*
%TO.P,U3,2,A16*%
%TO.N,A_{16}*%
X100330000Y97790000D03*
%TO.P,U3,3,A14*%
%TO.N,A_{14}*%
X100330000Y95250000D03*
%TO.P,U3,4,A12*%
%TO.N,A_{12}*%
X100330000Y92710000D03*
%TO.P,U3,5,A7*%
%TO.N,A_{7}*%
X100330000Y90170000D03*
%TO.P,U3,6,A6*%
%TO.N,A_{6}*%
X100330000Y87630000D03*
%TO.P,U3,7,A5*%
%TO.N,A_{5}*%
X100330000Y85090000D03*
%TO.P,U3,8,A4*%
%TO.N,A_{4}*%
X100330000Y82550000D03*
%TO.P,U3,9,A3*%
%TO.N,A_{3}*%
X100330000Y80010000D03*
%TO.P,U3,10,A2*%
%TO.N,A_{2}*%
X100330000Y77470000D03*
%TO.P,U3,11,A1*%
%TO.N,A_{1}*%
X100330000Y74930000D03*
%TO.P,U3,12,A0*%
%TO.N,A_{0}*%
X100330000Y72390000D03*
%TO.P,U3,13,DQ0*%
%TO.N,AD_{0}*%
X100330000Y69850000D03*
%TO.P,U3,14,DQ1*%
%TO.N,AD_{1}*%
X100330000Y67310000D03*
%TO.P,U3,15,DQ2*%
%TO.N,AD_{2}*%
X100330000Y64770000D03*
%TO.P,U3,16,VSS*%
%TO.N,GND*%
X100330000Y62230000D03*
%TO.P,U3,17,DQ3*%
%TO.N,AD_{3}*%
X115570000Y62230000D03*
%TO.P,U3,18,DQ4*%
%TO.N,AD_{4}*%
X115570000Y64770000D03*
%TO.P,U3,19,DQ5*%
%TO.N,AD_{5}*%
X115570000Y67310000D03*
%TO.P,U3,20,DQ6*%
%TO.N,AD_{6}*%
X115570000Y69850000D03*
%TO.P,U3,21,DQ7*%
%TO.N,AD_{7}*%
X115570000Y72390000D03*
%TO.P,U3,22,CE#*%
%TO.N,RAM~{EN}*%
X115570000Y74930000D03*
%TO.P,U3,23,A10*%
%TO.N,A_{10}*%
X115570000Y77470000D03*
%TO.P,U3,24,OE#*%
%TO.N,~{RD}*%
X115570000Y80010000D03*
%TO.P,U3,25,A11*%
%TO.N,A_{11}*%
X115570000Y82550000D03*
%TO.P,U3,26,A9*%
%TO.N,A_{9}*%
X115570000Y85090000D03*
%TO.P,U3,27,A8*%
%TO.N,A_{8}*%
X115570000Y87630000D03*
%TO.P,U3,28,A13*%
%TO.N,A_{13}*%
X115570000Y90170000D03*
%TO.P,U3,29,WE#*%
%TO.N,~{WR}*%
X115570000Y92710000D03*
%TO.P,U3,30,A17*%
%TO.N,A_{17}*%
X115570000Y95250000D03*
%TO.P,U3,31,A15*%
%TO.N,A_{15}*%
X115570000Y97790000D03*
%TO.P,U3,32,VCC*%
%TO.N,+5V*%
X115570000Y100330000D03*
%TD*%
D12*
%TO.P,SW6,1*%
%TO.N,+5V*%
X106680000Y12700000D03*
D13*
%TO.P,SW6,2*%
X109220000Y12700000D03*
%TO.P,SW6,3*%
X111760000Y12700000D03*
%TO.P,SW6,4*%
X114300000Y12700000D03*
%TO.P,SW6,5*%
X116840000Y12700000D03*
%TO.P,SW6,6*%
X119380000Y12700000D03*
%TO.P,SW6,7*%
X121920000Y12700000D03*
%TO.P,SW6,8*%
X124460000Y12700000D03*
%TO.P,SW6,9*%
%TO.N,Net-(RN4-R8)*%
X124460000Y20320000D03*
%TO.P,SW6,10*%
%TO.N,Net-(RN4-R7)*%
X121920000Y20320000D03*
%TO.P,SW6,11*%
%TO.N,Net-(RN4-R6)*%
X119380000Y20320000D03*
%TO.P,SW6,12*%
%TO.N,Net-(RN4-R5)*%
X116840000Y20320000D03*
%TO.P,SW6,13*%
%TO.N,Net-(RN4-R4)*%
X114300000Y20320000D03*
%TO.P,SW6,14*%
%TO.N,Net-(RN4-R3)*%
X111760000Y20320000D03*
%TO.P,SW6,15*%
%TO.N,Net-(RN4-R2)*%
X109220000Y20320000D03*
%TO.P,SW6,16*%
%TO.N,Net-(RN4-R1)*%
X106680000Y20320000D03*
%TD*%
D14*
%TO.P,C8,2*%
%TO.N,GND*%
X101600000Y52150000D03*
%TO.P,C8,1*%
%TO.N,+5V*%
X114300000Y52150000D03*
%TD*%
%TO.P,C11,1*%
%TO.N,+5V*%
X20720000Y26670000D03*
%TO.P,C11,2*%
%TO.N,GND*%
X20720000Y24170000D03*
%TD*%
D23*
%TO.P,LCD1,*%
%TO.N,*%
X20320000Y105410000D03*
X20320000Y50450000D03*
D24*
X33020000Y105410000D03*
X63500000Y105410000D03*
X66040000Y105410000D03*
D23*
X113280000Y105410000D03*
D24*
%TO.P,LCD1,1,GND*%
%TO.N,GND*%
X27940000Y105410000D03*
%TO.P,LCD1,2,Vdd*%
%TO.N,+5V*%
X30480000Y105410000D03*
%TO.P,LCD1,4,RS*%
%TO.N,Net-(LCD1-RS)*%
X35560000Y105410000D03*
%TO.P,LCD1,5,R~{W}*%
%TO.N,Net-(LCD1-R~{W})*%
X38100000Y105410000D03*
%TO.P,LCD1,6,E*%
%TO.N,Net-(LCD1-E)*%
X40640000Y105410000D03*
%TO.P,LCD1,7,D_{0}*%
%TO.N,Net-(LCD1-D_{0})*%
X43180000Y105410000D03*
%TO.P,LCD1,8,D_{1}*%
%TO.N,Net-(LCD1-D_{1})*%
X45720000Y105410000D03*
%TO.P,LCD1,9,D_{2}*%
%TO.N,Net-(LCD1-D_{2})*%
X48260000Y105410000D03*
%TO.P,LCD1,10,D_{3}*%
%TO.N,Net-(LCD1-D_{3})*%
X50800000Y105410000D03*
%TO.P,LCD1,11,D_{4}*%
%TO.N,Net-(LCD1-D_{4})*%
X53340000Y105410000D03*
%TO.P,LCD1,12,D_{5}*%
%TO.N,Net-(LCD1-D_{5})*%
X55880000Y105410000D03*
%TO.P,LCD1,13,D_{6}*%
%TO.N,Net-(LCD1-D_{6})*%
X58420000Y105410000D03*
%TO.P,LCD1,14,D_{7}*%
%TO.N,Net-(LCD1-D_{7})*%
X60960000Y105410000D03*
%TD*%
D12*
%TO.P,U12,1,PA3*%
%TO.N,Net-(LCD1-D_{3})*%
X71120000Y96520000D03*
D13*
%TO.P,U12,2,PA2*%
%TO.N,Net-(LCD1-D_{2})*%
X68580000Y96520000D03*
%TO.P,U12,3,PA1*%
%TO.N,Net-(LCD1-D_{1})*%
X66040000Y96520000D03*
%TO.P,U12,4,PA0*%
%TO.N,Net-(LCD1-D_{0})*%
X63500000Y96520000D03*
%TO.P,U12,5,~{RD}*%
%TO.N,~{RD}*%
X60960000Y96520000D03*
%TO.P,U12,6,~{CS}*%
%TO.N,IO~{EN}*%
X58420000Y96520000D03*
%TO.P,U12,7,GND*%
%TO.N,GND*%
X55880000Y96520000D03*
%TO.P,U12,8,A1*%
%TO.N,A_{1}*%
X53340000Y96520000D03*
%TO.P,U12,9,A0*%
%TO.N,A_{0}*%
X50800000Y96520000D03*
%TO.P,U12,10,PC7*%
%TO.N,unconnected-(U12-PC7-Pad10)*%
X48260000Y96520000D03*
%TO.P,U12,11,PC6*%
%TO.N,unconnected-(U12-PC6-Pad11)*%
X45720000Y96520000D03*
%TO.P,U12,12,PC5*%
%TO.N,unconnected-(U12-PC5-Pad12)*%
X43180000Y96520000D03*
%TO.P,U12,13,PC4*%
%TO.N,unconnected-(U12-PC4-Pad13)*%
X40640000Y96520000D03*
%TO.P,U12,14,PC0*%
%TO.N,unconnected-(U12-PC0-Pad14)*%
X38100000Y96520000D03*
%TO.P,U12,15,PC1*%
%TO.N,unconnected-(U12-PC1-Pad15)*%
X35560000Y96520000D03*
%TO.P,U12,16,PC2*%
%TO.N,unconnected-(U12-PC2-Pad16)*%
X33020000Y96520000D03*
%TO.P,U12,17,PC3*%
%TO.N,unconnected-(U12-PC3-Pad17)*%
X30480000Y96520000D03*
%TO.P,U12,18,PB0*%
%TO.N,Net-(LCD1-RS)*%
X27940000Y96520000D03*
%TO.P,U12,19,PB1*%
%TO.N,Net-(LCD1-R~{W})*%
X25400000Y96520000D03*
%TO.P,U12,20,PB2*%
%TO.N,Net-(LCD1-E)*%
X22860000Y96520000D03*
%TO.P,U12,21,PB3*%
%TO.N,unconnected-(U12-PB3-Pad21)*%
X22860000Y81280000D03*
%TO.P,U12,22,PB4*%
%TO.N,unconnected-(U12-PB4-Pad22)*%
X25400000Y81280000D03*
%TO.P,U12,23,PB5*%
%TO.N,unconnected-(U12-PB5-Pad23)*%
X27940000Y81280000D03*
%TO.P,U12,24,PB6*%
%TO.N,unconnected-(U12-PB6-Pad24)*%
X30480000Y81280000D03*
%TO.P,U12,25,PB7*%
%TO.N,unconnected-(U12-PB7-Pad25)*%
X33020000Y81280000D03*
%TO.P,U12,26,VCC*%
%TO.N,+5V*%
X35560000Y81280000D03*
%TO.P,U12,27,D7*%
%TO.N,AD_{7}*%
X38100000Y81280000D03*
%TO.P,U12,28,D6*%
%TO.N,AD_{6}*%
X40640000Y81280000D03*
%TO.P,U12,29,D5*%
%TO.N,AD_{5}*%
X43180000Y81280000D03*
%TO.P,U12,30,D4*%
%TO.N,AD_{4}*%
X45720000Y81280000D03*
%TO.P,U12,31,D3*%
%TO.N,AD_{3}*%
X48260000Y81280000D03*
%TO.P,U12,32,D2*%
%TO.N,AD_{2}*%
X50800000Y81280000D03*
%TO.P,U12,33,D1*%
%TO.N,AD_{1}*%
X53340000Y81280000D03*
%TO.P,U12,34,D0*%
%TO.N,AD_{0}*%
X55880000Y81280000D03*
%TO.P,U12,35,RESET*%
%TO.N,RES*%
X58420000Y81280000D03*
%TO.P,U12,36,~{WR}*%
%TO.N,~{WR}*%
X60960000Y81280000D03*
%TO.P,U12,37,PA7*%
%TO.N,Net-(LCD1-D_{7})*%
X63500000Y81280000D03*
%TO.P,U12,38,PA6*%
%TO.N,Net-(LCD1-D_{6})*%
X66040000Y81280000D03*
%TO.P,U12,39,PA5*%
%TO.N,Net-(LCD1-D_{5})*%
X68580000Y81280000D03*
%TO.P,U12,40,PA4*%
%TO.N,Net-(LCD1-D_{4})*%
X71120000Y81280000D03*
%TD*%
D25*
%TO.P,U7,1,~{RST}*%
%TO.N,Net-(U7-~{RST})*%
X123190000Y62230000D03*
D26*
%TO.P,U7,2,VCC*%
%TO.N,+5V*%
X125730000Y62230000D03*
%TO.P,U7,3,GND*%
%TO.N,GND*%
X128270000Y62230000D03*
%TD*%
D14*
%TO.P,C9,1*%
%TO.N,+5V*%
X82550000Y34290000D03*
%TO.P,C9,2*%
%TO.N,GND*%
X95250000Y34290000D03*
%TD*%
D21*
%TO.P,R2,1*%
%TO.N,Net-(D1-K)*%
X124460000Y69850000D03*
D22*
%TO.P,R2,2*%
%TO.N,GND*%
X124460000Y77470000D03*
%TD*%
D13*
%TO.P,U8,14,VCC*%
%TO.N,+5V*%
X115570000Y48340000D03*
%TO.P,U8,13*%
%TO.N,unconnected-(U8-Pad13)*%
X113030000Y48340000D03*
%TO.P,U8,12*%
%TO.N,unconnected-(U8-Pad12)*%
X110490000Y48340000D03*
%TO.P,U8,11*%
%TO.N,unconnected-(U8-Pad11)*%
X107950000Y48340000D03*
%TO.P,U8,10*%
%TO.N,Net-(U7-~{RST})*%
X105410000Y48340000D03*
%TO.P,U8,9*%
X102870000Y48340000D03*
%TO.P,U8,8*%
%TO.N,RES*%
X100330000Y48340000D03*
%TO.P,U8,7,GND*%
%TO.N,GND*%
X100330000Y55960000D03*
%TO.P,U8,6*%
%TO.N,Net-(U13-~{Mr})*%
X102870000Y55960000D03*
%TO.P,U8,5*%
%TO.N,RES*%
X105410000Y55960000D03*
%TO.P,U8,4*%
X107950000Y55960000D03*
%TO.P,U8,3*%
%TO.N,CLK*%
X110490000Y55960000D03*
%TO.P,U8,2*%
%TO.N,Net-(U6-IO7)*%
X113030000Y55960000D03*
D12*
%TO.P,U8,1*%
X115570000Y55960000D03*
%TD*%
%TO.P,U6,1,I1/CLK*%
%TO.N,Net-(U11-OUT)*%
X48260000Y41910000D03*
D13*
%TO.P,U6,2,I2*%
%TO.N,A_{8}*%
X50800000Y41910000D03*
%TO.P,U6,3,I3*%
%TO.N,A_{16}*%
X53340000Y41910000D03*
%TO.P,U6,4,I4*%
%TO.N,A_{17}*%
X55880000Y41910000D03*
%TO.P,U6,5,I5*%
%TO.N,A_{18}*%
X58420000Y41910000D03*
%TO.P,U6,6,I6*%
%TO.N,A_{19}*%
X60960000Y41910000D03*
%TO.P,U6,7,I7*%
%TO.N,~{RD}*%
X63500000Y41910000D03*
%TO.P,U6,8,I8*%
%TO.N,~{WR}*%
X66040000Y41910000D03*
%TO.P,U6,9,I9*%
%TO.N,IO{slash}~{M}*%
X68580000Y41910000D03*
%TO.P,U6,10,GND*%
%TO.N,GND*%
X71120000Y41910000D03*
%TO.P,U6,11,I10/~{OE}*%
X71120000Y49530000D03*
%TO.P,U6,12,IO8*%
%TO.N,unconnected-(U6-IO8-Pad12)*%
X68580000Y49530000D03*
%TO.P,U6,13,IO7*%
%TO.N,Net-(U6-IO7)*%
X66040000Y49530000D03*
%TO.P,U6,14,IO6*%
%TO.N,unconnected-(U6-IO6-Pad14)*%
X63500000Y49530000D03*
%TO.P,U6,15,IO5*%
%TO.N,IO~{EN}*%
X60960000Y49530000D03*
%TO.P,U6,16,IO4*%
%TO.N,IN~{EN}*%
X58420000Y49530000D03*
%TO.P,U6,17,I03*%
%TO.N,OUT~{EN}*%
X55880000Y49530000D03*
%TO.P,U6,18,IO2*%
%TO.N,RAM~{EN}*%
X53340000Y49530000D03*
%TO.P,U6,19,IO1*%
%TO.N,ROM~{EN}*%
X50800000Y49530000D03*
%TO.P,U6,20,VCC*%
%TO.N,+5V*%
X48260000Y49530000D03*
%TD*%
D27*
%TO.P,BAR1,1,A*%
%TO.N,Net-(U13-Q0)*%
X77470000Y12700000D03*
D28*
%TO.P,BAR1,2,A*%
%TO.N,Net-(U13-Q1)*%
X80010000Y12700000D03*
%TO.P,BAR1,3,A*%
%TO.N,Net-(U13-Q2)*%
X82550000Y12700000D03*
%TO.P,BAR1,4,A*%
%TO.N,Net-(U13-Q3)*%
X85090000Y12700000D03*
%TO.P,BAR1,5,A*%
%TO.N,Net-(U13-Q4)*%
X87630000Y12700000D03*
%TO.P,BAR1,6,A*%
%TO.N,Net-(U13-Q5)*%
X90170000Y12700000D03*
%TO.P,BAR1,7,A*%
%TO.N,Net-(U13-Q6)*%
X92710000Y12700000D03*
%TO.P,BAR1,8,A*%
%TO.N,Net-(U13-Q7)*%
X95250000Y12700000D03*
%TO.P,BAR1,9,A*%
%TO.N,unconnected-(BAR1-A-Pad9)*%
X97790000Y12700000D03*
%TO.P,BAR1,10,A*%
%TO.N,unconnected-(BAR1-A-Pad10)*%
X100330000Y12700000D03*
%TO.P,BAR1,11,K*%
%TO.N,unconnected-(BAR1-K-Pad11)*%
X100330000Y20320000D03*
%TO.P,BAR1,12,K*%
%TO.N,unconnected-(BAR1-K-Pad12)*%
X97790000Y20320000D03*
%TO.P,BAR1,13,K*%
%TO.N,Net-(RN3-R8)*%
X95250000Y20320000D03*
%TO.P,BAR1,14,K*%
%TO.N,Net-(RN3-R7)*%
X92710000Y20320000D03*
%TO.P,BAR1,15,K*%
%TO.N,Net-(RN3-R6)*%
X90170000Y20320000D03*
%TO.P,BAR1,16,K*%
%TO.N,Net-(RN3-R5)*%
X87630000Y20320000D03*
%TO.P,BAR1,17,K*%
%TO.N,Net-(RN3-R4)*%
X85090000Y20320000D03*
%TO.P,BAR1,18,K*%
%TO.N,Net-(RN3-R3)*%
X82550000Y20320000D03*
%TO.P,BAR1,19,K*%
%TO.N,Net-(RN3-R2)*%
X80010000Y20320000D03*
%TO.P,BAR1,20,K*%
%TO.N,Net-(RN3-R1)*%
X77470000Y20320000D03*
%TD*%
D12*
%TO.P,U5,1,OE*%
%TO.N,GND*%
X83820000Y104140000D03*
D13*
%TO.P,U5,2,D0*%
%TO.N,AS_{16}*%
X83820000Y101600000D03*
%TO.P,U5,3,D1*%
%TO.N,AS_{17}*%
X83820000Y99060000D03*
%TO.P,U5,4,D2*%
%TO.N,AS_{18}*%
X83820000Y96520000D03*
%TO.P,U5,5,D3*%
%TO.N,AS_{19}*%
X83820000Y93980000D03*
%TO.P,U5,6,D4*%
%TO.N,GND*%
X83820000Y91440000D03*
%TO.P,U5,7,D5*%
X83820000Y88900000D03*
%TO.P,U5,8,D6*%
X83820000Y86360000D03*
%TO.P,U5,9,D7*%
X83820000Y83820000D03*
%TO.P,U5,10,GND*%
X83820000Y81280000D03*
%TO.P,U5,11,Load*%
%TO.N,ALE*%
X91440000Y81280000D03*
%TO.P,U5,12,Q7*%
%TO.N,unconnected-(U5-Q7-Pad12)*%
X91440000Y83820000D03*
%TO.P,U5,13,Q6*%
%TO.N,unconnected-(U5-Q6-Pad13)*%
X91440000Y86360000D03*
%TO.P,U5,14,Q5*%
%TO.N,unconnected-(U5-Q5-Pad14)*%
X91440000Y88900000D03*
%TO.P,U5,15,Q4*%
%TO.N,unconnected-(U5-Q4-Pad15)*%
X91440000Y91440000D03*
%TO.P,U5,16,Q3*%
%TO.N,A_{19}*%
X91440000Y93980000D03*
%TO.P,U5,17,Q2*%
%TO.N,A_{18}*%
X91440000Y96520000D03*
%TO.P,U5,18,Q1*%
%TO.N,A_{17}*%
X91440000Y99060000D03*
%TO.P,U5,19,Q0*%
%TO.N,A_{16}*%
X91440000Y101600000D03*
%TO.P,U5,20,VCC*%
%TO.N,+5V*%
X91440000Y104140000D03*
%TD*%
D24*
%TO.P,SW1,1,1*%
%TO.N,Net-(U7-~{RST})*%
X129540000Y48895000D03*
X123040000Y48895000D03*
%TO.P,SW1,2,2*%
%TO.N,GND*%
X129540000Y53395000D03*
X123040000Y53395000D03*
%TD*%
D29*
%TO.P,U10,1,IN*%
%TO.N,Net-(U10-IN)*%
X123190000Y86360000D03*
D30*
%TO.P,U10,2,GND*%
%TO.N,GND*%
X125730000Y86360000D03*
%TO.P,U10,3,OUT*%
%TO.N,+5V*%
X128270000Y86360000D03*
%TD*%
D31*
%TO.N,Net-(U13-~{Mr})*%
X86748700Y31656900D03*
%TO.N,Net-(U13-Q5)*%
X90170000Y35485400D03*
%TO.N,ALE*%
X84192700Y45849400D03*
%TO.N,Net-(RN1D-R4.2)*%
X74033300Y69354200D03*
%TO.N,A_{19}*%
X64050000Y74960000D03*
X89168600Y90608500D03*
%TO.N,~{WR}*%
X59304200Y52039600D03*
X65950500Y47625000D03*
%TO.N,IO{slash}~{M}*%
X62497600Y70975700D03*
%TO.N,RES*%
X102314800Y81343300D03*
%TO.N,A_{17}*%
X57310100Y39863100D03*
X74726700Y39863100D03*
%TO.N,RAM~{EN}*%
X78746600Y73411800D03*
X77818500Y57964700D03*
%TO.N,A_{16}*%
X72901900Y38538400D03*
X55993400Y38538400D03*
%TO.N,A_{18}*%
X72596200Y41896100D03*
%TO.N,A_{14}*%
X79689300Y71334100D03*
%TO.N,A_{13}*%
X26946500Y51840600D03*
X83490100Y75793200D03*
X81429000Y71911300D03*
%TO.N,A_{8}*%
X71238900Y65114000D03*
%TO.N,A_{9}*%
X36752200Y48069600D03*
X89521600Y76484000D03*
X79778500Y67710600D03*
%TO.N,A_{11}*%
X36074000Y75973200D03*
%TO.N,~{RD}*%
X59245500Y97750000D03*
X117278700Y101923900D03*
X46441200Y48807200D03*
%TO.N,A_{12}*%
X92545100Y74153200D03*
%TO.N,A_{15}*%
X108310200Y90182300D03*
%TO.N,A_{0}*%
X105033100Y72353200D03*
X69756900Y52859700D03*
%TO.N,A_{1}*%
X88881000Y105763000D03*
X88590000Y50074400D03*
X81429400Y46355800D03*
X73563000Y32329700D03*
%TO.N,A_{2}*%
X76248400Y59839600D03*
%TO.N,A_{3}*%
X101607600Y59796100D03*
X88001900Y51270800D03*
X79077600Y47067200D03*
%TO.N,A_{4}*%
X80025100Y62270100D03*
%TO.N,A_{5}*%
X79157300Y75382100D03*
X75432500Y70352100D03*
%TO.N,A_{6}*%
X64473800Y31392300D03*
X67108100Y62957300D03*
%TO.N,A_{7}*%
X76923000Y79005000D03*
%TO.N,AD_{7}*%
X90018300Y74930100D03*
X79686000Y65656100D03*
%TO.N,AD_{6}*%
X118437600Y67269400D03*
%TO.N,AD_{2}*%
X85816300Y45849400D03*
X93939200Y43357900D03*
X89386800Y63535200D03*
%TO.N,AD_{1}*%
X88836300Y44178400D03*
%TO.N,AD_{0}*%
X86293500Y42905800D03*
X72358100Y58105500D03*
%TO.N,Net-(RN1A-R1.2)*%
X72952400Y47880800D03*
%TD*%
D32*
%TO.N,Net-(U13-~{Mr})*%
X87453800Y31656900D02*
X86748700Y31656900D01*
X91492900Y35696000D02*
X87453800Y31656900D01*
X91492900Y44582900D02*
X91492900Y35696000D01*
X102870000Y55960000D02*
X91492900Y44582900D01*
%TO.N,IN~{EN}*%
X106680000Y34383100D02*
X106680000Y30480000D01*
X109220000Y36923100D02*
X106680000Y34383100D01*
X109220000Y38100000D02*
X109220000Y36923100D01*
%TO.N,Net-(RN4-R8)*%
X127000000Y24036900D02*
X127000000Y25400000D01*
X124460000Y21496900D02*
X127000000Y24036900D01*
X124460000Y20320000D02*
X124460000Y21496900D01*
X128363100Y27940000D02*
X127000000Y26576900D01*
X128363100Y35746200D02*
X128363100Y27940000D01*
X129540000Y36923100D02*
X128363100Y35746200D01*
X129540000Y38100000D02*
X129540000Y36923100D01*
X127000000Y25400000D02*
X127000000Y26576900D01*
%TO.N,Net-(RN4-R7)*%
X121920000Y20320000D02*
X121920000Y21496900D01*
X124460000Y38100000D02*
X124460000Y36923100D01*
X124460000Y24036900D02*
X124460000Y25400000D01*
X121920000Y21496900D02*
X124460000Y24036900D01*
X123269400Y35732500D02*
X124460000Y36923100D01*
X123269400Y27767500D02*
X123269400Y35732500D01*
X124460000Y26576900D02*
X123269400Y27767500D01*
X124460000Y25400000D02*
X124460000Y26576900D01*
%TO.N,Net-(RN4-R6)*%
X121920000Y24036900D02*
X121920000Y25400000D01*
X119380000Y21496900D02*
X121920000Y24036900D01*
X119380000Y20320000D02*
X119380000Y21496900D01*
X119380000Y38100000D02*
X119380000Y36923100D01*
X121920000Y25400000D02*
X121920000Y26576900D01*
X120556900Y27940000D02*
X121920000Y26576900D01*
X120556900Y35036500D02*
X120556900Y27940000D01*
X119380000Y36213400D02*
X120556900Y35036500D01*
X119380000Y36923100D02*
X119380000Y36213400D01*
%TO.N,Net-(RN4-R5)*%
X116840000Y20320000D02*
X116840000Y21496900D01*
X119380000Y24036900D02*
X119380000Y25400000D01*
X116840000Y21496900D02*
X119380000Y24036900D01*
X118203100Y33020000D02*
X114300000Y36923100D01*
X118203100Y27753800D02*
X118203100Y33020000D01*
X119380000Y26576900D02*
X118203100Y27753800D01*
X119380000Y25400000D02*
X119380000Y26576900D01*
X114300000Y38100000D02*
X114300000Y36923100D01*
%TO.N,Net-(RN4-R4)*%
X116840000Y24036900D02*
X116840000Y25400000D01*
X114300000Y21496900D02*
X116840000Y24036900D01*
X114300000Y20320000D02*
X114300000Y21496900D01*
%TO.N,Net-(RN4-R3)*%
X114300000Y24036900D02*
X114300000Y25400000D01*
X111760000Y21496900D02*
X114300000Y24036900D01*
X111760000Y20320000D02*
X111760000Y21496900D01*
%TO.N,Net-(RN4-R2)*%
X111760000Y26763100D02*
X111760000Y25400000D01*
X114300000Y29303100D02*
X111760000Y26763100D01*
X114300000Y30480000D02*
X114300000Y29303100D01*
%TO.N,Net-(RN4-R1)*%
X109220000Y24036900D02*
X109220000Y25400000D01*
X106680000Y21496900D02*
X109220000Y24036900D01*
X106680000Y20320000D02*
X106680000Y21496900D01*
X109220000Y30480000D02*
X109220000Y25400000D01*
%TO.N,Net-(RN3-R1)*%
X77470000Y21683100D02*
X80010000Y24223100D01*
X77470000Y20320000D02*
X77470000Y21683100D01*
X80010000Y25400000D02*
X80010000Y24223100D01*
%TO.N,Net-(RN3-R2)*%
X82550000Y22860000D02*
X82550000Y25400000D01*
X80010000Y20320000D02*
X82550000Y22860000D01*
%TO.N,Net-(RN3-R3)*%
X85090000Y22860000D02*
X85090000Y25400000D01*
X82550000Y20320000D02*
X85090000Y22860000D01*
%TO.N,Net-(RN3-R4)*%
X87630000Y22860000D02*
X87630000Y25400000D01*
X85090000Y20320000D02*
X87630000Y22860000D01*
%TO.N,Net-(RN3-R5)*%
X90170000Y22860000D02*
X90170000Y25400000D01*
X87630000Y20320000D02*
X90170000Y22860000D01*
%TO.N,Net-(RN3-R7)*%
X92710000Y21683100D02*
X95250000Y24223100D01*
X92710000Y20320000D02*
X92710000Y21683100D01*
X95250000Y25400000D02*
X95250000Y24223100D01*
%TO.N,Net-(U13-Q7)*%
X80010000Y38100000D02*
X80010000Y36923100D01*
X74505800Y31418900D02*
X80010000Y36923100D01*
X74505800Y12350400D02*
X74505800Y31418900D01*
X76077200Y10779000D02*
X74505800Y12350400D01*
X93329000Y10779000D02*
X76077200Y10779000D01*
X95250000Y12700000D02*
X93329000Y10779000D01*
%TO.N,Net-(U13-Q6)*%
X91290900Y11280900D02*
X92710000Y12700000D01*
X76285100Y11280900D02*
X91290900Y11280900D01*
X75020200Y12545800D02*
X76285100Y11280900D01*
X75020200Y30182000D02*
X75020200Y12545800D01*
X76497700Y31659500D02*
X75020200Y30182000D01*
X80515400Y31659500D02*
X76497700Y31659500D01*
X81280000Y30894900D02*
X80515400Y31659500D01*
X81280000Y30045400D02*
X81280000Y30894900D01*
X82043100Y29282300D02*
X81280000Y30045400D01*
X83075000Y29282300D02*
X82043100Y29282300D01*
X83820000Y30027300D02*
X83075000Y29282300D01*
X83820000Y31806400D02*
X83820000Y30027300D01*
X87630000Y35616400D02*
X83820000Y31806400D01*
X87630000Y38100000D02*
X87630000Y35616400D01*
%TO.N,Net-(U13-Q5)*%
X90170000Y38100000D02*
X90170000Y35485400D01*
%TO.N,IO~{EN}*%
X54689400Y91612500D02*
X58420000Y95343100D01*
X54689400Y80370100D02*
X54689400Y91612500D01*
X57150000Y77909500D02*
X54689400Y80370100D01*
X57150000Y69471000D02*
X57150000Y77909500D01*
X59690100Y66930900D02*
X57150000Y69471000D01*
X59690100Y52909500D02*
X59690100Y66930900D01*
X60960000Y51639600D02*
X59690100Y52909500D01*
X60960000Y49530000D02*
X60960000Y51639600D01*
X58420000Y96520000D02*
X58420000Y95343100D01*
%TO.N,Net-(LCD1-D_{7})*%
X63500000Y81280000D02*
X63500000Y82456900D01*
X62165600Y83791300D02*
X63500000Y82456900D01*
X62165600Y104204400D02*
X62165600Y83791300D01*
X60960000Y105410000D02*
X62165600Y104204400D01*
%TO.N,Net-(LCD1-D_{6})*%
X66040000Y81280000D02*
X64863100Y81280000D01*
X60040600Y103789400D02*
X58420000Y105410000D01*
X60040600Y97444700D02*
X60040600Y103789400D01*
X59783100Y97187200D02*
X60040600Y97444700D01*
X59783100Y84123200D02*
X59783100Y97187200D01*
X62323100Y81583200D02*
X59783100Y84123200D01*
X62323100Y80749900D02*
X62323100Y81583200D01*
X62987000Y80086000D02*
X62323100Y80749900D01*
X64036900Y80086000D02*
X62987000Y80086000D01*
X64863100Y80912200D02*
X64036900Y80086000D01*
X64863100Y81280000D02*
X64863100Y80912200D01*
%TO.N,Net-(LCD1-D_{5})*%
X57276200Y106806200D02*
X55880000Y105410000D01*
X66599800Y106806200D02*
X57276200Y106806200D01*
X67435400Y105970600D02*
X66599800Y106806200D01*
X67435400Y103779100D02*
X67435400Y105970600D01*
X67362700Y103706400D02*
X67435400Y103779100D01*
X67362700Y83674200D02*
X67362700Y103706400D01*
X68580000Y82456900D02*
X67362700Y83674200D01*
X68580000Y81280000D02*
X68580000Y82456900D01*
%TO.N,Net-(LCD1-D_{4})*%
X71120000Y81280000D02*
X71120000Y82456900D01*
X55258800Y107328800D02*
X53340000Y105410000D01*
X66797700Y107328800D02*
X55258800Y107328800D01*
X69782500Y104344000D02*
X66797700Y107328800D01*
X69782500Y83794400D02*
X69782500Y104344000D01*
X71120000Y82456900D02*
X69782500Y83794400D01*
%TO.N,Net-(LCD1-R~{W})*%
X37634900Y105410000D02*
X38100000Y105410000D01*
X29210000Y96985100D02*
X37634900Y105410000D01*
X29210000Y96076800D02*
X29210000Y96985100D01*
X28475800Y95342600D02*
X29210000Y96076800D01*
X27386500Y95342600D02*
X28475800Y95342600D01*
X26576900Y96152200D02*
X27386500Y95342600D01*
X26576900Y96520000D02*
X26576900Y96152200D01*
X25400000Y96520000D02*
X26576900Y96520000D01*
%TO.N,Net-(U13-Q4)*%
X99060100Y35653000D02*
X97790000Y36923100D01*
X99060100Y29899700D02*
X99060100Y35653000D01*
X101759900Y27199900D02*
X99060100Y29899700D01*
X101759900Y19780000D02*
X101759900Y27199900D01*
X100268200Y18288300D02*
X101759900Y19780000D01*
X93218300Y18288300D02*
X100268200Y18288300D01*
X87630000Y12700000D02*
X93218300Y18288300D01*
X97790000Y38100000D02*
X97790000Y36923100D01*
%TO.N,ALE*%
X91440000Y81280000D02*
X91440000Y80103100D01*
X91440000Y74873600D02*
X91440000Y80103100D01*
X85020800Y68454400D02*
X91440000Y74873600D01*
X85020800Y64248800D02*
X85020800Y68454400D01*
X84272000Y63500000D02*
X85020800Y64248800D01*
X83356600Y63500000D02*
X84272000Y63500000D01*
X81805800Y61949200D02*
X83356600Y63500000D01*
X81805800Y61532500D02*
X81805800Y61949200D01*
X81593800Y61320500D02*
X81805800Y61532500D01*
X81593800Y48711700D02*
X81593800Y61320500D01*
X84192700Y46112800D02*
X81593800Y48711700D01*
X84192700Y45849400D02*
X84192700Y46112800D01*
%TO.N,Net-(RN1D-R4.2)*%
X77470000Y52050000D02*
X77470000Y53226900D01*
X77072800Y66314700D02*
X74033300Y69354200D01*
X77072800Y59396300D02*
X77072800Y66314700D01*
X76991000Y59314500D02*
X77072800Y59396300D01*
X76991000Y53705900D02*
X76991000Y59314500D01*
X77470000Y53226900D02*
X76991000Y53705900D01*
%TO.N,Net-(U11-OUT)*%
X41910000Y49436900D02*
X48260000Y43086900D01*
X41910000Y49530000D02*
X41910000Y49436900D01*
X48260000Y41910000D02*
X48260000Y43086900D01*
%TO.N,Net-(U7-~{RST})*%
X124316900Y62511800D02*
X124316900Y62230000D01*
X125162000Y63356900D02*
X124316900Y62511800D01*
X126267100Y63356900D02*
X125162000Y63356900D01*
X126861300Y62762700D02*
X126267100Y63356900D01*
X126861300Y52716300D02*
X126861300Y62762700D01*
X123040000Y48895000D02*
X126861300Y52716300D01*
X123190000Y62230000D02*
X124316900Y62230000D01*
%TO.N,Net-(U13-Q1)*%
X87630000Y30480000D02*
X86453100Y30480000D01*
X86453100Y30114100D02*
X86453100Y30480000D01*
X84196700Y27857700D02*
X86453100Y30114100D01*
X80727600Y27857700D02*
X84196700Y27857700D01*
X78739900Y25870000D02*
X80727600Y27857700D01*
X78739900Y24536900D02*
X78739900Y25870000D01*
X76051900Y21848900D02*
X78739900Y24536900D01*
X76051900Y19756300D02*
X76051900Y21848900D01*
X80010000Y15798200D02*
X76051900Y19756300D01*
X80010000Y12700000D02*
X80010000Y15798200D01*
%TO.N,Net-(U13-Q0)*%
X79177700Y29303100D02*
X80010000Y29303100D01*
X75536100Y25661500D02*
X79177700Y29303100D01*
X75536100Y16026800D02*
X75536100Y25661500D01*
X77470000Y14092900D02*
X75536100Y16026800D01*
X77470000Y12700000D02*
X77470000Y14092900D01*
X80010000Y30480000D02*
X80010000Y29303100D01*
%TO.N,Net-(LCD1-RS)*%
X35560000Y105316900D02*
X35560000Y105410000D01*
X27940000Y97696900D02*
X35560000Y105316900D01*
X27940000Y96520000D02*
X27940000Y97696900D01*
%TO.N,Net-(U10-IN)*%
X123190000Y90833100D02*
X126330000Y93973100D01*
X123190000Y86360000D02*
X123190000Y90833100D01*
X126330000Y95250000D02*
X126330000Y93973100D01*
%TO.N,A_{19}*%
X91132000Y92803100D02*
X91440000Y92803100D01*
X89168600Y90839700D02*
X91132000Y92803100D01*
X89168600Y90608500D02*
X89168600Y90839700D01*
X60960000Y41910000D02*
X60960000Y43086900D01*
X91440000Y93980000D02*
X91440000Y92803100D01*
X62170800Y44297700D02*
X60960000Y43086900D01*
X62170800Y69834800D02*
X62170800Y44297700D01*
X61720700Y70284900D02*
X62170800Y69834800D01*
X61720700Y71297400D02*
X61720700Y70284900D01*
X62230000Y71806700D02*
X61720700Y71297400D01*
X62230000Y73140000D02*
X62230000Y71806700D01*
X64050000Y74960000D02*
X62230000Y73140000D01*
%TO.N,~{WR}*%
X67278000Y46297500D02*
X65950500Y47625000D01*
X67278000Y44324900D02*
X67278000Y46297500D01*
X66040000Y43086900D02*
X67278000Y44324900D01*
X66040000Y41910000D02*
X66040000Y43086900D01*
X50800000Y62022000D02*
X50800000Y72390000D01*
X54516900Y58305100D02*
X50800000Y62022000D01*
X54516900Y56826900D02*
X54516900Y58305100D01*
X59304200Y52039600D02*
X54516900Y56826900D01*
%TO.N,IO{slash}~{M}*%
X67885000Y65588300D02*
X62497600Y70975700D01*
X67885000Y62635500D02*
X67885000Y65588300D01*
X67383100Y62133600D02*
X67885000Y62635500D01*
X67383100Y47732000D02*
X67383100Y62133600D01*
X68580000Y46535100D02*
X67383100Y47732000D01*
X68580000Y41910000D02*
X68580000Y46535100D01*
%TO.N,RES*%
X107950000Y55960000D02*
X107950000Y57136900D01*
X117941500Y68046300D02*
X117250600Y67355400D01*
X118662700Y68046300D02*
X117941500Y68046300D01*
X125730000Y75113600D02*
X118662700Y68046300D01*
X125730000Y77772000D02*
X125730000Y75113600D01*
X126519500Y78561500D02*
X125730000Y77772000D01*
X127482500Y78561500D02*
X126519500Y78561500D01*
X132080000Y73964000D02*
X127482500Y78561500D01*
X132080000Y73660000D02*
X132080000Y73964000D01*
X115078100Y68580000D02*
X102314800Y81343300D01*
X116026000Y68580000D02*
X115078100Y68580000D01*
X117250600Y67355400D02*
X116026000Y68580000D01*
X117250600Y64786300D02*
X117250600Y67355400D01*
X115964300Y63500000D02*
X117250600Y64786300D01*
X114313100Y63500000D02*
X115964300Y63500000D01*
X107950000Y57136900D02*
X114313100Y63500000D01*
X59596900Y80914200D02*
X59596900Y81280000D01*
X61911800Y78599300D02*
X59596900Y80914200D01*
X64101600Y78599300D02*
X61911800Y78599300D01*
X69943100Y72757800D02*
X64101600Y78599300D01*
X69943100Y72390000D02*
X69943100Y72757800D01*
X71120000Y72390000D02*
X69943100Y72390000D01*
X58420000Y81280000D02*
X59596900Y81280000D01*
X100695800Y49516900D02*
X100330000Y49516900D01*
X105410000Y54231100D02*
X100695800Y49516900D01*
X105410000Y55960000D02*
X105410000Y54231100D01*
X100330000Y48340000D02*
X100330000Y49516900D01*
%TO.N,A_{17}*%
X56440100Y40733100D02*
X57310100Y39863100D01*
X55880000Y40733100D02*
X56440100Y40733100D01*
X55880000Y41910000D02*
X55880000Y40733100D01*
X91440000Y99060000D02*
X91440000Y97883100D01*
X91072100Y97883100D02*
X91440000Y97883100D01*
X90263100Y97074100D02*
X91072100Y97883100D01*
X90263100Y92971000D02*
X90263100Y97074100D01*
X85725100Y88433000D02*
X90263100Y92971000D01*
X85725100Y86600500D02*
X85725100Y88433000D01*
X84214600Y85090000D02*
X85725100Y86600500D01*
X83384400Y85090000D02*
X84214600Y85090000D01*
X80436100Y82141700D02*
X83384400Y85090000D01*
X80436100Y74852400D02*
X80436100Y82141700D01*
X80025400Y74441700D02*
X80436100Y74852400D01*
X80025400Y72882200D02*
X80025400Y74441700D01*
X78909100Y71765900D02*
X80025400Y72882200D01*
X78909100Y65065000D02*
X78909100Y71765900D01*
X79189700Y64784400D02*
X78909100Y65065000D01*
X79189700Y49532900D02*
X79189700Y64784400D01*
X77896800Y48240000D02*
X79189700Y49532900D01*
X76995600Y48240000D02*
X77896800Y48240000D01*
X76293100Y47537500D02*
X76995600Y48240000D01*
X76293100Y45772000D02*
X76293100Y47537500D01*
X75250400Y44729300D02*
X76293100Y45772000D01*
X75250400Y40386800D02*
X75250400Y44729300D01*
X74726700Y39863100D02*
X75250400Y40386800D01*
%TO.N,RAM~{EN}*%
X77818500Y72483700D02*
X78746600Y73411800D01*
X77818500Y57964700D02*
X77818500Y72483700D01*
%TO.N,A_{16}*%
X53340000Y41910000D02*
X53340000Y40733100D01*
X91440000Y101600000D02*
X91440000Y100423100D01*
X53798700Y40733100D02*
X55993400Y38538400D01*
X53340000Y40733100D02*
X53798700Y40733100D01*
X91072000Y100423100D02*
X91440000Y100423100D01*
X85780200Y95131300D02*
X91072000Y100423100D01*
X85780200Y89197900D02*
X85780200Y95131300D01*
X85223200Y88640900D02*
X85780200Y89197900D01*
X85223200Y88638800D02*
X85223200Y88640900D01*
X84214400Y87630000D02*
X85223200Y88638800D01*
X83331400Y87630000D02*
X84214400Y87630000D01*
X79934200Y84232800D02*
X83331400Y87630000D01*
X79934200Y75060300D02*
X79934200Y84232800D01*
X79523500Y74649600D02*
X79934200Y75060300D01*
X79523500Y73090000D02*
X79523500Y74649600D01*
X78407200Y71973700D02*
X79523500Y73090000D01*
X78407200Y60703000D02*
X78407200Y71973700D01*
X78683100Y60427100D02*
X78407200Y60703000D01*
X78683100Y51580900D02*
X78683100Y60427100D01*
X77882200Y50780000D02*
X78683100Y51580900D01*
X77036000Y50780000D02*
X77882200Y50780000D01*
X75521500Y49265500D02*
X77036000Y50780000D01*
X75521500Y46508400D02*
X75521500Y49265500D01*
X74475000Y45461900D02*
X75521500Y46508400D01*
X74475000Y40993100D02*
X74475000Y45461900D01*
X72901900Y39420000D02*
X74475000Y40993100D01*
X72901900Y38538400D02*
X72901900Y39420000D01*
%TO.N,A_{18}*%
X91440000Y96520000D02*
X92616900Y96520000D01*
X98198900Y99375800D02*
X99153100Y100330000D01*
X95399600Y99375800D02*
X98198900Y99375800D01*
X95399600Y99302700D02*
X95399600Y99375800D01*
X92616900Y96520000D02*
X95399600Y99302700D01*
X100330000Y100330000D02*
X99153100Y100330000D01*
X72596200Y46422300D02*
X72596200Y41896100D01*
X73744300Y47570400D02*
X72596200Y46422300D01*
X73744300Y60029800D02*
X73744300Y47570400D01*
X72690400Y61083700D02*
X73744300Y60029800D01*
X72690400Y71467800D02*
X72690400Y61083700D01*
X73021700Y71799100D02*
X72690400Y71467800D01*
X73021700Y79772900D02*
X73021700Y71799100D01*
X83418800Y90170000D02*
X73021700Y79772900D01*
X84250400Y90170000D02*
X83418800Y90170000D01*
X85185300Y91104900D02*
X84250400Y90170000D01*
X85185300Y98286700D02*
X85185300Y91104900D01*
X89702300Y102803700D02*
X85185300Y98286700D01*
X91971700Y102803700D02*
X89702300Y102803700D01*
X95399600Y99375800D02*
X91971700Y102803700D01*
%TO.N,A_{14}*%
X35960000Y33020000D02*
X35960000Y31923100D01*
X100330000Y95250000D02*
X99153100Y95250000D01*
X34559600Y30522700D02*
X35960000Y31923100D01*
X34559600Y16940300D02*
X34559600Y30522700D01*
X34302400Y16683100D02*
X34559600Y16940300D01*
X32492400Y16683100D02*
X34302400Y16683100D01*
X25400000Y23775500D02*
X32492400Y16683100D01*
X25400000Y57150000D02*
X25400000Y23775500D01*
X99153100Y94882200D02*
X99153100Y95250000D01*
X91900900Y87630000D02*
X99153100Y94882200D01*
X90968500Y87630000D02*
X91900900Y87630000D01*
X85888500Y82550000D02*
X90968500Y87630000D01*
X83384700Y82550000D02*
X85888500Y82550000D01*
X80938000Y80103300D02*
X83384700Y82550000D01*
X80938000Y74644500D02*
X80938000Y80103300D01*
X80527300Y74233800D02*
X80938000Y74644500D01*
X80527300Y72172100D02*
X80527300Y74233800D01*
X79689300Y71334100D02*
X80527300Y72172100D01*
%TO.N,A_{13}*%
X27940000Y57150000D02*
X27940000Y55973100D01*
X27438100Y52332200D02*
X26946500Y51840600D01*
X27438100Y55471200D02*
X27438100Y52332200D01*
X27940000Y55973100D02*
X27438100Y55471200D01*
X81429000Y73732100D02*
X81429000Y71911300D01*
X83490100Y75793200D02*
X81429000Y73732100D01*
%TO.N,A_{8}*%
X115570000Y87630000D02*
X115570000Y88806900D01*
X40640000Y57150000D02*
X40640000Y55973100D01*
X50800000Y41910000D02*
X50800000Y43086900D01*
X50800000Y43349800D02*
X50800000Y43086900D01*
X40640000Y53509800D02*
X50800000Y43349800D01*
X40640000Y55973100D02*
X40640000Y53509800D01*
X71238900Y70726100D02*
X71238900Y65114000D01*
X72334900Y71822100D02*
X71238900Y70726100D01*
X72334900Y94850300D02*
X72334900Y71822100D01*
X84024500Y106539900D02*
X72334900Y94850300D01*
X107609200Y106539900D02*
X84024500Y106539900D01*
X115089100Y99060000D02*
X107609200Y106539900D01*
X116000900Y99060000D02*
X115089100Y99060000D01*
X116751300Y98309600D02*
X116000900Y99060000D01*
X116751300Y89620400D02*
X116751300Y98309600D01*
X115937800Y88806900D02*
X116751300Y89620400D01*
X115570000Y88806900D02*
X115937800Y88806900D01*
%TO.N,A_{9}*%
X40640000Y44181800D02*
X36752200Y48069600D01*
X40640000Y37056900D02*
X40640000Y44181800D01*
X43580000Y34116900D02*
X40640000Y37056900D01*
X43580000Y33020000D02*
X43580000Y34116900D01*
X89521600Y75890900D02*
X89521600Y76484000D01*
X84778700Y71148000D02*
X89521600Y75890900D01*
X83215900Y71148000D02*
X84778700Y71148000D01*
X79778500Y67710600D02*
X83215900Y71148000D01*
%TO.N,A_{11}*%
X46118500Y34118400D02*
X46120000Y34116900D01*
X46118500Y40217800D02*
X46118500Y34118400D01*
X38193100Y48143200D02*
X46118500Y40217800D01*
X38193100Y50800000D02*
X38193100Y48143200D01*
X33020000Y55973100D02*
X38193100Y50800000D01*
X46120000Y33020000D02*
X46120000Y34116900D01*
X33020000Y56561600D02*
X33020000Y55973100D01*
X33020000Y56561600D02*
X33020000Y57150000D01*
X34196900Y74096100D02*
X36074000Y75973200D01*
X34196900Y59503800D02*
X34196900Y74096100D01*
X33020000Y58326900D02*
X34196900Y59503800D01*
X33020000Y57150000D02*
X33020000Y58326900D01*
%TO.N,~{RD}*%
X117278700Y82527800D02*
X117278700Y101923900D01*
X115937800Y81186900D02*
X117278700Y82527800D01*
X115570000Y81186900D02*
X115937800Y81186900D01*
X115570000Y80010000D02*
X115570000Y81186900D01*
X43180000Y78693900D02*
X43180000Y72390000D01*
X41964900Y79909000D02*
X43180000Y78693900D01*
X41964900Y81823500D02*
X41964900Y79909000D01*
X55345400Y95204000D02*
X41964900Y81823500D01*
X56242800Y95204000D02*
X55345400Y95204000D01*
X57150000Y96111200D02*
X56242800Y95204000D01*
X57150000Y96972900D02*
X57150000Y96111200D01*
X57927100Y97750000D02*
X57150000Y96972900D01*
X59245500Y97750000D02*
X57927100Y97750000D01*
X46921400Y49287400D02*
X46441200Y48807200D01*
X46921400Y58534700D02*
X46921400Y49287400D01*
X43180000Y62276100D02*
X46921400Y58534700D01*
X43180000Y72390000D02*
X43180000Y62276100D01*
%TO.N,A_{10}*%
X46620400Y38696500D02*
X51200000Y34116900D01*
X46620400Y40637700D02*
X46620400Y38696500D01*
X40640000Y46618100D02*
X46620400Y40637700D01*
X40640000Y50893100D02*
X40640000Y46618100D01*
X35560000Y55973100D02*
X40640000Y50893100D01*
X35560000Y57150000D02*
X35560000Y55973100D01*
X51200000Y33020000D02*
X51200000Y34116900D01*
%TO.N,ROM~{EN}*%
X52070100Y47083000D02*
X50800000Y48353100D01*
X52070100Y39663800D02*
X52070100Y47083000D01*
X53740000Y37993900D02*
X52070100Y39663800D01*
X53740000Y33020000D02*
X53740000Y37993900D01*
X50800000Y49530000D02*
X50800000Y48353100D01*
%TO.N,AD_{4}*%
X50800000Y57150000D02*
X50800000Y55973100D01*
X63900000Y33020000D02*
X63900000Y34116900D01*
X111760000Y30480000D02*
X111760000Y31656900D01*
X106680000Y55492300D02*
X106680000Y57197500D01*
X112096900Y50075400D02*
X106680000Y55492300D01*
X115545100Y50075400D02*
X112096900Y50075400D01*
X116799200Y48821300D02*
X115545100Y50075400D01*
X116799200Y44619500D02*
X116799200Y48821300D01*
X112936900Y40757200D02*
X116799200Y44619500D01*
X112936900Y32833800D02*
X112936900Y40757200D01*
X111760000Y31656900D02*
X112936900Y32833800D01*
X114252500Y64770000D02*
X115570000Y64770000D01*
X106680000Y57197500D02*
X114252500Y64770000D01*
X104917600Y57197500D02*
X106680000Y57197500D01*
X104140000Y56419900D02*
X104917600Y57197500D01*
X104140000Y55543100D02*
X104140000Y56419900D01*
X101923800Y53326900D02*
X104140000Y55543100D01*
X101112600Y53326900D02*
X101923800Y53326900D01*
X95250000Y47464300D02*
X101112600Y53326900D01*
X95250000Y38100000D02*
X95250000Y47464300D01*
X51167800Y55973100D02*
X50800000Y55973100D01*
X57222700Y49918200D02*
X51167800Y55973100D01*
X57222700Y41049100D02*
X57222700Y49918200D01*
X63900000Y34371800D02*
X57222700Y41049100D01*
X63900000Y34116900D02*
X63900000Y34371800D01*
X46896900Y62230000D02*
X50800000Y58326900D01*
X46896900Y78926200D02*
X46896900Y62230000D01*
X45720000Y80103100D02*
X46896900Y78926200D01*
X45720000Y81280000D02*
X45720000Y80103100D01*
X50800000Y57150000D02*
X50800000Y58326900D01*
%TO.N,A_{12}*%
X37058400Y19975300D02*
X35960000Y18876900D01*
X37058400Y34959100D02*
X37058400Y19975300D01*
X35560000Y36457500D02*
X37058400Y34959100D01*
X35560000Y50893100D02*
X35560000Y36457500D01*
X30480000Y55973100D02*
X35560000Y50893100D01*
X30480000Y57150000D02*
X30480000Y55973100D01*
X35960000Y17780000D02*
X35960000Y18876900D01*
X100330000Y92710000D02*
X100330000Y91533100D01*
X93598400Y75206500D02*
X92545100Y74153200D01*
X93598400Y85169300D02*
X93598400Y75206500D01*
X99962200Y91533100D02*
X93598400Y85169300D01*
X100330000Y91533100D02*
X99962200Y91533100D01*
%TO.N,A_{15}*%
X114741000Y96613100D02*
X115570000Y96613100D01*
X108310200Y90182300D02*
X114741000Y96613100D01*
X115570000Y97790000D02*
X115570000Y96613100D01*
X27994900Y24302000D02*
X33420000Y18876900D01*
X27994900Y52181300D02*
X27994900Y24302000D01*
X29143500Y53329900D02*
X27994900Y52181300D01*
X29143500Y67469600D02*
X29143500Y53329900D01*
X25400000Y71213100D02*
X29143500Y67469600D01*
X25400000Y72390000D02*
X25400000Y71213100D01*
X33420000Y17780000D02*
X33420000Y18876900D01*
%TO.N,A_{0}*%
X50800000Y96520000D02*
X50800000Y95343100D01*
X56280000Y17780000D02*
X56280000Y18876900D01*
X91440000Y52070000D02*
X92616900Y52070000D01*
X98229500Y52070000D02*
X92616900Y52070000D01*
X101600000Y55440500D02*
X98229500Y52070000D01*
X101600000Y57484700D02*
X101600000Y55440500D01*
X105033100Y60917800D02*
X101600000Y57484700D01*
X105033100Y72353200D02*
X105033100Y60917800D01*
X56280000Y30020200D02*
X56280000Y18876900D01*
X55163700Y30020200D02*
X56280000Y30020200D01*
X52470000Y32713900D02*
X55163700Y30020200D01*
X52470000Y35495800D02*
X52470000Y32713900D01*
X49530000Y38435800D02*
X52470000Y35495800D01*
X49530000Y43784300D02*
X49530000Y38435800D01*
X36895300Y56419000D02*
X49530000Y43784300D01*
X36895300Y81806200D02*
X36895300Y56419000D01*
X50432200Y95343100D02*
X36895300Y81806200D01*
X50800000Y95343100D02*
X50432200Y95343100D01*
X69756900Y34058100D02*
X69756900Y52859700D01*
X65719000Y30020200D02*
X69756900Y34058100D01*
X56280000Y30020200D02*
X65719000Y30020200D01*
%TO.N,A_{1}*%
X91440000Y54610000D02*
X91440000Y54671800D01*
X91440000Y54671800D02*
X91440000Y54733600D01*
X78740000Y37506700D02*
X73563000Y32329700D01*
X78740000Y40314800D02*
X78740000Y37506700D01*
X81429400Y43004200D02*
X78740000Y40314800D01*
X81429400Y46355800D02*
X81429400Y43004200D01*
X89442600Y50927000D02*
X88590000Y50074400D01*
X89442600Y52674400D02*
X89442600Y50927000D01*
X91440000Y54671800D02*
X89442600Y52674400D01*
X91440000Y55007900D02*
X91440000Y54733600D01*
X99932100Y63500000D02*
X91440000Y55007900D01*
X100725700Y63500000D02*
X99932100Y63500000D01*
X102621500Y65395800D02*
X100725700Y63500000D01*
X102621500Y76895100D02*
X102621500Y65395800D01*
X100851000Y78665600D02*
X102621500Y76895100D01*
X99151400Y78665600D02*
X100851000Y78665600D01*
X100378900Y105763000D02*
X88881000Y105763000D01*
X109147000Y96994900D02*
X100378900Y105763000D01*
X109147000Y92117700D02*
X109147000Y96994900D01*
X102713800Y85684500D02*
X109147000Y92117700D01*
X102713800Y83163400D02*
X102713800Y85684500D01*
X100737300Y81186900D02*
X102713800Y83163400D01*
X99759600Y81186900D02*
X100737300Y81186900D01*
X99151400Y80578700D02*
X99759600Y81186900D01*
X99151400Y78665600D02*
X99151400Y80578700D01*
X99151400Y76108600D02*
X99151400Y78665600D01*
X100330000Y74930000D02*
X99151400Y76108600D01*
%TO.N,A_{2}*%
X51200000Y17780000D02*
X52296900Y17780000D01*
X100330000Y77470000D02*
X100330000Y76293100D01*
X74768100Y58359300D02*
X76248400Y59839600D01*
X74768100Y46523200D02*
X74768100Y58359300D01*
X73944200Y45699300D02*
X74768100Y46523200D01*
X73944200Y41432900D02*
X73944200Y45699300D01*
X71471900Y38960600D02*
X73944200Y41432900D01*
X71471900Y20467200D02*
X71471900Y38960600D01*
X67154300Y16149600D02*
X71471900Y20467200D01*
X53790200Y16149600D02*
X67154300Y16149600D01*
X52296900Y17642900D02*
X53790200Y16149600D01*
X52296900Y17780000D02*
X52296900Y17642900D01*
X100695800Y76293100D02*
X100330000Y76293100D01*
X102079400Y74909500D02*
X100695800Y76293100D01*
X102079400Y67391800D02*
X102079400Y74909500D01*
X100727600Y66040000D02*
X102079400Y67391800D01*
X99935100Y66040000D02*
X100727600Y66040000D01*
X91440000Y57544900D02*
X99935100Y66040000D01*
X91440000Y57150000D02*
X91440000Y57544900D01*
%TO.N,A_{3}*%
X103126200Y61314700D02*
X101607600Y59796100D01*
X103126200Y77213800D02*
X103126200Y61314700D01*
X100330000Y80010000D02*
X103126200Y77213800D01*
X88001900Y52769300D02*
X88001900Y51270800D01*
X90263100Y55030500D02*
X88001900Y52769300D01*
X90263100Y57704100D02*
X90263100Y55030500D01*
X91072100Y58513100D02*
X90263100Y57704100D01*
X91440000Y58513100D02*
X91072100Y58513100D01*
X91440000Y59690000D02*
X91440000Y58513100D01*
X48660000Y17780000D02*
X49756900Y17780000D01*
X49756900Y17666400D02*
X49756900Y17780000D01*
X51807400Y15615900D02*
X49756900Y17666400D01*
X67341400Y15615900D02*
X51807400Y15615900D01*
X72063300Y20337800D02*
X67341400Y15615900D01*
X72063300Y35765400D02*
X72063300Y20337800D01*
X75752300Y39454400D02*
X72063300Y35765400D01*
X75752300Y44388100D02*
X75752300Y39454400D01*
X77116800Y45752600D02*
X75752300Y44388100D01*
X77933700Y45752600D02*
X77116800Y45752600D01*
X79077600Y46896500D02*
X77933700Y45752600D01*
X79077600Y47067200D02*
X79077600Y46896500D01*
%TO.N,A_{4}*%
X46120000Y17780000D02*
X47216900Y17780000D01*
X47216900Y17642900D02*
X47216900Y17780000D01*
X49792500Y15067300D02*
X47216900Y17642900D01*
X67502600Y15067300D02*
X49792500Y15067300D01*
X72565200Y20129900D02*
X67502600Y15067300D01*
X72565200Y34917000D02*
X72565200Y20129900D01*
X76254200Y38606000D02*
X72565200Y34917000D01*
X76254200Y42848000D02*
X76254200Y38606000D01*
X76566200Y43160000D02*
X76254200Y42848000D01*
X77904700Y43160000D02*
X76566200Y43160000D01*
X80025100Y45280400D02*
X77904700Y43160000D01*
X80025100Y62270100D02*
X80025100Y45280400D01*
X98966900Y68580000D02*
X92616900Y62230000D01*
X100738400Y68580000D02*
X98966900Y68580000D01*
X101541500Y69383100D02*
X100738400Y68580000D01*
X101541500Y72936100D02*
X101541500Y69383100D01*
X100817600Y73660000D02*
X101541500Y72936100D01*
X99933300Y73660000D02*
X100817600Y73660000D01*
X98607000Y74986300D02*
X99933300Y73660000D01*
X98607000Y80827000D02*
X98607000Y74986300D01*
X100330000Y82550000D02*
X98607000Y80827000D01*
X91440000Y62230000D02*
X92616900Y62230000D01*
%TO.N,A_{5}*%
X100330000Y85090000D02*
X100330000Y83913100D01*
X91440000Y64770000D02*
X91440000Y65576200D01*
X75432500Y71657300D02*
X75432500Y70352100D01*
X79157300Y75382100D02*
X75432500Y71657300D01*
X99962200Y83913100D02*
X100330000Y83913100D01*
X98064200Y82015100D02*
X99962200Y83913100D01*
X98064200Y72200400D02*
X98064200Y82015100D01*
X91440000Y65576200D02*
X98064200Y72200400D01*
%TO.N,A_{6}*%
X64843100Y60692300D02*
X67108100Y62957300D01*
X64843100Y39554500D02*
X64843100Y60692300D01*
X67551000Y36846600D02*
X64843100Y39554500D01*
X67551000Y32562000D02*
X67551000Y36846600D01*
X66381300Y31392300D02*
X67551000Y32562000D01*
X64473800Y31392300D02*
X66381300Y31392300D01*
X91805800Y68486900D02*
X91440000Y68486900D01*
X97562300Y74243400D02*
X91805800Y68486900D01*
X97562300Y84053200D02*
X97562300Y74243400D01*
X99962200Y86453100D02*
X97562300Y84053200D01*
X100330000Y86453100D02*
X99962200Y86453100D01*
X100330000Y87630000D02*
X100330000Y86453100D01*
X91440000Y67310000D02*
X91440000Y68486900D01*
%TO.N,A_{7}*%
X100330000Y90170000D02*
X100330000Y88993100D01*
X91440000Y69850000D02*
X91440000Y71026900D01*
X38500000Y17780000D02*
X39596900Y17780000D01*
X39596900Y17893600D02*
X39596900Y17780000D01*
X40612900Y18909600D02*
X39596900Y17893600D01*
X54250500Y18909600D02*
X40612900Y18909600D01*
X55010000Y18150100D02*
X54250500Y18909600D01*
X55010000Y17424900D02*
X55010000Y18150100D01*
X55766800Y16668100D02*
X55010000Y17424900D01*
X66920100Y16668100D02*
X55766800Y16668100D01*
X70955700Y20703700D02*
X66920100Y16668100D01*
X70955700Y39156500D02*
X70955700Y20703700D01*
X73407700Y41608500D02*
X70955700Y39156500D01*
X73407700Y46167900D02*
X73407700Y41608500D01*
X74256900Y47017100D02*
X73407700Y46167900D01*
X74256900Y67335800D02*
X74256900Y47017100D01*
X73236700Y68356000D02*
X74256900Y67335800D01*
X73236700Y70027900D02*
X73236700Y68356000D01*
X74930600Y71721800D02*
X73236700Y70027900D01*
X74930600Y77012600D02*
X74930600Y71721800D01*
X76923000Y79005000D02*
X74930600Y77012600D01*
X91773800Y71026900D02*
X91440000Y71026900D01*
X94100300Y73353400D02*
X91773800Y71026900D01*
X94100300Y83129200D02*
X94100300Y73353400D01*
X99964200Y88993100D02*
X94100300Y83129200D01*
X100330000Y88993100D02*
X99964200Y88993100D01*
%TO.N,AD_{7}*%
X82550000Y38100000D02*
X82550000Y39276900D01*
X83820000Y69850000D02*
X83820000Y68673100D01*
X83820000Y69850000D02*
X84996900Y69850000D01*
X79735200Y65606900D02*
X79686000Y65656100D01*
X80388000Y65606900D02*
X79735200Y65606900D01*
X80802000Y65192900D02*
X80388000Y65606900D01*
X80802000Y61948300D02*
X80802000Y65192900D01*
X80587000Y61733300D02*
X80802000Y61948300D01*
X80587000Y48298900D02*
X80587000Y61733300D01*
X82206300Y46679600D02*
X80587000Y48298900D01*
X82206300Y39620600D02*
X82206300Y46679600D01*
X82550000Y39276900D02*
X82206300Y39620600D01*
X83454200Y68673100D02*
X83820000Y68673100D01*
X80388000Y65606900D02*
X83454200Y68673100D01*
X39276900Y62230000D02*
X43180000Y58326900D01*
X39276900Y78926200D02*
X39276900Y62230000D01*
X38100000Y80103100D02*
X39276900Y78926200D01*
X38100000Y81280000D02*
X38100000Y80103100D01*
X43180000Y57150000D02*
X43180000Y58326900D01*
X84996900Y69908700D02*
X90018300Y74930100D01*
X84996900Y69850000D02*
X84996900Y69908700D01*
%TO.N,AD_{6}*%
X40640000Y81280000D02*
X40640000Y80103100D01*
X45720000Y57738500D02*
X45720000Y58326900D01*
X45720000Y57738500D02*
X45720000Y57150000D01*
X41877400Y62169500D02*
X45720000Y58326900D01*
X41877400Y78865700D02*
X41877400Y62169500D01*
X40640000Y80103100D02*
X41877400Y78865700D01*
X118437600Y56662200D02*
X118437600Y67269400D01*
X116408900Y54633500D02*
X118437600Y56662200D01*
X115082400Y54633500D02*
X116408900Y54633500D01*
X113079100Y52630200D02*
X115082400Y54633500D01*
X113079100Y51636500D02*
X113079100Y52630200D01*
X113933800Y50781800D02*
X113079100Y51636500D01*
X115596700Y50781800D02*
X113933800Y50781800D01*
X120733700Y45644800D02*
X115596700Y50781800D01*
X120733700Y35923100D02*
X120733700Y45644800D01*
X121920000Y34736800D02*
X120733700Y35923100D01*
X121920000Y30480000D02*
X121920000Y34736800D01*
X83820000Y67310000D02*
X83820000Y66133100D01*
X85090000Y38100000D02*
X85090000Y39276900D01*
X83452200Y66133100D02*
X83820000Y66133100D01*
X81303900Y63984800D02*
X83452200Y66133100D01*
X81303900Y61740400D02*
X81303900Y63984800D01*
X81089700Y61526200D02*
X81303900Y61740400D01*
X81089700Y48506000D02*
X81089700Y61526200D01*
X82708200Y46887500D02*
X81089700Y48506000D01*
X82708200Y41658700D02*
X82708200Y46887500D01*
X85090000Y39276900D02*
X82708200Y41658700D01*
%TO.N,AD_{5}*%
X61360000Y33020000D02*
X61360000Y34116900D01*
X48260000Y57150000D02*
X48260000Y55973100D01*
X44356900Y62230000D02*
X48260000Y58326900D01*
X44356900Y78926200D02*
X44356900Y62230000D01*
X43180000Y80103100D02*
X44356900Y78926200D01*
X43180000Y81280000D02*
X43180000Y80103100D01*
X48260000Y57150000D02*
X48260000Y58326900D01*
X61360000Y34283200D02*
X61360000Y34116900D01*
X54516900Y41126300D02*
X61360000Y34283200D01*
X54516900Y50020600D02*
X54516900Y41126300D01*
X48564400Y55973100D02*
X54516900Y50020600D01*
X48260000Y55973100D02*
X48564400Y55973100D01*
%TO.N,AD_{3}*%
X66440000Y33020000D02*
X66440000Y34116900D01*
X53340000Y57150000D02*
X53340000Y55973100D01*
X48260000Y81280000D02*
X48260000Y80103100D01*
X53340000Y57150000D02*
X53340000Y58326900D01*
X59783100Y40773800D02*
X66440000Y34116900D01*
X59783100Y49897800D02*
X59783100Y40773800D01*
X53707800Y55973100D02*
X59783100Y49897800D01*
X53340000Y55973100D02*
X53707800Y55973100D01*
X49436900Y78926200D02*
X48260000Y80103100D01*
X49436900Y62230000D02*
X49436900Y78926200D01*
X53340000Y58326900D02*
X49436900Y62230000D01*
%TO.N,AD_{2}*%
X50800000Y81280000D02*
X50800000Y80103100D01*
X55880000Y57150000D02*
X55880000Y58326900D01*
X52038000Y78865100D02*
X50800000Y80103100D01*
X52038100Y78865100D02*
X52038000Y78865100D01*
X52038100Y62168800D02*
X52038100Y78865100D01*
X55880000Y58326900D02*
X52038100Y62168800D01*
X92710000Y30480000D02*
X92710000Y31656900D01*
X93939200Y32886100D02*
X93939200Y43357900D01*
X92710000Y31656900D02*
X93939200Y32886100D01*
X82101500Y55431500D02*
X83820000Y57150000D01*
X82101500Y49564200D02*
X82101500Y55431500D01*
X85816300Y45849400D02*
X82101500Y49564200D01*
X84178500Y58326900D02*
X89386800Y63535200D01*
X83820000Y58326900D02*
X84178500Y58326900D01*
X83820000Y57150000D02*
X83820000Y58326900D01*
%TO.N,AD_{1}*%
X53340000Y81280000D02*
X53340000Y80103100D01*
X58420000Y57150000D02*
X58420000Y58326900D01*
X54578100Y62168800D02*
X58420000Y58326900D01*
X54578100Y78865000D02*
X54578100Y62168800D01*
X53340000Y80103100D02*
X54578100Y78865000D01*
X84996900Y54975800D02*
X84996900Y54610000D01*
X90981100Y60960000D02*
X84996900Y54975800D01*
X92803100Y60960000D02*
X90981100Y60960000D01*
X99153100Y67310000D02*
X92803100Y60960000D01*
X100330000Y67310000D02*
X99153100Y67310000D01*
X83820000Y54610000D02*
X84533500Y54610000D01*
X84533500Y54610000D02*
X84996900Y54610000D01*
X85090000Y30480000D02*
X85090000Y31656900D01*
X88836300Y35403200D02*
X88836300Y44178400D01*
X85090000Y31656900D02*
X88836300Y35403200D01*
X88836300Y47813300D02*
X88836300Y44178400D01*
X86938400Y49711200D02*
X88836300Y47813300D01*
X86938400Y52205100D02*
X86938400Y49711200D01*
X84533500Y54610000D02*
X86938400Y52205100D01*
%TO.N,AD_{0}*%
X55880000Y81280000D02*
X55880000Y80103100D01*
X60960000Y57150000D02*
X60960000Y57738500D01*
X82550000Y30480000D02*
X82550000Y31656900D01*
X83820000Y52070000D02*
X83820000Y50893100D01*
X83820000Y52070000D02*
X83820000Y53246900D01*
X86293500Y35400400D02*
X82550000Y31656900D01*
X86293500Y42905800D02*
X86293500Y35400400D01*
X84185800Y50893100D02*
X83820000Y50893100D01*
X86622700Y48456200D02*
X84185800Y50893100D01*
X86622700Y43235000D02*
X86622700Y48456200D01*
X86293500Y42905800D02*
X86622700Y43235000D01*
X59783100Y67798000D02*
X59783100Y75772400D01*
X60960000Y66621100D02*
X59783100Y67798000D01*
X60960000Y57738500D02*
X60960000Y66621100D01*
X59783100Y76200000D02*
X55880000Y80103100D01*
X59783100Y75772400D02*
X59783100Y76200000D01*
X69745500Y60718100D02*
X72358100Y58105500D01*
X69745500Y68845600D02*
X69745500Y60718100D01*
X67376500Y71214600D02*
X69745500Y68845600D01*
X67376500Y72750100D02*
X67376500Y71214600D01*
X64354200Y75772400D02*
X67376500Y72750100D01*
X59783100Y75772400D02*
X64354200Y75772400D01*
X98350200Y69850000D02*
X100330000Y69850000D01*
X92000200Y63500000D02*
X98350200Y69850000D01*
X91002800Y63500000D02*
X92000200Y63500000D01*
X89492400Y61989600D02*
X91002800Y63500000D01*
X89492400Y61147300D02*
X89492400Y61989600D01*
X84225100Y55880000D02*
X89492400Y61147300D01*
X83422100Y55880000D02*
X84225100Y55880000D01*
X82610300Y55068200D02*
X83422100Y55880000D01*
X82610300Y54088800D02*
X82610300Y55068200D01*
X83452200Y53246900D02*
X82610300Y54088800D01*
X83820000Y53246900D02*
X83452200Y53246900D01*
%TO.N,Net-(RN1A-R1.2)*%
X68580000Y72390000D02*
X68580000Y71213100D01*
X70284100Y69509000D02*
X68580000Y71213100D01*
X70284100Y61929800D02*
X70284100Y69509000D01*
X73171000Y59042900D02*
X70284100Y61929800D01*
X73171000Y48099400D02*
X73171000Y59042900D01*
X72952400Y47880800D02*
X73171000Y48099400D01*
D33*
%TO.N,+5V*%
X119380000Y76200000D02*
X119380000Y73660000D01*
X128270000Y85090000D02*
X119380000Y76200000D01*
X128270000Y86360000D02*
X128270000Y85090000D01*
D32*
X114566200Y47163100D02*
X106680000Y39276900D01*
X115570000Y47163100D02*
X114566200Y47163100D01*
X106680000Y38100000D02*
X106680000Y39276900D01*
X115570000Y48340000D02*
X115570000Y47163100D01*
X33420000Y33020000D02*
X33420000Y34116900D01*
X29210000Y49530000D02*
X31750000Y49530000D01*
X91440000Y72390000D02*
X91440000Y73566900D01*
X35560000Y81280000D02*
X34971600Y81280000D01*
X22860000Y72390000D02*
X22860000Y73566900D01*
X29210000Y81719100D02*
X31871300Y84380400D01*
X29210000Y79916900D02*
X29210000Y81719100D01*
X22860000Y73566900D02*
X29210000Y79916900D01*
X34971600Y81280000D02*
X31871300Y84380400D01*
X33020000Y34516900D02*
X33420000Y34116900D01*
X33020000Y48260000D02*
X33020000Y34516900D01*
X31750000Y49530000D02*
X33020000Y48260000D01*
X28441900Y103371900D02*
X30480000Y105410000D01*
X28441900Y103369800D02*
X28441900Y103371900D01*
X24217700Y99145600D02*
X28441900Y103369800D01*
X24217700Y92033900D02*
X24217700Y99145600D01*
X31871300Y84380400D02*
X24217700Y92033900D01*
X91440000Y74146700D02*
X91440000Y73566900D01*
X92847000Y75553700D02*
X91440000Y74146700D01*
X92847000Y86896200D02*
X92847000Y75553700D01*
X99837700Y93886900D02*
X92847000Y86896200D01*
X105316900Y93886900D02*
X99837700Y93886900D01*
X107950000Y96520000D02*
X105316900Y93886900D01*
X110569400Y15067500D02*
X111760000Y13876900D01*
X110569400Y33099400D02*
X110569400Y15067500D01*
X111760000Y34290000D02*
X110569400Y33099400D01*
X111760000Y12700000D02*
X111760000Y13876900D01*
X115650000Y52150000D02*
X125730000Y62230000D01*
X114300000Y52150000D02*
X115650000Y52150000D01*
X26579900Y64860100D02*
X25400000Y66040000D01*
X26579900Y54520200D02*
X26579900Y64860100D01*
X26146000Y54086300D02*
X26579900Y54520200D01*
X26146000Y50054000D02*
X26146000Y54086300D01*
X26670000Y49530000D02*
X26146000Y50054000D01*
X77470000Y38100000D02*
X77470000Y41890000D01*
D33*
%TO.N,GND*%
X128450000Y70450600D02*
X128450000Y63061200D01*
X127000000Y71900600D02*
X128450000Y70450600D01*
X127000000Y77470000D02*
X127000000Y71900600D01*
X128450000Y62410000D02*
X128270000Y62230000D01*
X128450000Y63061200D02*
X128450000Y62410000D01*
D32*
X128450000Y54485000D02*
X129540000Y53395000D01*
X128450000Y63061200D02*
X128450000Y54485000D01*
X100330000Y55960000D02*
X100330000Y62230000D01*
X125730000Y49585000D02*
X129540000Y53395000D01*
X125730000Y35560000D02*
X125730000Y49585000D01*
X124460000Y34290000D02*
X125730000Y35560000D01*
X128906900Y97196200D02*
X126330000Y99773100D01*
X128906900Y89536900D02*
X128906900Y97196200D01*
X125730000Y86360000D02*
X128906900Y89536900D01*
X126330000Y101050000D02*
X126330000Y99773100D01*
X39370000Y41910000D02*
X36830000Y41910000D01*
X71120000Y57150000D02*
X71120000Y58326900D01*
X66040000Y72390000D02*
X66040000Y71213100D01*
X71120000Y57150000D02*
X71120000Y55973100D01*
X83820000Y72390000D02*
X83820000Y73566900D01*
X83820000Y81280000D02*
X83820000Y80103100D01*
X101506900Y29396200D02*
X105503100Y25400000D01*
X101506900Y30480000D02*
X101506900Y29396200D01*
X106680000Y25400000D02*
X105503100Y25400000D01*
X100330000Y30480000D02*
X100918500Y30480000D01*
X100918500Y30480000D02*
X101506900Y30480000D01*
X99144800Y49694800D02*
X101600000Y52150000D01*
X99144800Y47445800D02*
X99144800Y49694800D01*
X101553300Y45037300D02*
X99144800Y47445800D01*
X101553300Y31114800D02*
X101553300Y45037300D01*
X100918500Y30480000D02*
X101553300Y31114800D01*
X71120000Y50706900D02*
X71120000Y55973100D01*
X71120000Y49530000D02*
X71120000Y50706900D01*
X83452100Y102963100D02*
X83820000Y102963100D01*
X82643100Y102154100D02*
X83452100Y102963100D01*
X82643100Y93426000D02*
X82643100Y102154100D01*
X83452200Y92616900D02*
X82643100Y93426000D01*
X83820000Y92616900D02*
X83452200Y92616900D01*
X83820000Y91440000D02*
X83820000Y92616900D01*
X83820000Y104140000D02*
X83820000Y102963100D01*
X21674200Y99144200D02*
X27940000Y105410000D01*
X21674200Y67265800D02*
X21674200Y99144200D01*
X25400000Y63540000D02*
X21674200Y67265800D01*
X69184000Y60262900D02*
X71120000Y58326900D01*
X69183900Y60262900D02*
X69184000Y60262900D01*
X69183900Y68069200D02*
X69183900Y60262900D01*
X66040000Y71213100D02*
X69183900Y68069200D01*
X71120000Y49530000D02*
X71120000Y41910000D01*
X71120000Y41910000D02*
X71120000Y40733100D01*
X66440000Y17780000D02*
X66440000Y18876900D01*
X70442000Y22878900D02*
X66440000Y18876900D01*
X70442000Y40055100D02*
X70442000Y22878900D01*
X71120000Y40733100D02*
X70442000Y40055100D01*
X84267000Y79656100D02*
X83820000Y80103100D01*
X84267000Y74013900D02*
X84267000Y79656100D01*
X83820000Y73566900D02*
X84267000Y74013900D01*
%TD*%
M02*
