M48
; DRILL file {KiCad 7.0.7} date Thu 28 Sep 2023 02:11:01 AM EEST
; FORMAT={-:-/ absolute / inch / decimal}
; #@! TF.CreationDate,2023-09-28T02:11:01+03:00
; #@! TF.GenerationSoftware,Kicad,Pcbnew,7.0.7
; #@! TF.FileFunction,Plated,1,2,PTH
FMAT,2
INCH
; #@! TA.AperFunction,Plated,PTH,ViaDrill
T1C0.0157
; #@! TA.AperFunction,Plated,PTH,ComponentDrill
T2C0.0276
; #@! TA.AperFunction,Plated,PTH,ComponentDrill
T3C0.0315
; #@! TA.AperFunction,Plated,PTH,ComponentDrill
T4C0.0354
; #@! TA.AperFunction,Plated,PTH,ComponentDrill
T5C0.0360
; #@! TA.AperFunction,Plated,PTH,ComponentDrill
T6C0.0394
; #@! TA.AperFunction,Plated,PTH,ComponentDrill
T7C0.0433
; #@! TA.AperFunction,Plated,PTH,ComponentDrill
T8C0.0984
%
G90
G05
T1
X1.5719Y2.6701
X1.7816Y1.8473
X1.8741Y2.1569
X1.9197Y1.7241
X2.1559Y1.8971
X2.2244Y3.1145
X2.2638Y2.7356
X2.2664Y2.6701
X2.2978Y2.0806
X2.3674Y1.7078
X2.4469Y2.5329
X2.45Y1.8073
X2.4671Y4.0899
X2.5478Y2.9236
X2.5504Y1.9819
X2.6095Y3.4636
X2.7105Y2.98
X2.8415Y2.0377
X2.8518Y1.9906
X2.8829Y2.4192
X2.9209Y2.262
X2.9237Y0.735
X2.9274Y2.5925
X2.9393Y1.2001
X2.9777Y2.9386
X2.9848Y1.7464
X3.0228Y2.1418
X3.0624Y2.6794
X3.065Y2.1491
X3.0784Y2.8269
X3.0936Y2.6242
X3.1197Y2.0299
X3.1414Y2.4971
X3.1871Y2.9302
X3.2126Y2.6196
X3.2423Y3.1536
X3.3203Y1.8185
X3.3733Y2.8557
X3.5526Y2.0891
X3.5745Y1.7492
X3.6134Y1.787
X3.6427Y1.434
X3.7031Y1.6931
X3.75Y1.6715
X3.836Y1.756
X3.8682Y1.787
X3.8824Y2.2358
X3.9071Y1.1435
X4.1162Y2.2999
T2
X1.0Y3.6
X1.0Y3.4
X1.3Y3.6
X1.3Y3.4
X4.9Y3.05
X4.9Y2.75
X5.0Y3.05
X5.0Y2.75
T3
X0.8157Y1.05
X0.8157Y0.9516
X0.9Y3.8
X0.9Y3.2
X0.9Y2.85
X0.9Y2.25
X1.0Y3.8
X1.0Y3.2
X1.0Y2.85
X1.0Y2.6
X1.0Y2.5016
X1.0Y2.25
X1.05Y1.95
X1.05Y1.65
X1.1Y3.8
X1.1Y3.2
X1.1Y2.85
X1.1Y2.25
X1.15Y1.95
X1.15Y1.65
X1.2Y3.8
X1.2Y3.2
X1.2Y2.85
X1.2Y2.25
X1.25Y1.95
X1.25Y1.65
X1.3Y3.8
X1.3Y3.2
X1.3Y2.85
X1.3Y2.25
X1.35Y1.95
X1.35Y1.65
X1.4Y3.8
X1.4Y3.2
X1.4Y2.85
X1.4Y2.25
X1.45Y1.95
X1.45Y1.65
X1.5Y3.8
X1.5Y3.2
X1.5Y2.85
X1.5Y2.25
X1.55Y1.95
X1.55Y1.65
X1.6Y3.8
X1.6Y3.5
X1.6Y3.2
X1.6Y2.85
X1.6Y2.25
X1.65Y1.95
X1.65Y1.65
X1.7Y3.8
X1.7Y3.2
X1.7Y2.85
X1.7Y2.25
X1.8Y3.8
X1.8Y3.2
X1.8Y2.85
X1.8Y2.25
X1.9Y3.8
X1.9Y3.2
X1.9Y2.85
X1.9Y2.25
X1.9Y1.95
X1.9Y1.65
X2.0Y3.8
X2.0Y3.2
X2.0Y2.85
X2.0Y2.25
X2.0Y1.95
X2.0Y1.65
X2.1Y3.8
X2.1Y3.5
X2.1Y3.2
X2.1Y2.85
X2.1Y2.25
X2.1Y1.95
X2.1Y1.8
X2.1Y1.65
X2.2Y3.8
X2.2Y3.2
X2.2Y2.85
X2.2Y2.25
X2.2Y1.95
X2.2Y1.65
X2.3Y3.8
X2.3Y3.2
X2.3Y2.85
X2.3Y2.25
X2.3Y1.95
X2.3Y1.65
X2.4Y3.8
X2.4Y3.2
X2.4Y2.85
X2.4Y2.25
X2.4Y1.95
X2.4Y1.65
X2.5Y3.8
X2.5Y3.2
X2.5Y2.85
X2.5Y2.25
X2.5Y1.95
X2.5Y1.65
X2.6Y3.8
X2.6Y3.2
X2.6Y2.85
X2.6Y2.75
X2.6Y2.35
X2.6Y2.25
X2.6Y1.95
X2.6Y1.8
X2.6Y1.65
X2.7Y3.8
X2.7Y3.2
X2.7Y2.85
X2.7Y2.25
X2.7Y1.95
X2.7Y1.65
X2.8Y3.8
X2.8Y3.2
X2.8Y2.85
X2.8Y2.25
X2.8Y1.95
X2.8Y1.65
X3.05Y2.0492
X3.05Y1.9492
X3.05Y1.8492
X3.05Y1.7492
X3.05Y1.6492
X3.05Y1.5
X3.05Y1.2
X3.05Y1.0
X3.15Y1.5
X3.15Y1.2
X3.15Y1.0
X3.25Y1.5
X3.25Y1.35
X3.25Y1.2
X3.25Y1.0
X3.3Y4.1
X3.3Y4.0
X3.3Y3.9
X3.3Y3.8
X3.3Y3.7
X3.3Y3.6
X3.3Y3.5
X3.3Y3.4
X3.3Y3.3
X3.3Y3.2
X3.3Y2.85
X3.3Y2.75
X3.3Y2.65
X3.3Y2.55
X3.3Y2.45
X3.3Y2.35
X3.3Y2.25
X3.3Y2.15
X3.3Y2.05
X3.3Y1.95
X3.35Y1.5
X3.35Y1.2
X3.35Y1.0
X3.45Y3.9
X3.45Y3.4
X3.45Y2.65
X3.45Y2.15
X3.45Y1.5
X3.45Y1.2
X3.45Y1.0
X3.55Y1.5
X3.55Y1.2
X3.55Y1.0
X3.6Y4.1
X3.6Y4.0
X3.6Y3.9
X3.6Y3.8
X3.6Y3.7
X3.6Y3.6
X3.6Y3.5
X3.6Y3.4
X3.6Y3.3
X3.6Y3.2
X3.6Y2.85
X3.6Y2.75
X3.6Y2.65
X3.6Y2.55
X3.6Y2.45
X3.6Y2.35
X3.6Y2.25
X3.6Y2.15
X3.6Y2.05
X3.6Y1.95
X3.65Y1.5
X3.65Y1.2
X3.65Y1.0
X3.75Y1.5
X3.75Y1.35
X3.75Y1.2
X3.75Y1.0
X3.85Y1.5
X3.85Y1.2
X3.85Y1.0
X3.95Y3.95
X3.95Y3.85
X3.95Y3.75
X3.95Y3.65
X3.95Y3.55
X3.95Y3.45
X3.95Y3.35
X3.95Y3.25
X3.95Y3.15
X3.95Y3.05
X3.95Y2.95
X3.95Y2.85
X3.95Y2.75
X3.95Y2.65
X3.95Y2.55
X3.95Y2.45
X3.95Y2.2031
X3.95Y1.9031
X3.95Y1.5
X3.95Y1.2
X4.0Y2.0531
X4.05Y2.2031
X4.05Y1.9031
X4.15Y2.2031
X4.15Y1.9031
X4.2Y1.5
X4.2Y1.2
X4.2Y1.0
X4.2Y0.8
X4.2Y0.5
X4.25Y3.8
X4.25Y2.65
X4.25Y2.2031
X4.25Y1.9031
X4.3Y1.5
X4.3Y1.2
X4.3Y1.0
X4.3Y0.8
X4.3Y0.5
X4.35Y2.2031
X4.35Y1.9031
X4.4Y1.5
X4.4Y1.35
X4.4Y1.2
X4.4Y1.0
X4.4Y0.8
X4.4Y0.5
X4.45Y2.2031
X4.45Y1.9031
X4.5Y2.0531
X4.5Y1.5
X4.5Y1.2
X4.5Y1.0
X4.5Y0.8
X4.5Y0.5
X4.55Y3.95
X4.55Y3.85
X4.55Y3.75
X4.55Y3.65
X4.55Y3.55
X4.55Y3.45
X4.55Y3.35
X4.55Y3.25
X4.55Y3.15
X4.55Y3.05
X4.55Y2.95
X4.55Y2.85
X4.55Y2.75
X4.55Y2.65
X4.55Y2.55
X4.55Y2.45
X4.55Y2.2031
X4.55Y1.9031
X4.6Y1.5
X4.6Y1.2
X4.6Y1.0
X4.6Y0.8
X4.6Y0.5
X4.7Y1.5
X4.7Y1.2
X4.7Y1.0
X4.7Y0.8
X4.7Y0.5
X4.8Y1.5
X4.8Y1.2
X4.8Y1.0
X4.8Y0.8
X4.8Y0.5
X4.85Y2.45
X4.9Y1.5
X4.9Y1.35
X4.9Y1.2
X4.9Y1.0
X4.9Y0.8
X4.9Y0.5
X4.95Y2.45
X5.0Y1.5
X5.0Y1.2
X5.0Y1.0
X5.05Y2.45
X5.1Y1.5
X5.1Y1.2
T4
X1.1Y4.15
X1.2Y4.15
X1.3Y4.15
X1.4Y4.15
X1.5Y4.15
X1.6Y4.15
X1.7Y4.15
X1.8Y4.15
X1.9Y4.15
X2.0Y4.15
X2.1Y4.15
X2.2Y4.15
X2.3Y4.15
X2.4Y4.15
X2.5Y4.15
X2.6Y4.15
X4.7Y2.9
X4.8Y2.9
X5.1Y2.9
X5.2Y2.9
T5
X3.05Y0.8
X3.05Y0.5
X3.15Y0.8
X3.15Y0.5
X3.25Y0.8
X3.25Y0.5
X3.35Y0.8
X3.35Y0.5
X3.45Y0.8
X3.45Y0.5
X3.55Y0.8
X3.55Y0.5
X3.65Y0.8
X3.65Y0.5
X3.75Y0.8
X3.75Y0.5
X3.85Y0.8
X3.85Y0.5
X3.95Y0.8
X3.95Y0.5
T6
X0.7Y3.65
X0.7Y3.55
X0.7Y3.45
X0.7Y3.35
X1.3157Y1.3
X1.3157Y0.7
X1.4157Y1.3
X1.4157Y0.7
X1.5157Y1.3
X1.5157Y0.7
X1.6157Y1.3
X1.6157Y0.7
X1.7157Y1.3
X1.7157Y0.7
X1.8157Y1.3
X1.8157Y0.7
X1.9157Y1.3
X1.9157Y0.7
X2.0157Y1.3
X2.0157Y0.7
X2.1157Y1.3
X2.1157Y0.7
X2.2157Y1.3
X2.2157Y0.7
X2.3157Y1.3
X2.3157Y0.7
X2.4157Y1.3
X2.4157Y0.7
X2.5157Y1.3
X2.5157Y0.7
X2.6157Y1.3
X2.6157Y0.7
T7
X4.8441Y2.1022
X4.8441Y1.925
X4.85Y3.4
X4.95Y3.4
X5.05Y3.4
X5.1Y2.1022
X5.1Y1.925
T8
X0.75Y0.55
X0.8Y4.15
X0.8Y1.9862
X4.4598Y4.15
X5.15Y0.55
T3
G00X4.7846Y3.9114
M15
G01X4.7846Y3.8248
M16
G05
G00X5.0169Y3.9783
M15
G01X4.9303Y3.9783
M16
G05
G00X5.0248Y3.75
M15
G01X4.9224Y3.75
M16
G05
T0
M30
