%TF.GenerationSoftware,KiCad,Pcbnew,7.0.7*%
%TF.CreationDate,2023-09-27T12:16:48+03:00*%
%TF.ProjectId,main,6d61696e-2e6b-4696-9361-645f70636258,rev?*%
%TF.SameCoordinates,Original*%
%TF.FileFunction,Copper,L1,Top*%
%TF.FilePolarity,Positive*%
%FSLAX46Y46*%
G04 Gerber Fmt 4.6, Leading zero omitted, Abs format (unit mm)*
G04 Created by KiCad (PCBNEW 7.0.7) date 2023-09-27 12:16:48*
%MOMM*%
%LPD*%
G01*
G04 APERTURE LIST*
%TA.AperFunction,ComponentPad*%
%ADD10R,1.800000X1.800000*%
%TD*%
%TA.AperFunction,ComponentPad*%
%ADD11C,1.800000*%
%TD*%
%TA.AperFunction,ComponentPad*%
%ADD12R,1.600000X1.600000*%
%TD*%
%TA.AperFunction,ComponentPad*%
%ADD13O,1.600000X1.600000*%
%TD*%
%TA.AperFunction,ComponentPad*%
%ADD14C,1.600000*%
%TD*%
%TA.AperFunction,ComponentPad*%
%ADD15C,4.000000*%
%TD*%
%TA.AperFunction,ComponentPad*%
%ADD16R,1.440000X1.440000*%
%TD*%
%TA.AperFunction,ComponentPad*%
%ADD17O,1.440000X1.440000*%
%TD*%
%TA.AperFunction,ComponentPad*%
%ADD18R,4.400000X1.800000*%
%TD*%
%TA.AperFunction,ComponentPad*%
%ADD19O,4.000000X1.800000*%
%TD*%
%TA.AperFunction,ComponentPad*%
%ADD20O,1.800000X4.000000*%
%TD*%
%TA.AperFunction,ComponentPad*%
%ADD21C,1.400000*%
%TD*%
%TA.AperFunction,ComponentPad*%
%ADD22O,1.400000X1.400000*%
%TD*%
%TA.AperFunction,ComponentPad*%
%ADD23C,5.000000*%
%TD*%
%TA.AperFunction,ComponentPad*%
%ADD24C,2.000000*%
%TD*%
%TA.AperFunction,ComponentPad*%
%ADD25R,1.500000X1.500000*%
%TD*%
%TA.AperFunction,ComponentPad*%
%ADD26C,1.500000*%
%TD*%
%TA.AperFunction,ComponentPad*%
%ADD27R,2.032000X2.032000*%
%TD*%
%TA.AperFunction,ComponentPad*%
%ADD28C,2.032000*%
%TD*%
%TA.AperFunction,ComponentPad*%
%ADD29R,1.905000X2.000000*%
%TD*%
%TA.AperFunction,ComponentPad*%
%ADD30O,1.905000X2.000000*%
%TD*%
%TA.AperFunction,ViaPad*%
%ADD31C,0.800000*%
%TD*%
%TA.AperFunction,Conductor*%
%ADD32C,0.250000*%
%TD*%
%TA.AperFunction,Conductor*%
%ADD33C,1.000000*%
%TD*%
G04 APERTURE END LIST*
D10*
%TO.P,D1,1,K*%
%TO.N,Net-(D1-K)*%
X121920000Y73660000D03*
D11*
%TO.P,D1,2,A*%
%TO.N,+5V*%
X119380000Y73660000D03*
%TD*%
D12*
%TO.P,U4,1,OE*%
%TO.N,GND*%
X83820000Y72390000D03*
D13*
%TO.P,U4,2,D0*%
%TO.N,AD_{7}*%
X83820000Y69850000D03*
%TO.P,U4,3,D1*%
%TO.N,AD_{6}*%
X83820000Y67310000D03*
%TO.P,U4,4,D2*%
%TO.N,AD_{5}*%
X83820000Y64770000D03*
%TO.P,U4,5,D3*%
%TO.N,AD_{4}*%
X83820000Y62230000D03*
%TO.P,U4,6,D4*%
%TO.N,AD_{3}*%
X83820000Y59690000D03*
%TO.P,U4,7,D5*%
%TO.N,AD_{2}*%
X83820000Y57150000D03*
%TO.P,U4,8,D6*%
%TO.N,AD_{1}*%
X83820000Y54610000D03*
%TO.P,U4,9,D7*%
%TO.N,AD_{0}*%
X83820000Y52070000D03*
%TO.P,U4,10,GND*%
%TO.N,GND*%
X83820000Y49530000D03*
%TO.P,U4,11,Load*%
%TO.N,ALE*%
X91440000Y49530000D03*
%TO.P,U4,12,Q7*%
%TO.N,A_{0}*%
X91440000Y52070000D03*
%TO.P,U4,13,Q6*%
%TO.N,A_{1}*%
X91440000Y54610000D03*
%TO.P,U4,14,Q5*%
%TO.N,A_{2}*%
X91440000Y57150000D03*
%TO.P,U4,15,Q4*%
%TO.N,A_{3}*%
X91440000Y59690000D03*
%TO.P,U4,16,Q3*%
%TO.N,A_{4}*%
X91440000Y62230000D03*
%TO.P,U4,17,Q2*%
%TO.N,A_{5}*%
X91440000Y64770000D03*
%TO.P,U4,18,Q1*%
%TO.N,A_{6}*%
X91440000Y67310000D03*
%TO.P,U4,19,Q0*%
%TO.N,A_{7}*%
X91440000Y69850000D03*
%TO.P,U4,20,VCC*%
%TO.N,+5V*%
X91440000Y72390000D03*
%TD*%
D14*
%TO.P,C2,1*%
%TO.N,+5V*%
X40640000Y88900000D03*
%TO.P,C2,2*%
%TO.N,GND*%
X53340000Y88900000D03*
%TD*%
D12*
%TO.P,RN4,1,common*%
%TO.N,GND*%
X106680000Y25400000D03*
D13*
%TO.P,RN4,2,R1*%
%TO.N,Net-(RN4-R1)*%
X109220000Y25400000D03*
%TO.P,RN4,3,R2*%
%TO.N,Net-(RN4-R2)*%
X111760000Y25400000D03*
%TO.P,RN4,4,R3*%
%TO.N,Net-(RN4-R3)*%
X114300000Y25400000D03*
%TO.P,RN4,5,R4*%
%TO.N,Net-(RN4-R4)*%
X116840000Y25400000D03*
%TO.P,RN4,6,R5*%
%TO.N,Net-(RN4-R5)*%
X119380000Y25400000D03*
%TO.P,RN4,7,R6*%
%TO.N,Net-(RN4-R6)*%
X121920000Y25400000D03*
%TO.P,RN4,8,R7*%
%TO.N,Net-(RN4-R7)*%
X124460000Y25400000D03*
%TO.P,RN4,9,R8*%
%TO.N,Net-(RN4-R8)*%
X127000000Y25400000D03*
%TD*%
D15*
%TO.P,H1,*%
%TO.N,*%
X19050000Y13970000D03*
%TD*%
D14*
%TO.P,C10,1*%
%TO.N,+5V*%
X111760000Y34290000D03*
%TO.P,C10,2*%
%TO.N,GND*%
X124460000Y34290000D03*
%TD*%
D12*
%TO.P,U1,1,GND*%
%TO.N,GND*%
X22860000Y57150000D03*
D13*
%TO.P,U1,2,A14*%
%TO.N,A_{14}*%
X25400000Y57150000D03*
%TO.P,U1,3,A13*%
%TO.N,A_{13}*%
X27940000Y57150000D03*
%TO.P,U1,4,A12*%
%TO.N,A_{12}*%
X30480000Y57150000D03*
%TO.P,U1,5,A11*%
%TO.N,A_{11}*%
X33020000Y57150000D03*
%TO.P,U1,6,A10*%
%TO.N,A_{10}*%
X35560000Y57150000D03*
%TO.P,U1,7,A9*%
%TO.N,A_{9}*%
X38100000Y57150000D03*
%TO.P,U1,8,A8*%
%TO.N,A_{8}*%
X40640000Y57150000D03*
%TO.P,U1,9,AD7*%
%TO.N,AD_{7}*%
X43180000Y57150000D03*
%TO.P,U1,10,AD6*%
%TO.N,AD_{6}*%
X45720000Y57150000D03*
%TO.P,U1,11,AD5*%
%TO.N,AD_{5}*%
X48260000Y57150000D03*
%TO.P,U1,12,AD4*%
%TO.N,AD_{4}*%
X50800000Y57150000D03*
%TO.P,U1,13,AD3*%
%TO.N,AD_{3}*%
X53340000Y57150000D03*
%TO.P,U1,14,AD2*%
%TO.N,AD_{2}*%
X55880000Y57150000D03*
%TO.P,U1,15,AD1*%
%TO.N,AD_{1}*%
X58420000Y57150000D03*
%TO.P,U1,16,AD0*%
%TO.N,AD_{0}*%
X60960000Y57150000D03*
%TO.P,U1,17,NMI*%
%TO.N,Net-(RN1B-R2.2)*%
X63500000Y57150000D03*
%TO.P,U1,18,INTR*%
%TO.N,Net-(RN1C-R3.2)*%
X66040000Y57150000D03*
%TO.P,U1,19,CLK*%
%TO.N,CLK*%
X68580000Y57150000D03*
%TO.P,U1,20,GND*%
%TO.N,GND*%
X71120000Y57150000D03*
%TO.P,U1,21,RESET*%
%TO.N,RES*%
X71120000Y72390000D03*
%TO.P,U1,22,READY*%
%TO.N,Net-(RN1A-R1.2)*%
X68580000Y72390000D03*
%TO.P,U1,23,~{TEST}*%
%TO.N,GND*%
X66040000Y72390000D03*
%TO.P,U1,24,~{INTA}*%
%TO.N,unconnected-(U1-~{INTA}-Pad24)*%
X63500000Y72390000D03*
%TO.P,U1,25,ALE*%
%TO.N,ALE*%
X60960000Y72390000D03*
%TO.P,U1,26,DEN*%
%TO.N,unconnected-(U1-DEN-Pad26)*%
X58420000Y72390000D03*
%TO.P,U1,27,DT/~{R}*%
%TO.N,unconnected-(U1-DT{slash}~{R}-Pad27)*%
X55880000Y72390000D03*
%TO.P,U1,28,IO/~{M}*%
%TO.N,IO{slash}~{M}*%
X53340000Y72390000D03*
%TO.P,U1,29,WR*%
%TO.N,~{WR}*%
X50800000Y72390000D03*
%TO.P,U1,30,HLDA*%
%TO.N,unconnected-(U1-HLDA-Pad30)*%
X48260000Y72390000D03*
%TO.P,U1,31,HOLD*%
%TO.N,unconnected-(U1-HOLD-Pad31)*%
X45720000Y72390000D03*
%TO.P,U1,32,~{RD}*%
%TO.N,~{RD}*%
X43180000Y72390000D03*
%TO.P,U1,33,MN/~{MX}*%
%TO.N,Net-(RN1D-R4.2)*%
X40640000Y72390000D03*
%TO.P,U1,34,~{SSO}*%
%TO.N,unconnected-(U1-~{SSO}-Pad34)*%
X38100000Y72390000D03*
%TO.P,U1,35,A19/S6*%
%TO.N,AS_{19}*%
X35560000Y72390000D03*
%TO.P,U1,36,A18/S5*%
%TO.N,AS_{18}*%
X33020000Y72390000D03*
%TO.P,U1,37,A17/S4*%
%TO.N,AS_{17}*%
X30480000Y72390000D03*
%TO.P,U1,38,A16/S3*%
%TO.N,AS_{16}*%
X27940000Y72390000D03*
%TO.P,U1,39,A15*%
%TO.N,A_{15}*%
X25400000Y72390000D03*
%TO.P,U1,40,VCC*%
%TO.N,+5V*%
X22860000Y72390000D03*
%TD*%
D14*
%TO.P,C5,1*%
%TO.N,+5V*%
X87630000Y67310000D03*
%TO.P,C5,2*%
%TO.N,GND*%
X87630000Y54610000D03*
%TD*%
%TO.P,C7,1*%
%TO.N,+5V*%
X53340000Y45720000D03*
%TO.P,C7,2*%
%TO.N,GND*%
X66040000Y45720000D03*
%TD*%
D12*
%TO.P,U14,1,1OE*%
%TO.N,IN~{EN}*%
X106680000Y30480000D03*
D13*
%TO.P,U14,2,1A0*%
%TO.N,Net-(RN4-R1)*%
X109220000Y30480000D03*
%TO.P,U14,3,2Y0*%
%TO.N,AD_{4}*%
X111760000Y30480000D03*
%TO.P,U14,4,1A1*%
%TO.N,Net-(RN4-R2)*%
X114300000Y30480000D03*
%TO.P,U14,5,2Y1*%
%TO.N,AD_{5}*%
X116840000Y30480000D03*
%TO.P,U14,6,1A2*%
%TO.N,Net-(RN4-R3)*%
X119380000Y30480000D03*
%TO.P,U14,7,2Y2*%
%TO.N,AD_{6}*%
X121920000Y30480000D03*
%TO.P,U14,8,1A3*%
%TO.N,Net-(RN4-R4)*%
X124460000Y30480000D03*
%TO.P,U14,9,2Y3*%
%TO.N,AD_{7}*%
X127000000Y30480000D03*
%TO.P,U14,10,GND*%
%TO.N,GND*%
X129540000Y30480000D03*
%TO.P,U14,11,2A3*%
%TO.N,Net-(RN4-R8)*%
X129540000Y38100000D03*
%TO.P,U14,12,1Y3*%
%TO.N,AD_{3}*%
X127000000Y38100000D03*
%TO.P,U14,13,2A2*%
%TO.N,Net-(RN4-R7)*%
X124460000Y38100000D03*
%TO.P,U14,14,1Y2*%
%TO.N,AD_{2}*%
X121920000Y38100000D03*
%TO.P,U14,15,2A1*%
%TO.N,Net-(RN4-R6)*%
X119380000Y38100000D03*
%TO.P,U14,16,1Y1*%
%TO.N,AD_{1}*%
X116840000Y38100000D03*
%TO.P,U14,17,2A0*%
%TO.N,Net-(RN4-R5)*%
X114300000Y38100000D03*
%TO.P,U14,18,1Y0*%
%TO.N,AD_{0}*%
X111760000Y38100000D03*
%TO.P,U14,19,2OE*%
%TO.N,IN~{EN}*%
X109220000Y38100000D03*
%TO.P,U14,20,VCC*%
%TO.N,+5V*%
X106680000Y38100000D03*
%TD*%
D14*
%TO.P,C3,1*%
%TO.N,+5V*%
X25400000Y66040000D03*
%TO.P,C3,2*%
%TO.N,GND*%
X25400000Y63540000D03*
%TD*%
D16*
%TO.P,U2,1,A15*%
%TO.N,A_{15}*%
X33420000Y17780000D03*
D17*
%TO.P,U2,2,A12*%
%TO.N,A_{12}*%
X35960000Y17780000D03*
%TO.P,U2,3,A7*%
%TO.N,A_{7}*%
X38500000Y17780000D03*
%TO.P,U2,4,A6*%
%TO.N,A_{6}*%
X41040000Y17780000D03*
%TO.P,U2,5,A5*%
%TO.N,A_{5}*%
X43580000Y17780000D03*
%TO.P,U2,6,A4*%
%TO.N,A_{4}*%
X46120000Y17780000D03*
%TO.P,U2,7,A3*%
%TO.N,A_{3}*%
X48660000Y17780000D03*
%TO.P,U2,8,A2*%
%TO.N,A_{2}*%
X51200000Y17780000D03*
%TO.P,U2,9,A1*%
%TO.N,A_{1}*%
X53740000Y17780000D03*
%TO.P,U2,10,A0*%
%TO.N,A_{0}*%
X56280000Y17780000D03*
%TO.P,U2,11,D0*%
%TO.N,AD_{0}*%
X58820000Y17780000D03*
%TO.P,U2,12,D1*%
%TO.N,AD_{1}*%
X61360000Y17780000D03*
%TO.P,U2,13,D2*%
%TO.N,AD_{2}*%
X63900000Y17780000D03*
%TO.P,U2,14,GND*%
%TO.N,GND*%
X66440000Y17780000D03*
%TO.P,U2,15,D3*%
%TO.N,AD_{3}*%
X66440000Y33020000D03*
%TO.P,U2,16,D4*%
%TO.N,AD_{4}*%
X63900000Y33020000D03*
%TO.P,U2,17,D5*%
%TO.N,AD_{5}*%
X61360000Y33020000D03*
%TO.P,U2,18,D6*%
%TO.N,AD_{6}*%
X58820000Y33020000D03*
%TO.P,U2,19,D7*%
%TO.N,AD_{7}*%
X56280000Y33020000D03*
%TO.P,U2,20,~{CE}*%
%TO.N,ROM~{EN}*%
X53740000Y33020000D03*
%TO.P,U2,21,A10*%
%TO.N,A_{10}*%
X51200000Y33020000D03*
%TO.P,U2,22,~{OE}*%
%TO.N,~{RD}*%
X48660000Y33020000D03*
%TO.P,U2,23,A11*%
%TO.N,A_{11}*%
X46120000Y33020000D03*
%TO.P,U2,24,A9*%
%TO.N,A_{9}*%
X43580000Y33020000D03*
%TO.P,U2,25,A8*%
%TO.N,A_{8}*%
X41040000Y33020000D03*
%TO.P,U2,26,A13*%
%TO.N,A_{13}*%
X38500000Y33020000D03*
%TO.P,U2,27,A14*%
%TO.N,A_{14}*%
X35960000Y33020000D03*
%TO.P,U2,28,VCC*%
%TO.N,+5V*%
X33420000Y33020000D03*
%TD*%
D14*
%TO.P,C6,1*%
%TO.N,+5V*%
X107950000Y96520000D03*
%TO.P,C6,2*%
%TO.N,GND*%
X107950000Y67310000D03*
%TD*%
D10*
%TO.P,D2,1,K*%
%TO.N,Net-(D2-K)*%
X129540000Y73660000D03*
D11*
%TO.P,D2,2,A*%
%TO.N,RES*%
X132080000Y73660000D03*
%TD*%
D14*
%TO.P,C4,1*%
%TO.N,+5V*%
X87630000Y99060000D03*
%TO.P,C4,2*%
%TO.N,GND*%
X87630000Y86360000D03*
%TD*%
D12*
%TO.P,RN3,1,common*%
%TO.N,GND*%
X77470000Y25400000D03*
D13*
%TO.P,RN3,2,R1*%
%TO.N,Net-(RN3-R1)*%
X80010000Y25400000D03*
%TO.P,RN3,3,R2*%
%TO.N,Net-(RN3-R2)*%
X82550000Y25400000D03*
%TO.P,RN3,4,R3*%
%TO.N,Net-(RN3-R3)*%
X85090000Y25400000D03*
%TO.P,RN3,5,R4*%
%TO.N,Net-(RN3-R4)*%
X87630000Y25400000D03*
%TO.P,RN3,6,R5*%
%TO.N,Net-(RN3-R5)*%
X90170000Y25400000D03*
%TO.P,RN3,7,R6*%
%TO.N,Net-(RN3-R6)*%
X92710000Y25400000D03*
%TO.P,RN3,8,R7*%
%TO.N,Net-(RN3-R7)*%
X95250000Y25400000D03*
%TO.P,RN3,9,R8*%
%TO.N,Net-(RN3-R8)*%
X97790000Y25400000D03*
%TD*%
D15*
%TO.P,H2,*%
%TO.N,*%
X130810000Y13970000D03*
%TD*%
D18*
%TO.P,J1,1*%
%TO.N,Net-(U10-IN)*%
X126330000Y95250000D03*
D19*
%TO.P,J1,2*%
%TO.N,GND*%
X126330000Y101050000D03*
D20*
%TO.P,J1,3*%
%TO.N,N/C*%
X121530000Y98250000D03*
%TD*%
D12*
%TO.P,U13,1,~{Mr}*%
%TO.N,Net-(U13-~{Mr})*%
X77470000Y30480000D03*
D13*
%TO.P,U13,2,Q0*%
%TO.N,Net-(U13-Q0)*%
X80010000Y30480000D03*
%TO.P,U13,3,D0*%
%TO.N,AD_{0}*%
X82550000Y30480000D03*
%TO.P,U13,4,D1*%
%TO.N,AD_{1}*%
X85090000Y30480000D03*
%TO.P,U13,5,Q1*%
%TO.N,Net-(U13-Q1)*%
X87630000Y30480000D03*
%TO.P,U13,6,Q2*%
%TO.N,Net-(U13-Q2)*%
X90170000Y30480000D03*
%TO.P,U13,7,D2*%
%TO.N,AD_{2}*%
X92710000Y30480000D03*
%TO.P,U13,8,D3*%
%TO.N,AD_{3}*%
X95250000Y30480000D03*
%TO.P,U13,9,Q3*%
%TO.N,Net-(U13-Q3)*%
X97790000Y30480000D03*
%TO.P,U13,10,GND*%
%TO.N,GND*%
X100330000Y30480000D03*
%TO.P,U13,11,Cp*%
%TO.N,OUT~{EN}*%
X100330000Y38100000D03*
%TO.P,U13,12,Q4*%
%TO.N,Net-(U13-Q4)*%
X97790000Y38100000D03*
%TO.P,U13,13,D4*%
%TO.N,AD_{4}*%
X95250000Y38100000D03*
%TO.P,U13,14,D5*%
%TO.N,AD_{5}*%
X92710000Y38100000D03*
%TO.P,U13,15,Q5*%
%TO.N,Net-(U13-Q5)*%
X90170000Y38100000D03*
%TO.P,U13,16,Q6*%
%TO.N,Net-(U13-Q6)*%
X87630000Y38100000D03*
%TO.P,U13,17,D6*%
%TO.N,AD_{6}*%
X85090000Y38100000D03*
%TO.P,U13,18,D7*%
%TO.N,AD_{7}*%
X82550000Y38100000D03*
%TO.P,U13,19,Q7*%
%TO.N,Net-(U13-Q7)*%
X80010000Y38100000D03*
%TO.P,U13,20,VCC*%
%TO.N,+5V*%
X77470000Y38100000D03*
%TD*%
D12*
%TO.P,RN1,1,R1*%
%TO.N,+5V*%
X77470000Y41890000D03*
D13*
%TO.P,RN1,2,R1.2*%
%TO.N,Net-(RN1A-R1.2)*%
X77470000Y44430000D03*
%TO.P,RN1,3,R2.2*%
%TO.N,Net-(RN1B-R2.2)*%
X77470000Y46970000D03*
%TO.P,RN1,4,R3.2*%
%TO.N,Net-(RN1C-R3.2)*%
X77470000Y49510000D03*
%TO.P,RN1,5,R4.2*%
%TO.N,Net-(RN1D-R4.2)*%
X77470000Y52050000D03*
%TD*%
D21*
%TO.P,R3,1*%
%TO.N,Net-(D2-K)*%
X127000000Y69850000D03*
D22*
%TO.P,R3,2*%
%TO.N,GND*%
X127000000Y77470000D03*
%TD*%
D14*
%TO.P,U11,*%
%TO.N,*%
X34290000Y49530000D03*
X34290000Y41910000D03*
D12*
%TO.P,U11,1,EN*%
%TO.N,unconnected-(U11-EN-Pad1)*%
X26670000Y41910000D03*
D13*
%TO.P,U11,2*%
%TO.N,unconnected-(U11-Pad2)*%
X29210000Y41910000D03*
%TO.P,U11,3*%
%TO.N,unconnected-(U11-Pad3)*%
X31750000Y41910000D03*
D14*
%TO.P,U11,5*%
%TO.N,GND*%
X36830000Y41910000D03*
%TO.P,U11,6*%
X39370000Y41910000D03*
%TO.P,U11,7,GND*%
X41910000Y41910000D03*
%TO.P,U11,8,OUT*%
%TO.N,Net-(U11-OUT)*%
X41910000Y49530000D03*
%TO.P,U11,9*%
X39370000Y49530000D03*
%TO.P,U11,10*%
X36830000Y49530000D03*
%TO.P,U11,12*%
%TO.N,+5V*%
X31750000Y49530000D03*
%TO.P,U11,13*%
X29210000Y49530000D03*
%TO.P,U11,14,Vcc*%
X26670000Y49530000D03*
%TD*%
D12*
%TO.P,U3,1,A18*%
%TO.N,A_{18}*%
X100330000Y100330000D03*
D13*
%TO.P,U3,2,A16*%
%TO.N,A_{16}*%
X100330000Y97790000D03*
%TO.P,U3,3,A14*%
%TO.N,A_{14}*%
X100330000Y95250000D03*
%TO.P,U3,4,A12*%
%TO.N,A_{12}*%
X100330000Y92710000D03*
%TO.P,U3,5,A7*%
%TO.N,A_{7}*%
X100330000Y90170000D03*
%TO.P,U3,6,A6*%
%TO.N,A_{6}*%
X100330000Y87630000D03*
%TO.P,U3,7,A5*%
%TO.N,A_{5}*%
X100330000Y85090000D03*
%TO.P,U3,8,A4*%
%TO.N,A_{4}*%
X100330000Y82550000D03*
%TO.P,U3,9,A3*%
%TO.N,A_{3}*%
X100330000Y80010000D03*
%TO.P,U3,10,A2*%
%TO.N,A_{2}*%
X100330000Y77470000D03*
%TO.P,U3,11,A1*%
%TO.N,A_{1}*%
X100330000Y74930000D03*
%TO.P,U3,12,A0*%
%TO.N,A_{0}*%
X100330000Y72390000D03*
%TO.P,U3,13,DQ0*%
%TO.N,AD_{0}*%
X100330000Y69850000D03*
%TO.P,U3,14,DQ1*%
%TO.N,AD_{1}*%
X100330000Y67310000D03*
%TO.P,U3,15,DQ2*%
%TO.N,AD_{2}*%
X100330000Y64770000D03*
%TO.P,U3,16,VSS*%
%TO.N,GND*%
X100330000Y62230000D03*
%TO.P,U3,17,DQ3*%
%TO.N,AD_{3}*%
X115570000Y62230000D03*
%TO.P,U3,18,DQ4*%
%TO.N,AD_{4}*%
X115570000Y64770000D03*
%TO.P,U3,19,DQ5*%
%TO.N,AD_{5}*%
X115570000Y67310000D03*
%TO.P,U3,20,DQ6*%
%TO.N,AD_{6}*%
X115570000Y69850000D03*
%TO.P,U3,21,DQ7*%
%TO.N,AD_{7}*%
X115570000Y72390000D03*
%TO.P,U3,22,CE#*%
%TO.N,RAM~{EN}*%
X115570000Y74930000D03*
%TO.P,U3,23,A10*%
%TO.N,A_{10}*%
X115570000Y77470000D03*
%TO.P,U3,24,OE#*%
%TO.N,~{RD}*%
X115570000Y80010000D03*
%TO.P,U3,25,A11*%
%TO.N,A_{11}*%
X115570000Y82550000D03*
%TO.P,U3,26,A9*%
%TO.N,A_{9}*%
X115570000Y85090000D03*
%TO.P,U3,27,A8*%
%TO.N,A_{8}*%
X115570000Y87630000D03*
%TO.P,U3,28,A13*%
%TO.N,A_{13}*%
X115570000Y90170000D03*
%TO.P,U3,29,WE#*%
%TO.N,~{WR}*%
X115570000Y92710000D03*
%TO.P,U3,30,A17*%
%TO.N,A_{17}*%
X115570000Y95250000D03*
%TO.P,U3,31,A15*%
%TO.N,A_{15}*%
X115570000Y97790000D03*
%TO.P,U3,32,VCC*%
%TO.N,+5V*%
X115570000Y100330000D03*
%TD*%
D12*
%TO.P,SW6,1*%
%TO.N,+5V*%
X106680000Y12700000D03*
D13*
%TO.P,SW6,2*%
X109220000Y12700000D03*
%TO.P,SW6,3*%
X111760000Y12700000D03*
%TO.P,SW6,4*%
X114300000Y12700000D03*
%TO.P,SW6,5*%
X116840000Y12700000D03*
%TO.P,SW6,6*%
X119380000Y12700000D03*
%TO.P,SW6,7*%
X121920000Y12700000D03*
%TO.P,SW6,8*%
X124460000Y12700000D03*
%TO.P,SW6,9*%
%TO.N,Net-(RN4-R8)*%
X124460000Y20320000D03*
%TO.P,SW6,10*%
%TO.N,Net-(RN4-R7)*%
X121920000Y20320000D03*
%TO.P,SW6,11*%
%TO.N,Net-(RN4-R6)*%
X119380000Y20320000D03*
%TO.P,SW6,12*%
%TO.N,Net-(RN4-R5)*%
X116840000Y20320000D03*
%TO.P,SW6,13*%
%TO.N,Net-(RN4-R4)*%
X114300000Y20320000D03*
%TO.P,SW6,14*%
%TO.N,Net-(RN4-R3)*%
X111760000Y20320000D03*
%TO.P,SW6,15*%
%TO.N,Net-(RN4-R2)*%
X109220000Y20320000D03*
%TO.P,SW6,16*%
%TO.N,Net-(RN4-R1)*%
X106680000Y20320000D03*
%TD*%
D14*
%TO.P,C8,2*%
%TO.N,GND*%
X101600000Y52150000D03*
%TO.P,C8,1*%
%TO.N,+5V*%
X114300000Y52150000D03*
%TD*%
%TO.P,C11,1*%
%TO.N,+5V*%
X20720000Y26670000D03*
%TO.P,C11,2*%
%TO.N,GND*%
X20720000Y24170000D03*
%TD*%
D23*
%TO.P,LCD1,*%
%TO.N,*%
X20320000Y105410000D03*
X20320000Y50450000D03*
D24*
X33020000Y105410000D03*
X63500000Y105410000D03*
X66040000Y105410000D03*
D23*
X113280000Y105410000D03*
D24*
%TO.P,LCD1,1,GND*%
%TO.N,GND*%
X27940000Y105410000D03*
%TO.P,LCD1,2,Vdd*%
%TO.N,+5V*%
X30480000Y105410000D03*
%TO.P,LCD1,4,RS*%
%TO.N,Net-(LCD1-RS)*%
X35560000Y105410000D03*
%TO.P,LCD1,5,R~{W}*%
%TO.N,Net-(LCD1-R~{W})*%
X38100000Y105410000D03*
%TO.P,LCD1,6,E*%
%TO.N,Net-(LCD1-E)*%
X40640000Y105410000D03*
%TO.P,LCD1,7,D_{0}*%
%TO.N,Net-(LCD1-D_{0})*%
X43180000Y105410000D03*
%TO.P,LCD1,8,D_{1}*%
%TO.N,Net-(LCD1-D_{1})*%
X45720000Y105410000D03*
%TO.P,LCD1,9,D_{2}*%
%TO.N,Net-(LCD1-D_{2})*%
X48260000Y105410000D03*
%TO.P,LCD1,10,D_{3}*%
%TO.N,Net-(LCD1-D_{3})*%
X50800000Y105410000D03*
%TO.P,LCD1,11,D_{4}*%
%TO.N,Net-(LCD1-D_{4})*%
X53340000Y105410000D03*
%TO.P,LCD1,12,D_{5}*%
%TO.N,Net-(LCD1-D_{5})*%
X55880000Y105410000D03*
%TO.P,LCD1,13,D_{6}*%
%TO.N,Net-(LCD1-D_{6})*%
X58420000Y105410000D03*
%TO.P,LCD1,14,D_{7}*%
%TO.N,Net-(LCD1-D_{7})*%
X60960000Y105410000D03*
%TD*%
D12*
%TO.P,U12,1,PA3*%
%TO.N,Net-(LCD1-D_{3})*%
X71120000Y96520000D03*
D13*
%TO.P,U12,2,PA2*%
%TO.N,Net-(LCD1-D_{2})*%
X68580000Y96520000D03*
%TO.P,U12,3,PA1*%
%TO.N,Net-(LCD1-D_{1})*%
X66040000Y96520000D03*
%TO.P,U12,4,PA0*%
%TO.N,Net-(LCD1-D_{0})*%
X63500000Y96520000D03*
%TO.P,U12,5,~{RD}*%
%TO.N,~{RD}*%
X60960000Y96520000D03*
%TO.P,U12,6,~{CS}*%
%TO.N,IO~{EN}*%
X58420000Y96520000D03*
%TO.P,U12,7,GND*%
%TO.N,GND*%
X55880000Y96520000D03*
%TO.P,U12,8,A1*%
%TO.N,A_{1}*%
X53340000Y96520000D03*
%TO.P,U12,9,A0*%
%TO.N,A_{0}*%
X50800000Y96520000D03*
%TO.P,U12,10,PC7*%
%TO.N,unconnected-(U12-PC7-Pad10)*%
X48260000Y96520000D03*
%TO.P,U12,11,PC6*%
%TO.N,unconnected-(U12-PC6-Pad11)*%
X45720000Y96520000D03*
%TO.P,U12,12,PC5*%
%TO.N,unconnected-(U12-PC5-Pad12)*%
X43180000Y96520000D03*
%TO.P,U12,13,PC4*%
%TO.N,unconnected-(U12-PC4-Pad13)*%
X40640000Y96520000D03*
%TO.P,U12,14,PC0*%
%TO.N,unconnected-(U12-PC0-Pad14)*%
X38100000Y96520000D03*
%TO.P,U12,15,PC1*%
%TO.N,unconnected-(U12-PC1-Pad15)*%
X35560000Y96520000D03*
%TO.P,U12,16,PC2*%
%TO.N,unconnected-(U12-PC2-Pad16)*%
X33020000Y96520000D03*
%TO.P,U12,17,PC3*%
%TO.N,unconnected-(U12-PC3-Pad17)*%
X30480000Y96520000D03*
%TO.P,U12,18,PB0*%
%TO.N,Net-(LCD1-RS)*%
X27940000Y96520000D03*
%TO.P,U12,19,PB1*%
%TO.N,Net-(LCD1-R~{W})*%
X25400000Y96520000D03*
%TO.P,U12,20,PB2*%
%TO.N,Net-(LCD1-E)*%
X22860000Y96520000D03*
%TO.P,U12,21,PB3*%
%TO.N,unconnected-(U12-PB3-Pad21)*%
X22860000Y81280000D03*
%TO.P,U12,22,PB4*%
%TO.N,unconnected-(U12-PB4-Pad22)*%
X25400000Y81280000D03*
%TO.P,U12,23,PB5*%
%TO.N,unconnected-(U12-PB5-Pad23)*%
X27940000Y81280000D03*
%TO.P,U12,24,PB6*%
%TO.N,unconnected-(U12-PB6-Pad24)*%
X30480000Y81280000D03*
%TO.P,U12,25,PB7*%
%TO.N,unconnected-(U12-PB7-Pad25)*%
X33020000Y81280000D03*
%TO.P,U12,26,VCC*%
%TO.N,+5V*%
X35560000Y81280000D03*
%TO.P,U12,27,D7*%
%TO.N,AD_{7}*%
X38100000Y81280000D03*
%TO.P,U12,28,D6*%
%TO.N,AD_{6}*%
X40640000Y81280000D03*
%TO.P,U12,29,D5*%
%TO.N,AD_{5}*%
X43180000Y81280000D03*
%TO.P,U12,30,D4*%
%TO.N,AD_{4}*%
X45720000Y81280000D03*
%TO.P,U12,31,D3*%
%TO.N,AD_{3}*%
X48260000Y81280000D03*
%TO.P,U12,32,D2*%
%TO.N,AD_{2}*%
X50800000Y81280000D03*
%TO.P,U12,33,D1*%
%TO.N,AD_{1}*%
X53340000Y81280000D03*
%TO.P,U12,34,D0*%
%TO.N,AD_{0}*%
X55880000Y81280000D03*
%TO.P,U12,35,RESET*%
%TO.N,RES*%
X58420000Y81280000D03*
%TO.P,U12,36,~{WR}*%
%TO.N,~{WR}*%
X60960000Y81280000D03*
%TO.P,U12,37,PA7*%
%TO.N,Net-(LCD1-D_{7})*%
X63500000Y81280000D03*
%TO.P,U12,38,PA6*%
%TO.N,Net-(LCD1-D_{6})*%
X66040000Y81280000D03*
%TO.P,U12,39,PA5*%
%TO.N,Net-(LCD1-D_{5})*%
X68580000Y81280000D03*
%TO.P,U12,40,PA4*%
%TO.N,Net-(LCD1-D_{4})*%
X71120000Y81280000D03*
%TD*%
D25*
%TO.P,U7,1,~{RST}*%
%TO.N,Net-(U7-~{RST})*%
X123190000Y62230000D03*
D26*
%TO.P,U7,2,VCC*%
%TO.N,+5V*%
X125730000Y62230000D03*
%TO.P,U7,3,GND*%
%TO.N,GND*%
X128270000Y62230000D03*
%TD*%
D14*
%TO.P,C9,1*%
%TO.N,+5V*%
X82550000Y34290000D03*
%TO.P,C9,2*%
%TO.N,GND*%
X95250000Y34290000D03*
%TD*%
D21*
%TO.P,R2,1*%
%TO.N,Net-(D1-K)*%
X124460000Y69850000D03*
D22*
%TO.P,R2,2*%
%TO.N,GND*%
X124460000Y77470000D03*
%TD*%
D13*
%TO.P,U8,14,VCC*%
%TO.N,+5V*%
X115570000Y48340000D03*
%TO.P,U8,13*%
%TO.N,unconnected-(U8-Pad13)*%
X113030000Y48340000D03*
%TO.P,U8,12*%
%TO.N,unconnected-(U8-Pad12)*%
X110490000Y48340000D03*
%TO.P,U8,11*%
%TO.N,unconnected-(U8-Pad11)*%
X107950000Y48340000D03*
%TO.P,U8,10*%
%TO.N,Net-(U7-~{RST})*%
X105410000Y48340000D03*
%TO.P,U8,9*%
X102870000Y48340000D03*
%TO.P,U8,8*%
%TO.N,RES*%
X100330000Y48340000D03*
%TO.P,U8,7,GND*%
%TO.N,GND*%
X100330000Y55960000D03*
%TO.P,U8,6*%
%TO.N,Net-(U13-~{Mr})*%
X102870000Y55960000D03*
%TO.P,U8,5*%
%TO.N,RES*%
X105410000Y55960000D03*
%TO.P,U8,4*%
X107950000Y55960000D03*
%TO.P,U8,3*%
%TO.N,CLK*%
X110490000Y55960000D03*
%TO.P,U8,2*%
%TO.N,Net-(U6-IO7)*%
X113030000Y55960000D03*
D12*
%TO.P,U8,1*%
X115570000Y55960000D03*
%TD*%
%TO.P,U6,1,I1/CLK*%
%TO.N,Net-(U11-OUT)*%
X48260000Y41910000D03*
D13*
%TO.P,U6,2,I2*%
%TO.N,A_{8}*%
X50800000Y41910000D03*
%TO.P,U6,3,I3*%
%TO.N,A_{16}*%
X53340000Y41910000D03*
%TO.P,U6,4,I4*%
%TO.N,A_{17}*%
X55880000Y41910000D03*
%TO.P,U6,5,I5*%
%TO.N,A_{18}*%
X58420000Y41910000D03*
%TO.P,U6,6,I6*%
%TO.N,A_{19}*%
X60960000Y41910000D03*
%TO.P,U6,7,I7*%
%TO.N,~{RD}*%
X63500000Y41910000D03*
%TO.P,U6,8,I8*%
%TO.N,~{WR}*%
X66040000Y41910000D03*
%TO.P,U6,9,I9*%
%TO.N,IO{slash}~{M}*%
X68580000Y41910000D03*
%TO.P,U6,10,GND*%
%TO.N,GND*%
X71120000Y41910000D03*
%TO.P,U6,11,I10/~{OE}*%
X71120000Y49530000D03*
%TO.P,U6,12,IO8*%
%TO.N,unconnected-(U6-IO8-Pad12)*%
X68580000Y49530000D03*
%TO.P,U6,13,IO7*%
%TO.N,Net-(U6-IO7)*%
X66040000Y49530000D03*
%TO.P,U6,14,IO6*%
%TO.N,unconnected-(U6-IO6-Pad14)*%
X63500000Y49530000D03*
%TO.P,U6,15,IO5*%
%TO.N,IO~{EN}*%
X60960000Y49530000D03*
%TO.P,U6,16,IO4*%
%TO.N,IN~{EN}*%
X58420000Y49530000D03*
%TO.P,U6,17,I03*%
%TO.N,OUT~{EN}*%
X55880000Y49530000D03*
%TO.P,U6,18,IO2*%
%TO.N,RAM~{EN}*%
X53340000Y49530000D03*
%TO.P,U6,19,IO1*%
%TO.N,ROM~{EN}*%
X50800000Y49530000D03*
%TO.P,U6,20,VCC*%
%TO.N,+5V*%
X48260000Y49530000D03*
%TD*%
D27*
%TO.P,BAR1,1,A*%
%TO.N,Net-(U13-Q0)*%
X77470000Y12700000D03*
D28*
%TO.P,BAR1,2,A*%
%TO.N,Net-(U13-Q1)*%
X80010000Y12700000D03*
%TO.P,BAR1,3,A*%
%TO.N,Net-(U13-Q2)*%
X82550000Y12700000D03*
%TO.P,BAR1,4,A*%
%TO.N,Net-(U13-Q3)*%
X85090000Y12700000D03*
%TO.P,BAR1,5,A*%
%TO.N,Net-(U13-Q4)*%
X87630000Y12700000D03*
%TO.P,BAR1,6,A*%
%TO.N,Net-(U13-Q5)*%
X90170000Y12700000D03*
%TO.P,BAR1,7,A*%
%TO.N,Net-(U13-Q6)*%
X92710000Y12700000D03*
%TO.P,BAR1,8,A*%
%TO.N,Net-(U13-Q7)*%
X95250000Y12700000D03*
%TO.P,BAR1,9,A*%
%TO.N,unconnected-(BAR1-A-Pad9)*%
X97790000Y12700000D03*
%TO.P,BAR1,10,A*%
%TO.N,unconnected-(BAR1-A-Pad10)*%
X100330000Y12700000D03*
%TO.P,BAR1,11,K*%
%TO.N,unconnected-(BAR1-K-Pad11)*%
X100330000Y20320000D03*
%TO.P,BAR1,12,K*%
%TO.N,unconnected-(BAR1-K-Pad12)*%
X97790000Y20320000D03*
%TO.P,BAR1,13,K*%
%TO.N,Net-(RN3-R8)*%
X95250000Y20320000D03*
%TO.P,BAR1,14,K*%
%TO.N,Net-(RN3-R7)*%
X92710000Y20320000D03*
%TO.P,BAR1,15,K*%
%TO.N,Net-(RN3-R6)*%
X90170000Y20320000D03*
%TO.P,BAR1,16,K*%
%TO.N,Net-(RN3-R5)*%
X87630000Y20320000D03*
%TO.P,BAR1,17,K*%
%TO.N,Net-(RN3-R4)*%
X85090000Y20320000D03*
%TO.P,BAR1,18,K*%
%TO.N,Net-(RN3-R3)*%
X82550000Y20320000D03*
%TO.P,BAR1,19,K*%
%TO.N,Net-(RN3-R2)*%
X80010000Y20320000D03*
%TO.P,BAR1,20,K*%
%TO.N,Net-(RN3-R1)*%
X77470000Y20320000D03*
%TD*%
D12*
%TO.P,U5,1,OE*%
%TO.N,GND*%
X83820000Y104140000D03*
D13*
%TO.P,U5,2,D0*%
%TO.N,AS_{16}*%
X83820000Y101600000D03*
%TO.P,U5,3,D1*%
%TO.N,AS_{17}*%
X83820000Y99060000D03*
%TO.P,U5,4,D2*%
%TO.N,AS_{18}*%
X83820000Y96520000D03*
%TO.P,U5,5,D3*%
%TO.N,AS_{19}*%
X83820000Y93980000D03*
%TO.P,U5,6,D4*%
%TO.N,GND*%
X83820000Y91440000D03*
%TO.P,U5,7,D5*%
X83820000Y88900000D03*
%TO.P,U5,8,D6*%
X83820000Y86360000D03*
%TO.P,U5,9,D7*%
X83820000Y83820000D03*
%TO.P,U5,10,GND*%
X83820000Y81280000D03*
%TO.P,U5,11,Load*%
%TO.N,ALE*%
X91440000Y81280000D03*
%TO.P,U5,12,Q7*%
%TO.N,unconnected-(U5-Q7-Pad12)*%
X91440000Y83820000D03*
%TO.P,U5,13,Q6*%
%TO.N,unconnected-(U5-Q6-Pad13)*%
X91440000Y86360000D03*
%TO.P,U5,14,Q5*%
%TO.N,unconnected-(U5-Q5-Pad14)*%
X91440000Y88900000D03*
%TO.P,U5,15,Q4*%
%TO.N,unconnected-(U5-Q4-Pad15)*%
X91440000Y91440000D03*
%TO.P,U5,16,Q3*%
%TO.N,A_{19}*%
X91440000Y93980000D03*
%TO.P,U5,17,Q2*%
%TO.N,A_{18}*%
X91440000Y96520000D03*
%TO.P,U5,18,Q1*%
%TO.N,A_{17}*%
X91440000Y99060000D03*
%TO.P,U5,19,Q0*%
%TO.N,A_{16}*%
X91440000Y101600000D03*
%TO.P,U5,20,VCC*%
%TO.N,+5V*%
X91440000Y104140000D03*
%TD*%
D24*
%TO.P,SW1,1,1*%
%TO.N,Net-(U7-~{RST})*%
X129540000Y48895000D03*
X123040000Y48895000D03*
%TO.P,SW1,2,2*%
%TO.N,GND*%
X129540000Y53395000D03*
X123040000Y53395000D03*
%TD*%
D29*
%TO.P,U10,1,IN*%
%TO.N,Net-(U10-IN)*%
X123190000Y86360000D03*
D30*
%TO.P,U10,2,GND*%
%TO.N,GND*%
X125730000Y86360000D03*
%TO.P,U10,3,OUT*%
%TO.N,+5V*%
X128270000Y86360000D03*
%TD*%
D31*
%TO.N,Net-(U13-~{Mr})*%
X86748700Y31656900D03*
%TO.N,Net-(U13-Q5)*%
X90170000Y35485400D03*
%TO.N,ALE*%
X84192700Y45849400D03*
%TO.N,Net-(RN1D-R4.2)*%
X74033300Y69354200D03*
%TO.N,A_{19}*%
X64050000Y74960000D03*
X89168600Y90608500D03*
%TO.N,~{WR}*%
X59304200Y52039600D03*
X65950500Y47625000D03*
%TO.N,IO{slash}~{M}*%
X62497600Y70975700D03*
%TO.N,RES*%
X102314800Y81343300D03*
%TO.N,A_{17}*%
X57310100Y39863100D03*
X74726700Y39863100D03*
%TO.N,RAM~{EN}*%
X78746600Y73411800D03*
X77818500Y57964700D03*
%TO.N,A_{16}*%
X72901900Y38538400D03*
X55993400Y38538400D03*
%TO.N,A_{18}*%
X72596200Y41896100D03*
%TO.N,A_{14}*%
X79689300Y71334100D03*
%TO.N,A_{13}*%
X26946500Y51840600D03*
X83490100Y75793200D03*
X81429000Y71911300D03*
%TO.N,A_{8}*%
X71238900Y65114000D03*
%TO.N,A_{9}*%
X36752200Y48069600D03*
X89521600Y76484000D03*
X79778500Y67710600D03*
%TO.N,A_{11}*%
X36074000Y75973200D03*
%TO.N,~{RD}*%
X59245500Y97750000D03*
X117278700Y101923900D03*
X46441200Y48807200D03*
%TO.N,A_{12}*%
X92545100Y74153200D03*
%TO.N,A_{15}*%
X108310200Y90182300D03*
%TO.N,A_{0}*%
X105033100Y72353200D03*
X69756900Y52859700D03*
%TO.N,A_{1}*%
X88881000Y105763000D03*
X88590000Y50074400D03*
X81429400Y46355800D03*
X73563000Y32329700D03*
%TO.N,A_{2}*%
X76248400Y59839600D03*
%TO.N,A_{3}*%
X101607600Y59796100D03*
X88001900Y51270800D03*
X79077600Y47067200D03*
%TO.N,A_{4}*%
X80025100Y62270100D03*
%TO.N,A_{5}*%
X79157300Y75382100D03*
X75432500Y70352100D03*
%TO.N,A_{6}*%
X64473800Y31392300D03*
X67108100Y62957300D03*
%TO.N,A_{7}*%
X76923000Y79005000D03*
%TO.N,AD_{7}*%
X90018300Y74930100D03*
X79686000Y65656100D03*
%TO.N,AD_{6}*%
X118437600Y67269400D03*
%TO.N,AD_{2}*%
X85816300Y45849400D03*
X93939200Y43357900D03*
X89386800Y63535200D03*
%TO.N,AD_{1}*%
X88836300Y44178400D03*
%TO.N,AD_{0}*%
X86293500Y42905800D03*
X72358100Y58105500D03*
%TO.N,Net-(RN1A-R1.2)*%
X72952400Y47880800D03*
%TD*%
D32*
%TO.N,Net-(U13-~{Mr})*%
X77470000Y30480000D02*
X78646900Y30480000D01*
X79455900Y31656900D02*
X86748700Y31656900D01*
X78646900Y30847900D02*
X79455900Y31656900D01*
X78646900Y30480000D02*
X78646900Y30847900D01*
%TO.N,OUT~{EN}*%
X99153100Y38465800D02*
X99153100Y38100000D01*
X96905800Y40713100D02*
X99153100Y38465800D01*
X74968600Y40713100D02*
X96905800Y40713100D01*
X71688900Y43992800D02*
X74968600Y40713100D01*
X62229000Y43992800D02*
X71688900Y43992800D01*
X57056900Y49164900D02*
X62229000Y43992800D01*
X57056900Y49530000D02*
X57056900Y49164900D01*
X55880000Y49530000D02*
X57056900Y49530000D01*
X100330000Y38100000D02*
X99153100Y38100000D01*
%TO.N,IN~{EN}*%
X109220000Y38100000D02*
X108043100Y38100000D01*
X58420000Y49530000D02*
X59596900Y49530000D01*
X59596900Y49164200D02*
X59596900Y49530000D01*
X64218000Y44543100D02*
X59596900Y49164200D01*
X72999300Y44543100D02*
X64218000Y44543100D01*
X74382500Y43159900D02*
X72999300Y44543100D01*
X84748600Y43159900D02*
X74382500Y43159900D01*
X86006200Y41902300D02*
X84748600Y43159900D01*
X104608600Y41902300D02*
X86006200Y41902300D01*
X108043100Y38467800D02*
X104608600Y41902300D01*
X108043100Y38100000D02*
X108043100Y38467800D01*
%TO.N,Net-(RN4-R4)*%
X118016900Y25765800D02*
X118016900Y25400000D01*
X121554200Y29303100D02*
X118016900Y25765800D01*
X122474100Y29303100D02*
X121554200Y29303100D01*
X123283100Y30112100D02*
X122474100Y29303100D01*
X123283100Y30480000D02*
X123283100Y30112100D01*
X124460000Y30480000D02*
X123283100Y30480000D01*
X116840000Y25400000D02*
X118016900Y25400000D01*
%TO.N,Net-(RN4-R3)*%
X115476900Y25765800D02*
X115476900Y25400000D01*
X119014200Y29303100D02*
X115476900Y25765800D01*
X119380000Y29303100D02*
X119014200Y29303100D01*
X119380000Y30480000D02*
X119380000Y29303100D01*
X114300000Y25400000D02*
X115476900Y25400000D01*
%TO.N,Net-(RN4-R2)*%
X111760000Y24036900D02*
X111760000Y25400000D01*
X109220000Y21496900D02*
X111760000Y24036900D01*
X109220000Y20320000D02*
X109220000Y21496900D01*
%TO.N,Net-(RN3-R6)*%
X90170000Y21683100D02*
X92710000Y24223100D01*
X90170000Y20320000D02*
X90170000Y21683100D01*
X92710000Y25400000D02*
X92710000Y24223100D01*
%TO.N,Net-(RN3-R8)*%
X95250000Y21683100D02*
X97790000Y24223100D01*
X95250000Y20320000D02*
X95250000Y21683100D01*
X97790000Y25400000D02*
X97790000Y24223100D01*
%TO.N,Net-(U13-Q5)*%
X91769200Y14299200D02*
X90170000Y12700000D01*
X97105300Y14299200D02*
X91769200Y14299200D01*
X102316500Y19510400D02*
X97105300Y14299200D01*
X102316500Y30242000D02*
X102316500Y19510400D01*
X97073100Y35485400D02*
X102316500Y30242000D01*
X90170000Y35485400D02*
X97073100Y35485400D01*
%TO.N,Net-(LCD1-D_{3})*%
X52256500Y103953500D02*
X50800000Y105410000D01*
X62877400Y103953500D02*
X52256500Y103953500D01*
X69943100Y96887800D02*
X62877400Y103953500D01*
X69943100Y96520000D02*
X69943100Y96887800D01*
X71120000Y96520000D02*
X69943100Y96520000D01*
%TO.N,Net-(LCD1-D_{2})*%
X68580000Y96520000D02*
X67403100Y96520000D01*
X67403100Y96885800D02*
X67403100Y96520000D01*
X60918100Y103370800D02*
X67403100Y96885800D01*
X50299200Y103370800D02*
X60918100Y103370800D01*
X48260000Y105410000D02*
X50299200Y103370800D01*
%TO.N,Net-(LCD1-D_{1})*%
X66040000Y96520000D02*
X64863100Y96520000D01*
X64863100Y96885800D02*
X64863100Y96520000D01*
X58880100Y102868800D02*
X64863100Y96885800D01*
X48261200Y102868800D02*
X58880100Y102868800D01*
X45720000Y105410000D02*
X48261200Y102868800D01*
%TO.N,Net-(LCD1-D_{0})*%
X46601800Y101988200D02*
X43180000Y105410000D01*
X57222700Y101988200D02*
X46601800Y101988200D01*
X62323100Y96887800D02*
X57222700Y101988200D01*
X62323100Y96520000D02*
X62323100Y96887800D01*
X63500000Y96520000D02*
X62323100Y96520000D01*
%TO.N,Net-(LCD1-E)*%
X32926900Y97696900D02*
X40640000Y105410000D01*
X24845900Y97696900D02*
X32926900Y97696900D01*
X24036900Y96887900D02*
X24845900Y97696900D01*
X24036900Y96520000D02*
X24036900Y96887900D01*
X22860000Y96520000D02*
X24036900Y96520000D01*
%TO.N,Net-(U13-Q3)*%
X97790000Y30480000D02*
X97790000Y29303100D01*
X87751300Y15361300D02*
X85090000Y12700000D01*
X97404300Y15361300D02*
X87751300Y15361300D01*
X101774100Y19731100D02*
X97404300Y15361300D01*
X101774100Y25319000D02*
X101774100Y19731100D01*
X97790000Y29303100D02*
X101774100Y25319000D01*
%TO.N,Net-(U13-Q2)*%
X88900000Y28033100D02*
X90170000Y29303100D01*
X88900000Y25001100D02*
X88900000Y28033100D01*
X87006300Y23107400D02*
X88900000Y25001100D01*
X78243100Y23107400D02*
X87006300Y23107400D01*
X76072700Y20937000D02*
X78243100Y23107400D01*
X76072700Y19177300D02*
X76072700Y20937000D01*
X82550000Y12700000D02*
X76072700Y19177300D01*
X90170000Y30480000D02*
X90170000Y29303100D01*
%TO.N,AS_{16}*%
X27940000Y72390000D02*
X29116900Y72390000D01*
X83820000Y101600000D02*
X82643100Y101600000D01*
X68408600Y87365500D02*
X82643100Y101600000D01*
X45046200Y87365500D02*
X68408600Y87365500D01*
X39370000Y81689300D02*
X45046200Y87365500D01*
X39370000Y80868600D02*
X39370000Y81689300D01*
X37310100Y78808700D02*
X39370000Y80868600D01*
X35167800Y78808700D02*
X37310100Y78808700D01*
X29116900Y72757800D02*
X35167800Y78808700D01*
X29116900Y72390000D02*
X29116900Y72757800D01*
%TO.N,AS_{17}*%
X30480000Y72390000D02*
X31656900Y72390000D01*
X83820000Y99060000D02*
X82643100Y99060000D01*
X81642700Y99060000D02*
X82643100Y99060000D01*
X69446300Y86863600D02*
X81642700Y99060000D01*
X52095500Y86863600D02*
X69446300Y86863600D01*
X46990000Y81758100D02*
X52095500Y86863600D01*
X46990000Y80861500D02*
X46990000Y81758100D01*
X44342300Y78213800D02*
X46990000Y80861500D01*
X37130700Y78213800D02*
X44342300Y78213800D01*
X31656900Y72740000D02*
X37130700Y78213800D01*
X31656900Y72390000D02*
X31656900Y72740000D01*
%TO.N,AS_{18}*%
X83820000Y96520000D02*
X82643100Y96520000D01*
X33020000Y72390000D02*
X34196900Y72390000D01*
X34196900Y72755800D02*
X34196900Y72390000D01*
X36513700Y75072600D02*
X34196900Y72755800D01*
X48797100Y75072600D02*
X36513700Y75072600D01*
X54610000Y80885500D02*
X48797100Y75072600D01*
X54610000Y81695400D02*
X54610000Y80885500D01*
X58771400Y85856800D02*
X54610000Y81695400D01*
X71979900Y85856800D02*
X58771400Y85856800D01*
X82643100Y96520000D02*
X71979900Y85856800D01*
%TO.N,AS_{19}*%
X83820000Y93980000D02*
X82643100Y93980000D01*
X35560000Y72390000D02*
X36736900Y72390000D01*
X36736900Y72755800D02*
X36736900Y72390000D01*
X38101900Y74120800D02*
X36736900Y72755800D01*
X50475500Y74120800D02*
X38101900Y74120800D01*
X57150000Y80795300D02*
X50475500Y74120800D01*
X57150000Y81683300D02*
X57150000Y80795300D01*
X59833500Y84366800D02*
X57150000Y81683300D01*
X73029900Y84366800D02*
X59833500Y84366800D01*
X82643100Y93980000D02*
X73029900Y84366800D01*
%TO.N,ALE*%
X60960000Y72390000D02*
X62136900Y72390000D01*
X91440000Y49530000D02*
X90263100Y49530000D01*
X84717200Y45849400D02*
X84192700Y45849400D01*
X85888100Y47020300D02*
X84717200Y45849400D01*
X87753400Y47020300D02*
X85888100Y47020300D01*
X90263100Y49530000D02*
X87753400Y47020300D01*
X62136900Y72711600D02*
X62136900Y72390000D01*
X63608400Y74183100D02*
X62136900Y72711600D01*
X64763400Y74183100D02*
X63608400Y74183100D01*
X68740300Y78160000D02*
X64763400Y74183100D01*
X84427800Y78160000D02*
X68740300Y78160000D01*
X87547800Y81280000D02*
X84427800Y78160000D01*
X91440000Y81280000D02*
X87547800Y81280000D01*
%TO.N,Net-(RN1D-R4.2)*%
X40640000Y72390000D02*
X41816900Y72390000D01*
X44486900Y69354200D02*
X74033300Y69354200D01*
X41816900Y72024200D02*
X44486900Y69354200D01*
X41816900Y72390000D02*
X41816900Y72024200D01*
%TO.N,Net-(U11-OUT)*%
X36830000Y49530000D02*
X39370000Y49530000D01*
X39370000Y49530000D02*
X41910000Y49530000D01*
%TO.N,Net-(U7-~{RST})*%
X102870000Y48340000D02*
X105410000Y48340000D01*
X105410000Y48340000D02*
X106586900Y48340000D01*
X121289600Y47144600D02*
X123040000Y48895000D01*
X107416500Y47144600D02*
X121289600Y47144600D01*
X106586900Y47974200D02*
X107416500Y47144600D01*
X106586900Y48340000D02*
X106586900Y47974200D01*
X123040000Y48895000D02*
X129540000Y48895000D01*
%TO.N,Net-(U6-IO7)*%
X66040000Y49530000D02*
X67216900Y49530000D01*
X115570000Y55960000D02*
X113030000Y55960000D01*
X113030000Y55960000D02*
X111853100Y55960000D01*
X111853100Y55592200D02*
X111853100Y55960000D01*
X107078100Y50817200D02*
X111853100Y55592200D01*
X90574000Y50817200D02*
X107078100Y50817200D01*
X88153200Y48396400D02*
X90574000Y50817200D01*
X86551600Y48396400D02*
X88153200Y48396400D01*
X84975600Y46820400D02*
X86551600Y48396400D01*
X84064800Y46820400D02*
X84975600Y46820400D01*
X82823300Y45578900D02*
X84064800Y46820400D01*
X81107700Y45578900D02*
X82823300Y45578900D01*
X80893500Y45793100D02*
X81107700Y45578900D01*
X76640900Y45793100D02*
X80893500Y45793100D01*
X71709400Y50724600D02*
X76640900Y45793100D01*
X68045700Y50724600D02*
X71709400Y50724600D01*
X67216900Y49895800D02*
X68045700Y50724600D01*
X67216900Y49530000D02*
X67216900Y49895800D01*
%TO.N,Net-(D2-K)*%
X129540000Y72390000D02*
X127000000Y69850000D01*
X129540000Y73660000D02*
X129540000Y72390000D01*
%TO.N,Net-(D1-K)*%
X121920000Y72390000D02*
X124460000Y69850000D01*
X121920000Y73660000D02*
X121920000Y72390000D01*
%TO.N,A_{19}*%
X68940000Y79850000D02*
X64050000Y74960000D01*
X84112800Y79850000D02*
X68940000Y79850000D01*
X89168600Y84905800D02*
X84112800Y79850000D01*
X89168600Y90608500D02*
X89168600Y84905800D01*
%TO.N,~{WR}*%
X60163400Y52039600D02*
X59304200Y52039600D01*
X62230000Y49973000D02*
X60163400Y52039600D01*
X62230000Y49134100D02*
X62230000Y49973000D01*
X63739100Y47625000D02*
X62230000Y49134100D01*
X65950500Y47625000D02*
X63739100Y47625000D01*
X51976900Y73101900D02*
X51976900Y72390000D01*
X59783100Y80908100D02*
X51976900Y73101900D01*
X59783100Y81280000D02*
X59783100Y80908100D01*
X60960000Y81280000D02*
X59783100Y81280000D01*
X50800000Y72390000D02*
X51976900Y72390000D01*
X115570000Y92710000D02*
X114393100Y92710000D01*
X60960000Y81280000D02*
X62136900Y81280000D01*
X113180900Y91497800D02*
X114393100Y92710000D01*
X94961400Y91497800D02*
X113180900Y91497800D01*
X93825000Y92634200D02*
X94961400Y91497800D01*
X83184000Y92634200D02*
X93825000Y92634200D01*
X73464500Y82914700D02*
X83184000Y92634200D01*
X63405800Y82914700D02*
X73464500Y82914700D01*
X62136900Y81645800D02*
X63405800Y82914700D01*
X62136900Y81280000D02*
X62136900Y81645800D01*
%TO.N,IO{slash}~{M}*%
X53340000Y72390000D02*
X54516900Y72390000D01*
X54516900Y72024200D02*
X54516900Y72390000D01*
X55565400Y70975700D02*
X54516900Y72024200D01*
X62497600Y70975700D02*
X55565400Y70975700D01*
%TO.N,RES*%
X107950000Y55960000D02*
X105410000Y55960000D01*
X71120000Y72390000D02*
X72296900Y72390000D01*
X97210500Y81343300D02*
X102314800Y81343300D01*
X93133000Y77265800D02*
X97210500Y81343300D01*
X88723600Y77265800D02*
X93133000Y77265800D01*
X86063000Y74605200D02*
X88723600Y77265800D01*
X74512100Y74605200D02*
X86063000Y74605200D01*
X72296900Y72390000D02*
X74512100Y74605200D01*
%TO.N,CLK*%
X68580000Y57150000D02*
X69756900Y57150000D01*
X110490000Y55960000D02*
X109313100Y55960000D01*
X69756900Y57515700D02*
X69756900Y57150000D01*
X71123600Y58882400D02*
X69756900Y57515700D01*
X73440200Y58882400D02*
X71123600Y58882400D01*
X77058800Y55263800D02*
X73440200Y58882400D01*
X79659000Y55263800D02*
X77058800Y55263800D01*
X81490100Y53432700D02*
X79659000Y55263800D01*
X84352500Y53432700D02*
X81490100Y53432700D01*
X86799800Y55880000D02*
X84352500Y53432700D01*
X95991500Y55880000D02*
X86799800Y55880000D01*
X97261400Y57149900D02*
X95991500Y55880000D01*
X108489000Y57149900D02*
X97261400Y57149900D01*
X109313100Y56325800D02*
X108489000Y57149900D01*
X109313100Y55960000D02*
X109313100Y56325800D01*
%TO.N,A_{17}*%
X91440000Y99060000D02*
X92616900Y99060000D01*
X115570000Y95250000D02*
X114393100Y95250000D01*
X106314900Y95250000D02*
X114393100Y95250000D01*
X102504900Y99060000D02*
X106314900Y95250000D01*
X92616900Y99060000D02*
X102504900Y99060000D01*
X57310100Y39863100D02*
X74726700Y39863100D01*
%TO.N,RAM~{EN}*%
X53340000Y49530000D02*
X54516900Y49530000D01*
X115570000Y74930000D02*
X114393100Y74930000D01*
X75068000Y57964700D02*
X77818500Y57964700D01*
X73648400Y59384300D02*
X75068000Y57964700D01*
X63981300Y59384300D02*
X73648400Y59384300D01*
X62142700Y57545700D02*
X63981300Y59384300D01*
X62142700Y56652500D02*
X62142700Y57545700D01*
X58996600Y53506400D02*
X62142700Y56652500D01*
X58127500Y53506400D02*
X58996600Y53506400D01*
X54516900Y49895800D02*
X58127500Y53506400D01*
X54516900Y49530000D02*
X54516900Y49895800D01*
X113180500Y76142600D02*
X114393100Y74930000D01*
X90278900Y76142600D02*
X113180500Y76142600D01*
X89843400Y75707100D02*
X90278900Y76142600D01*
X88891400Y75707100D02*
X89843400Y75707100D01*
X86799200Y73614900D02*
X88891400Y75707100D01*
X78949700Y73614900D02*
X86799200Y73614900D01*
X78746600Y73411800D02*
X78949700Y73614900D01*
%TO.N,A_{16}*%
X91074200Y100423100D02*
X91440000Y100423100D01*
X90248800Y99597700D02*
X91074200Y100423100D01*
X90248800Y98541400D02*
X90248800Y99597700D01*
X91000200Y97790000D02*
X90248800Y98541400D01*
X100330000Y97790000D02*
X91000200Y97790000D01*
X91440000Y101600000D02*
X91440000Y100423100D01*
X55993400Y38538400D02*
X72901900Y38538400D01*
%TO.N,A_{18}*%
X58420000Y41910000D02*
X59596900Y41910000D01*
X72596200Y41666100D02*
X72596200Y41896100D01*
X71644000Y40713900D02*
X72596200Y41666100D01*
X60427200Y40713900D02*
X71644000Y40713900D01*
X59596900Y41544200D02*
X60427200Y40713900D01*
X59596900Y41910000D02*
X59596900Y41544200D01*
%TO.N,A_{14}*%
X25400000Y57150000D02*
X26576900Y57150000D01*
X26576900Y57515700D02*
X26576900Y57150000D01*
X37079700Y68018500D02*
X26576900Y57515700D01*
X76373700Y68018500D02*
X37079700Y68018500D01*
X79689300Y71334100D02*
X76373700Y68018500D01*
%TO.N,A_{13}*%
X38500000Y33020000D02*
X38500000Y34116900D01*
X25480900Y50375000D02*
X26946500Y51840600D01*
X25480900Y49005500D02*
X25480900Y50375000D01*
X27122800Y47363600D02*
X25480900Y49005500D01*
X27974600Y47363600D02*
X27122800Y47363600D01*
X33113100Y42225100D02*
X27974600Y47363600D01*
X33113100Y39503800D02*
X33113100Y42225100D01*
X38500000Y34116900D02*
X33113100Y39503800D01*
X85511300Y75793200D02*
X83490100Y75793200D01*
X87737400Y78019300D02*
X85511300Y75793200D01*
X92469100Y78019300D02*
X87737400Y78019300D01*
X98269800Y83820000D02*
X92469100Y78019300D01*
X108043100Y83820000D02*
X98269800Y83820000D01*
X114393100Y90170000D02*
X108043100Y83820000D01*
X29116900Y57515800D02*
X29116900Y57150000D01*
X39117700Y67516600D02*
X29116900Y57515800D01*
X76976700Y67516600D02*
X39117700Y67516600D01*
X81371400Y71911300D02*
X76976700Y67516600D01*
X81429000Y71911300D02*
X81371400Y71911300D01*
X27940000Y57150000D02*
X29116900Y57150000D01*
X115570000Y90170000D02*
X114393100Y90170000D01*
%TO.N,A_{8}*%
X41040000Y33020000D02*
X42136900Y33020000D01*
X50800000Y41910000D02*
X50800000Y40733100D01*
X40640000Y57150000D02*
X41816900Y57150000D01*
X49736600Y40733100D02*
X50800000Y40733100D01*
X42136900Y33133400D02*
X49736600Y40733100D01*
X42136900Y33020000D02*
X42136900Y33133400D01*
X49418100Y65114000D02*
X71238900Y65114000D01*
X41816900Y57512800D02*
X49418100Y65114000D01*
X41816900Y57150000D02*
X41816900Y57512800D01*
%TO.N,A_{9}*%
X35625300Y53498400D02*
X38100000Y55973100D01*
X35625300Y49048600D02*
X35625300Y53498400D01*
X36604300Y48069600D02*
X35625300Y49048600D01*
X36752200Y48069600D02*
X36604300Y48069600D01*
X38100000Y57150000D02*
X38100000Y55973100D01*
X38100000Y57150000D02*
X39276900Y57150000D01*
X115570000Y85090000D02*
X114393100Y85090000D01*
X108043100Y78740000D02*
X114393100Y85090000D01*
X96238800Y78740000D02*
X108043100Y78740000D01*
X94188500Y76689700D02*
X96238800Y78740000D01*
X89727300Y76689700D02*
X94188500Y76689700D01*
X89521600Y76484000D02*
X89727300Y76689700D01*
X77960400Y65892500D02*
X79778500Y67710600D01*
X47653600Y65892500D02*
X77960400Y65892500D01*
X39276900Y57515800D02*
X47653600Y65892500D01*
X39276900Y57150000D02*
X39276900Y57515800D01*
%TO.N,A_{11}*%
X115570000Y82550000D02*
X115570000Y83726900D01*
X115935800Y83726900D02*
X115570000Y83726900D01*
X116759500Y84550600D02*
X115935800Y83726900D01*
X116759500Y93221000D02*
X116759500Y84550600D01*
X116000500Y93980000D02*
X116759500Y93221000D01*
X98105700Y93980000D02*
X116000500Y93980000D01*
X96793400Y95292300D02*
X98105700Y93980000D01*
X88741100Y95292300D02*
X96793400Y95292300D01*
X86325200Y97708200D02*
X88741100Y95292300D01*
X81043300Y97708200D02*
X86325200Y97708200D01*
X69693800Y86358700D02*
X81043300Y97708200D01*
X54102500Y86358700D02*
X69693800Y86358700D01*
X49530000Y81786200D02*
X54102500Y86358700D01*
X49530000Y80838400D02*
X49530000Y81786200D01*
X44664800Y75973200D02*
X49530000Y80838400D01*
X36074000Y75973200D02*
X44664800Y75973200D01*
%TO.N,~{RD}*%
X59783100Y97212400D02*
X59245500Y97750000D01*
X59783100Y96520000D02*
X59783100Y97212400D01*
X60371600Y96520000D02*
X59783100Y96520000D01*
X60371600Y96520000D02*
X60960000Y96520000D01*
X62179800Y95300200D02*
X60960000Y96520000D01*
X72063100Y95300200D02*
X62179800Y95300200D01*
X83302800Y106539900D02*
X72063100Y95300200D01*
X107185600Y106539900D02*
X83302800Y106539900D01*
X111801600Y101923900D02*
X107185600Y106539900D01*
X117278700Y101923900D02*
X111801600Y101923900D01*
X62323100Y42275800D02*
X62323100Y41910000D01*
X61510000Y43088900D02*
X62323100Y42275800D01*
X57842700Y43088900D02*
X61510000Y43088900D01*
X57150000Y42396200D02*
X57842700Y43088900D01*
X57150000Y41510000D02*
X57150000Y42396200D01*
X49756900Y34116900D02*
X57150000Y41510000D01*
X48660000Y34116900D02*
X49756900Y34116900D01*
X48660000Y33020000D02*
X48660000Y34116900D01*
X63500000Y41910000D02*
X62323100Y41910000D01*
X47563100Y32906400D02*
X47563100Y33020000D01*
X46564900Y31908200D02*
X47563100Y32906400D01*
X40559000Y31908200D02*
X46564900Y31908200D01*
X39770000Y32697200D02*
X40559000Y31908200D01*
X39770000Y33690500D02*
X39770000Y32697200D01*
X38150800Y35309700D02*
X39770000Y33690500D01*
X38150800Y42371400D02*
X38150800Y35309700D01*
X39278800Y43499400D02*
X38150800Y42371400D01*
X41133400Y43499400D02*
X39278800Y43499400D01*
X46441200Y48807200D02*
X41133400Y43499400D01*
X48660000Y33020000D02*
X47563100Y33020000D01*
%TO.N,A_{10}*%
X35560000Y57150000D02*
X36736900Y57150000D01*
X115570000Y77470000D02*
X115570000Y76293100D01*
X115935800Y76293100D02*
X115570000Y76293100D01*
X116755800Y75473100D02*
X115935800Y76293100D01*
X116755800Y71873900D02*
X116755800Y75473100D01*
X116086400Y71204500D02*
X116755800Y71873900D01*
X94289900Y71204500D02*
X116086400Y71204500D01*
X91878500Y73615900D02*
X94289900Y71204500D01*
X90959600Y73615900D02*
X91878500Y73615900D01*
X85831200Y68487500D02*
X90959600Y73615900D01*
X79456800Y68487500D02*
X85831200Y68487500D01*
X77363700Y66394400D02*
X79456800Y68487500D01*
X45615500Y66394400D02*
X77363700Y66394400D01*
X36736900Y57515800D02*
X45615500Y66394400D01*
X36736900Y57150000D02*
X36736900Y57515800D01*
%TO.N,AD_{4}*%
X86187500Y61039400D02*
X84996900Y62230000D01*
X110662500Y61039400D02*
X86187500Y61039400D01*
X114393100Y64770000D02*
X110662500Y61039400D01*
X115570000Y64770000D02*
X114393100Y64770000D01*
X83820000Y62230000D02*
X84996900Y62230000D01*
X50800000Y57150000D02*
X51976900Y57150000D01*
X83820000Y62230000D02*
X82643100Y62230000D01*
X81906300Y61493200D02*
X82643100Y62230000D01*
X55952300Y61493200D02*
X81906300Y61493200D01*
X51976900Y57517800D02*
X55952300Y61493200D01*
X51976900Y57150000D02*
X51976900Y57517800D01*
%TO.N,A_{12}*%
X30480000Y57150000D02*
X31656900Y57150000D01*
X89696400Y74153200D02*
X92545100Y74153200D01*
X86663300Y71120100D02*
X89696400Y74153200D01*
X81297900Y71120100D02*
X86663300Y71120100D01*
X77074100Y66896300D02*
X81297900Y71120100D01*
X41037400Y66896300D02*
X77074100Y66896300D01*
X31656900Y57515800D02*
X41037400Y66896300D01*
X31656900Y57150000D02*
X31656900Y57515800D01*
%TO.N,A_{15}*%
X25400000Y72390000D02*
X26576900Y72390000D01*
X26576900Y72022200D02*
X26576900Y72390000D01*
X27411700Y71187400D02*
X26576900Y72022200D01*
X38605000Y71187400D02*
X27411700Y71187400D01*
X39370000Y71952400D02*
X38605000Y71187400D01*
X39370000Y72878400D02*
X39370000Y71952400D01*
X40060000Y73568400D02*
X39370000Y72878400D01*
X43751300Y73568400D02*
X40060000Y73568400D01*
X44450000Y72869700D02*
X43751300Y73568400D01*
X44450000Y71940700D02*
X44450000Y72869700D01*
X46198500Y70192200D02*
X44450000Y71940700D01*
X62978800Y70192200D02*
X46198500Y70192200D01*
X64853400Y72066800D02*
X62978800Y70192200D01*
X64853400Y72909800D02*
X64853400Y72066800D01*
X69519200Y77575600D02*
X64853400Y72909800D01*
X84553200Y77575600D02*
X69519200Y77575600D01*
X86754400Y79776800D02*
X84553200Y77575600D01*
X91790000Y79776800D02*
X86754400Y79776800D01*
X98373200Y86360000D02*
X91790000Y79776800D01*
X104487900Y86360000D02*
X98373200Y86360000D01*
X108310200Y90182300D02*
X104487900Y86360000D01*
%TO.N,A_{0}*%
X101543700Y72353200D02*
X101506900Y72390000D01*
X105033100Y72353200D02*
X101543700Y72353200D01*
X100330000Y72390000D02*
X101506900Y72390000D01*
X71534300Y52859700D02*
X69756900Y52859700D01*
X76060900Y48333100D02*
X71534300Y52859700D01*
X84351300Y48333100D02*
X76060900Y48333100D01*
X87225000Y51206800D02*
X84351300Y48333100D01*
X87225000Y51620900D02*
X87225000Y51206800D01*
X87674100Y52070000D02*
X87225000Y51620900D01*
X91440000Y52070000D02*
X87674100Y52070000D01*
%TO.N,A_{1}*%
X53340000Y96520000D02*
X54516900Y96520000D01*
X54516900Y96887800D02*
X54516900Y96520000D01*
X55334200Y97705100D02*
X54516900Y96887800D01*
X56409100Y97705100D02*
X55334200Y97705100D01*
X57150000Y96964200D02*
X56409100Y97705100D01*
X57150000Y96114100D02*
X57150000Y96964200D01*
X58479900Y94784200D02*
X57150000Y96114100D01*
X72331200Y94784200D02*
X58479900Y94784200D01*
X83310000Y105763000D02*
X72331200Y94784200D01*
X88881000Y105763000D02*
X83310000Y105763000D01*
X54836900Y17893600D02*
X54836900Y17780000D01*
X69273000Y32329700D02*
X54836900Y17893600D01*
X73563000Y32329700D02*
X69273000Y32329700D01*
X53740000Y17780000D02*
X54836900Y17780000D01*
X87518200Y50074400D02*
X88590000Y50074400D01*
X84772500Y47328700D02*
X87518200Y50074400D01*
X82402300Y47328700D02*
X84772500Y47328700D01*
X81429400Y46355800D02*
X82402300Y47328700D01*
%TO.N,A_{2}*%
X78559700Y59839600D02*
X76248400Y59839600D01*
X79976300Y58423000D02*
X78559700Y59839600D01*
X84552900Y58423000D02*
X79976300Y58423000D01*
X85825900Y57150000D02*
X84552900Y58423000D01*
X91440000Y57150000D02*
X85825900Y57150000D01*
%TO.N,A_{3}*%
X92723000Y59796100D02*
X92616900Y59690000D01*
X101607600Y59796100D02*
X92723000Y59796100D01*
X91440000Y59690000D02*
X92616900Y59690000D01*
X79841100Y47830700D02*
X79077600Y47067200D01*
X84561800Y47830700D02*
X79841100Y47830700D01*
X88001900Y51270800D02*
X84561800Y47830700D01*
%TO.N,A_{4}*%
X81414700Y62270100D02*
X80025100Y62270100D01*
X82577700Y63433100D02*
X81414700Y62270100D01*
X87118900Y63433100D02*
X82577700Y63433100D01*
X88322000Y62230000D02*
X87118900Y63433100D01*
X91440000Y62230000D02*
X88322000Y62230000D01*
%TO.N,A_{5}*%
X35939900Y25420100D02*
X43580000Y17780000D01*
X20216900Y25420100D02*
X35939900Y25420100D01*
X17374200Y28262800D02*
X20216900Y25420100D01*
X17374200Y57188400D02*
X17374200Y28262800D01*
X24975800Y64790000D02*
X17374200Y57188400D01*
X27843600Y64790000D02*
X24975800Y64790000D01*
X31630800Y68577200D02*
X27843600Y64790000D01*
X74436700Y68577200D02*
X31630800Y68577200D01*
X75432500Y69573000D02*
X74436700Y68577200D01*
X75432500Y70352100D02*
X75432500Y69573000D01*
X80756300Y76981100D02*
X79157300Y75382100D01*
X85022100Y76981100D02*
X80756300Y76981100D01*
X87062600Y79021600D02*
X85022100Y76981100D01*
X91977700Y79021600D02*
X87062600Y79021600D01*
X98046100Y85090000D02*
X91977700Y79021600D01*
X100330000Y85090000D02*
X98046100Y85090000D01*
%TO.N,A_{6}*%
X62504700Y29423200D02*
X64473800Y31392300D01*
X56175300Y29423200D02*
X62504700Y29423200D01*
X44850000Y18097900D02*
X56175300Y29423200D01*
X44850000Y17493200D02*
X44850000Y18097900D01*
X44024200Y16667400D02*
X44850000Y17493200D01*
X43112400Y16667400D02*
X44024200Y16667400D01*
X42136900Y17642900D02*
X43112400Y16667400D01*
X42136900Y17780000D02*
X42136900Y17642900D01*
X88523100Y65570000D02*
X90263100Y67310000D01*
X85018800Y65570000D02*
X88523100Y65570000D01*
X84604600Y65984200D02*
X85018800Y65570000D01*
X82410700Y65984200D02*
X84604600Y65984200D01*
X80689500Y64263000D02*
X82410700Y65984200D01*
X78695600Y64263000D02*
X80689500Y64263000D01*
X77389900Y62957300D02*
X78695600Y64263000D01*
X67108100Y62957300D02*
X77389900Y62957300D01*
X91440000Y67310000D02*
X90263100Y67310000D01*
X41040000Y17780000D02*
X42136900Y17780000D01*
%TO.N,A_{7}*%
X100330000Y90170000D02*
X99153100Y90170000D01*
X84563000Y79005000D02*
X76923000Y79005000D01*
X88108000Y82550000D02*
X84563000Y79005000D01*
X91900900Y82550000D02*
X88108000Y82550000D01*
X99153100Y89802200D02*
X91900900Y82550000D01*
X99153100Y90170000D02*
X99153100Y89802200D01*
%TO.N,AD_{7}*%
X56280000Y33020000D02*
X57376900Y33020000D01*
X81961600Y38100000D02*
X81373100Y38100000D01*
X127000000Y30480000D02*
X125823100Y30480000D01*
X81961600Y38100000D02*
X82550000Y38100000D01*
X82550000Y38100000D02*
X83726900Y38100000D01*
X83726900Y38467800D02*
X83726900Y38100000D01*
X84587600Y39328500D02*
X83726900Y38467800D01*
X93230700Y39328500D02*
X84587600Y39328500D01*
X93980000Y38579200D02*
X93230700Y39328500D01*
X93980000Y37636100D02*
X93980000Y38579200D01*
X94713400Y36902700D02*
X93980000Y37636100D01*
X105943800Y36902700D02*
X94713400Y36902700D01*
X109816700Y33029800D02*
X105943800Y36902700D01*
X123639100Y33029800D02*
X109816700Y33029800D01*
X125823100Y30845800D02*
X123639100Y33029800D01*
X125823100Y30480000D02*
X125823100Y30845800D01*
X115570000Y72390000D02*
X114393100Y72390000D01*
X81373100Y38467800D02*
X81373100Y38100000D01*
X80008400Y39832500D02*
X81373100Y38467800D01*
X76035200Y39832500D02*
X80008400Y39832500D01*
X73855500Y37652800D02*
X76035200Y39832500D01*
X61896100Y37652800D02*
X73855500Y37652800D01*
X57376900Y33133600D02*
X61896100Y37652800D01*
X57376900Y33020000D02*
X57376900Y33133600D01*
X43180000Y57150000D02*
X44356900Y57150000D01*
X78669100Y65656100D02*
X79686000Y65656100D01*
X77350100Y64337100D02*
X78669100Y65656100D01*
X51176200Y64337100D02*
X77350100Y64337100D01*
X44356900Y57517800D02*
X51176200Y64337100D01*
X44356900Y57150000D02*
X44356900Y57517800D01*
X93670400Y74930100D02*
X90018300Y74930100D01*
X95033600Y73566900D02*
X93670400Y74930100D01*
X113216200Y73566900D02*
X95033600Y73566900D01*
X114393100Y72390000D02*
X113216200Y73566900D01*
%TO.N,AD_{6}*%
X83820000Y67310000D02*
X84996900Y67310000D01*
X45720000Y57150000D02*
X46896900Y57150000D01*
X83820000Y67310000D02*
X82643100Y67310000D01*
X85090000Y38100000D02*
X86266900Y38100000D01*
X115570000Y69850000D02*
X114981600Y69850000D01*
X114981600Y69850000D02*
X114393100Y69850000D01*
X117562200Y67269400D02*
X118437600Y67269400D01*
X114981600Y69850000D02*
X117562200Y67269400D01*
X86266900Y37573300D02*
X86266900Y38100000D01*
X85585600Y36892000D02*
X86266900Y37573300D01*
X79553600Y36892000D02*
X85585600Y36892000D01*
X78833100Y37612500D02*
X79553600Y36892000D01*
X78833100Y38478800D02*
X78833100Y37612500D01*
X78034300Y39277600D02*
X78833100Y38478800D01*
X76253900Y39277600D02*
X78034300Y39277600D01*
X74127200Y37150900D02*
X76253900Y39277600D01*
X62950900Y37150900D02*
X74127200Y37150900D01*
X58820000Y33020000D02*
X62950900Y37150900D01*
X86213100Y66093800D02*
X84996900Y67310000D01*
X88262100Y66093800D02*
X86213100Y66093800D01*
X90748300Y68580000D02*
X88262100Y66093800D01*
X100790900Y68580000D02*
X90748300Y68580000D01*
X102060900Y69850000D02*
X100790900Y68580000D01*
X114393100Y69850000D02*
X102060900Y69850000D01*
X80207500Y64874400D02*
X82643100Y67310000D01*
X78597200Y64874400D02*
X80207500Y64874400D01*
X77457000Y63734200D02*
X78597200Y64874400D01*
X53113300Y63734200D02*
X77457000Y63734200D01*
X46896900Y57517800D02*
X53113300Y63734200D01*
X46896900Y57150000D02*
X46896900Y57517800D01*
%TO.N,AD_{5}*%
X115570000Y67310000D02*
X114393100Y67310000D01*
X83820000Y64770000D02*
X84996900Y64770000D01*
X61360000Y33020000D02*
X62456900Y33020000D01*
X92710000Y38100000D02*
X92121600Y38100000D01*
X92121600Y38100000D02*
X91533100Y38100000D01*
X115663100Y30845800D02*
X115663100Y30480000D01*
X114239500Y32269400D02*
X115663100Y30845800D01*
X109513500Y32269400D02*
X114239500Y32269400D01*
X105411800Y36371100D02*
X109513500Y32269400D01*
X93850500Y36371100D02*
X105411800Y36371100D01*
X92121600Y38100000D02*
X93850500Y36371100D01*
X116840000Y30480000D02*
X115663100Y30480000D01*
X48260000Y57150000D02*
X49436900Y57150000D01*
X82373700Y64770000D02*
X83820000Y64770000D01*
X81285500Y63681800D02*
X82373700Y64770000D01*
X80336800Y63681800D02*
X81285500Y63681800D01*
X78835400Y62180400D02*
X80336800Y63681800D01*
X54099500Y62180400D02*
X78835400Y62180400D01*
X49436900Y57517800D02*
X54099500Y62180400D01*
X49436900Y57150000D02*
X49436900Y57517800D01*
X113174200Y68528900D02*
X114393100Y67310000D01*
X105906300Y68528900D02*
X113174200Y68528900D01*
X103417500Y66040100D02*
X105906300Y68528900D01*
X89757000Y66040100D02*
X103417500Y66040100D01*
X88486900Y64770000D02*
X89757000Y66040100D01*
X84996900Y64770000D02*
X88486900Y64770000D01*
X62456900Y33157100D02*
X62456900Y33020000D01*
X63416900Y34117100D02*
X62456900Y33157100D01*
X79238900Y34117100D02*
X63416900Y34117100D01*
X80277400Y33078600D02*
X79238900Y34117100D01*
X83040500Y33078600D02*
X80277400Y33078600D01*
X86471700Y36509800D02*
X83040500Y33078600D01*
X90308700Y36509800D02*
X86471700Y36509800D01*
X91533100Y37734200D02*
X90308700Y36509800D01*
X91533100Y38100000D02*
X91533100Y37734200D01*
%TO.N,AD_{3}*%
X115570000Y62230000D02*
X114393100Y62230000D01*
X83820000Y59690000D02*
X84996900Y59690000D01*
X127000000Y38100000D02*
X127000000Y39276900D01*
X114393100Y58480900D02*
X114393100Y62230000D01*
X130922800Y43199700D02*
X127000000Y39276900D01*
X130922800Y49475100D02*
X130922800Y43199700D01*
X129554700Y50843200D02*
X130922800Y49475100D01*
X123341600Y50843200D02*
X129554700Y50843200D01*
X115703900Y58480900D02*
X123341600Y50843200D01*
X114393100Y58480900D02*
X115703900Y58480900D01*
X86206000Y58480900D02*
X114393100Y58480900D01*
X84996900Y59690000D02*
X86206000Y58480900D01*
X53340000Y57150000D02*
X54516900Y57150000D01*
X83820000Y59690000D02*
X82643100Y59690000D01*
X54516900Y57478600D02*
X54516900Y57150000D01*
X57946800Y60908500D02*
X54516900Y57478600D01*
X81424600Y60908500D02*
X57946800Y60908500D01*
X82643100Y59690000D02*
X81424600Y60908500D01*
X94073100Y30845800D02*
X94073100Y30480000D01*
X92393600Y32525300D02*
X94073100Y30845800D01*
X78114700Y32525300D02*
X92393600Y32525300D01*
X77490500Y33149500D02*
X78114700Y32525300D01*
X67666400Y33149500D02*
X77490500Y33149500D01*
X67536900Y33020000D02*
X67666400Y33149500D01*
X66440000Y33020000D02*
X67536900Y33020000D01*
X95250000Y30480000D02*
X94073100Y30480000D01*
%TO.N,AD_{2}*%
X55880000Y57150000D02*
X57056900Y57150000D01*
X83820000Y57150000D02*
X82643100Y57150000D01*
X121920000Y38100000D02*
X120743100Y38100000D01*
X108249400Y43357900D02*
X93939200Y43357900D01*
X113030000Y38577300D02*
X108249400Y43357900D01*
X113030000Y37679700D02*
X113030000Y38577300D01*
X113815300Y36894400D02*
X113030000Y37679700D01*
X119905300Y36894400D02*
X113815300Y36894400D01*
X120743100Y37732200D02*
X119905300Y36894400D01*
X120743100Y38100000D02*
X120743100Y37732200D01*
X88307800Y43357900D02*
X93939200Y43357900D01*
X85816300Y45849400D02*
X88307800Y43357900D01*
X57056900Y57517800D02*
X57056900Y57150000D01*
X59937800Y60398700D02*
X57056900Y57517800D01*
X74053600Y60398700D02*
X59937800Y60398700D01*
X75390600Y59061700D02*
X74053600Y60398700D01*
X76618000Y59061700D02*
X75390600Y59061700D01*
X76827700Y59271400D02*
X76618000Y59061700D01*
X78418100Y59271400D02*
X76827700Y59271400D01*
X80539500Y57150000D02*
X78418100Y59271400D01*
X82643100Y57150000D02*
X80539500Y57150000D01*
X92710000Y30480000D02*
X91533100Y30480000D01*
X63900000Y17780000D02*
X64996900Y17780000D01*
X91533100Y30847800D02*
X91533100Y30480000D01*
X90712800Y31668100D02*
X91533100Y30847800D01*
X89663500Y31668100D02*
X90712800Y31668100D01*
X88900000Y30904600D02*
X89663500Y31668100D01*
X88900000Y30079900D02*
X88900000Y30904600D01*
X86161800Y27341700D02*
X88900000Y30079900D01*
X74445000Y27341700D02*
X86161800Y27341700D01*
X64996900Y17893600D02*
X74445000Y27341700D01*
X64996900Y17780000D02*
X64996900Y17893600D01*
X100330000Y64770000D02*
X99153100Y64770000D01*
X89386800Y63535300D02*
X89386800Y63535200D01*
X97918400Y63535300D02*
X89386800Y63535300D01*
X99153100Y64770000D02*
X97918400Y63535300D01*
%TO.N,AD_{1}*%
X83820000Y54610000D02*
X82643100Y54610000D01*
X58420000Y57150000D02*
X59596900Y57150000D01*
X85090000Y30480000D02*
X83913100Y30480000D01*
X61360000Y17780000D02*
X62456900Y17780000D01*
X116840000Y38100000D02*
X115663100Y38100000D01*
X109948500Y44178400D02*
X88836300Y44178400D01*
X115663100Y38463800D02*
X109948500Y44178400D01*
X115663100Y38100000D02*
X115663100Y38463800D01*
X59596900Y57510000D02*
X59596900Y57150000D01*
X61973100Y59886200D02*
X59596900Y57510000D01*
X73856300Y59886200D02*
X61973100Y59886200D01*
X75182700Y58559800D02*
X73856300Y59886200D01*
X76825900Y58559800D02*
X75182700Y58559800D01*
X77035600Y58769500D02*
X76825900Y58559800D01*
X78210200Y58769500D02*
X77035600Y58769500D01*
X82369700Y54610000D02*
X78210200Y58769500D01*
X82643100Y54610000D02*
X82369700Y54610000D01*
X83913100Y30111900D02*
X83913100Y30480000D01*
X81704400Y27903200D02*
X83913100Y30111900D01*
X72468300Y27903200D02*
X81704400Y27903200D01*
X62456900Y17891800D02*
X72468300Y27903200D01*
X62456900Y17780000D02*
X62456900Y17891800D01*
%TO.N,AD_{0}*%
X111760000Y38100000D02*
X110583100Y38100000D01*
X110583100Y38457800D02*
X110583100Y38100000D01*
X106491400Y42549500D02*
X110583100Y38457800D01*
X86649800Y42549500D02*
X106491400Y42549500D01*
X86293500Y42905800D02*
X86649800Y42549500D01*
X75878500Y54585100D02*
X72358100Y58105500D01*
X79274100Y54585100D02*
X75878500Y54585100D01*
X81789200Y52070000D02*
X79274100Y54585100D01*
X83820000Y52070000D02*
X81789200Y52070000D01*
X59916900Y17893600D02*
X59916900Y17780000D01*
X71326400Y29303100D02*
X59916900Y17893600D01*
X80564100Y29303100D02*
X71326400Y29303100D01*
X81373100Y30112100D02*
X80564100Y29303100D01*
X81373100Y30480000D02*
X81373100Y30112100D01*
X82550000Y30480000D02*
X81373100Y30480000D01*
X58820000Y17780000D02*
X59916900Y17780000D01*
%TO.N,Net-(RN1C-R3.2)*%
X67216900Y56826500D02*
X67216900Y57150000D01*
X69995900Y54047500D02*
X67216900Y56826500D01*
X71755600Y54047500D02*
X69995900Y54047500D01*
X76293100Y49510000D02*
X71755600Y54047500D01*
X77470000Y49510000D02*
X76293100Y49510000D01*
X66040000Y57150000D02*
X67216900Y57150000D01*
%TO.N,Net-(RN1B-R2.2)*%
X77470000Y46970000D02*
X76293100Y46970000D01*
X63500000Y57150000D02*
X64676900Y57150000D01*
X71949300Y51313800D02*
X76293100Y46970000D01*
X70169800Y51313800D02*
X71949300Y51313800D01*
X64676900Y56806700D02*
X70169800Y51313800D01*
X64676900Y57150000D02*
X64676900Y56806700D01*
%TO.N,Net-(RN1A-R1.2)*%
X77470000Y44430000D02*
X76293100Y44430000D01*
X72952400Y47770700D02*
X72952400Y47880800D01*
X76293100Y44430000D02*
X72952400Y47770700D01*
%TO.N,+5V*%
X111760000Y100330000D02*
X107950000Y96520000D01*
X115570000Y100330000D02*
X111760000Y100330000D01*
X87630000Y68580000D02*
X91440000Y72390000D01*
X87630000Y67310000D02*
X87630000Y68580000D01*
X87630000Y100330000D02*
X91440000Y104140000D01*
X87630000Y99060000D02*
X87630000Y100330000D01*
X27070000Y33020000D02*
X20720000Y26670000D01*
X33420000Y33020000D02*
X27070000Y33020000D01*
D33*
X128270000Y87630000D02*
X128270000Y86360000D01*
X115570000Y100330000D02*
X128270000Y87630000D01*
D32*
X115570000Y50880000D02*
X114300000Y52150000D01*
X115570000Y48340000D02*
X115570000Y50880000D01*
D33*
X125730000Y64770000D02*
X125730000Y62230000D01*
X119380000Y71120000D02*
X125730000Y64770000D01*
X119380000Y73660000D02*
X119380000Y71120000D01*
X107950000Y104140000D02*
X91440000Y104140000D01*
X111760000Y100330000D02*
X107950000Y104140000D01*
D32*
X22860000Y68580000D02*
X25400000Y66040000D01*
X22860000Y72390000D02*
X22860000Y68580000D01*
X35560000Y83820000D02*
X40640000Y88900000D01*
X35560000Y81280000D02*
X35560000Y83820000D01*
X124460000Y12700000D02*
X121920000Y12700000D01*
X121920000Y12700000D02*
X119380000Y12700000D01*
X119380000Y12700000D02*
X116840000Y12700000D01*
X116840000Y12700000D02*
X114300000Y12700000D01*
X114300000Y12700000D02*
X111760000Y12700000D01*
X111760000Y12700000D02*
X109220000Y12700000D01*
X109220000Y12700000D02*
X106680000Y12700000D01*
X26670000Y49530000D02*
X29210000Y49530000D01*
X110490000Y34290000D02*
X106680000Y38100000D01*
X111760000Y34290000D02*
X110490000Y34290000D01*
X79837500Y35732500D02*
X77470000Y38100000D01*
X81280000Y34290000D02*
X79837500Y35732500D01*
X82550000Y34290000D02*
X81280000Y34290000D01*
X33420000Y33020000D02*
X34516900Y33020000D01*
X102202700Y41400400D02*
X105503100Y38100000D01*
X79136500Y41400400D02*
X102202700Y41400400D01*
X78646900Y41890000D02*
X79136500Y41400400D01*
X77470000Y41890000D02*
X78646900Y41890000D01*
X106680000Y38100000D02*
X105503100Y38100000D01*
X52070000Y45720000D02*
X48260000Y49530000D01*
X53340000Y45720000D02*
X52070000Y45720000D01*
X48260000Y49530000D02*
X47083100Y49530000D01*
X34011900Y47268100D02*
X31750000Y49530000D01*
X43313700Y47268100D02*
X34011900Y47268100D01*
X45629700Y49584100D02*
X43313700Y47268100D01*
X47029000Y49584100D02*
X45629700Y49584100D01*
X47083100Y49530000D02*
X47029000Y49584100D01*
X62509800Y35732500D02*
X79837500Y35732500D01*
X60090000Y33312700D02*
X62509800Y35732500D01*
X60090000Y32706000D02*
X60090000Y33312700D01*
X58773900Y31389900D02*
X60090000Y32706000D01*
X36033400Y31389900D02*
X58773900Y31389900D01*
X34516900Y32906400D02*
X36033400Y31389900D01*
X34516900Y33020000D02*
X34516900Y32906400D01*
D33*
%TO.N,GND*%
X125730000Y86360000D02*
X125730000Y77470000D01*
X124460000Y77470000D02*
X125730000Y77470000D01*
D32*
X87630000Y85090000D02*
X83820000Y81280000D01*
X87630000Y86360000D02*
X87630000Y85090000D01*
X125730000Y34290000D02*
X129540000Y30480000D01*
X124460000Y34290000D02*
X125730000Y34290000D01*
X96520000Y34290000D02*
X100330000Y30480000D01*
X95250000Y34290000D02*
X96520000Y34290000D01*
D33*
X125730000Y77470000D02*
X127000000Y77470000D01*
D32*
X83820000Y81280000D02*
X83820000Y83820000D01*
X83820000Y83820000D02*
X83820000Y86360000D01*
X83820000Y86360000D02*
X83820000Y88900000D01*
X83820000Y88900000D02*
X83820000Y91440000D01*
X67310000Y45720000D02*
X71120000Y49530000D01*
X66040000Y45720000D02*
X67310000Y45720000D01*
X129540000Y53395000D02*
X123040000Y53395000D01*
X102870000Y62230000D02*
X106680000Y66040000D01*
X100330000Y62230000D02*
X102870000Y62230000D01*
X106680000Y66040000D02*
X107950000Y67310000D01*
X127094700Y61054700D02*
X128270000Y62230000D01*
X122332300Y61054700D02*
X127094700Y61054700D01*
X117347000Y66040000D02*
X122332300Y61054700D01*
X106680000Y66040000D02*
X117347000Y66040000D01*
X22860000Y61000000D02*
X25400000Y63540000D01*
X22860000Y57150000D02*
X22860000Y61000000D01*
X62630000Y13970000D02*
X65843500Y17183500D01*
X27070000Y13970000D02*
X62630000Y13970000D01*
X20720000Y20320000D02*
X27070000Y13970000D01*
X20720000Y24170000D02*
X20720000Y20320000D01*
X65843500Y17183500D02*
X66440000Y17780000D01*
X68076600Y17183500D02*
X76293100Y25400000D01*
X65843500Y17183500D02*
X68076600Y17183500D01*
X77470000Y25400000D02*
X76293100Y25400000D01*
X87630000Y54610000D02*
X87630000Y53434600D01*
X87630000Y53340000D02*
X83820000Y49530000D01*
X87630000Y53434600D02*
X87630000Y53340000D01*
X87644600Y53420000D02*
X100330000Y53420000D01*
X87630000Y53434600D02*
X87644600Y53420000D01*
X100330000Y55960000D02*
X100330000Y53420000D01*
X100330000Y53420000D02*
X101600000Y52150000D01*
X72289700Y93786600D02*
X55880000Y93786600D01*
X82643100Y104140000D02*
X72289700Y93786600D01*
X55880000Y96520000D02*
X55880000Y93786600D01*
X55880000Y91440000D02*
X53340000Y88900000D01*
X55880000Y93786600D02*
X55880000Y91440000D01*
X83820000Y104140000D02*
X82643100Y104140000D01*
X39370000Y41910000D02*
X41910000Y41910000D01*
X71120000Y41910000D02*
X69943100Y41910000D01*
X69943100Y42275800D02*
X69943100Y41910000D01*
X69130500Y43088400D02*
X69943100Y42275800D01*
X62423600Y43088400D02*
X69130500Y43088400D01*
X61917800Y43594200D02*
X62423600Y43088400D01*
X43594200Y43594200D02*
X61917800Y43594200D01*
X41910000Y41910000D02*
X43594200Y43594200D01*
X67216900Y72024200D02*
X67216900Y72390000D01*
X68028000Y71213100D02*
X67216900Y72024200D01*
X78050000Y71213100D02*
X68028000Y71213100D01*
X79539400Y72702500D02*
X78050000Y71213100D01*
X82330600Y72702500D02*
X79539400Y72702500D01*
X82643100Y72390000D02*
X82330600Y72702500D01*
X83820000Y72390000D02*
X82643100Y72390000D01*
X66040000Y72390000D02*
X67216900Y72390000D01*
X24036900Y56422100D02*
X24036900Y57150000D01*
X30480000Y49979000D02*
X24036900Y56422100D01*
X30480000Y48260000D02*
X30480000Y49979000D01*
X36830000Y41910000D02*
X30480000Y48260000D01*
X22860000Y57150000D02*
X24036900Y57150000D01*
X78341000Y53832100D02*
X82643100Y49530000D01*
X75614800Y53832100D02*
X78341000Y53832100D01*
X72296900Y57150000D02*
X75614800Y53832100D01*
X71120000Y57150000D02*
X72296900Y57150000D01*
X83820000Y49530000D02*
X82643100Y49530000D01*
%TD*%
M02*
