M48
; DRILL file {KiCad 7.0.7} date Wed 27 Sep 2023 12:13:46 PM EEST
; FORMAT={-:-/ absolute / inch / decimal}
; #@! TF.CreationDate,2023-09-27T12:13:46+03:00
; #@! TF.GenerationSoftware,Kicad,Pcbnew,7.0.7
; #@! TF.FileFunction,Plated,1,2,PTH
FMAT,2
INCH
; #@! TA.AperFunction,Plated,PTH,ViaDrill
T1C0.0157
; #@! TA.AperFunction,Plated,PTH,ComponentDrill
T2C0.0276
; #@! TA.AperFunction,Plated,PTH,ComponentDrill
T3C0.0315
; #@! TA.AperFunction,Plated,PTH,ComponentDrill
T4C0.0354
; #@! TA.AperFunction,Plated,PTH,ComponentDrill
T5C0.0360
; #@! TA.AperFunction,Plated,PTH,ComponentDrill
T6C0.0394
; #@! TA.AperFunction,Plated,PTH,ComponentDrill
T7C0.0433
; #@! TA.AperFunction,Plated,PTH,ComponentDrill
T8C0.0984
%
G90
G05
T1
X1.0609Y2.041
X1.4202Y2.9911
X1.4469Y1.8925
X1.8284Y1.9215
X2.2045Y1.5173
X2.2563Y1.5694
X2.3325Y3.8484
X2.3348Y2.0488
X2.4605Y2.7943
X2.5217Y2.9512
X2.5383Y1.2359
X2.5965Y1.875
X2.6421Y2.4786
X2.7463Y2.0811
X2.8047Y2.5635
X2.8487Y2.2876
X2.8581Y1.6495
X2.8702Y1.5173
X2.8721Y1.8851
X2.8962Y1.2728
X2.9147Y2.7305
X2.942Y1.5694
X2.9698Y2.7698
X3.0019Y2.3559
X3.0285Y3.1104
X3.0637Y2.2821
X3.1003Y2.8902
X3.1133Y1.853
X3.1164Y2.9678
X3.1372Y2.5849
X3.1374Y2.8084
X3.1409Y2.6658
X3.1506Y2.4516
X3.2059Y2.8312
X3.2059Y1.825
X3.287Y2.984
X3.3147Y1.8051
X3.3786Y1.8051
X3.3974Y1.6892
X3.4153Y1.2463
X3.4646Y2.0185
X3.4878Y1.9714
X3.4975Y1.7393
X3.4993Y4.1639
X3.5106Y3.5673
X3.5192Y2.5014
X3.5245Y3.0112
X3.544Y2.95
X3.55Y1.3971
X3.6435Y2.9194
X3.6984Y1.707
X4.0003Y2.3542
X4.0281Y3.2025
X4.1352Y2.8486
X4.2642Y3.5505
X4.6173Y4.0128
X4.6629Y2.6484
T2
X4.9Y3.05
X4.9Y2.75
X5.0Y3.05
X5.0Y2.75
T3
X0.8157Y1.05
X0.8157Y0.9516
X0.9Y3.8
X0.9Y3.2
X0.9Y2.85
X0.9Y2.25
X1.0Y3.8
X1.0Y3.2
X1.0Y2.85
X1.0Y2.6
X1.0Y2.5016
X1.0Y2.25
X1.05Y1.95
X1.05Y1.65
X1.1Y3.8
X1.1Y3.2
X1.1Y2.85
X1.1Y2.25
X1.15Y1.95
X1.15Y1.65
X1.2Y3.8
X1.2Y3.2
X1.2Y2.85
X1.2Y2.25
X1.25Y1.95
X1.25Y1.65
X1.3Y3.8
X1.3Y3.2
X1.3Y2.85
X1.3Y2.25
X1.35Y1.95
X1.35Y1.65
X1.4Y3.8
X1.4Y3.2
X1.4Y2.85
X1.4Y2.25
X1.45Y1.95
X1.45Y1.65
X1.5Y3.8
X1.5Y3.2
X1.5Y2.85
X1.5Y2.25
X1.55Y1.95
X1.55Y1.65
X1.6Y3.8
X1.6Y3.5
X1.6Y3.2
X1.6Y2.85
X1.6Y2.25
X1.65Y1.95
X1.65Y1.65
X1.7Y3.8
X1.7Y3.2
X1.7Y2.85
X1.7Y2.25
X1.8Y3.8
X1.8Y3.2
X1.8Y2.85
X1.8Y2.25
X1.9Y3.8
X1.9Y3.2
X1.9Y2.85
X1.9Y2.25
X1.9Y1.95
X1.9Y1.65
X2.0Y3.8
X2.0Y3.2
X2.0Y2.85
X2.0Y2.25
X2.0Y1.95
X2.0Y1.65
X2.1Y3.8
X2.1Y3.5
X2.1Y3.2
X2.1Y2.85
X2.1Y2.25
X2.1Y1.95
X2.1Y1.8
X2.1Y1.65
X2.2Y3.8
X2.2Y3.2
X2.2Y2.85
X2.2Y2.25
X2.2Y1.95
X2.2Y1.65
X2.3Y3.8
X2.3Y3.2
X2.3Y2.85
X2.3Y2.25
X2.3Y1.95
X2.3Y1.65
X2.4Y3.8
X2.4Y3.2
X2.4Y2.85
X2.4Y2.25
X2.4Y1.95
X2.4Y1.65
X2.5Y3.8
X2.5Y3.2
X2.5Y2.85
X2.5Y2.25
X2.5Y1.95
X2.5Y1.65
X2.6Y3.8
X2.6Y3.2
X2.6Y2.85
X2.6Y2.25
X2.6Y1.95
X2.6Y1.8
X2.6Y1.65
X2.7Y3.8
X2.7Y3.2
X2.7Y2.85
X2.7Y2.25
X2.7Y1.95
X2.7Y1.65
X2.8Y3.8
X2.8Y3.2
X2.8Y2.85
X2.8Y2.25
X2.8Y1.95
X2.8Y1.65
X3.05Y2.0492
X3.05Y1.9492
X3.05Y1.8492
X3.05Y1.7492
X3.05Y1.6492
X3.05Y1.5
X3.05Y1.2
X3.05Y1.0
X3.15Y1.5
X3.15Y1.2
X3.15Y1.0
X3.25Y1.5
X3.25Y1.35
X3.25Y1.2
X3.25Y1.0
X3.3Y4.1
X3.3Y4.0
X3.3Y3.9
X3.3Y3.8
X3.3Y3.7
X3.3Y3.6
X3.3Y3.5
X3.3Y3.4
X3.3Y3.3
X3.3Y3.2
X3.3Y2.85
X3.3Y2.75
X3.3Y2.65
X3.3Y2.55
X3.3Y2.45
X3.3Y2.35
X3.3Y2.25
X3.3Y2.15
X3.3Y2.05
X3.3Y1.95
X3.35Y1.5
X3.35Y1.2
X3.35Y1.0
X3.45Y3.9
X3.45Y3.4
X3.45Y2.65
X3.45Y2.15
X3.45Y1.5
X3.45Y1.2
X3.45Y1.0
X3.55Y1.5
X3.55Y1.2
X3.55Y1.0
X3.6Y4.1
X3.6Y4.0
X3.6Y3.9
X3.6Y3.8
X3.6Y3.7
X3.6Y3.6
X3.6Y3.5
X3.6Y3.4
X3.6Y3.3
X3.6Y3.2
X3.6Y2.85
X3.6Y2.75
X3.6Y2.65
X3.6Y2.55
X3.6Y2.45
X3.6Y2.35
X3.6Y2.25
X3.6Y2.15
X3.6Y2.05
X3.6Y1.95
X3.65Y1.5
X3.65Y1.2
X3.65Y1.0
X3.75Y1.5
X3.75Y1.35
X3.75Y1.2
X3.75Y1.0
X3.85Y1.5
X3.85Y1.2
X3.85Y1.0
X3.95Y3.95
X3.95Y3.85
X3.95Y3.75
X3.95Y3.65
X3.95Y3.55
X3.95Y3.45
X3.95Y3.35
X3.95Y3.25
X3.95Y3.15
X3.95Y3.05
X3.95Y2.95
X3.95Y2.85
X3.95Y2.75
X3.95Y2.65
X3.95Y2.55
X3.95Y2.45
X3.95Y2.2031
X3.95Y1.9031
X3.95Y1.5
X3.95Y1.2
X4.0Y2.0531
X4.05Y2.2031
X4.05Y1.9031
X4.15Y2.2031
X4.15Y1.9031
X4.2Y1.5
X4.2Y1.2
X4.2Y1.0
X4.2Y0.8
X4.2Y0.5
X4.25Y3.8
X4.25Y2.65
X4.25Y2.2031
X4.25Y1.9031
X4.3Y1.5
X4.3Y1.2
X4.3Y1.0
X4.3Y0.8
X4.3Y0.5
X4.35Y2.2031
X4.35Y1.9031
X4.4Y1.5
X4.4Y1.35
X4.4Y1.2
X4.4Y1.0
X4.4Y0.8
X4.4Y0.5
X4.45Y2.2031
X4.45Y1.9031
X4.5Y2.0531
X4.5Y1.5
X4.5Y1.2
X4.5Y1.0
X4.5Y0.8
X4.5Y0.5
X4.55Y3.95
X4.55Y3.85
X4.55Y3.75
X4.55Y3.65
X4.55Y3.55
X4.55Y3.45
X4.55Y3.35
X4.55Y3.25
X4.55Y3.15
X4.55Y3.05
X4.55Y2.95
X4.55Y2.85
X4.55Y2.75
X4.55Y2.65
X4.55Y2.55
X4.55Y2.45
X4.55Y2.2031
X4.55Y1.9031
X4.6Y1.5
X4.6Y1.2
X4.6Y1.0
X4.6Y0.8
X4.6Y0.5
X4.7Y1.5
X4.7Y1.2
X4.7Y1.0
X4.7Y0.8
X4.7Y0.5
X4.8Y1.5
X4.8Y1.2
X4.8Y1.0
X4.8Y0.8
X4.8Y0.5
X4.85Y2.45
X4.9Y1.5
X4.9Y1.35
X4.9Y1.2
X4.9Y1.0
X4.9Y0.8
X4.9Y0.5
X4.95Y2.45
X5.0Y1.5
X5.0Y1.2
X5.0Y1.0
X5.05Y2.45
X5.1Y1.5
X5.1Y1.2
T4
X1.1Y4.15
X1.2Y4.15
X1.3Y4.15
X1.4Y4.15
X1.5Y4.15
X1.6Y4.15
X1.7Y4.15
X1.8Y4.15
X1.9Y4.15
X2.0Y4.15
X2.1Y4.15
X2.2Y4.15
X2.3Y4.15
X2.4Y4.15
X2.5Y4.15
X2.6Y4.15
X4.7Y2.9
X4.8Y2.9
X5.1Y2.9
X5.2Y2.9
T5
X3.05Y0.8
X3.05Y0.5
X3.15Y0.8
X3.15Y0.5
X3.25Y0.8
X3.25Y0.5
X3.35Y0.8
X3.35Y0.5
X3.45Y0.8
X3.45Y0.5
X3.55Y0.8
X3.55Y0.5
X3.65Y0.8
X3.65Y0.5
X3.75Y0.8
X3.75Y0.5
X3.85Y0.8
X3.85Y0.5
X3.95Y0.8
X3.95Y0.5
T6
X1.3157Y1.3
X1.3157Y0.7
X1.4157Y1.3
X1.4157Y0.7
X1.5157Y1.3
X1.5157Y0.7
X1.6157Y1.3
X1.6157Y0.7
X1.7157Y1.3
X1.7157Y0.7
X1.8157Y1.3
X1.8157Y0.7
X1.9157Y1.3
X1.9157Y0.7
X2.0157Y1.3
X2.0157Y0.7
X2.1157Y1.3
X2.1157Y0.7
X2.2157Y1.3
X2.2157Y0.7
X2.3157Y1.3
X2.3157Y0.7
X2.4157Y1.3
X2.4157Y0.7
X2.5157Y1.3
X2.5157Y0.7
X2.6157Y1.3
X2.6157Y0.7
T7
X4.8441Y2.1022
X4.8441Y1.925
X4.85Y3.4
X4.95Y3.4
X5.05Y3.4
X5.1Y2.1022
X5.1Y1.925
T8
X0.75Y0.55
X0.8Y4.15
X0.8Y1.9862
X4.4598Y4.15
X5.15Y0.55
T3
G00X4.7846Y3.9114
M15
G01X4.7846Y3.8248
M16
G05
G00X5.0169Y3.9783
M15
G01X4.9303Y3.9783
M16
G05
G00X5.0248Y3.75
M15
G01X4.9224Y3.75
M16
G05
T0
M30
