%TF.GenerationSoftware,KiCad,Pcbnew,7.0.7*%
%TF.CreationDate,2023-09-27T12:16:48+03:00*%
%TF.ProjectId,main,6d61696e-2e6b-4696-9361-645f70636258,rev?*%
%TF.SameCoordinates,Original*%
%TF.FileFunction,Legend,Top*%
%TF.FilePolarity,Positive*%
%FSLAX46Y46*%
G04 Gerber Fmt 4.6, Leading zero omitted, Abs format (unit mm)*
G04 Created by KiCad (PCBNEW 7.0.7) date 2023-09-27 12:16:48*
%MOMM*%
%LPD*%
G01*
G04 APERTURE LIST*
%ADD10C,0.150000*%
%ADD11C,0.300000*%
%ADD12C,0.200000*%
%ADD13C,0.100000*%
%ADD14C,0.120000*%
G04 APERTURE END LIST*
D10*
X105410000Y41910000D02*
X112395000Y41910000D01*
X112395000Y40640000D01*
X105410000Y40640000D01*
X105410000Y41910000D01*
G36*
X105410000Y41910000D02*
G01*
X112395000Y41910000D01*
X112395000Y40640000D01*
X105410000Y40640000D01*
X105410000Y41910000D01*
G37*
X110807500Y44450000D02*
X112395000Y44450000D01*
X112395000Y41910000D01*
X110807500Y41910000D01*
X110807500Y44450000D01*
G36*
X110807500Y44450000D02*
G01*
X112395000Y44450000D01*
X112395000Y41910000D01*
X110807500Y41910000D01*
X110807500Y44450000D01*
G37*
X105410000Y44450000D02*
X106997500Y44450000D01*
X106997500Y41910000D01*
X105410000Y41910000D01*
X105410000Y44450000D01*
G36*
X105410000Y44450000D02*
G01*
X106997500Y44450000D01*
X106997500Y41910000D01*
X105410000Y41910000D01*
X105410000Y44450000D01*
G37*
X105410000Y45720000D02*
X112395000Y45720000D01*
X112395000Y44450000D01*
X105410000Y44450000D01*
X105410000Y45720000D01*
G36*
X105410000Y45720000D02*
G01*
X112395000Y45720000D01*
X112395000Y44450000D01*
X105410000Y44450000D01*
X105410000Y45720000D01*
G37*
X113636660Y44910895D02*
X114112850Y44910895D01*
X113541422Y44625180D02*
X113874755Y45625180D01*
X113874755Y45625180D02*
X114208088Y44625180D01*
X114541422Y44958514D02*
X114969993Y44958514D01*
X114541422Y45291847D02*
X114541422Y44625180D01*
X114969993Y45291847D02*
X114969993Y44625180D01*
X115922374Y45196609D02*
X115874755Y45244228D01*
X115874755Y45244228D02*
X115779517Y45291847D01*
X115779517Y45291847D02*
X115589041Y45291847D01*
X115589041Y45291847D02*
X115493803Y45244228D01*
X115493803Y45244228D02*
X115446184Y45196609D01*
X115446184Y45196609D02*
X115398565Y45101371D01*
X115398565Y45101371D02*
X115398565Y44815657D01*
X115398565Y44815657D02*
X115446184Y44720419D01*
X115446184Y44720419D02*
X115493803Y44672800D01*
X115493803Y44672800D02*
X115589041Y44625180D01*
X115589041Y44625180D02*
X115731898Y44625180D01*
X115731898Y44625180D02*
X115827136Y44672800D01*
X115827136Y44672800D02*
X115874755Y44720419D01*
X115874755Y44720419D02*
X115922374Y44815657D01*
X115922374Y44815657D02*
X115922374Y45434704D01*
X115922374Y45434704D02*
X115874755Y45529942D01*
X115874755Y45529942D02*
X115827136Y45577561D01*
X115827136Y45577561D02*
X115731898Y45625180D01*
X115731898Y45625180D02*
X115541422Y45625180D01*
X115541422Y45625180D02*
X115446184Y45577561D01*
X116350946Y45291847D02*
X116350946Y44291847D01*
X116350946Y45244228D02*
X116446184Y45291847D01*
X116446184Y45291847D02*
X116636660Y45291847D01*
X116636660Y45291847D02*
X116731898Y45244228D01*
X116731898Y45244228D02*
X116779517Y45196609D01*
X116779517Y45196609D02*
X116827136Y45101371D01*
X116827136Y45101371D02*
X116827136Y44815657D01*
X116827136Y44815657D02*
X116779517Y44720419D01*
X116779517Y44720419D02*
X116731898Y44672800D01*
X116731898Y44672800D02*
X116636660Y44625180D01*
X116636660Y44625180D02*
X116446184Y44625180D01*
X116446184Y44625180D02*
X116350946Y44672800D01*
X117255708Y44625180D02*
X117255708Y45291847D01*
X117255708Y45625180D02*
X117208089Y45577561D01*
X117208089Y45577561D02*
X117255708Y45529942D01*
X117255708Y45529942D02*
X117303327Y45577561D01*
X117303327Y45577561D02*
X117255708Y45625180D01*
X117255708Y45625180D02*
X117255708Y45529942D01*
X117731898Y45291847D02*
X117731898Y44625180D01*
X117731898Y44625180D02*
X118208088Y45291847D01*
X118208088Y45291847D02*
X118208088Y44625180D01*
X117779517Y45672800D02*
X117827136Y45577561D01*
X117827136Y45577561D02*
X117922374Y45529942D01*
X117922374Y45529942D02*
X118017612Y45529942D01*
X118017612Y45529942D02*
X118112850Y45577561D01*
X118112850Y45577561D02*
X118160469Y45672800D01*
X120208089Y44387085D02*
X120208089Y44625180D01*
X120208089Y44625180D02*
X119350946Y44625180D01*
X119350946Y44625180D02*
X119350946Y44387085D01*
X120017612Y44625180D02*
X120017612Y45625180D01*
X120017612Y45625180D02*
X119779517Y45625180D01*
X119779517Y45625180D02*
X119684279Y45577561D01*
X119684279Y45577561D02*
X119636660Y45529942D01*
X119636660Y45529942D02*
X119589041Y45434704D01*
X119589041Y45434704D02*
X119493803Y44625180D01*
X120493803Y45291847D02*
X120731898Y44625180D01*
X120969993Y45291847D02*
X120731898Y44625180D01*
X120731898Y44625180D02*
X120636660Y44387085D01*
X120636660Y44387085D02*
X120589041Y44339466D01*
X120589041Y44339466D02*
X120493803Y44291847D01*
X121350946Y44958514D02*
X121779517Y44958514D01*
X121350946Y45291847D02*
X121350946Y44625180D01*
X121779517Y45291847D02*
X121779517Y44625180D01*
X122684279Y44625180D02*
X122684279Y45148990D01*
X122684279Y45148990D02*
X122636660Y45244228D01*
X122636660Y45244228D02*
X122541422Y45291847D01*
X122541422Y45291847D02*
X122350946Y45291847D01*
X122350946Y45291847D02*
X122255708Y45244228D01*
X122684279Y44672800D02*
X122589041Y44625180D01*
X122589041Y44625180D02*
X122350946Y44625180D01*
X122350946Y44625180D02*
X122255708Y44672800D01*
X122255708Y44672800D02*
X122208089Y44768038D01*
X122208089Y44768038D02*
X122208089Y44863276D01*
X122208089Y44863276D02*
X122255708Y44958514D01*
X122255708Y44958514D02*
X122350946Y45006133D01*
X122350946Y45006133D02*
X122589041Y45006133D01*
X122589041Y45006133D02*
X122684279Y45053752D01*
X123160470Y45291847D02*
X123160470Y44625180D01*
X123160470Y44625180D02*
X123636660Y45291847D01*
X123636660Y45291847D02*
X123636660Y44625180D01*
X123208089Y45672800D02*
X123255708Y45577561D01*
X123255708Y45577561D02*
X123350946Y45529942D01*
X123350946Y45529942D02*
X123446184Y45529942D01*
X123446184Y45529942D02*
X123541422Y45577561D01*
X123541422Y45577561D02*
X123589041Y45672800D01*
X113589041Y43681847D02*
X113827136Y43015180D01*
X113827136Y43015180D02*
X114065231Y43681847D01*
X114636660Y44015180D02*
X114731898Y44015180D01*
X114731898Y44015180D02*
X114827136Y43967561D01*
X114827136Y43967561D02*
X114874755Y43919942D01*
X114874755Y43919942D02*
X114922374Y43824704D01*
X114922374Y43824704D02*
X114969993Y43634228D01*
X114969993Y43634228D02*
X114969993Y43396133D01*
X114969993Y43396133D02*
X114922374Y43205657D01*
X114922374Y43205657D02*
X114874755Y43110419D01*
X114874755Y43110419D02*
X114827136Y43062800D01*
X114827136Y43062800D02*
X114731898Y43015180D01*
X114731898Y43015180D02*
X114636660Y43015180D01*
X114636660Y43015180D02*
X114541422Y43062800D01*
X114541422Y43062800D02*
X114493803Y43110419D01*
X114493803Y43110419D02*
X114446184Y43205657D01*
X114446184Y43205657D02*
X114398565Y43396133D01*
X114398565Y43396133D02*
X114398565Y43634228D01*
X114398565Y43634228D02*
X114446184Y43824704D01*
X114446184Y43824704D02*
X114493803Y43919942D01*
X114493803Y43919942D02*
X114541422Y43967561D01*
X114541422Y43967561D02*
X114636660Y44015180D01*
X115398565Y43110419D02*
X115446184Y43062800D01*
X115446184Y43062800D02*
X115398565Y43015180D01*
X115398565Y43015180D02*
X115350946Y43062800D01*
X115350946Y43062800D02*
X115398565Y43110419D01*
X115398565Y43110419D02*
X115398565Y43015180D01*
X116398564Y43015180D02*
X115827136Y43015180D01*
X116112850Y43015180D02*
X116112850Y44015180D01*
X116112850Y44015180D02*
X116017612Y43872323D01*
X116017612Y43872323D02*
X115922374Y43777085D01*
X115922374Y43777085D02*
X115827136Y43729466D01*
X116874755Y43062800D02*
X116874755Y43015180D01*
X116874755Y43015180D02*
X116827136Y42919942D01*
X116827136Y42919942D02*
X116779517Y42872323D01*
X118398564Y43538990D02*
X118541421Y43491371D01*
X118541421Y43491371D02*
X118589040Y43443752D01*
X118589040Y43443752D02*
X118636659Y43348514D01*
X118636659Y43348514D02*
X118636659Y43205657D01*
X118636659Y43205657D02*
X118589040Y43110419D01*
X118589040Y43110419D02*
X118541421Y43062800D01*
X118541421Y43062800D02*
X118446183Y43015180D01*
X118446183Y43015180D02*
X118065231Y43015180D01*
X118065231Y43015180D02*
X118065231Y44015180D01*
X118065231Y44015180D02*
X118398564Y44015180D01*
X118398564Y44015180D02*
X118493802Y43967561D01*
X118493802Y43967561D02*
X118541421Y43919942D01*
X118541421Y43919942D02*
X118589040Y43824704D01*
X118589040Y43824704D02*
X118589040Y43729466D01*
X118589040Y43729466D02*
X118541421Y43634228D01*
X118541421Y43634228D02*
X118493802Y43586609D01*
X118493802Y43586609D02*
X118398564Y43538990D01*
X118398564Y43538990D02*
X118065231Y43538990D01*
X119446183Y43062800D02*
X119350945Y43015180D01*
X119350945Y43015180D02*
X119160469Y43015180D01*
X119160469Y43015180D02*
X119065231Y43062800D01*
X119065231Y43062800D02*
X119017612Y43158038D01*
X119017612Y43158038D02*
X119017612Y43538990D01*
X119017612Y43538990D02*
X119065231Y43634228D01*
X119065231Y43634228D02*
X119160469Y43681847D01*
X119160469Y43681847D02*
X119350945Y43681847D01*
X119350945Y43681847D02*
X119446183Y43634228D01*
X119446183Y43634228D02*
X119493802Y43538990D01*
X119493802Y43538990D02*
X119493802Y43443752D01*
X119493802Y43443752D02*
X119017612Y43348514D01*
X119922374Y43681847D02*
X119922374Y42681847D01*
X119922374Y43634228D02*
X120017612Y43681847D01*
X120017612Y43681847D02*
X120208088Y43681847D01*
X120208088Y43681847D02*
X120303326Y43634228D01*
X120303326Y43634228D02*
X120350945Y43586609D01*
X120350945Y43586609D02*
X120398564Y43491371D01*
X120398564Y43491371D02*
X120398564Y43205657D01*
X120398564Y43205657D02*
X120350945Y43110419D01*
X120350945Y43110419D02*
X120303326Y43062800D01*
X120303326Y43062800D02*
X120208088Y43015180D01*
X120208088Y43015180D02*
X120017612Y43015180D01*
X120017612Y43015180D02*
X119922374Y43062800D01*
X121208088Y43062800D02*
X121112850Y43015180D01*
X121112850Y43015180D02*
X120922374Y43015180D01*
X120922374Y43015180D02*
X120827136Y43062800D01*
X120827136Y43062800D02*
X120779517Y43158038D01*
X120779517Y43158038D02*
X120779517Y43538990D01*
X120779517Y43538990D02*
X120827136Y43634228D01*
X120827136Y43634228D02*
X120922374Y43681847D01*
X120922374Y43681847D02*
X121112850Y43681847D01*
X121112850Y43681847D02*
X121208088Y43634228D01*
X121208088Y43634228D02*
X121255707Y43538990D01*
X121255707Y43538990D02*
X121255707Y43443752D01*
X121255707Y43443752D02*
X120779517Y43348514D01*
X122112850Y43062800D02*
X122017612Y43015180D01*
X122017612Y43015180D02*
X121827136Y43015180D01*
X121827136Y43015180D02*
X121731898Y43062800D01*
X121731898Y43062800D02*
X121684279Y43110419D01*
X121684279Y43110419D02*
X121636660Y43205657D01*
X121636660Y43205657D02*
X121636660Y43491371D01*
X121636660Y43491371D02*
X121684279Y43586609D01*
X121684279Y43586609D02*
X121731898Y43634228D01*
X121731898Y43634228D02*
X121827136Y43681847D01*
X121827136Y43681847D02*
X122017612Y43681847D01*
X122017612Y43681847D02*
X122112850Y43634228D01*
X122922374Y43062800D02*
X122827136Y43015180D01*
X122827136Y43015180D02*
X122636660Y43015180D01*
X122636660Y43015180D02*
X122541422Y43062800D01*
X122541422Y43062800D02*
X122493803Y43158038D01*
X122493803Y43158038D02*
X122493803Y43538990D01*
X122493803Y43538990D02*
X122541422Y43634228D01*
X122541422Y43634228D02*
X122636660Y43681847D01*
X122636660Y43681847D02*
X122827136Y43681847D01*
X122827136Y43681847D02*
X122922374Y43634228D01*
X122922374Y43634228D02*
X122969993Y43538990D01*
X122969993Y43538990D02*
X122969993Y43443752D01*
X122969993Y43443752D02*
X122493803Y43348514D01*
X123398565Y43348514D02*
X123827136Y43348514D01*
X123398565Y43681847D02*
X123398565Y43015180D01*
X123827136Y43681847D02*
X123827136Y43015180D01*
X124303327Y43681847D02*
X124303327Y43015180D01*
X124303327Y43015180D02*
X124541422Y43015180D01*
X124541422Y43015180D02*
X124636660Y43062800D01*
X124636660Y43062800D02*
X124684279Y43158038D01*
X124684279Y43158038D02*
X124684279Y43300895D01*
X124684279Y43300895D02*
X124636660Y43396133D01*
X124636660Y43396133D02*
X124541422Y43443752D01*
X124541422Y43443752D02*
X124303327Y43443752D01*
X125827137Y43919942D02*
X125874756Y43967561D01*
X125874756Y43967561D02*
X125969994Y44015180D01*
X125969994Y44015180D02*
X126208089Y44015180D01*
X126208089Y44015180D02*
X126303327Y43967561D01*
X126303327Y43967561D02*
X126350946Y43919942D01*
X126350946Y43919942D02*
X126398565Y43824704D01*
X126398565Y43824704D02*
X126398565Y43729466D01*
X126398565Y43729466D02*
X126350946Y43586609D01*
X126350946Y43586609D02*
X125779518Y43015180D01*
X125779518Y43015180D02*
X126398565Y43015180D01*
X127017613Y44015180D02*
X127112851Y44015180D01*
X127112851Y44015180D02*
X127208089Y43967561D01*
X127208089Y43967561D02*
X127255708Y43919942D01*
X127255708Y43919942D02*
X127303327Y43824704D01*
X127303327Y43824704D02*
X127350946Y43634228D01*
X127350946Y43634228D02*
X127350946Y43396133D01*
X127350946Y43396133D02*
X127303327Y43205657D01*
X127303327Y43205657D02*
X127255708Y43110419D01*
X127255708Y43110419D02*
X127208089Y43062800D01*
X127208089Y43062800D02*
X127112851Y43015180D01*
X127112851Y43015180D02*
X127017613Y43015180D01*
X127017613Y43015180D02*
X126922375Y43062800D01*
X126922375Y43062800D02*
X126874756Y43110419D01*
X126874756Y43110419D02*
X126827137Y43205657D01*
X126827137Y43205657D02*
X126779518Y43396133D01*
X126779518Y43396133D02*
X126779518Y43634228D01*
X126779518Y43634228D02*
X126827137Y43824704D01*
X126827137Y43824704D02*
X126874756Y43919942D01*
X126874756Y43919942D02*
X126922375Y43967561D01*
X126922375Y43967561D02*
X127017613Y44015180D01*
X127731899Y43919942D02*
X127779518Y43967561D01*
X127779518Y43967561D02*
X127874756Y44015180D01*
X127874756Y44015180D02*
X128112851Y44015180D01*
X128112851Y44015180D02*
X128208089Y43967561D01*
X128208089Y43967561D02*
X128255708Y43919942D01*
X128255708Y43919942D02*
X128303327Y43824704D01*
X128303327Y43824704D02*
X128303327Y43729466D01*
X128303327Y43729466D02*
X128255708Y43586609D01*
X128255708Y43586609D02*
X127684280Y43015180D01*
X127684280Y43015180D02*
X128303327Y43015180D01*
X128636661Y44015180D02*
X129255708Y44015180D01*
X129255708Y44015180D02*
X128922375Y43634228D01*
X128922375Y43634228D02*
X129065232Y43634228D01*
X129065232Y43634228D02*
X129160470Y43586609D01*
X129160470Y43586609D02*
X129208089Y43538990D01*
X129208089Y43538990D02*
X129255708Y43443752D01*
X129255708Y43443752D02*
X129255708Y43205657D01*
X129255708Y43205657D02*
X129208089Y43110419D01*
X129208089Y43110419D02*
X129160470Y43062800D01*
X129160470Y43062800D02*
X129065232Y43015180D01*
X129065232Y43015180D02*
X128779518Y43015180D01*
X128779518Y43015180D02*
X128684280Y43062800D01*
X128684280Y43062800D02*
X128636661Y43110419D01*
X114446184Y42071847D02*
X113684279Y41786133D01*
X113684279Y41786133D02*
X114446184Y41500419D01*
X115350945Y41405180D02*
X115350945Y41928990D01*
X115350945Y41928990D02*
X115303326Y42024228D01*
X115303326Y42024228D02*
X115208088Y42071847D01*
X115208088Y42071847D02*
X115017612Y42071847D01*
X115017612Y42071847D02*
X114922374Y42024228D01*
X115350945Y41452800D02*
X115255707Y41405180D01*
X115255707Y41405180D02*
X115017612Y41405180D01*
X115017612Y41405180D02*
X114922374Y41452800D01*
X114922374Y41452800D02*
X114874755Y41548038D01*
X114874755Y41548038D02*
X114874755Y41643276D01*
X114874755Y41643276D02*
X114922374Y41738514D01*
X114922374Y41738514D02*
X115017612Y41786133D01*
X115017612Y41786133D02*
X115255707Y41786133D01*
X115255707Y41786133D02*
X115350945Y41833752D01*
X116446183Y41881371D02*
X116398564Y41928990D01*
X116398564Y41928990D02*
X116303326Y41976609D01*
X116303326Y41976609D02*
X116208088Y41976609D01*
X116208088Y41976609D02*
X116112850Y41928990D01*
X116112850Y41928990D02*
X116065231Y41881371D01*
X116065231Y41881371D02*
X116017612Y41786133D01*
X116017612Y41786133D02*
X116017612Y41690895D01*
X116017612Y41690895D02*
X116065231Y41595657D01*
X116065231Y41595657D02*
X116112850Y41548038D01*
X116112850Y41548038D02*
X116208088Y41500419D01*
X116208088Y41500419D02*
X116303326Y41500419D01*
X116303326Y41500419D02*
X116398564Y41548038D01*
X116398564Y41548038D02*
X116446183Y41595657D01*
X116446183Y41976609D02*
X116446183Y41595657D01*
X116446183Y41595657D02*
X116493802Y41548038D01*
X116493802Y41548038D02*
X116541421Y41548038D01*
X116541421Y41548038D02*
X116636660Y41595657D01*
X116636660Y41595657D02*
X116684279Y41690895D01*
X116684279Y41690895D02*
X116684279Y41928990D01*
X116684279Y41928990D02*
X116589041Y42071847D01*
X116589041Y42071847D02*
X116446183Y42167085D01*
X116446183Y42167085D02*
X116255707Y42214704D01*
X116255707Y42214704D02*
X116065231Y42167085D01*
X116065231Y42167085D02*
X115922374Y42071847D01*
X115922374Y42071847D02*
X115827136Y41928990D01*
X115827136Y41928990D02*
X115779517Y41738514D01*
X115779517Y41738514D02*
X115827136Y41548038D01*
X115827136Y41548038D02*
X115922374Y41405180D01*
X115922374Y41405180D02*
X116065231Y41309942D01*
X116065231Y41309942D02*
X116255707Y41262323D01*
X116255707Y41262323D02*
X116446183Y41309942D01*
X116446183Y41309942D02*
X116589041Y41405180D01*
X117541421Y41405180D02*
X117541421Y42405180D01*
X117541421Y41452800D02*
X117446183Y41405180D01*
X117446183Y41405180D02*
X117255707Y41405180D01*
X117255707Y41405180D02*
X117160469Y41452800D01*
X117160469Y41452800D02*
X117112850Y41500419D01*
X117112850Y41500419D02*
X117065231Y41595657D01*
X117065231Y41595657D02*
X117065231Y41881371D01*
X117065231Y41881371D02*
X117112850Y41976609D01*
X117112850Y41976609D02*
X117160469Y42024228D01*
X117160469Y42024228D02*
X117255707Y42071847D01*
X117255707Y42071847D02*
X117446183Y42071847D01*
X117446183Y42071847D02*
X117541421Y42024228D01*
X118446183Y42071847D02*
X118446183Y41405180D01*
X118017612Y42071847D02*
X118017612Y41548038D01*
X118017612Y41548038D02*
X118065231Y41452800D01*
X118065231Y41452800D02*
X118160469Y41405180D01*
X118160469Y41405180D02*
X118303326Y41405180D01*
X118303326Y41405180D02*
X118398564Y41452800D01*
X118398564Y41452800D02*
X118446183Y41500419D01*
X118922374Y42071847D02*
X118922374Y41405180D01*
X118922374Y41976609D02*
X118969993Y42024228D01*
X118969993Y42024228D02*
X119065231Y42071847D01*
X119065231Y42071847D02*
X119208088Y42071847D01*
X119208088Y42071847D02*
X119303326Y42024228D01*
X119303326Y42024228D02*
X119350945Y41928990D01*
X119350945Y41928990D02*
X119350945Y41405180D01*
X119827136Y41500419D02*
X119874755Y41452800D01*
X119874755Y41452800D02*
X119827136Y41405180D01*
X119827136Y41405180D02*
X119779517Y41452800D01*
X119779517Y41452800D02*
X119827136Y41500419D01*
X119827136Y41500419D02*
X119827136Y41405180D01*
X120731897Y41405180D02*
X120731897Y41928990D01*
X120731897Y41928990D02*
X120684278Y42024228D01*
X120684278Y42024228D02*
X120589040Y42071847D01*
X120589040Y42071847D02*
X120398564Y42071847D01*
X120398564Y42071847D02*
X120303326Y42024228D01*
X120731897Y41452800D02*
X120636659Y41405180D01*
X120636659Y41405180D02*
X120398564Y41405180D01*
X120398564Y41405180D02*
X120303326Y41452800D01*
X120303326Y41452800D02*
X120255707Y41548038D01*
X120255707Y41548038D02*
X120255707Y41643276D01*
X120255707Y41643276D02*
X120303326Y41738514D01*
X120303326Y41738514D02*
X120398564Y41786133D01*
X120398564Y41786133D02*
X120636659Y41786133D01*
X120636659Y41786133D02*
X120731897Y41833752D01*
X121208088Y41405180D02*
X121208088Y42071847D01*
X121208088Y42405180D02*
X121160469Y42357561D01*
X121160469Y42357561D02*
X121208088Y42309942D01*
X121208088Y42309942D02*
X121255707Y42357561D01*
X121255707Y42357561D02*
X121208088Y42405180D01*
X121208088Y42405180D02*
X121208088Y42309942D01*
X121684278Y42071847D02*
X122446183Y41786133D01*
X122446183Y41786133D02*
X121684278Y41500419D01*
D11*
G36*
X108359018Y43078181D02*
G01*
X108419832Y43017367D01*
X108488348Y42880336D01*
X108488348Y42570204D01*
X108419832Y42433172D01*
X108359018Y42372358D01*
X108221985Y42303841D01*
X107911854Y42303841D01*
X107774820Y42372358D01*
X107714007Y42433171D01*
X107645491Y42570204D01*
X107645491Y42880335D01*
X107714007Y43017367D01*
X107774820Y43078181D01*
X107911854Y43146699D01*
X108221985Y43146699D01*
X108359018Y43078181D01*
G37*
G36*
X108359018Y43935325D02*
G01*
X108419831Y43874511D01*
X108488348Y43737478D01*
X108488348Y43713060D01*
X108419832Y43576029D01*
X108359018Y43515215D01*
X108221986Y43446699D01*
X107911853Y43446699D01*
X107774821Y43515215D01*
X107714007Y43576028D01*
X107645491Y43713061D01*
X107645491Y43737479D01*
X107714007Y43874511D01*
X107774821Y43935325D01*
X107911853Y44003841D01*
X108221986Y44003841D01*
X108359018Y43935325D01*
G37*
G36*
X110263780Y43078181D02*
G01*
X110324594Y43017367D01*
X110393110Y42880336D01*
X110393110Y42570204D01*
X110324594Y42433172D01*
X110263780Y42372358D01*
X110126747Y42303841D01*
X109816616Y42303841D01*
X109679582Y42372358D01*
X109618769Y42433171D01*
X109550253Y42570204D01*
X109550253Y42880336D01*
X109618768Y43017367D01*
X109679582Y43078181D01*
X109816616Y43146699D01*
X110126747Y43146699D01*
X110263780Y43078181D01*
G37*
G36*
X110263780Y43935325D02*
G01*
X110324594Y43874510D01*
X110393110Y43737479D01*
X110393110Y43713060D01*
X110324594Y43576029D01*
X110263780Y43515215D01*
X110126748Y43446699D01*
X109816615Y43446699D01*
X109679582Y43515215D01*
X109618769Y43576028D01*
X109550253Y43713060D01*
X109550253Y43737479D01*
X109618769Y43874511D01*
X109679583Y43935325D01*
X109816615Y44003841D01*
X110126748Y44003841D01*
X110263780Y43935325D01*
G37*
G36*
X110978824Y41718127D02*
G01*
X107059777Y41718127D01*
X107059777Y42534794D01*
X107345491Y42534794D01*
X107354414Y42501492D01*
X107361327Y42467712D01*
X107456565Y42277236D01*
X107472587Y42259167D01*
X107484663Y42238252D01*
X107579901Y42143014D01*
X107600814Y42130939D01*
X107618884Y42114916D01*
X107809360Y42019677D01*
X107843144Y42012763D01*
X107876443Y42003841D01*
X108257396Y42003841D01*
X108290696Y42012763D01*
X108324479Y42019677D01*
X108514955Y42114916D01*
X108533024Y42130939D01*
X108553938Y42143014D01*
X108649176Y42238252D01*
X108661250Y42259166D01*
X108677274Y42277236D01*
X108772512Y42467712D01*
X108779424Y42501490D01*
X108788348Y42534794D01*
X109250253Y42534794D01*
X109259176Y42501492D01*
X109266089Y42467712D01*
X109361327Y42277236D01*
X109377349Y42259167D01*
X109389425Y42238252D01*
X109484663Y42143014D01*
X109505576Y42130939D01*
X109523646Y42114916D01*
X109714122Y42019677D01*
X109747906Y42012763D01*
X109781205Y42003841D01*
X110162158Y42003841D01*
X110195458Y42012763D01*
X110229241Y42019677D01*
X110419717Y42114916D01*
X110437786Y42130939D01*
X110458700Y42143014D01*
X110553938Y42238252D01*
X110566012Y42259166D01*
X110582036Y42277236D01*
X110677274Y42467712D01*
X110684186Y42501490D01*
X110693110Y42534794D01*
X110693110Y42915746D01*
X110684186Y42949049D01*
X110677274Y42982828D01*
X110582036Y43173304D01*
X110566012Y43191373D01*
X110553938Y43212288D01*
X110469527Y43296698D01*
X110553938Y43381109D01*
X110566012Y43402023D01*
X110582036Y43420093D01*
X110677274Y43610569D01*
X110684186Y43644347D01*
X110693110Y43677651D01*
X110693110Y43772889D01*
X110684186Y43806192D01*
X110677274Y43839971D01*
X110582036Y44030447D01*
X110566012Y44048516D01*
X110553938Y44069431D01*
X110458700Y44164669D01*
X110437784Y44176744D01*
X110419716Y44192767D01*
X110229240Y44288005D01*
X110195459Y44294917D01*
X110162158Y44303841D01*
X109781205Y44303841D01*
X109747901Y44294917D01*
X109714123Y44288005D01*
X109523647Y44192767D01*
X109505577Y44176743D01*
X109484663Y44164669D01*
X109389425Y44069431D01*
X109377349Y44048515D01*
X109361327Y44030447D01*
X109266089Y43839971D01*
X109259176Y43806190D01*
X109250253Y43772889D01*
X109250253Y43677651D01*
X109259176Y43644349D01*
X109266089Y43610569D01*
X109361327Y43420093D01*
X109377349Y43402024D01*
X109389425Y43381109D01*
X109473835Y43296698D01*
X109389425Y43212288D01*
X109377349Y43191372D01*
X109361327Y43173304D01*
X109266089Y42982828D01*
X109259176Y42949047D01*
X109250253Y42915746D01*
X109250253Y42534794D01*
X108788348Y42534794D01*
X108788348Y42915746D01*
X108779424Y42949049D01*
X108772512Y42982828D01*
X108677274Y43173304D01*
X108661250Y43191373D01*
X108649176Y43212288D01*
X108564765Y43296698D01*
X108649176Y43381109D01*
X108661250Y43402023D01*
X108677274Y43420093D01*
X108772512Y43610569D01*
X108779424Y43644347D01*
X108788348Y43677651D01*
X108788348Y43772889D01*
X108779424Y43806192D01*
X108772512Y43839971D01*
X108677274Y44030447D01*
X108661250Y44048516D01*
X108649176Y44069431D01*
X108553938Y44164669D01*
X108533022Y44176744D01*
X108514954Y44192767D01*
X108324478Y44288005D01*
X108290697Y44294917D01*
X108257396Y44303841D01*
X107876443Y44303841D01*
X107843139Y44294917D01*
X107809361Y44288005D01*
X107618885Y44192767D01*
X107600815Y44176743D01*
X107579901Y44164669D01*
X107484663Y44069431D01*
X107472587Y44048515D01*
X107456565Y44030447D01*
X107361327Y43839971D01*
X107354414Y43806190D01*
X107345491Y43772889D01*
X107345491Y43677651D01*
X107354414Y43644349D01*
X107361327Y43610569D01*
X107456565Y43420093D01*
X107472587Y43402024D01*
X107484663Y43381109D01*
X107569073Y43296698D01*
X107484663Y43212288D01*
X107472587Y43191372D01*
X107456565Y43173304D01*
X107361327Y42982828D01*
X107354414Y42949047D01*
X107345491Y42915746D01*
X107345491Y42534794D01*
X107059777Y42534794D01*
X107059777Y44589555D01*
X110978824Y44589555D01*
X110978824Y41718127D01*
G37*
D12*
X100490535Y42060161D02*
X100490535Y44060161D01*
X100490535Y44060161D02*
X101633392Y44060161D01*
X101633392Y44060161D02*
X101633392Y42060161D01*
X102585773Y42060161D02*
X102585773Y44060161D01*
X103728630Y42060161D02*
X102871487Y43203019D01*
X103728630Y44060161D02*
X102585773Y42917304D01*
D10*
X98742500Y45720000D02*
X105381428Y45720000D01*
X105381428Y40640000D01*
X98742500Y40640000D01*
X98742500Y45720000D01*
X119911905Y77015180D02*
X119911905Y78015180D01*
X119911905Y78015180D02*
X120150000Y78015180D01*
X120150000Y78015180D02*
X120292857Y77967561D01*
X120292857Y77967561D02*
X120388095Y77872323D01*
X120388095Y77872323D02*
X120435714Y77777085D01*
X120435714Y77777085D02*
X120483333Y77586609D01*
X120483333Y77586609D02*
X120483333Y77443752D01*
X120483333Y77443752D02*
X120435714Y77253276D01*
X120435714Y77253276D02*
X120388095Y77158038D01*
X120388095Y77158038D02*
X120292857Y77062800D01*
X120292857Y77062800D02*
X120150000Y77015180D01*
X120150000Y77015180D02*
X119911905Y77015180D01*
X121435714Y77015180D02*
X120864286Y77015180D01*
X121150000Y77015180D02*
X121150000Y78015180D01*
X121150000Y78015180D02*
X121054762Y77872323D01*
X121054762Y77872323D02*
X120959524Y77777085D01*
X120959524Y77777085D02*
X120864286Y77729466D01*
X118673809Y69395180D02*
X118673809Y70395180D01*
X118673809Y70395180D02*
X119054761Y70395180D01*
X119054761Y70395180D02*
X119149999Y70347561D01*
X119149999Y70347561D02*
X119197618Y70299942D01*
X119197618Y70299942D02*
X119245237Y70204704D01*
X119245237Y70204704D02*
X119245237Y70061847D01*
X119245237Y70061847D02*
X119197618Y69966609D01*
X119197618Y69966609D02*
X119149999Y69918990D01*
X119149999Y69918990D02*
X119054761Y69871371D01*
X119054761Y69871371D02*
X118673809Y69871371D01*
X119816666Y69395180D02*
X119721428Y69442800D01*
X119721428Y69442800D02*
X119673809Y69490419D01*
X119673809Y69490419D02*
X119626190Y69585657D01*
X119626190Y69585657D02*
X119626190Y69871371D01*
X119626190Y69871371D02*
X119673809Y69966609D01*
X119673809Y69966609D02*
X119721428Y70014228D01*
X119721428Y70014228D02*
X119816666Y70061847D01*
X119816666Y70061847D02*
X119959523Y70061847D01*
X119959523Y70061847D02*
X120054761Y70014228D01*
X120054761Y70014228D02*
X120102380Y69966609D01*
X120102380Y69966609D02*
X120149999Y69871371D01*
X120149999Y69871371D02*
X120149999Y69585657D01*
X120149999Y69585657D02*
X120102380Y69490419D01*
X120102380Y69490419D02*
X120054761Y69442800D01*
X120054761Y69442800D02*
X119959523Y69395180D01*
X119959523Y69395180D02*
X119816666Y69395180D01*
X120483333Y70061847D02*
X120673809Y69395180D01*
X120673809Y69395180D02*
X120864285Y69871371D01*
X120864285Y69871371D02*
X121054761Y69395180D01*
X121054761Y69395180D02*
X121245237Y70061847D01*
X122007142Y69442800D02*
X121911904Y69395180D01*
X121911904Y69395180D02*
X121721428Y69395180D01*
X121721428Y69395180D02*
X121626190Y69442800D01*
X121626190Y69442800D02*
X121578571Y69538038D01*
X121578571Y69538038D02*
X121578571Y69918990D01*
X121578571Y69918990D02*
X121626190Y70014228D01*
X121626190Y70014228D02*
X121721428Y70061847D01*
X121721428Y70061847D02*
X121911904Y70061847D01*
X121911904Y70061847D02*
X122007142Y70014228D01*
X122007142Y70014228D02*
X122054761Y69918990D01*
X122054761Y69918990D02*
X122054761Y69823752D01*
X122054761Y69823752D02*
X121578571Y69728514D01*
X122483333Y69395180D02*
X122483333Y70061847D01*
X122483333Y69871371D02*
X122530952Y69966609D01*
X122530952Y69966609D02*
X122578571Y70014228D01*
X122578571Y70014228D02*
X122673809Y70061847D01*
X122673809Y70061847D02*
X122769047Y70061847D01*
X86868095Y75265180D02*
X86868095Y74455657D01*
X86868095Y74455657D02*
X86915714Y74360419D01*
X86915714Y74360419D02*
X86963333Y74312800D01*
X86963333Y74312800D02*
X87058571Y74265180D01*
X87058571Y74265180D02*
X87249047Y74265180D01*
X87249047Y74265180D02*
X87344285Y74312800D01*
X87344285Y74312800D02*
X87391904Y74360419D01*
X87391904Y74360419D02*
X87439523Y74455657D01*
X87439523Y74455657D02*
X87439523Y75265180D01*
X88344285Y74931847D02*
X88344285Y74265180D01*
X88106190Y75312800D02*
X87868095Y74598514D01*
X87868095Y74598514D02*
X88487142Y74598514D01*
X84368095Y47745180D02*
X85034761Y47745180D01*
X85034761Y47745180D02*
X84606190Y46745180D01*
X85844285Y47411847D02*
X85844285Y46745180D01*
X85606190Y47792800D02*
X85368095Y47078514D01*
X85368095Y47078514D02*
X85987142Y47078514D01*
X86368095Y46745180D02*
X86368095Y47745180D01*
X86368095Y47268990D02*
X86939523Y47268990D01*
X86939523Y46745180D02*
X86939523Y47745180D01*
X87987142Y46840419D02*
X87939523Y46792800D01*
X87939523Y46792800D02*
X87796666Y46745180D01*
X87796666Y46745180D02*
X87701428Y46745180D01*
X87701428Y46745180D02*
X87558571Y46792800D01*
X87558571Y46792800D02*
X87463333Y46888038D01*
X87463333Y46888038D02*
X87415714Y46983276D01*
X87415714Y46983276D02*
X87368095Y47173752D01*
X87368095Y47173752D02*
X87368095Y47316609D01*
X87368095Y47316609D02*
X87415714Y47507085D01*
X87415714Y47507085D02*
X87463333Y47602323D01*
X87463333Y47602323D02*
X87558571Y47697561D01*
X87558571Y47697561D02*
X87701428Y47745180D01*
X87701428Y47745180D02*
X87796666Y47745180D01*
X87796666Y47745180D02*
X87939523Y47697561D01*
X87939523Y47697561D02*
X87987142Y47649942D01*
X88891904Y47745180D02*
X88415714Y47745180D01*
X88415714Y47745180D02*
X88368095Y47268990D01*
X88368095Y47268990D02*
X88415714Y47316609D01*
X88415714Y47316609D02*
X88510952Y47364228D01*
X88510952Y47364228D02*
X88749047Y47364228D01*
X88749047Y47364228D02*
X88844285Y47316609D01*
X88844285Y47316609D02*
X88891904Y47268990D01*
X88891904Y47268990D02*
X88939523Y47173752D01*
X88939523Y47173752D02*
X88939523Y46935657D01*
X88939523Y46935657D02*
X88891904Y46840419D01*
X88891904Y46840419D02*
X88844285Y46792800D01*
X88844285Y46792800D02*
X88749047Y46745180D01*
X88749047Y46745180D02*
X88510952Y46745180D01*
X88510952Y46745180D02*
X88415714Y46792800D01*
X88415714Y46792800D02*
X88368095Y46840419D01*
X89272857Y47745180D02*
X89939523Y47745180D01*
X89939523Y47745180D02*
X89510952Y46745180D01*
X90225238Y47745180D02*
X90844285Y47745180D01*
X90844285Y47745180D02*
X90510952Y47364228D01*
X90510952Y47364228D02*
X90653809Y47364228D01*
X90653809Y47364228D02*
X90749047Y47316609D01*
X90749047Y47316609D02*
X90796666Y47268990D01*
X90796666Y47268990D02*
X90844285Y47173752D01*
X90844285Y47173752D02*
X90844285Y46935657D01*
X90844285Y46935657D02*
X90796666Y46840419D01*
X90796666Y46840419D02*
X90749047Y46792800D01*
X90749047Y46792800D02*
X90653809Y46745180D01*
X90653809Y46745180D02*
X90368095Y46745180D01*
X90368095Y46745180D02*
X90272857Y46792800D01*
X90272857Y46792800D02*
X90225238Y46840419D01*
X46823333Y88540419D02*
X46775714Y88492800D01*
X46775714Y88492800D02*
X46632857Y88445180D01*
X46632857Y88445180D02*
X46537619Y88445180D01*
X46537619Y88445180D02*
X46394762Y88492800D01*
X46394762Y88492800D02*
X46299524Y88588038D01*
X46299524Y88588038D02*
X46251905Y88683276D01*
X46251905Y88683276D02*
X46204286Y88873752D01*
X46204286Y88873752D02*
X46204286Y89016609D01*
X46204286Y89016609D02*
X46251905Y89207085D01*
X46251905Y89207085D02*
X46299524Y89302323D01*
X46299524Y89302323D02*
X46394762Y89397561D01*
X46394762Y89397561D02*
X46537619Y89445180D01*
X46537619Y89445180D02*
X46632857Y89445180D01*
X46632857Y89445180D02*
X46775714Y89397561D01*
X46775714Y89397561D02*
X46823333Y89349942D01*
X47204286Y89349942D02*
X47251905Y89397561D01*
X47251905Y89397561D02*
X47347143Y89445180D01*
X47347143Y89445180D02*
X47585238Y89445180D01*
X47585238Y89445180D02*
X47680476Y89397561D01*
X47680476Y89397561D02*
X47728095Y89349942D01*
X47728095Y89349942D02*
X47775714Y89254704D01*
X47775714Y89254704D02*
X47775714Y89159466D01*
X47775714Y89159466D02*
X47728095Y89016609D01*
X47728095Y89016609D02*
X47156667Y88445180D01*
X47156667Y88445180D02*
X47775714Y88445180D01*
X117419523Y27345180D02*
X117086190Y27821371D01*
X116848095Y27345180D02*
X116848095Y28345180D01*
X116848095Y28345180D02*
X117229047Y28345180D01*
X117229047Y28345180D02*
X117324285Y28297561D01*
X117324285Y28297561D02*
X117371904Y28249942D01*
X117371904Y28249942D02*
X117419523Y28154704D01*
X117419523Y28154704D02*
X117419523Y28011847D01*
X117419523Y28011847D02*
X117371904Y27916609D01*
X117371904Y27916609D02*
X117324285Y27868990D01*
X117324285Y27868990D02*
X117229047Y27821371D01*
X117229047Y27821371D02*
X116848095Y27821371D01*
X117848095Y27345180D02*
X117848095Y28345180D01*
X117848095Y28345180D02*
X118419523Y27345180D01*
X118419523Y27345180D02*
X118419523Y28345180D01*
X119324285Y28011847D02*
X119324285Y27345180D01*
X119086190Y28392800D02*
X118848095Y27678514D01*
X118848095Y27678514D02*
X119467142Y27678514D01*
X117848095Y23545180D02*
X117371905Y23545180D01*
X117371905Y23545180D02*
X117324286Y23068990D01*
X117324286Y23068990D02*
X117371905Y23116609D01*
X117371905Y23116609D02*
X117467143Y23164228D01*
X117467143Y23164228D02*
X117705238Y23164228D01*
X117705238Y23164228D02*
X117800476Y23116609D01*
X117800476Y23116609D02*
X117848095Y23068990D01*
X117848095Y23068990D02*
X117895714Y22973752D01*
X117895714Y22973752D02*
X117895714Y22735657D01*
X117895714Y22735657D02*
X117848095Y22640419D01*
X117848095Y22640419D02*
X117800476Y22592800D01*
X117800476Y22592800D02*
X117705238Y22545180D01*
X117705238Y22545180D02*
X117467143Y22545180D01*
X117467143Y22545180D02*
X117371905Y22592800D01*
X117371905Y22592800D02*
X117324286Y22640419D01*
X118324286Y22545180D02*
X118324286Y23545180D01*
X118895714Y22545180D02*
X118467143Y23116609D01*
X118895714Y23545180D02*
X118324286Y22973752D01*
X117467142Y33930419D02*
X117419523Y33882800D01*
X117419523Y33882800D02*
X117276666Y33835180D01*
X117276666Y33835180D02*
X117181428Y33835180D01*
X117181428Y33835180D02*
X117038571Y33882800D01*
X117038571Y33882800D02*
X116943333Y33978038D01*
X116943333Y33978038D02*
X116895714Y34073276D01*
X116895714Y34073276D02*
X116848095Y34263752D01*
X116848095Y34263752D02*
X116848095Y34406609D01*
X116848095Y34406609D02*
X116895714Y34597085D01*
X116895714Y34597085D02*
X116943333Y34692323D01*
X116943333Y34692323D02*
X117038571Y34787561D01*
X117038571Y34787561D02*
X117181428Y34835180D01*
X117181428Y34835180D02*
X117276666Y34835180D01*
X117276666Y34835180D02*
X117419523Y34787561D01*
X117419523Y34787561D02*
X117467142Y34739942D01*
X118419523Y33835180D02*
X117848095Y33835180D01*
X118133809Y33835180D02*
X118133809Y34835180D01*
X118133809Y34835180D02*
X118038571Y34692323D01*
X118038571Y34692323D02*
X117943333Y34597085D01*
X117943333Y34597085D02*
X117848095Y34549466D01*
X119038571Y34835180D02*
X119133809Y34835180D01*
X119133809Y34835180D02*
X119229047Y34787561D01*
X119229047Y34787561D02*
X119276666Y34739942D01*
X119276666Y34739942D02*
X119324285Y34644704D01*
X119324285Y34644704D02*
X119371904Y34454228D01*
X119371904Y34454228D02*
X119371904Y34216133D01*
X119371904Y34216133D02*
X119324285Y34025657D01*
X119324285Y34025657D02*
X119276666Y33930419D01*
X119276666Y33930419D02*
X119229047Y33882800D01*
X119229047Y33882800D02*
X119133809Y33835180D01*
X119133809Y33835180D02*
X119038571Y33835180D01*
X119038571Y33835180D02*
X118943333Y33882800D01*
X118943333Y33882800D02*
X118895714Y33930419D01*
X118895714Y33930419D02*
X118848095Y34025657D01*
X118848095Y34025657D02*
X118800476Y34216133D01*
X118800476Y34216133D02*
X118800476Y34454228D01*
X118800476Y34454228D02*
X118848095Y34644704D01*
X118848095Y34644704D02*
X118895714Y34739942D01*
X118895714Y34739942D02*
X118943333Y34787561D01*
X118943333Y34787561D02*
X119038571Y34835180D01*
X73114819Y56388095D02*
X73924342Y56388095D01*
X73924342Y56388095D02*
X74019580Y56435714D01*
X74019580Y56435714D02*
X74067200Y56483333D01*
X74067200Y56483333D02*
X74114819Y56578571D01*
X74114819Y56578571D02*
X74114819Y56769047D01*
X74114819Y56769047D02*
X74067200Y56864285D01*
X74067200Y56864285D02*
X74019580Y56911904D01*
X74019580Y56911904D02*
X73924342Y56959523D01*
X73924342Y56959523D02*
X73114819Y56959523D01*
X74114819Y57959523D02*
X74114819Y57388095D01*
X74114819Y57673809D02*
X73114819Y57673809D01*
X73114819Y57673809D02*
X73257676Y57578571D01*
X73257676Y57578571D02*
X73352914Y57483333D01*
X73352914Y57483333D02*
X73400533Y57388095D01*
X74114819Y63889524D02*
X73114819Y63889524D01*
X74114819Y64460952D02*
X73543390Y64032381D01*
X73114819Y64460952D02*
X73686247Y63889524D01*
X74114819Y64889524D02*
X73114819Y64889524D01*
X73114819Y64889524D02*
X73829104Y65222857D01*
X73829104Y65222857D02*
X73114819Y65556190D01*
X73114819Y65556190D02*
X74114819Y65556190D01*
X74114819Y66556190D02*
X74114819Y65984762D01*
X74114819Y66270476D02*
X73114819Y66270476D01*
X73114819Y66270476D02*
X73257676Y66175238D01*
X73257676Y66175238D02*
X73352914Y66080000D01*
X73352914Y66080000D02*
X73400533Y65984762D01*
X73543390Y67127619D02*
X73495771Y67032381D01*
X73495771Y67032381D02*
X73448152Y66984762D01*
X73448152Y66984762D02*
X73352914Y66937143D01*
X73352914Y66937143D02*
X73305295Y66937143D01*
X73305295Y66937143D02*
X73210057Y66984762D01*
X73210057Y66984762D02*
X73162438Y67032381D01*
X73162438Y67032381D02*
X73114819Y67127619D01*
X73114819Y67127619D02*
X73114819Y67318095D01*
X73114819Y67318095D02*
X73162438Y67413333D01*
X73162438Y67413333D02*
X73210057Y67460952D01*
X73210057Y67460952D02*
X73305295Y67508571D01*
X73305295Y67508571D02*
X73352914Y67508571D01*
X73352914Y67508571D02*
X73448152Y67460952D01*
X73448152Y67460952D02*
X73495771Y67413333D01*
X73495771Y67413333D02*
X73543390Y67318095D01*
X73543390Y67318095D02*
X73543390Y67127619D01*
X73543390Y67127619D02*
X73591009Y67032381D01*
X73591009Y67032381D02*
X73638628Y66984762D01*
X73638628Y66984762D02*
X73733866Y66937143D01*
X73733866Y66937143D02*
X73924342Y66937143D01*
X73924342Y66937143D02*
X74019580Y66984762D01*
X74019580Y66984762D02*
X74067200Y67032381D01*
X74067200Y67032381D02*
X74114819Y67127619D01*
X74114819Y67127619D02*
X74114819Y67318095D01*
X74114819Y67318095D02*
X74067200Y67413333D01*
X74067200Y67413333D02*
X74019580Y67460952D01*
X74019580Y67460952D02*
X73924342Y67508571D01*
X73924342Y67508571D02*
X73733866Y67508571D01*
X73733866Y67508571D02*
X73638628Y67460952D01*
X73638628Y67460952D02*
X73591009Y67413333D01*
X73591009Y67413333D02*
X73543390Y67318095D01*
X74114819Y68460952D02*
X74114819Y67889524D01*
X74114819Y68175238D02*
X73114819Y68175238D01*
X73114819Y68175238D02*
X73257676Y68080000D01*
X73257676Y68080000D02*
X73352914Y67984762D01*
X73352914Y67984762D02*
X73400533Y67889524D01*
X73114819Y69080000D02*
X73114819Y69175238D01*
X73114819Y69175238D02*
X73162438Y69270476D01*
X73162438Y69270476D02*
X73210057Y69318095D01*
X73210057Y69318095D02*
X73305295Y69365714D01*
X73305295Y69365714D02*
X73495771Y69413333D01*
X73495771Y69413333D02*
X73733866Y69413333D01*
X73733866Y69413333D02*
X73924342Y69365714D01*
X73924342Y69365714D02*
X74019580Y69318095D01*
X74019580Y69318095D02*
X74067200Y69270476D01*
X74067200Y69270476D02*
X74114819Y69175238D01*
X74114819Y69175238D02*
X74114819Y69080000D01*
X74114819Y69080000D02*
X74067200Y68984762D01*
X74067200Y68984762D02*
X74019580Y68937143D01*
X74019580Y68937143D02*
X73924342Y68889524D01*
X73924342Y68889524D02*
X73733866Y68841905D01*
X73733866Y68841905D02*
X73495771Y68841905D01*
X73495771Y68841905D02*
X73305295Y68889524D01*
X73305295Y68889524D02*
X73210057Y68937143D01*
X73210057Y68937143D02*
X73162438Y68984762D01*
X73162438Y68984762D02*
X73114819Y69080000D01*
X73114819Y69699048D02*
X74114819Y70032381D01*
X74114819Y70032381D02*
X73114819Y70365714D01*
X74114819Y70699048D02*
X73114819Y70699048D01*
X73114819Y70699048D02*
X73829104Y71032381D01*
X73829104Y71032381D02*
X73114819Y71365714D01*
X73114819Y71365714D02*
X74114819Y71365714D01*
X73543390Y71984762D02*
X73495771Y71889524D01*
X73495771Y71889524D02*
X73448152Y71841905D01*
X73448152Y71841905D02*
X73352914Y71794286D01*
X73352914Y71794286D02*
X73305295Y71794286D01*
X73305295Y71794286D02*
X73210057Y71841905D01*
X73210057Y71841905D02*
X73162438Y71889524D01*
X73162438Y71889524D02*
X73114819Y71984762D01*
X73114819Y71984762D02*
X73114819Y72175238D01*
X73114819Y72175238D02*
X73162438Y72270476D01*
X73162438Y72270476D02*
X73210057Y72318095D01*
X73210057Y72318095D02*
X73305295Y72365714D01*
X73305295Y72365714D02*
X73352914Y72365714D01*
X73352914Y72365714D02*
X73448152Y72318095D01*
X73448152Y72318095D02*
X73495771Y72270476D01*
X73495771Y72270476D02*
X73543390Y72175238D01*
X73543390Y72175238D02*
X73543390Y71984762D01*
X73543390Y71984762D02*
X73591009Y71889524D01*
X73591009Y71889524D02*
X73638628Y71841905D01*
X73638628Y71841905D02*
X73733866Y71794286D01*
X73733866Y71794286D02*
X73924342Y71794286D01*
X73924342Y71794286D02*
X74019580Y71841905D01*
X74019580Y71841905D02*
X74067200Y71889524D01*
X74067200Y71889524D02*
X74114819Y71984762D01*
X74114819Y71984762D02*
X74114819Y72175238D01*
X74114819Y72175238D02*
X74067200Y72270476D01*
X74067200Y72270476D02*
X74019580Y72318095D01*
X74019580Y72318095D02*
X73924342Y72365714D01*
X73924342Y72365714D02*
X73733866Y72365714D01*
X73733866Y72365714D02*
X73638628Y72318095D01*
X73638628Y72318095D02*
X73591009Y72270476D01*
X73591009Y72270476D02*
X73543390Y72175238D01*
X73543390Y72937143D02*
X73495771Y72841905D01*
X73495771Y72841905D02*
X73448152Y72794286D01*
X73448152Y72794286D02*
X73352914Y72746667D01*
X73352914Y72746667D02*
X73305295Y72746667D01*
X73305295Y72746667D02*
X73210057Y72794286D01*
X73210057Y72794286D02*
X73162438Y72841905D01*
X73162438Y72841905D02*
X73114819Y72937143D01*
X73114819Y72937143D02*
X73114819Y73127619D01*
X73114819Y73127619D02*
X73162438Y73222857D01*
X73162438Y73222857D02*
X73210057Y73270476D01*
X73210057Y73270476D02*
X73305295Y73318095D01*
X73305295Y73318095D02*
X73352914Y73318095D01*
X73352914Y73318095D02*
X73448152Y73270476D01*
X73448152Y73270476D02*
X73495771Y73222857D01*
X73495771Y73222857D02*
X73543390Y73127619D01*
X73543390Y73127619D02*
X73543390Y72937143D01*
X73543390Y72937143D02*
X73591009Y72841905D01*
X73591009Y72841905D02*
X73638628Y72794286D01*
X73638628Y72794286D02*
X73733866Y72746667D01*
X73733866Y72746667D02*
X73924342Y72746667D01*
X73924342Y72746667D02*
X74019580Y72794286D01*
X74019580Y72794286D02*
X74067200Y72841905D01*
X74067200Y72841905D02*
X74114819Y72937143D01*
X74114819Y72937143D02*
X74114819Y73127619D01*
X74114819Y73127619D02*
X74067200Y73222857D01*
X74067200Y73222857D02*
X74019580Y73270476D01*
X74019580Y73270476D02*
X73924342Y73318095D01*
X73924342Y73318095D02*
X73733866Y73318095D01*
X73733866Y73318095D02*
X73638628Y73270476D01*
X73638628Y73270476D02*
X73591009Y73222857D01*
X73591009Y73222857D02*
X73543390Y73127619D01*
X87989580Y60793333D02*
X88037200Y60745714D01*
X88037200Y60745714D02*
X88084819Y60602857D01*
X88084819Y60602857D02*
X88084819Y60507619D01*
X88084819Y60507619D02*
X88037200Y60364762D01*
X88037200Y60364762D02*
X87941961Y60269524D01*
X87941961Y60269524D02*
X87846723Y60221905D01*
X87846723Y60221905D02*
X87656247Y60174286D01*
X87656247Y60174286D02*
X87513390Y60174286D01*
X87513390Y60174286D02*
X87322914Y60221905D01*
X87322914Y60221905D02*
X87227676Y60269524D01*
X87227676Y60269524D02*
X87132438Y60364762D01*
X87132438Y60364762D02*
X87084819Y60507619D01*
X87084819Y60507619D02*
X87084819Y60602857D01*
X87084819Y60602857D02*
X87132438Y60745714D01*
X87132438Y60745714D02*
X87180057Y60793333D01*
X87084819Y61698095D02*
X87084819Y61221905D01*
X87084819Y61221905D02*
X87561009Y61174286D01*
X87561009Y61174286D02*
X87513390Y61221905D01*
X87513390Y61221905D02*
X87465771Y61317143D01*
X87465771Y61317143D02*
X87465771Y61555238D01*
X87465771Y61555238D02*
X87513390Y61650476D01*
X87513390Y61650476D02*
X87561009Y61698095D01*
X87561009Y61698095D02*
X87656247Y61745714D01*
X87656247Y61745714D02*
X87894342Y61745714D01*
X87894342Y61745714D02*
X87989580Y61698095D01*
X87989580Y61698095D02*
X88037200Y61650476D01*
X88037200Y61650476D02*
X88084819Y61555238D01*
X88084819Y61555238D02*
X88084819Y61317143D01*
X88084819Y61317143D02*
X88037200Y61221905D01*
X88037200Y61221905D02*
X87989580Y61174286D01*
X59523333Y45360419D02*
X59475714Y45312800D01*
X59475714Y45312800D02*
X59332857Y45265180D01*
X59332857Y45265180D02*
X59237619Y45265180D01*
X59237619Y45265180D02*
X59094762Y45312800D01*
X59094762Y45312800D02*
X58999524Y45408038D01*
X58999524Y45408038D02*
X58951905Y45503276D01*
X58951905Y45503276D02*
X58904286Y45693752D01*
X58904286Y45693752D02*
X58904286Y45836609D01*
X58904286Y45836609D02*
X58951905Y46027085D01*
X58951905Y46027085D02*
X58999524Y46122323D01*
X58999524Y46122323D02*
X59094762Y46217561D01*
X59094762Y46217561D02*
X59237619Y46265180D01*
X59237619Y46265180D02*
X59332857Y46265180D01*
X59332857Y46265180D02*
X59475714Y46217561D01*
X59475714Y46217561D02*
X59523333Y46169942D01*
X59856667Y46265180D02*
X60523333Y46265180D01*
X60523333Y46265180D02*
X60094762Y45265180D01*
X103804819Y33051905D02*
X104614342Y33051905D01*
X104614342Y33051905D02*
X104709580Y33099524D01*
X104709580Y33099524D02*
X104757200Y33147143D01*
X104757200Y33147143D02*
X104804819Y33242381D01*
X104804819Y33242381D02*
X104804819Y33432857D01*
X104804819Y33432857D02*
X104757200Y33528095D01*
X104757200Y33528095D02*
X104709580Y33575714D01*
X104709580Y33575714D02*
X104614342Y33623333D01*
X104614342Y33623333D02*
X103804819Y33623333D01*
X104804819Y34623333D02*
X104804819Y34051905D01*
X104804819Y34337619D02*
X103804819Y34337619D01*
X103804819Y34337619D02*
X103947676Y34242381D01*
X103947676Y34242381D02*
X104042914Y34147143D01*
X104042914Y34147143D02*
X104090533Y34051905D01*
X104138152Y35480476D02*
X104804819Y35480476D01*
X103757200Y35242381D02*
X104471485Y35004286D01*
X104471485Y35004286D02*
X104471485Y35623333D01*
X131324819Y31028095D02*
X131324819Y31694761D01*
X131324819Y31694761D02*
X132324819Y31266190D01*
X131658152Y32504285D02*
X132324819Y32504285D01*
X131277200Y32266190D02*
X131991485Y32028095D01*
X131991485Y32028095D02*
X131991485Y32647142D01*
X132324819Y33028095D02*
X131324819Y33028095D01*
X131801009Y33028095D02*
X131801009Y33599523D01*
X132324819Y33599523D02*
X131324819Y33599523D01*
X132229580Y34647142D02*
X132277200Y34599523D01*
X132277200Y34599523D02*
X132324819Y34456666D01*
X132324819Y34456666D02*
X132324819Y34361428D01*
X132324819Y34361428D02*
X132277200Y34218571D01*
X132277200Y34218571D02*
X132181961Y34123333D01*
X132181961Y34123333D02*
X132086723Y34075714D01*
X132086723Y34075714D02*
X131896247Y34028095D01*
X131896247Y34028095D02*
X131753390Y34028095D01*
X131753390Y34028095D02*
X131562914Y34075714D01*
X131562914Y34075714D02*
X131467676Y34123333D01*
X131467676Y34123333D02*
X131372438Y34218571D01*
X131372438Y34218571D02*
X131324819Y34361428D01*
X131324819Y34361428D02*
X131324819Y34456666D01*
X131324819Y34456666D02*
X131372438Y34599523D01*
X131372438Y34599523D02*
X131420057Y34647142D01*
X131420057Y35028095D02*
X131372438Y35075714D01*
X131372438Y35075714D02*
X131324819Y35170952D01*
X131324819Y35170952D02*
X131324819Y35409047D01*
X131324819Y35409047D02*
X131372438Y35504285D01*
X131372438Y35504285D02*
X131420057Y35551904D01*
X131420057Y35551904D02*
X131515295Y35599523D01*
X131515295Y35599523D02*
X131610533Y35599523D01*
X131610533Y35599523D02*
X131753390Y35551904D01*
X131753390Y35551904D02*
X132324819Y34980476D01*
X132324819Y34980476D02*
X132324819Y35599523D01*
X131658152Y36456666D02*
X132324819Y36456666D01*
X131277200Y36218571D02*
X131991485Y35980476D01*
X131991485Y35980476D02*
X131991485Y36599523D01*
X131658152Y37409047D02*
X132324819Y37409047D01*
X131277200Y37170952D02*
X131991485Y36932857D01*
X131991485Y36932857D02*
X131991485Y37551904D01*
X27809580Y64623333D02*
X27857200Y64575714D01*
X27857200Y64575714D02*
X27904819Y64432857D01*
X27904819Y64432857D02*
X27904819Y64337619D01*
X27904819Y64337619D02*
X27857200Y64194762D01*
X27857200Y64194762D02*
X27761961Y64099524D01*
X27761961Y64099524D02*
X27666723Y64051905D01*
X27666723Y64051905D02*
X27476247Y64004286D01*
X27476247Y64004286D02*
X27333390Y64004286D01*
X27333390Y64004286D02*
X27142914Y64051905D01*
X27142914Y64051905D02*
X27047676Y64099524D01*
X27047676Y64099524D02*
X26952438Y64194762D01*
X26952438Y64194762D02*
X26904819Y64337619D01*
X26904819Y64337619D02*
X26904819Y64432857D01*
X26904819Y64432857D02*
X26952438Y64575714D01*
X26952438Y64575714D02*
X27000057Y64623333D01*
X26904819Y64956667D02*
X26904819Y65575714D01*
X26904819Y65575714D02*
X27285771Y65242381D01*
X27285771Y65242381D02*
X27285771Y65385238D01*
X27285771Y65385238D02*
X27333390Y65480476D01*
X27333390Y65480476D02*
X27381009Y65528095D01*
X27381009Y65528095D02*
X27476247Y65575714D01*
X27476247Y65575714D02*
X27714342Y65575714D01*
X27714342Y65575714D02*
X27809580Y65528095D01*
X27809580Y65528095D02*
X27857200Y65480476D01*
X27857200Y65480476D02*
X27904819Y65385238D01*
X27904819Y65385238D02*
X27904819Y65099524D01*
X27904819Y65099524D02*
X27857200Y65004286D01*
X27857200Y65004286D02*
X27809580Y64956667D01*
X20174819Y19558095D02*
X20984342Y19558095D01*
X20984342Y19558095D02*
X21079580Y19605714D01*
X21079580Y19605714D02*
X21127200Y19653333D01*
X21127200Y19653333D02*
X21174819Y19748571D01*
X21174819Y19748571D02*
X21174819Y19939047D01*
X21174819Y19939047D02*
X21127200Y20034285D01*
X21127200Y20034285D02*
X21079580Y20081904D01*
X21079580Y20081904D02*
X20984342Y20129523D01*
X20984342Y20129523D02*
X20174819Y20129523D01*
X20270057Y20558095D02*
X20222438Y20605714D01*
X20222438Y20605714D02*
X20174819Y20700952D01*
X20174819Y20700952D02*
X20174819Y20939047D01*
X20174819Y20939047D02*
X20222438Y21034285D01*
X20222438Y21034285D02*
X20270057Y21081904D01*
X20270057Y21081904D02*
X20365295Y21129523D01*
X20365295Y21129523D02*
X20460533Y21129523D01*
X20460533Y21129523D02*
X20603390Y21081904D01*
X20603390Y21081904D02*
X21174819Y20510476D01*
X21174819Y20510476D02*
X21174819Y21129523D01*
X73714819Y22090476D02*
X74714819Y22328571D01*
X74714819Y22328571D02*
X74000533Y22519047D01*
X74000533Y22519047D02*
X74714819Y22709523D01*
X74714819Y22709523D02*
X73714819Y22947619D01*
X73810057Y23280952D02*
X73762438Y23328571D01*
X73762438Y23328571D02*
X73714819Y23423809D01*
X73714819Y23423809D02*
X73714819Y23661904D01*
X73714819Y23661904D02*
X73762438Y23757142D01*
X73762438Y23757142D02*
X73810057Y23804761D01*
X73810057Y23804761D02*
X73905295Y23852380D01*
X73905295Y23852380D02*
X74000533Y23852380D01*
X74000533Y23852380D02*
X74143390Y23804761D01*
X74143390Y23804761D02*
X74714819Y23233333D01*
X74714819Y23233333D02*
X74714819Y23852380D01*
X73714819Y24185714D02*
X73714819Y24852380D01*
X73714819Y24852380D02*
X74714819Y24423809D01*
X74619580Y25804761D02*
X74667200Y25757142D01*
X74667200Y25757142D02*
X74714819Y25614285D01*
X74714819Y25614285D02*
X74714819Y25519047D01*
X74714819Y25519047D02*
X74667200Y25376190D01*
X74667200Y25376190D02*
X74571961Y25280952D01*
X74571961Y25280952D02*
X74476723Y25233333D01*
X74476723Y25233333D02*
X74286247Y25185714D01*
X74286247Y25185714D02*
X74143390Y25185714D01*
X74143390Y25185714D02*
X73952914Y25233333D01*
X73952914Y25233333D02*
X73857676Y25280952D01*
X73857676Y25280952D02*
X73762438Y25376190D01*
X73762438Y25376190D02*
X73714819Y25519047D01*
X73714819Y25519047D02*
X73714819Y25614285D01*
X73714819Y25614285D02*
X73762438Y25757142D01*
X73762438Y25757142D02*
X73810057Y25804761D01*
X73714819Y26709523D02*
X73714819Y26233333D01*
X73714819Y26233333D02*
X74191009Y26185714D01*
X74191009Y26185714D02*
X74143390Y26233333D01*
X74143390Y26233333D02*
X74095771Y26328571D01*
X74095771Y26328571D02*
X74095771Y26566666D01*
X74095771Y26566666D02*
X74143390Y26661904D01*
X74143390Y26661904D02*
X74191009Y26709523D01*
X74191009Y26709523D02*
X74286247Y26757142D01*
X74286247Y26757142D02*
X74524342Y26757142D01*
X74524342Y26757142D02*
X74619580Y26709523D01*
X74619580Y26709523D02*
X74667200Y26661904D01*
X74667200Y26661904D02*
X74714819Y26566666D01*
X74714819Y26566666D02*
X74714819Y26328571D01*
X74714819Y26328571D02*
X74667200Y26233333D01*
X74667200Y26233333D02*
X74619580Y26185714D01*
X74714819Y27709523D02*
X74714819Y27138095D01*
X74714819Y27423809D02*
X73714819Y27423809D01*
X73714819Y27423809D02*
X73857676Y27328571D01*
X73857676Y27328571D02*
X73952914Y27233333D01*
X73952914Y27233333D02*
X74000533Y27138095D01*
X73810057Y28090476D02*
X73762438Y28138095D01*
X73762438Y28138095D02*
X73714819Y28233333D01*
X73714819Y28233333D02*
X73714819Y28471428D01*
X73714819Y28471428D02*
X73762438Y28566666D01*
X73762438Y28566666D02*
X73810057Y28614285D01*
X73810057Y28614285D02*
X73905295Y28661904D01*
X73905295Y28661904D02*
X74000533Y28661904D01*
X74000533Y28661904D02*
X74143390Y28614285D01*
X74143390Y28614285D02*
X74714819Y28042857D01*
X74714819Y28042857D02*
X74714819Y28661904D01*
D13*
X107587819Y82716666D02*
X107540200Y82764285D01*
X107540200Y82764285D02*
X107492580Y82907142D01*
X107492580Y82907142D02*
X107492580Y83002380D01*
X107492580Y83002380D02*
X107540200Y83145237D01*
X107540200Y83145237D02*
X107635438Y83240475D01*
X107635438Y83240475D02*
X107730676Y83288094D01*
X107730676Y83288094D02*
X107921152Y83335713D01*
X107921152Y83335713D02*
X108064009Y83335713D01*
X108064009Y83335713D02*
X108254485Y83288094D01*
X108254485Y83288094D02*
X108349723Y83240475D01*
X108349723Y83240475D02*
X108444961Y83145237D01*
X108444961Y83145237D02*
X108492580Y83002380D01*
X108492580Y83002380D02*
X108492580Y82907142D01*
X108492580Y82907142D02*
X108444961Y82764285D01*
X108444961Y82764285D02*
X108397342Y82716666D01*
X108492580Y81859523D02*
X108492580Y82049999D01*
X108492580Y82049999D02*
X108444961Y82145237D01*
X108444961Y82145237D02*
X108397342Y82192856D01*
X108397342Y82192856D02*
X108254485Y82288094D01*
X108254485Y82288094D02*
X108064009Y82335713D01*
X108064009Y82335713D02*
X107683057Y82335713D01*
X107683057Y82335713D02*
X107587819Y82288094D01*
X107587819Y82288094D02*
X107540200Y82240475D01*
X107540200Y82240475D02*
X107492580Y82145237D01*
X107492580Y82145237D02*
X107492580Y81954761D01*
X107492580Y81954761D02*
X107540200Y81859523D01*
X107540200Y81859523D02*
X107587819Y81811904D01*
X107587819Y81811904D02*
X107683057Y81764285D01*
X107683057Y81764285D02*
X107921152Y81764285D01*
X107921152Y81764285D02*
X108016390Y81811904D01*
X108016390Y81811904D02*
X108064009Y81859523D01*
X108064009Y81859523D02*
X108111628Y81954761D01*
X108111628Y81954761D02*
X108111628Y82145237D01*
X108111628Y82145237D02*
X108064009Y82240475D01*
X108064009Y82240475D02*
X108016390Y82288094D01*
X108016390Y82288094D02*
X107921152Y82335713D01*
D10*
X130071905Y77015180D02*
X130071905Y78015180D01*
X130071905Y78015180D02*
X130310000Y78015180D01*
X130310000Y78015180D02*
X130452857Y77967561D01*
X130452857Y77967561D02*
X130548095Y77872323D01*
X130548095Y77872323D02*
X130595714Y77777085D01*
X130595714Y77777085D02*
X130643333Y77586609D01*
X130643333Y77586609D02*
X130643333Y77443752D01*
X130643333Y77443752D02*
X130595714Y77253276D01*
X130595714Y77253276D02*
X130548095Y77158038D01*
X130548095Y77158038D02*
X130452857Y77062800D01*
X130452857Y77062800D02*
X130310000Y77015180D01*
X130310000Y77015180D02*
X130071905Y77015180D01*
X131024286Y77919942D02*
X131071905Y77967561D01*
X131071905Y77967561D02*
X131167143Y78015180D01*
X131167143Y78015180D02*
X131405238Y78015180D01*
X131405238Y78015180D02*
X131500476Y77967561D01*
X131500476Y77967561D02*
X131548095Y77919942D01*
X131548095Y77919942D02*
X131595714Y77824704D01*
X131595714Y77824704D02*
X131595714Y77729466D01*
X131595714Y77729466D02*
X131548095Y77586609D01*
X131548095Y77586609D02*
X130976667Y77015180D01*
X130976667Y77015180D02*
X131595714Y77015180D01*
X129571904Y69395180D02*
X129238571Y69871371D01*
X129000476Y69395180D02*
X129000476Y70395180D01*
X129000476Y70395180D02*
X129381428Y70395180D01*
X129381428Y70395180D02*
X129476666Y70347561D01*
X129476666Y70347561D02*
X129524285Y70299942D01*
X129524285Y70299942D02*
X129571904Y70204704D01*
X129571904Y70204704D02*
X129571904Y70061847D01*
X129571904Y70061847D02*
X129524285Y69966609D01*
X129524285Y69966609D02*
X129476666Y69918990D01*
X129476666Y69918990D02*
X129381428Y69871371D01*
X129381428Y69871371D02*
X129000476Y69871371D01*
X130381428Y69442800D02*
X130286190Y69395180D01*
X130286190Y69395180D02*
X130095714Y69395180D01*
X130095714Y69395180D02*
X130000476Y69442800D01*
X130000476Y69442800D02*
X129952857Y69538038D01*
X129952857Y69538038D02*
X129952857Y69918990D01*
X129952857Y69918990D02*
X130000476Y70014228D01*
X130000476Y70014228D02*
X130095714Y70061847D01*
X130095714Y70061847D02*
X130286190Y70061847D01*
X130286190Y70061847D02*
X130381428Y70014228D01*
X130381428Y70014228D02*
X130429047Y69918990D01*
X130429047Y69918990D02*
X130429047Y69823752D01*
X130429047Y69823752D02*
X129952857Y69728514D01*
X130810000Y69442800D02*
X130905238Y69395180D01*
X130905238Y69395180D02*
X131095714Y69395180D01*
X131095714Y69395180D02*
X131190952Y69442800D01*
X131190952Y69442800D02*
X131238571Y69538038D01*
X131238571Y69538038D02*
X131238571Y69585657D01*
X131238571Y69585657D02*
X131190952Y69680895D01*
X131190952Y69680895D02*
X131095714Y69728514D01*
X131095714Y69728514D02*
X130952857Y69728514D01*
X130952857Y69728514D02*
X130857619Y69776133D01*
X130857619Y69776133D02*
X130810000Y69871371D01*
X130810000Y69871371D02*
X130810000Y69918990D01*
X130810000Y69918990D02*
X130857619Y70014228D01*
X130857619Y70014228D02*
X130952857Y70061847D01*
X130952857Y70061847D02*
X131095714Y70061847D01*
X131095714Y70061847D02*
X131190952Y70014228D01*
X132048095Y69442800D02*
X131952857Y69395180D01*
X131952857Y69395180D02*
X131762381Y69395180D01*
X131762381Y69395180D02*
X131667143Y69442800D01*
X131667143Y69442800D02*
X131619524Y69538038D01*
X131619524Y69538038D02*
X131619524Y69918990D01*
X131619524Y69918990D02*
X131667143Y70014228D01*
X131667143Y70014228D02*
X131762381Y70061847D01*
X131762381Y70061847D02*
X131952857Y70061847D01*
X131952857Y70061847D02*
X132048095Y70014228D01*
X132048095Y70014228D02*
X132095714Y69918990D01*
X132095714Y69918990D02*
X132095714Y69823752D01*
X132095714Y69823752D02*
X131619524Y69728514D01*
X132381429Y70061847D02*
X132762381Y70061847D01*
X132524286Y70395180D02*
X132524286Y69538038D01*
X132524286Y69538038D02*
X132571905Y69442800D01*
X132571905Y69442800D02*
X132667143Y69395180D01*
X132667143Y69395180D02*
X132762381Y69395180D01*
X90039580Y92543333D02*
X90087200Y92495714D01*
X90087200Y92495714D02*
X90134819Y92352857D01*
X90134819Y92352857D02*
X90134819Y92257619D01*
X90134819Y92257619D02*
X90087200Y92114762D01*
X90087200Y92114762D02*
X89991961Y92019524D01*
X89991961Y92019524D02*
X89896723Y91971905D01*
X89896723Y91971905D02*
X89706247Y91924286D01*
X89706247Y91924286D02*
X89563390Y91924286D01*
X89563390Y91924286D02*
X89372914Y91971905D01*
X89372914Y91971905D02*
X89277676Y92019524D01*
X89277676Y92019524D02*
X89182438Y92114762D01*
X89182438Y92114762D02*
X89134819Y92257619D01*
X89134819Y92257619D02*
X89134819Y92352857D01*
X89134819Y92352857D02*
X89182438Y92495714D01*
X89182438Y92495714D02*
X89230057Y92543333D01*
X89468152Y93400476D02*
X90134819Y93400476D01*
X89087200Y93162381D02*
X89801485Y92924286D01*
X89801485Y92924286D02*
X89801485Y93543333D01*
X88209523Y27345180D02*
X87876190Y27821371D01*
X87638095Y27345180D02*
X87638095Y28345180D01*
X87638095Y28345180D02*
X88019047Y28345180D01*
X88019047Y28345180D02*
X88114285Y28297561D01*
X88114285Y28297561D02*
X88161904Y28249942D01*
X88161904Y28249942D02*
X88209523Y28154704D01*
X88209523Y28154704D02*
X88209523Y28011847D01*
X88209523Y28011847D02*
X88161904Y27916609D01*
X88161904Y27916609D02*
X88114285Y27868990D01*
X88114285Y27868990D02*
X88019047Y27821371D01*
X88019047Y27821371D02*
X87638095Y27821371D01*
X88638095Y27345180D02*
X88638095Y28345180D01*
X88638095Y28345180D02*
X89209523Y27345180D01*
X89209523Y27345180D02*
X89209523Y28345180D01*
X89590476Y28345180D02*
X90209523Y28345180D01*
X90209523Y28345180D02*
X89876190Y27964228D01*
X89876190Y27964228D02*
X90019047Y27964228D01*
X90019047Y27964228D02*
X90114285Y27916609D01*
X90114285Y27916609D02*
X90161904Y27868990D01*
X90161904Y27868990D02*
X90209523Y27773752D01*
X90209523Y27773752D02*
X90209523Y27535657D01*
X90209523Y27535657D02*
X90161904Y27440419D01*
X90161904Y27440419D02*
X90114285Y27392800D01*
X90114285Y27392800D02*
X90019047Y27345180D01*
X90019047Y27345180D02*
X89733333Y27345180D01*
X89733333Y27345180D02*
X89638095Y27392800D01*
X89638095Y27392800D02*
X89590476Y27440419D01*
X87114286Y23545180D02*
X87733333Y23545180D01*
X87733333Y23545180D02*
X87400000Y23164228D01*
X87400000Y23164228D02*
X87542857Y23164228D01*
X87542857Y23164228D02*
X87638095Y23116609D01*
X87638095Y23116609D02*
X87685714Y23068990D01*
X87685714Y23068990D02*
X87733333Y22973752D01*
X87733333Y22973752D02*
X87733333Y22735657D01*
X87733333Y22735657D02*
X87685714Y22640419D01*
X87685714Y22640419D02*
X87638095Y22592800D01*
X87638095Y22592800D02*
X87542857Y22545180D01*
X87542857Y22545180D02*
X87257143Y22545180D01*
X87257143Y22545180D02*
X87161905Y22592800D01*
X87161905Y22592800D02*
X87114286Y22640419D01*
X88066667Y23545180D02*
X88685714Y23545180D01*
X88685714Y23545180D02*
X88352381Y23164228D01*
X88352381Y23164228D02*
X88495238Y23164228D01*
X88495238Y23164228D02*
X88590476Y23116609D01*
X88590476Y23116609D02*
X88638095Y23068990D01*
X88638095Y23068990D02*
X88685714Y22973752D01*
X88685714Y22973752D02*
X88685714Y22735657D01*
X88685714Y22735657D02*
X88638095Y22640419D01*
X88638095Y22640419D02*
X88590476Y22592800D01*
X88590476Y22592800D02*
X88495238Y22545180D01*
X88495238Y22545180D02*
X88209524Y22545180D01*
X88209524Y22545180D02*
X88114286Y22592800D01*
X88114286Y22592800D02*
X88066667Y22640419D01*
X89304762Y23545180D02*
X89400000Y23545180D01*
X89400000Y23545180D02*
X89495238Y23497561D01*
X89495238Y23497561D02*
X89542857Y23449942D01*
X89542857Y23449942D02*
X89590476Y23354704D01*
X89590476Y23354704D02*
X89638095Y23164228D01*
X89638095Y23164228D02*
X89638095Y22926133D01*
X89638095Y22926133D02*
X89590476Y22735657D01*
X89590476Y22735657D02*
X89542857Y22640419D01*
X89542857Y22640419D02*
X89495238Y22592800D01*
X89495238Y22592800D02*
X89400000Y22545180D01*
X89400000Y22545180D02*
X89304762Y22545180D01*
X89304762Y22545180D02*
X89209524Y22592800D01*
X89209524Y22592800D02*
X89161905Y22640419D01*
X89161905Y22640419D02*
X89114286Y22735657D01*
X89114286Y22735657D02*
X89066667Y22926133D01*
X89066667Y22926133D02*
X89066667Y23164228D01*
X89066667Y23164228D02*
X89114286Y23354704D01*
X89114286Y23354704D02*
X89161905Y23449942D01*
X89161905Y23449942D02*
X89209524Y23497561D01*
X89209524Y23497561D02*
X89304762Y23545180D01*
X90638095Y22545180D02*
X90304762Y23021371D01*
X90066667Y22545180D02*
X90066667Y23545180D01*
X90066667Y23545180D02*
X90447619Y23545180D01*
X90447619Y23545180D02*
X90542857Y23497561D01*
X90542857Y23497561D02*
X90590476Y23449942D01*
X90590476Y23449942D02*
X90638095Y23354704D01*
X90638095Y23354704D02*
X90638095Y23211847D01*
X90638095Y23211847D02*
X90590476Y23116609D01*
X90590476Y23116609D02*
X90542857Y23068990D01*
X90542857Y23068990D02*
X90447619Y23021371D01*
X90447619Y23021371D02*
X90066667Y23021371D01*
X125996666Y93295180D02*
X125996666Y92580895D01*
X125996666Y92580895D02*
X125949047Y92438038D01*
X125949047Y92438038D02*
X125853809Y92342800D01*
X125853809Y92342800D02*
X125710952Y92295180D01*
X125710952Y92295180D02*
X125615714Y92295180D01*
X126996666Y92295180D02*
X126425238Y92295180D01*
X126710952Y92295180D02*
X126710952Y93295180D01*
X126710952Y93295180D02*
X126615714Y93152323D01*
X126615714Y93152323D02*
X126520476Y93057085D01*
X126520476Y93057085D02*
X126425238Y93009466D01*
X74594819Y33051905D02*
X75404342Y33051905D01*
X75404342Y33051905D02*
X75499580Y33099524D01*
X75499580Y33099524D02*
X75547200Y33147143D01*
X75547200Y33147143D02*
X75594819Y33242381D01*
X75594819Y33242381D02*
X75594819Y33432857D01*
X75594819Y33432857D02*
X75547200Y33528095D01*
X75547200Y33528095D02*
X75499580Y33575714D01*
X75499580Y33575714D02*
X75404342Y33623333D01*
X75404342Y33623333D02*
X74594819Y33623333D01*
X75594819Y34623333D02*
X75594819Y34051905D01*
X75594819Y34337619D02*
X74594819Y34337619D01*
X74594819Y34337619D02*
X74737676Y34242381D01*
X74737676Y34242381D02*
X74832914Y34147143D01*
X74832914Y34147143D02*
X74880533Y34051905D01*
X74594819Y34956667D02*
X74594819Y35575714D01*
X74594819Y35575714D02*
X74975771Y35242381D01*
X74975771Y35242381D02*
X74975771Y35385238D01*
X74975771Y35385238D02*
X75023390Y35480476D01*
X75023390Y35480476D02*
X75071009Y35528095D01*
X75071009Y35528095D02*
X75166247Y35575714D01*
X75166247Y35575714D02*
X75404342Y35575714D01*
X75404342Y35575714D02*
X75499580Y35528095D01*
X75499580Y35528095D02*
X75547200Y35480476D01*
X75547200Y35480476D02*
X75594819Y35385238D01*
X75594819Y35385238D02*
X75594819Y35099524D01*
X75594819Y35099524D02*
X75547200Y35004286D01*
X75547200Y35004286D02*
X75499580Y34956667D01*
X102114819Y31028095D02*
X102114819Y31694761D01*
X102114819Y31694761D02*
X103114819Y31266190D01*
X102448152Y32504285D02*
X103114819Y32504285D01*
X102067200Y32266190D02*
X102781485Y32028095D01*
X102781485Y32028095D02*
X102781485Y32647142D01*
X103114819Y33028095D02*
X102114819Y33028095D01*
X102591009Y33028095D02*
X102591009Y33599523D01*
X103114819Y33599523D02*
X102114819Y33599523D01*
X103019580Y34647142D02*
X103067200Y34599523D01*
X103067200Y34599523D02*
X103114819Y34456666D01*
X103114819Y34456666D02*
X103114819Y34361428D01*
X103114819Y34361428D02*
X103067200Y34218571D01*
X103067200Y34218571D02*
X102971961Y34123333D01*
X102971961Y34123333D02*
X102876723Y34075714D01*
X102876723Y34075714D02*
X102686247Y34028095D01*
X102686247Y34028095D02*
X102543390Y34028095D01*
X102543390Y34028095D02*
X102352914Y34075714D01*
X102352914Y34075714D02*
X102257676Y34123333D01*
X102257676Y34123333D02*
X102162438Y34218571D01*
X102162438Y34218571D02*
X102114819Y34361428D01*
X102114819Y34361428D02*
X102114819Y34456666D01*
X102114819Y34456666D02*
X102162438Y34599523D01*
X102162438Y34599523D02*
X102210057Y34647142D01*
X102210057Y35028095D02*
X102162438Y35075714D01*
X102162438Y35075714D02*
X102114819Y35170952D01*
X102114819Y35170952D02*
X102114819Y35409047D01*
X102114819Y35409047D02*
X102162438Y35504285D01*
X102162438Y35504285D02*
X102210057Y35551904D01*
X102210057Y35551904D02*
X102305295Y35599523D01*
X102305295Y35599523D02*
X102400533Y35599523D01*
X102400533Y35599523D02*
X102543390Y35551904D01*
X102543390Y35551904D02*
X103114819Y34980476D01*
X103114819Y34980476D02*
X103114819Y35599523D01*
X102114819Y35932857D02*
X102114819Y36599523D01*
X102114819Y36599523D02*
X103114819Y36170952D01*
X102114819Y36885238D02*
X102114819Y37504285D01*
X102114819Y37504285D02*
X102495771Y37170952D01*
X102495771Y37170952D02*
X102495771Y37313809D01*
X102495771Y37313809D02*
X102543390Y37409047D01*
X102543390Y37409047D02*
X102591009Y37456666D01*
X102591009Y37456666D02*
X102686247Y37504285D01*
X102686247Y37504285D02*
X102924342Y37504285D01*
X102924342Y37504285D02*
X103019580Y37456666D01*
X103019580Y37456666D02*
X103067200Y37409047D01*
X103067200Y37409047D02*
X103114819Y37313809D01*
X103114819Y37313809D02*
X103114819Y37028095D01*
X103114819Y37028095D02*
X103067200Y36932857D01*
X103067200Y36932857D02*
X103019580Y36885238D01*
X75524819Y47549523D02*
X75048628Y47216190D01*
X75524819Y46978095D02*
X74524819Y46978095D01*
X74524819Y46978095D02*
X74524819Y47359047D01*
X74524819Y47359047D02*
X74572438Y47454285D01*
X74572438Y47454285D02*
X74620057Y47501904D01*
X74620057Y47501904D02*
X74715295Y47549523D01*
X74715295Y47549523D02*
X74858152Y47549523D01*
X74858152Y47549523D02*
X74953390Y47501904D01*
X74953390Y47501904D02*
X75001009Y47454285D01*
X75001009Y47454285D02*
X75048628Y47359047D01*
X75048628Y47359047D02*
X75048628Y46978095D01*
X75524819Y47978095D02*
X74524819Y47978095D01*
X74524819Y47978095D02*
X75524819Y48549523D01*
X75524819Y48549523D02*
X74524819Y48549523D01*
X75524819Y49549523D02*
X75524819Y48978095D01*
X75524819Y49263809D02*
X74524819Y49263809D01*
X74524819Y49263809D02*
X74667676Y49168571D01*
X74667676Y49168571D02*
X74762914Y49073333D01*
X74762914Y49073333D02*
X74810533Y48978095D01*
X126873333Y66855180D02*
X126540000Y67331371D01*
X126301905Y66855180D02*
X126301905Y67855180D01*
X126301905Y67855180D02*
X126682857Y67855180D01*
X126682857Y67855180D02*
X126778095Y67807561D01*
X126778095Y67807561D02*
X126825714Y67759942D01*
X126825714Y67759942D02*
X126873333Y67664704D01*
X126873333Y67664704D02*
X126873333Y67521847D01*
X126873333Y67521847D02*
X126825714Y67426609D01*
X126825714Y67426609D02*
X126778095Y67378990D01*
X126778095Y67378990D02*
X126682857Y67331371D01*
X126682857Y67331371D02*
X126301905Y67331371D01*
X127206667Y67855180D02*
X127825714Y67855180D01*
X127825714Y67855180D02*
X127492381Y67474228D01*
X127492381Y67474228D02*
X127635238Y67474228D01*
X127635238Y67474228D02*
X127730476Y67426609D01*
X127730476Y67426609D02*
X127778095Y67378990D01*
X127778095Y67378990D02*
X127825714Y67283752D01*
X127825714Y67283752D02*
X127825714Y67045657D01*
X127825714Y67045657D02*
X127778095Y66950419D01*
X127778095Y66950419D02*
X127730476Y66902800D01*
X127730476Y66902800D02*
X127635238Y66855180D01*
X127635238Y66855180D02*
X127349524Y66855180D01*
X127349524Y66855180D02*
X127254286Y66902800D01*
X127254286Y66902800D02*
X127206667Y66950419D01*
X127454819Y72969523D02*
X127454819Y72398095D01*
X127454819Y72683809D02*
X126454819Y72683809D01*
X126454819Y72683809D02*
X126597676Y72588571D01*
X126597676Y72588571D02*
X126692914Y72493333D01*
X126692914Y72493333D02*
X126740533Y72398095D01*
X126454819Y73588571D02*
X126454819Y73683809D01*
X126454819Y73683809D02*
X126502438Y73779047D01*
X126502438Y73779047D02*
X126550057Y73826666D01*
X126550057Y73826666D02*
X126645295Y73874285D01*
X126645295Y73874285D02*
X126835771Y73921904D01*
X126835771Y73921904D02*
X127073866Y73921904D01*
X127073866Y73921904D02*
X127264342Y73874285D01*
X127264342Y73874285D02*
X127359580Y73826666D01*
X127359580Y73826666D02*
X127407200Y73779047D01*
X127407200Y73779047D02*
X127454819Y73683809D01*
X127454819Y73683809D02*
X127454819Y73588571D01*
X127454819Y73588571D02*
X127407200Y73493333D01*
X127407200Y73493333D02*
X127359580Y73445714D01*
X127359580Y73445714D02*
X127264342Y73398095D01*
X127264342Y73398095D02*
X127073866Y73350476D01*
X127073866Y73350476D02*
X126835771Y73350476D01*
X126835771Y73350476D02*
X126645295Y73398095D01*
X126645295Y73398095D02*
X126550057Y73445714D01*
X126550057Y73445714D02*
X126502438Y73493333D01*
X126502438Y73493333D02*
X126454819Y73588571D01*
X127454819Y74350476D02*
X126454819Y74350476D01*
X127454819Y74921904D02*
X126883390Y74493333D01*
X126454819Y74921904D02*
X127026247Y74350476D01*
X107188095Y103205180D02*
X107188095Y102395657D01*
X107188095Y102395657D02*
X107235714Y102300419D01*
X107235714Y102300419D02*
X107283333Y102252800D01*
X107283333Y102252800D02*
X107378571Y102205180D01*
X107378571Y102205180D02*
X107569047Y102205180D01*
X107569047Y102205180D02*
X107664285Y102252800D01*
X107664285Y102252800D02*
X107711904Y102300419D01*
X107711904Y102300419D02*
X107759523Y102395657D01*
X107759523Y102395657D02*
X107759523Y103205180D01*
X108140476Y103205180D02*
X108759523Y103205180D01*
X108759523Y103205180D02*
X108426190Y102824228D01*
X108426190Y102824228D02*
X108569047Y102824228D01*
X108569047Y102824228D02*
X108664285Y102776609D01*
X108664285Y102776609D02*
X108711904Y102728990D01*
X108711904Y102728990D02*
X108759523Y102633752D01*
X108759523Y102633752D02*
X108759523Y102395657D01*
X108759523Y102395657D02*
X108711904Y102300419D01*
X108711904Y102300419D02*
X108664285Y102252800D01*
X108664285Y102252800D02*
X108569047Y102205180D01*
X108569047Y102205180D02*
X108283333Y102205180D01*
X108283333Y102205180D02*
X108188095Y102252800D01*
X108188095Y102252800D02*
X108140476Y102300419D01*
X101259524Y59730895D02*
X101735714Y59730895D01*
X101164286Y59445180D02*
X101497619Y60445180D01*
X101497619Y60445180D02*
X101830952Y59445180D01*
X102116667Y59492800D02*
X102259524Y59445180D01*
X102259524Y59445180D02*
X102497619Y59445180D01*
X102497619Y59445180D02*
X102592857Y59492800D01*
X102592857Y59492800D02*
X102640476Y59540419D01*
X102640476Y59540419D02*
X102688095Y59635657D01*
X102688095Y59635657D02*
X102688095Y59730895D01*
X102688095Y59730895D02*
X102640476Y59826133D01*
X102640476Y59826133D02*
X102592857Y59873752D01*
X102592857Y59873752D02*
X102497619Y59921371D01*
X102497619Y59921371D02*
X102307143Y59968990D01*
X102307143Y59968990D02*
X102211905Y60016609D01*
X102211905Y60016609D02*
X102164286Y60064228D01*
X102164286Y60064228D02*
X102116667Y60159466D01*
X102116667Y60159466D02*
X102116667Y60254704D01*
X102116667Y60254704D02*
X102164286Y60349942D01*
X102164286Y60349942D02*
X102211905Y60397561D01*
X102211905Y60397561D02*
X102307143Y60445180D01*
X102307143Y60445180D02*
X102545238Y60445180D01*
X102545238Y60445180D02*
X102688095Y60397561D01*
X103545238Y60445180D02*
X103354762Y60445180D01*
X103354762Y60445180D02*
X103259524Y60397561D01*
X103259524Y60397561D02*
X103211905Y60349942D01*
X103211905Y60349942D02*
X103116667Y60207085D01*
X103116667Y60207085D02*
X103069048Y60016609D01*
X103069048Y60016609D02*
X103069048Y59635657D01*
X103069048Y59635657D02*
X103116667Y59540419D01*
X103116667Y59540419D02*
X103164286Y59492800D01*
X103164286Y59492800D02*
X103259524Y59445180D01*
X103259524Y59445180D02*
X103450000Y59445180D01*
X103450000Y59445180D02*
X103545238Y59492800D01*
X103545238Y59492800D02*
X103592857Y59540419D01*
X103592857Y59540419D02*
X103640476Y59635657D01*
X103640476Y59635657D02*
X103640476Y59873752D01*
X103640476Y59873752D02*
X103592857Y59968990D01*
X103592857Y59968990D02*
X103545238Y60016609D01*
X103545238Y60016609D02*
X103450000Y60064228D01*
X103450000Y60064228D02*
X103259524Y60064228D01*
X103259524Y60064228D02*
X103164286Y60016609D01*
X103164286Y60016609D02*
X103116667Y59968990D01*
X103116667Y59968990D02*
X103069048Y59873752D01*
X104640476Y59540419D02*
X104592857Y59492800D01*
X104592857Y59492800D02*
X104450000Y59445180D01*
X104450000Y59445180D02*
X104354762Y59445180D01*
X104354762Y59445180D02*
X104211905Y59492800D01*
X104211905Y59492800D02*
X104116667Y59588038D01*
X104116667Y59588038D02*
X104069048Y59683276D01*
X104069048Y59683276D02*
X104021429Y59873752D01*
X104021429Y59873752D02*
X104021429Y60016609D01*
X104021429Y60016609D02*
X104069048Y60207085D01*
X104069048Y60207085D02*
X104116667Y60302323D01*
X104116667Y60302323D02*
X104211905Y60397561D01*
X104211905Y60397561D02*
X104354762Y60445180D01*
X104354762Y60445180D02*
X104450000Y60445180D01*
X104450000Y60445180D02*
X104592857Y60397561D01*
X104592857Y60397561D02*
X104640476Y60349942D01*
X105497619Y60111847D02*
X105497619Y59445180D01*
X105259524Y60492800D02*
X105021429Y59778514D01*
X105021429Y59778514D02*
X105640476Y59778514D01*
X106211905Y60445180D02*
X106307143Y60445180D01*
X106307143Y60445180D02*
X106402381Y60397561D01*
X106402381Y60397561D02*
X106450000Y60349942D01*
X106450000Y60349942D02*
X106497619Y60254704D01*
X106497619Y60254704D02*
X106545238Y60064228D01*
X106545238Y60064228D02*
X106545238Y59826133D01*
X106545238Y59826133D02*
X106497619Y59635657D01*
X106497619Y59635657D02*
X106450000Y59540419D01*
X106450000Y59540419D02*
X106402381Y59492800D01*
X106402381Y59492800D02*
X106307143Y59445180D01*
X106307143Y59445180D02*
X106211905Y59445180D01*
X106211905Y59445180D02*
X106116667Y59492800D01*
X106116667Y59492800D02*
X106069048Y59540419D01*
X106069048Y59540419D02*
X106021429Y59635657D01*
X106021429Y59635657D02*
X105973810Y59826133D01*
X105973810Y59826133D02*
X105973810Y60064228D01*
X105973810Y60064228D02*
X106021429Y60254704D01*
X106021429Y60254704D02*
X106069048Y60349942D01*
X106069048Y60349942D02*
X106116667Y60397561D01*
X106116667Y60397561D02*
X106211905Y60445180D01*
X107164286Y60445180D02*
X107259524Y60445180D01*
X107259524Y60445180D02*
X107354762Y60397561D01*
X107354762Y60397561D02*
X107402381Y60349942D01*
X107402381Y60349942D02*
X107450000Y60254704D01*
X107450000Y60254704D02*
X107497619Y60064228D01*
X107497619Y60064228D02*
X107497619Y59826133D01*
X107497619Y59826133D02*
X107450000Y59635657D01*
X107450000Y59635657D02*
X107402381Y59540419D01*
X107402381Y59540419D02*
X107354762Y59492800D01*
X107354762Y59492800D02*
X107259524Y59445180D01*
X107259524Y59445180D02*
X107164286Y59445180D01*
X107164286Y59445180D02*
X107069048Y59492800D01*
X107069048Y59492800D02*
X107021429Y59540419D01*
X107021429Y59540419D02*
X106973810Y59635657D01*
X106973810Y59635657D02*
X106926191Y59826133D01*
X106926191Y59826133D02*
X106926191Y60064228D01*
X106926191Y60064228D02*
X106973810Y60254704D01*
X106973810Y60254704D02*
X107021429Y60349942D01*
X107021429Y60349942D02*
X107069048Y60397561D01*
X107069048Y60397561D02*
X107164286Y60445180D01*
X108069048Y60016609D02*
X107973810Y60064228D01*
X107973810Y60064228D02*
X107926191Y60111847D01*
X107926191Y60111847D02*
X107878572Y60207085D01*
X107878572Y60207085D02*
X107878572Y60254704D01*
X107878572Y60254704D02*
X107926191Y60349942D01*
X107926191Y60349942D02*
X107973810Y60397561D01*
X107973810Y60397561D02*
X108069048Y60445180D01*
X108069048Y60445180D02*
X108259524Y60445180D01*
X108259524Y60445180D02*
X108354762Y60397561D01*
X108354762Y60397561D02*
X108402381Y60349942D01*
X108402381Y60349942D02*
X108450000Y60254704D01*
X108450000Y60254704D02*
X108450000Y60207085D01*
X108450000Y60207085D02*
X108402381Y60111847D01*
X108402381Y60111847D02*
X108354762Y60064228D01*
X108354762Y60064228D02*
X108259524Y60016609D01*
X108259524Y60016609D02*
X108069048Y60016609D01*
X108069048Y60016609D02*
X107973810Y59968990D01*
X107973810Y59968990D02*
X107926191Y59921371D01*
X107926191Y59921371D02*
X107878572Y59826133D01*
X107878572Y59826133D02*
X107878572Y59635657D01*
X107878572Y59635657D02*
X107926191Y59540419D01*
X107926191Y59540419D02*
X107973810Y59492800D01*
X107973810Y59492800D02*
X108069048Y59445180D01*
X108069048Y59445180D02*
X108259524Y59445180D01*
X108259524Y59445180D02*
X108354762Y59492800D01*
X108354762Y59492800D02*
X108402381Y59540419D01*
X108402381Y59540419D02*
X108450000Y59635657D01*
X108450000Y59635657D02*
X108450000Y59826133D01*
X108450000Y59826133D02*
X108402381Y59921371D01*
X108402381Y59921371D02*
X108354762Y59968990D01*
X108354762Y59968990D02*
X108259524Y60016609D01*
X108878572Y59826133D02*
X109640477Y59826133D01*
X110592857Y60445180D02*
X110116667Y60445180D01*
X110116667Y60445180D02*
X110069048Y59968990D01*
X110069048Y59968990D02*
X110116667Y60016609D01*
X110116667Y60016609D02*
X110211905Y60064228D01*
X110211905Y60064228D02*
X110450000Y60064228D01*
X110450000Y60064228D02*
X110545238Y60016609D01*
X110545238Y60016609D02*
X110592857Y59968990D01*
X110592857Y59968990D02*
X110640476Y59873752D01*
X110640476Y59873752D02*
X110640476Y59635657D01*
X110640476Y59635657D02*
X110592857Y59540419D01*
X110592857Y59540419D02*
X110545238Y59492800D01*
X110545238Y59492800D02*
X110450000Y59445180D01*
X110450000Y59445180D02*
X110211905Y59445180D01*
X110211905Y59445180D02*
X110116667Y59492800D01*
X110116667Y59492800D02*
X110069048Y59540419D01*
X111545238Y60445180D02*
X111069048Y60445180D01*
X111069048Y60445180D02*
X111021429Y59968990D01*
X111021429Y59968990D02*
X111069048Y60016609D01*
X111069048Y60016609D02*
X111164286Y60064228D01*
X111164286Y60064228D02*
X111402381Y60064228D01*
X111402381Y60064228D02*
X111497619Y60016609D01*
X111497619Y60016609D02*
X111545238Y59968990D01*
X111545238Y59968990D02*
X111592857Y59873752D01*
X111592857Y59873752D02*
X111592857Y59635657D01*
X111592857Y59635657D02*
X111545238Y59540419D01*
X111545238Y59540419D02*
X111497619Y59492800D01*
X111497619Y59492800D02*
X111402381Y59445180D01*
X111402381Y59445180D02*
X111164286Y59445180D01*
X111164286Y59445180D02*
X111069048Y59492800D01*
X111069048Y59492800D02*
X111021429Y59540419D01*
X112021429Y59445180D02*
X112021429Y60445180D01*
X112021429Y60445180D02*
X112402381Y60445180D01*
X112402381Y60445180D02*
X112497619Y60397561D01*
X112497619Y60397561D02*
X112545238Y60349942D01*
X112545238Y60349942D02*
X112592857Y60254704D01*
X112592857Y60254704D02*
X112592857Y60111847D01*
X112592857Y60111847D02*
X112545238Y60016609D01*
X112545238Y60016609D02*
X112497619Y59968990D01*
X112497619Y59968990D02*
X112402381Y59921371D01*
X112402381Y59921371D02*
X112021429Y59921371D01*
X113592857Y59540419D02*
X113545238Y59492800D01*
X113545238Y59492800D02*
X113402381Y59445180D01*
X113402381Y59445180D02*
X113307143Y59445180D01*
X113307143Y59445180D02*
X113164286Y59492800D01*
X113164286Y59492800D02*
X113069048Y59588038D01*
X113069048Y59588038D02*
X113021429Y59683276D01*
X113021429Y59683276D02*
X112973810Y59873752D01*
X112973810Y59873752D02*
X112973810Y60016609D01*
X112973810Y60016609D02*
X113021429Y60207085D01*
X113021429Y60207085D02*
X113069048Y60302323D01*
X113069048Y60302323D02*
X113164286Y60397561D01*
X113164286Y60397561D02*
X113307143Y60445180D01*
X113307143Y60445180D02*
X113402381Y60445180D01*
X113402381Y60445180D02*
X113545238Y60397561D01*
X113545238Y60397561D02*
X113592857Y60349942D01*
X114021429Y59445180D02*
X114021429Y60445180D01*
X114021429Y60445180D02*
X114592857Y59445180D01*
X114592857Y59445180D02*
X114592857Y60445180D01*
X104076667Y22452800D02*
X104219524Y22405180D01*
X104219524Y22405180D02*
X104457619Y22405180D01*
X104457619Y22405180D02*
X104552857Y22452800D01*
X104552857Y22452800D02*
X104600476Y22500419D01*
X104600476Y22500419D02*
X104648095Y22595657D01*
X104648095Y22595657D02*
X104648095Y22690895D01*
X104648095Y22690895D02*
X104600476Y22786133D01*
X104600476Y22786133D02*
X104552857Y22833752D01*
X104552857Y22833752D02*
X104457619Y22881371D01*
X104457619Y22881371D02*
X104267143Y22928990D01*
X104267143Y22928990D02*
X104171905Y22976609D01*
X104171905Y22976609D02*
X104124286Y23024228D01*
X104124286Y23024228D02*
X104076667Y23119466D01*
X104076667Y23119466D02*
X104076667Y23214704D01*
X104076667Y23214704D02*
X104124286Y23309942D01*
X104124286Y23309942D02*
X104171905Y23357561D01*
X104171905Y23357561D02*
X104267143Y23405180D01*
X104267143Y23405180D02*
X104505238Y23405180D01*
X104505238Y23405180D02*
X104648095Y23357561D01*
X104981429Y23405180D02*
X105219524Y22405180D01*
X105219524Y22405180D02*
X105410000Y23119466D01*
X105410000Y23119466D02*
X105600476Y22405180D01*
X105600476Y22405180D02*
X105838572Y23405180D01*
X106648095Y23405180D02*
X106457619Y23405180D01*
X106457619Y23405180D02*
X106362381Y23357561D01*
X106362381Y23357561D02*
X106314762Y23309942D01*
X106314762Y23309942D02*
X106219524Y23167085D01*
X106219524Y23167085D02*
X106171905Y22976609D01*
X106171905Y22976609D02*
X106171905Y22595657D01*
X106171905Y22595657D02*
X106219524Y22500419D01*
X106219524Y22500419D02*
X106267143Y22452800D01*
X106267143Y22452800D02*
X106362381Y22405180D01*
X106362381Y22405180D02*
X106552857Y22405180D01*
X106552857Y22405180D02*
X106648095Y22452800D01*
X106648095Y22452800D02*
X106695714Y22500419D01*
X106695714Y22500419D02*
X106743333Y22595657D01*
X106743333Y22595657D02*
X106743333Y22833752D01*
X106743333Y22833752D02*
X106695714Y22928990D01*
X106695714Y22928990D02*
X106648095Y22976609D01*
X106648095Y22976609D02*
X106552857Y23024228D01*
X106552857Y23024228D02*
X106362381Y23024228D01*
X106362381Y23024228D02*
X106267143Y22976609D01*
X106267143Y22976609D02*
X106219524Y22928990D01*
X106219524Y22928990D02*
X106171905Y22833752D01*
X128287200Y12295714D02*
X128334819Y12438571D01*
X128334819Y12438571D02*
X128334819Y12676666D01*
X128334819Y12676666D02*
X128287200Y12771904D01*
X128287200Y12771904D02*
X128239580Y12819523D01*
X128239580Y12819523D02*
X128144342Y12867142D01*
X128144342Y12867142D02*
X128049104Y12867142D01*
X128049104Y12867142D02*
X127953866Y12819523D01*
X127953866Y12819523D02*
X127906247Y12771904D01*
X127906247Y12771904D02*
X127858628Y12676666D01*
X127858628Y12676666D02*
X127811009Y12486190D01*
X127811009Y12486190D02*
X127763390Y12390952D01*
X127763390Y12390952D02*
X127715771Y12343333D01*
X127715771Y12343333D02*
X127620533Y12295714D01*
X127620533Y12295714D02*
X127525295Y12295714D01*
X127525295Y12295714D02*
X127430057Y12343333D01*
X127430057Y12343333D02*
X127382438Y12390952D01*
X127382438Y12390952D02*
X127334819Y12486190D01*
X127334819Y12486190D02*
X127334819Y12724285D01*
X127334819Y12724285D02*
X127382438Y12867142D01*
X127334819Y13200476D02*
X128334819Y13438571D01*
X128334819Y13438571D02*
X127620533Y13629047D01*
X127620533Y13629047D02*
X128334819Y13819523D01*
X128334819Y13819523D02*
X127334819Y14057619D01*
X128430057Y14200476D02*
X128430057Y14962380D01*
X128334819Y15200476D02*
X127334819Y15200476D01*
X127334819Y15200476D02*
X127334819Y15438571D01*
X127334819Y15438571D02*
X127382438Y15581428D01*
X127382438Y15581428D02*
X127477676Y15676666D01*
X127477676Y15676666D02*
X127572914Y15724285D01*
X127572914Y15724285D02*
X127763390Y15771904D01*
X127763390Y15771904D02*
X127906247Y15771904D01*
X127906247Y15771904D02*
X128096723Y15724285D01*
X128096723Y15724285D02*
X128191961Y15676666D01*
X128191961Y15676666D02*
X128287200Y15581428D01*
X128287200Y15581428D02*
X128334819Y15438571D01*
X128334819Y15438571D02*
X128334819Y15200476D01*
X128334819Y16200476D02*
X127334819Y16200476D01*
X128334819Y16676666D02*
X127334819Y16676666D01*
X127334819Y16676666D02*
X127334819Y17057618D01*
X127334819Y17057618D02*
X127382438Y17152856D01*
X127382438Y17152856D02*
X127430057Y17200475D01*
X127430057Y17200475D02*
X127525295Y17248094D01*
X127525295Y17248094D02*
X127668152Y17248094D01*
X127668152Y17248094D02*
X127763390Y17200475D01*
X127763390Y17200475D02*
X127811009Y17152856D01*
X127811009Y17152856D02*
X127858628Y17057618D01*
X127858628Y17057618D02*
X127858628Y16676666D01*
X128430057Y17438571D02*
X128430057Y18200475D01*
X128334819Y18343333D02*
X127668152Y18867142D01*
X127668152Y18343333D02*
X128334819Y18867142D01*
X127334819Y19438571D02*
X127334819Y19533809D01*
X127334819Y19533809D02*
X127382438Y19629047D01*
X127382438Y19629047D02*
X127430057Y19676666D01*
X127430057Y19676666D02*
X127525295Y19724285D01*
X127525295Y19724285D02*
X127715771Y19771904D01*
X127715771Y19771904D02*
X127953866Y19771904D01*
X127953866Y19771904D02*
X128144342Y19724285D01*
X128144342Y19724285D02*
X128239580Y19676666D01*
X128239580Y19676666D02*
X128287200Y19629047D01*
X128287200Y19629047D02*
X128334819Y19533809D01*
X128334819Y19533809D02*
X128334819Y19438571D01*
X128334819Y19438571D02*
X128287200Y19343333D01*
X128287200Y19343333D02*
X128239580Y19295714D01*
X128239580Y19295714D02*
X128144342Y19248095D01*
X128144342Y19248095D02*
X127953866Y19200476D01*
X127953866Y19200476D02*
X127715771Y19200476D01*
X127715771Y19200476D02*
X127525295Y19248095D01*
X127525295Y19248095D02*
X127430057Y19295714D01*
X127430057Y19295714D02*
X127382438Y19343333D01*
X127382438Y19343333D02*
X127334819Y19438571D01*
X127763390Y20343333D02*
X127715771Y20248095D01*
X127715771Y20248095D02*
X127668152Y20200476D01*
X127668152Y20200476D02*
X127572914Y20152857D01*
X127572914Y20152857D02*
X127525295Y20152857D01*
X127525295Y20152857D02*
X127430057Y20200476D01*
X127430057Y20200476D02*
X127382438Y20248095D01*
X127382438Y20248095D02*
X127334819Y20343333D01*
X127334819Y20343333D02*
X127334819Y20533809D01*
X127334819Y20533809D02*
X127382438Y20629047D01*
X127382438Y20629047D02*
X127430057Y20676666D01*
X127430057Y20676666D02*
X127525295Y20724285D01*
X127525295Y20724285D02*
X127572914Y20724285D01*
X127572914Y20724285D02*
X127668152Y20676666D01*
X127668152Y20676666D02*
X127715771Y20629047D01*
X127715771Y20629047D02*
X127763390Y20533809D01*
X127763390Y20533809D02*
X127763390Y20343333D01*
X127763390Y20343333D02*
X127811009Y20248095D01*
X127811009Y20248095D02*
X127858628Y20200476D01*
X127858628Y20200476D02*
X127953866Y20152857D01*
X127953866Y20152857D02*
X128144342Y20152857D01*
X128144342Y20152857D02*
X128239580Y20200476D01*
X128239580Y20200476D02*
X128287200Y20248095D01*
X128287200Y20248095D02*
X128334819Y20343333D01*
X128334819Y20343333D02*
X128334819Y20533809D01*
X128334819Y20533809D02*
X128287200Y20629047D01*
X128287200Y20629047D02*
X128239580Y20676666D01*
X128239580Y20676666D02*
X128144342Y20724285D01*
X128144342Y20724285D02*
X127953866Y20724285D01*
X127953866Y20724285D02*
X127858628Y20676666D01*
X127858628Y20676666D02*
X127811009Y20629047D01*
X127811009Y20629047D02*
X127763390Y20533809D01*
X107783333Y51790419D02*
X107735714Y51742800D01*
X107735714Y51742800D02*
X107592857Y51695180D01*
X107592857Y51695180D02*
X107497619Y51695180D01*
X107497619Y51695180D02*
X107354762Y51742800D01*
X107354762Y51742800D02*
X107259524Y51838038D01*
X107259524Y51838038D02*
X107211905Y51933276D01*
X107211905Y51933276D02*
X107164286Y52123752D01*
X107164286Y52123752D02*
X107164286Y52266609D01*
X107164286Y52266609D02*
X107211905Y52457085D01*
X107211905Y52457085D02*
X107259524Y52552323D01*
X107259524Y52552323D02*
X107354762Y52647561D01*
X107354762Y52647561D02*
X107497619Y52695180D01*
X107497619Y52695180D02*
X107592857Y52695180D01*
X107592857Y52695180D02*
X107735714Y52647561D01*
X107735714Y52647561D02*
X107783333Y52599942D01*
X108354762Y52266609D02*
X108259524Y52314228D01*
X108259524Y52314228D02*
X108211905Y52361847D01*
X108211905Y52361847D02*
X108164286Y52457085D01*
X108164286Y52457085D02*
X108164286Y52504704D01*
X108164286Y52504704D02*
X108211905Y52599942D01*
X108211905Y52599942D02*
X108259524Y52647561D01*
X108259524Y52647561D02*
X108354762Y52695180D01*
X108354762Y52695180D02*
X108545238Y52695180D01*
X108545238Y52695180D02*
X108640476Y52647561D01*
X108640476Y52647561D02*
X108688095Y52599942D01*
X108688095Y52599942D02*
X108735714Y52504704D01*
X108735714Y52504704D02*
X108735714Y52457085D01*
X108735714Y52457085D02*
X108688095Y52361847D01*
X108688095Y52361847D02*
X108640476Y52314228D01*
X108640476Y52314228D02*
X108545238Y52266609D01*
X108545238Y52266609D02*
X108354762Y52266609D01*
X108354762Y52266609D02*
X108259524Y52218990D01*
X108259524Y52218990D02*
X108211905Y52171371D01*
X108211905Y52171371D02*
X108164286Y52076133D01*
X108164286Y52076133D02*
X108164286Y51885657D01*
X108164286Y51885657D02*
X108211905Y51790419D01*
X108211905Y51790419D02*
X108259524Y51742800D01*
X108259524Y51742800D02*
X108354762Y51695180D01*
X108354762Y51695180D02*
X108545238Y51695180D01*
X108545238Y51695180D02*
X108640476Y51742800D01*
X108640476Y51742800D02*
X108688095Y51790419D01*
X108688095Y51790419D02*
X108735714Y51885657D01*
X108735714Y51885657D02*
X108735714Y52076133D01*
X108735714Y52076133D02*
X108688095Y52171371D01*
X108688095Y52171371D02*
X108640476Y52218990D01*
X108640476Y52218990D02*
X108545238Y52266609D01*
X21079580Y28567142D02*
X21127200Y28519523D01*
X21127200Y28519523D02*
X21174819Y28376666D01*
X21174819Y28376666D02*
X21174819Y28281428D01*
X21174819Y28281428D02*
X21127200Y28138571D01*
X21127200Y28138571D02*
X21031961Y28043333D01*
X21031961Y28043333D02*
X20936723Y27995714D01*
X20936723Y27995714D02*
X20746247Y27948095D01*
X20746247Y27948095D02*
X20603390Y27948095D01*
X20603390Y27948095D02*
X20412914Y27995714D01*
X20412914Y27995714D02*
X20317676Y28043333D01*
X20317676Y28043333D02*
X20222438Y28138571D01*
X20222438Y28138571D02*
X20174819Y28281428D01*
X20174819Y28281428D02*
X20174819Y28376666D01*
X20174819Y28376666D02*
X20222438Y28519523D01*
X20222438Y28519523D02*
X20270057Y28567142D01*
X21174819Y29519523D02*
X21174819Y28948095D01*
X21174819Y29233809D02*
X20174819Y29233809D01*
X20174819Y29233809D02*
X20317676Y29138571D01*
X20317676Y29138571D02*
X20412914Y29043333D01*
X20412914Y29043333D02*
X20460533Y28948095D01*
X21174819Y30471904D02*
X21174819Y29900476D01*
X21174819Y30186190D02*
X20174819Y30186190D01*
X20174819Y30186190D02*
X20317676Y30090952D01*
X20317676Y30090952D02*
X20412914Y29995714D01*
X20412914Y29995714D02*
X20460533Y29900476D01*
X73114819Y80041905D02*
X73924342Y80041905D01*
X73924342Y80041905D02*
X74019580Y80089524D01*
X74019580Y80089524D02*
X74067200Y80137143D01*
X74067200Y80137143D02*
X74114819Y80232381D01*
X74114819Y80232381D02*
X74114819Y80422857D01*
X74114819Y80422857D02*
X74067200Y80518095D01*
X74067200Y80518095D02*
X74019580Y80565714D01*
X74019580Y80565714D02*
X73924342Y80613333D01*
X73924342Y80613333D02*
X73114819Y80613333D01*
X74114819Y81613333D02*
X74114819Y81041905D01*
X74114819Y81327619D02*
X73114819Y81327619D01*
X73114819Y81327619D02*
X73257676Y81232381D01*
X73257676Y81232381D02*
X73352914Y81137143D01*
X73352914Y81137143D02*
X73400533Y81041905D01*
X73210057Y81994286D02*
X73162438Y82041905D01*
X73162438Y82041905D02*
X73114819Y82137143D01*
X73114819Y82137143D02*
X73114819Y82375238D01*
X73114819Y82375238D02*
X73162438Y82470476D01*
X73162438Y82470476D02*
X73210057Y82518095D01*
X73210057Y82518095D02*
X73305295Y82565714D01*
X73305295Y82565714D02*
X73400533Y82565714D01*
X73400533Y82565714D02*
X73543390Y82518095D01*
X73543390Y82518095D02*
X74114819Y81946667D01*
X74114819Y81946667D02*
X74114819Y82565714D01*
X73543390Y94996190D02*
X73495771Y94900952D01*
X73495771Y94900952D02*
X73448152Y94853333D01*
X73448152Y94853333D02*
X73352914Y94805714D01*
X73352914Y94805714D02*
X73305295Y94805714D01*
X73305295Y94805714D02*
X73210057Y94853333D01*
X73210057Y94853333D02*
X73162438Y94900952D01*
X73162438Y94900952D02*
X73114819Y94996190D01*
X73114819Y94996190D02*
X73114819Y95186666D01*
X73114819Y95186666D02*
X73162438Y95281904D01*
X73162438Y95281904D02*
X73210057Y95329523D01*
X73210057Y95329523D02*
X73305295Y95377142D01*
X73305295Y95377142D02*
X73352914Y95377142D01*
X73352914Y95377142D02*
X73448152Y95329523D01*
X73448152Y95329523D02*
X73495771Y95281904D01*
X73495771Y95281904D02*
X73543390Y95186666D01*
X73543390Y95186666D02*
X73543390Y94996190D01*
X73543390Y94996190D02*
X73591009Y94900952D01*
X73591009Y94900952D02*
X73638628Y94853333D01*
X73638628Y94853333D02*
X73733866Y94805714D01*
X73733866Y94805714D02*
X73924342Y94805714D01*
X73924342Y94805714D02*
X74019580Y94853333D01*
X74019580Y94853333D02*
X74067200Y94900952D01*
X74067200Y94900952D02*
X74114819Y94996190D01*
X74114819Y94996190D02*
X74114819Y95186666D01*
X74114819Y95186666D02*
X74067200Y95281904D01*
X74067200Y95281904D02*
X74019580Y95329523D01*
X74019580Y95329523D02*
X73924342Y95377142D01*
X73924342Y95377142D02*
X73733866Y95377142D01*
X73733866Y95377142D02*
X73638628Y95329523D01*
X73638628Y95329523D02*
X73591009Y95281904D01*
X73591009Y95281904D02*
X73543390Y95186666D01*
X73210057Y95758095D02*
X73162438Y95805714D01*
X73162438Y95805714D02*
X73114819Y95900952D01*
X73114819Y95900952D02*
X73114819Y96139047D01*
X73114819Y96139047D02*
X73162438Y96234285D01*
X73162438Y96234285D02*
X73210057Y96281904D01*
X73210057Y96281904D02*
X73305295Y96329523D01*
X73305295Y96329523D02*
X73400533Y96329523D01*
X73400533Y96329523D02*
X73543390Y96281904D01*
X73543390Y96281904D02*
X74114819Y95710476D01*
X74114819Y95710476D02*
X74114819Y96329523D01*
X73114819Y97234285D02*
X73114819Y96758095D01*
X73114819Y96758095D02*
X73591009Y96710476D01*
X73591009Y96710476D02*
X73543390Y96758095D01*
X73543390Y96758095D02*
X73495771Y96853333D01*
X73495771Y96853333D02*
X73495771Y97091428D01*
X73495771Y97091428D02*
X73543390Y97186666D01*
X73543390Y97186666D02*
X73591009Y97234285D01*
X73591009Y97234285D02*
X73686247Y97281904D01*
X73686247Y97281904D02*
X73924342Y97281904D01*
X73924342Y97281904D02*
X74019580Y97234285D01*
X74019580Y97234285D02*
X74067200Y97186666D01*
X74067200Y97186666D02*
X74114819Y97091428D01*
X74114819Y97091428D02*
X74114819Y96853333D01*
X74114819Y96853333D02*
X74067200Y96758095D01*
X74067200Y96758095D02*
X74019580Y96710476D01*
X73114819Y98186666D02*
X73114819Y97710476D01*
X73114819Y97710476D02*
X73591009Y97662857D01*
X73591009Y97662857D02*
X73543390Y97710476D01*
X73543390Y97710476D02*
X73495771Y97805714D01*
X73495771Y97805714D02*
X73495771Y98043809D01*
X73495771Y98043809D02*
X73543390Y98139047D01*
X73543390Y98139047D02*
X73591009Y98186666D01*
X73591009Y98186666D02*
X73686247Y98234285D01*
X73686247Y98234285D02*
X73924342Y98234285D01*
X73924342Y98234285D02*
X74019580Y98186666D01*
X74019580Y98186666D02*
X74067200Y98139047D01*
X74067200Y98139047D02*
X74114819Y98043809D01*
X74114819Y98043809D02*
X74114819Y97805714D01*
X74114819Y97805714D02*
X74067200Y97710476D01*
X74067200Y97710476D02*
X74019580Y97662857D01*
X124968095Y66335180D02*
X124968095Y65525657D01*
X124968095Y65525657D02*
X125015714Y65430419D01*
X125015714Y65430419D02*
X125063333Y65382800D01*
X125063333Y65382800D02*
X125158571Y65335180D01*
X125158571Y65335180D02*
X125349047Y65335180D01*
X125349047Y65335180D02*
X125444285Y65382800D01*
X125444285Y65382800D02*
X125491904Y65430419D01*
X125491904Y65430419D02*
X125539523Y65525657D01*
X125539523Y65525657D02*
X125539523Y66335180D01*
X125920476Y66335180D02*
X126587142Y66335180D01*
X126587142Y66335180D02*
X126158571Y65335180D01*
X88733333Y33930419D02*
X88685714Y33882800D01*
X88685714Y33882800D02*
X88542857Y33835180D01*
X88542857Y33835180D02*
X88447619Y33835180D01*
X88447619Y33835180D02*
X88304762Y33882800D01*
X88304762Y33882800D02*
X88209524Y33978038D01*
X88209524Y33978038D02*
X88161905Y34073276D01*
X88161905Y34073276D02*
X88114286Y34263752D01*
X88114286Y34263752D02*
X88114286Y34406609D01*
X88114286Y34406609D02*
X88161905Y34597085D01*
X88161905Y34597085D02*
X88209524Y34692323D01*
X88209524Y34692323D02*
X88304762Y34787561D01*
X88304762Y34787561D02*
X88447619Y34835180D01*
X88447619Y34835180D02*
X88542857Y34835180D01*
X88542857Y34835180D02*
X88685714Y34787561D01*
X88685714Y34787561D02*
X88733333Y34739942D01*
X89209524Y33835180D02*
X89400000Y33835180D01*
X89400000Y33835180D02*
X89495238Y33882800D01*
X89495238Y33882800D02*
X89542857Y33930419D01*
X89542857Y33930419D02*
X89638095Y34073276D01*
X89638095Y34073276D02*
X89685714Y34263752D01*
X89685714Y34263752D02*
X89685714Y34644704D01*
X89685714Y34644704D02*
X89638095Y34739942D01*
X89638095Y34739942D02*
X89590476Y34787561D01*
X89590476Y34787561D02*
X89495238Y34835180D01*
X89495238Y34835180D02*
X89304762Y34835180D01*
X89304762Y34835180D02*
X89209524Y34787561D01*
X89209524Y34787561D02*
X89161905Y34739942D01*
X89161905Y34739942D02*
X89114286Y34644704D01*
X89114286Y34644704D02*
X89114286Y34406609D01*
X89114286Y34406609D02*
X89161905Y34311371D01*
X89161905Y34311371D02*
X89209524Y34263752D01*
X89209524Y34263752D02*
X89304762Y34216133D01*
X89304762Y34216133D02*
X89495238Y34216133D01*
X89495238Y34216133D02*
X89590476Y34263752D01*
X89590476Y34263752D02*
X89638095Y34311371D01*
X89638095Y34311371D02*
X89685714Y34406609D01*
X124333333Y66855180D02*
X124000000Y67331371D01*
X123761905Y66855180D02*
X123761905Y67855180D01*
X123761905Y67855180D02*
X124142857Y67855180D01*
X124142857Y67855180D02*
X124238095Y67807561D01*
X124238095Y67807561D02*
X124285714Y67759942D01*
X124285714Y67759942D02*
X124333333Y67664704D01*
X124333333Y67664704D02*
X124333333Y67521847D01*
X124333333Y67521847D02*
X124285714Y67426609D01*
X124285714Y67426609D02*
X124238095Y67378990D01*
X124238095Y67378990D02*
X124142857Y67331371D01*
X124142857Y67331371D02*
X123761905Y67331371D01*
X124714286Y67759942D02*
X124761905Y67807561D01*
X124761905Y67807561D02*
X124857143Y67855180D01*
X124857143Y67855180D02*
X125095238Y67855180D01*
X125095238Y67855180D02*
X125190476Y67807561D01*
X125190476Y67807561D02*
X125238095Y67759942D01*
X125238095Y67759942D02*
X125285714Y67664704D01*
X125285714Y67664704D02*
X125285714Y67569466D01*
X125285714Y67569466D02*
X125238095Y67426609D01*
X125238095Y67426609D02*
X124666667Y66855180D01*
X124666667Y66855180D02*
X125285714Y66855180D01*
X124914819Y72969523D02*
X124914819Y72398095D01*
X124914819Y72683809D02*
X123914819Y72683809D01*
X123914819Y72683809D02*
X124057676Y72588571D01*
X124057676Y72588571D02*
X124152914Y72493333D01*
X124152914Y72493333D02*
X124200533Y72398095D01*
X123914819Y73588571D02*
X123914819Y73683809D01*
X123914819Y73683809D02*
X123962438Y73779047D01*
X123962438Y73779047D02*
X124010057Y73826666D01*
X124010057Y73826666D02*
X124105295Y73874285D01*
X124105295Y73874285D02*
X124295771Y73921904D01*
X124295771Y73921904D02*
X124533866Y73921904D01*
X124533866Y73921904D02*
X124724342Y73874285D01*
X124724342Y73874285D02*
X124819580Y73826666D01*
X124819580Y73826666D02*
X124867200Y73779047D01*
X124867200Y73779047D02*
X124914819Y73683809D01*
X124914819Y73683809D02*
X124914819Y73588571D01*
X124914819Y73588571D02*
X124867200Y73493333D01*
X124867200Y73493333D02*
X124819580Y73445714D01*
X124819580Y73445714D02*
X124724342Y73398095D01*
X124724342Y73398095D02*
X124533866Y73350476D01*
X124533866Y73350476D02*
X124295771Y73350476D01*
X124295771Y73350476D02*
X124105295Y73398095D01*
X124105295Y73398095D02*
X124010057Y73445714D01*
X124010057Y73445714D02*
X123962438Y73493333D01*
X123962438Y73493333D02*
X123914819Y73588571D01*
X124914819Y74350476D02*
X123914819Y74350476D01*
X124914819Y74921904D02*
X124343390Y74493333D01*
X123914819Y74921904D02*
X124486247Y74350476D01*
X117564819Y51388095D02*
X118374342Y51388095D01*
X118374342Y51388095D02*
X118469580Y51435714D01*
X118469580Y51435714D02*
X118517200Y51483333D01*
X118517200Y51483333D02*
X118564819Y51578571D01*
X118564819Y51578571D02*
X118564819Y51769047D01*
X118564819Y51769047D02*
X118517200Y51864285D01*
X118517200Y51864285D02*
X118469580Y51911904D01*
X118469580Y51911904D02*
X118374342Y51959523D01*
X118374342Y51959523D02*
X117564819Y51959523D01*
X117993390Y52578571D02*
X117945771Y52483333D01*
X117945771Y52483333D02*
X117898152Y52435714D01*
X117898152Y52435714D02*
X117802914Y52388095D01*
X117802914Y52388095D02*
X117755295Y52388095D01*
X117755295Y52388095D02*
X117660057Y52435714D01*
X117660057Y52435714D02*
X117612438Y52483333D01*
X117612438Y52483333D02*
X117564819Y52578571D01*
X117564819Y52578571D02*
X117564819Y52769047D01*
X117564819Y52769047D02*
X117612438Y52864285D01*
X117612438Y52864285D02*
X117660057Y52911904D01*
X117660057Y52911904D02*
X117755295Y52959523D01*
X117755295Y52959523D02*
X117802914Y52959523D01*
X117802914Y52959523D02*
X117898152Y52911904D01*
X117898152Y52911904D02*
X117945771Y52864285D01*
X117945771Y52864285D02*
X117993390Y52769047D01*
X117993390Y52769047D02*
X117993390Y52578571D01*
X117993390Y52578571D02*
X118041009Y52483333D01*
X118041009Y52483333D02*
X118088628Y52435714D01*
X118088628Y52435714D02*
X118183866Y52388095D01*
X118183866Y52388095D02*
X118374342Y52388095D01*
X118374342Y52388095D02*
X118469580Y52435714D01*
X118469580Y52435714D02*
X118517200Y52483333D01*
X118517200Y52483333D02*
X118564819Y52578571D01*
X118564819Y52578571D02*
X118564819Y52769047D01*
X118564819Y52769047D02*
X118517200Y52864285D01*
X118517200Y52864285D02*
X118469580Y52911904D01*
X118469580Y52911904D02*
X118374342Y52959523D01*
X118374342Y52959523D02*
X118183866Y52959523D01*
X118183866Y52959523D02*
X118088628Y52911904D01*
X118088628Y52911904D02*
X118041009Y52864285D01*
X118041009Y52864285D02*
X117993390Y52769047D01*
X97244819Y49364286D02*
X97244819Y50030952D01*
X97244819Y50030952D02*
X98244819Y49602381D01*
X97578152Y50840476D02*
X98244819Y50840476D01*
X97197200Y50602381D02*
X97911485Y50364286D01*
X97911485Y50364286D02*
X97911485Y50983333D01*
X98244819Y51364286D02*
X97244819Y51364286D01*
X97721009Y51364286D02*
X97721009Y51935714D01*
X98244819Y51935714D02*
X97244819Y51935714D01*
X98149580Y52983333D02*
X98197200Y52935714D01*
X98197200Y52935714D02*
X98244819Y52792857D01*
X98244819Y52792857D02*
X98244819Y52697619D01*
X98244819Y52697619D02*
X98197200Y52554762D01*
X98197200Y52554762D02*
X98101961Y52459524D01*
X98101961Y52459524D02*
X98006723Y52411905D01*
X98006723Y52411905D02*
X97816247Y52364286D01*
X97816247Y52364286D02*
X97673390Y52364286D01*
X97673390Y52364286D02*
X97482914Y52411905D01*
X97482914Y52411905D02*
X97387676Y52459524D01*
X97387676Y52459524D02*
X97292438Y52554762D01*
X97292438Y52554762D02*
X97244819Y52697619D01*
X97244819Y52697619D02*
X97244819Y52792857D01*
X97244819Y52792857D02*
X97292438Y52935714D01*
X97292438Y52935714D02*
X97340057Y52983333D01*
X97244819Y53602381D02*
X97244819Y53697619D01*
X97244819Y53697619D02*
X97292438Y53792857D01*
X97292438Y53792857D02*
X97340057Y53840476D01*
X97340057Y53840476D02*
X97435295Y53888095D01*
X97435295Y53888095D02*
X97625771Y53935714D01*
X97625771Y53935714D02*
X97863866Y53935714D01*
X97863866Y53935714D02*
X98054342Y53888095D01*
X98054342Y53888095D02*
X98149580Y53840476D01*
X98149580Y53840476D02*
X98197200Y53792857D01*
X98197200Y53792857D02*
X98244819Y53697619D01*
X98244819Y53697619D02*
X98244819Y53602381D01*
X98244819Y53602381D02*
X98197200Y53507143D01*
X98197200Y53507143D02*
X98149580Y53459524D01*
X98149580Y53459524D02*
X98054342Y53411905D01*
X98054342Y53411905D02*
X97863866Y53364286D01*
X97863866Y53364286D02*
X97625771Y53364286D01*
X97625771Y53364286D02*
X97435295Y53411905D01*
X97435295Y53411905D02*
X97340057Y53459524D01*
X97340057Y53459524D02*
X97292438Y53507143D01*
X97292438Y53507143D02*
X97244819Y53602381D01*
X97244819Y54554762D02*
X97244819Y54650000D01*
X97244819Y54650000D02*
X97292438Y54745238D01*
X97292438Y54745238D02*
X97340057Y54792857D01*
X97340057Y54792857D02*
X97435295Y54840476D01*
X97435295Y54840476D02*
X97625771Y54888095D01*
X97625771Y54888095D02*
X97863866Y54888095D01*
X97863866Y54888095D02*
X98054342Y54840476D01*
X98054342Y54840476D02*
X98149580Y54792857D01*
X98149580Y54792857D02*
X98197200Y54745238D01*
X98197200Y54745238D02*
X98244819Y54650000D01*
X98244819Y54650000D02*
X98244819Y54554762D01*
X98244819Y54554762D02*
X98197200Y54459524D01*
X98197200Y54459524D02*
X98149580Y54411905D01*
X98149580Y54411905D02*
X98054342Y54364286D01*
X98054342Y54364286D02*
X97863866Y54316667D01*
X97863866Y54316667D02*
X97625771Y54316667D01*
X97625771Y54316667D02*
X97435295Y54364286D01*
X97435295Y54364286D02*
X97340057Y54411905D01*
X97340057Y54411905D02*
X97292438Y54459524D01*
X97292438Y54459524D02*
X97244819Y54554762D01*
X45384819Y44958095D02*
X46194342Y44958095D01*
X46194342Y44958095D02*
X46289580Y45005714D01*
X46289580Y45005714D02*
X46337200Y45053333D01*
X46337200Y45053333D02*
X46384819Y45148571D01*
X46384819Y45148571D02*
X46384819Y45339047D01*
X46384819Y45339047D02*
X46337200Y45434285D01*
X46337200Y45434285D02*
X46289580Y45481904D01*
X46289580Y45481904D02*
X46194342Y45529523D01*
X46194342Y45529523D02*
X45384819Y45529523D01*
X45384819Y46434285D02*
X45384819Y46243809D01*
X45384819Y46243809D02*
X45432438Y46148571D01*
X45432438Y46148571D02*
X45480057Y46100952D01*
X45480057Y46100952D02*
X45622914Y46005714D01*
X45622914Y46005714D02*
X45813390Y45958095D01*
X45813390Y45958095D02*
X46194342Y45958095D01*
X46194342Y45958095D02*
X46289580Y46005714D01*
X46289580Y46005714D02*
X46337200Y46053333D01*
X46337200Y46053333D02*
X46384819Y46148571D01*
X46384819Y46148571D02*
X46384819Y46339047D01*
X46384819Y46339047D02*
X46337200Y46434285D01*
X46337200Y46434285D02*
X46289580Y46481904D01*
X46289580Y46481904D02*
X46194342Y46529523D01*
X46194342Y46529523D02*
X45956247Y46529523D01*
X45956247Y46529523D02*
X45861009Y46481904D01*
X45861009Y46481904D02*
X45813390Y46434285D01*
X45813390Y46434285D02*
X45765771Y46339047D01*
X45765771Y46339047D02*
X45765771Y46148571D01*
X45765771Y46148571D02*
X45813390Y46053333D01*
X45813390Y46053333D02*
X45861009Y46005714D01*
X45861009Y46005714D02*
X45956247Y45958095D01*
X73619104Y42815238D02*
X73619104Y43291428D01*
X73904819Y42720000D02*
X72904819Y43053333D01*
X72904819Y43053333D02*
X73904819Y43386666D01*
X72904819Y43577143D02*
X72904819Y44148571D01*
X73904819Y43862857D02*
X72904819Y43862857D01*
X73381009Y44815238D02*
X73381009Y44481905D01*
X73904819Y44481905D02*
X72904819Y44481905D01*
X72904819Y44481905D02*
X72904819Y44958095D01*
X73904819Y45862857D02*
X73904819Y45291429D01*
X73904819Y45577143D02*
X72904819Y45577143D01*
X72904819Y45577143D02*
X73047676Y45481905D01*
X73047676Y45481905D02*
X73142914Y45386667D01*
X73142914Y45386667D02*
X73190533Y45291429D01*
X72904819Y46720000D02*
X72904819Y46529524D01*
X72904819Y46529524D02*
X72952438Y46434286D01*
X72952438Y46434286D02*
X73000057Y46386667D01*
X73000057Y46386667D02*
X73142914Y46291429D01*
X73142914Y46291429D02*
X73333390Y46243810D01*
X73333390Y46243810D02*
X73714342Y46243810D01*
X73714342Y46243810D02*
X73809580Y46291429D01*
X73809580Y46291429D02*
X73857200Y46339048D01*
X73857200Y46339048D02*
X73904819Y46434286D01*
X73904819Y46434286D02*
X73904819Y46624762D01*
X73904819Y46624762D02*
X73857200Y46720000D01*
X73857200Y46720000D02*
X73809580Y46767619D01*
X73809580Y46767619D02*
X73714342Y46815238D01*
X73714342Y46815238D02*
X73476247Y46815238D01*
X73476247Y46815238D02*
X73381009Y46767619D01*
X73381009Y46767619D02*
X73333390Y46720000D01*
X73333390Y46720000D02*
X73285771Y46624762D01*
X73285771Y46624762D02*
X73285771Y46434286D01*
X73285771Y46434286D02*
X73333390Y46339048D01*
X73333390Y46339048D02*
X73381009Y46291429D01*
X73381009Y46291429D02*
X73476247Y46243810D01*
X72904819Y47100953D02*
X73904819Y47434286D01*
X73904819Y47434286D02*
X72904819Y47767619D01*
X73333390Y48243810D02*
X73285771Y48148572D01*
X73285771Y48148572D02*
X73238152Y48100953D01*
X73238152Y48100953D02*
X73142914Y48053334D01*
X73142914Y48053334D02*
X73095295Y48053334D01*
X73095295Y48053334D02*
X73000057Y48100953D01*
X73000057Y48100953D02*
X72952438Y48148572D01*
X72952438Y48148572D02*
X72904819Y48243810D01*
X72904819Y48243810D02*
X72904819Y48434286D01*
X72904819Y48434286D02*
X72952438Y48529524D01*
X72952438Y48529524D02*
X73000057Y48577143D01*
X73000057Y48577143D02*
X73095295Y48624762D01*
X73095295Y48624762D02*
X73142914Y48624762D01*
X73142914Y48624762D02*
X73238152Y48577143D01*
X73238152Y48577143D02*
X73285771Y48529524D01*
X73285771Y48529524D02*
X73333390Y48434286D01*
X73333390Y48434286D02*
X73333390Y48243810D01*
X73333390Y48243810D02*
X73381009Y48148572D01*
X73381009Y48148572D02*
X73428628Y48100953D01*
X73428628Y48100953D02*
X73523866Y48053334D01*
X73523866Y48053334D02*
X73714342Y48053334D01*
X73714342Y48053334D02*
X73809580Y48100953D01*
X73809580Y48100953D02*
X73857200Y48148572D01*
X73857200Y48148572D02*
X73904819Y48243810D01*
X73904819Y48243810D02*
X73904819Y48434286D01*
X73904819Y48434286D02*
X73857200Y48529524D01*
X73857200Y48529524D02*
X73809580Y48577143D01*
X73809580Y48577143D02*
X73714342Y48624762D01*
X73714342Y48624762D02*
X73523866Y48624762D01*
X73523866Y48624762D02*
X73428628Y48577143D01*
X73428628Y48577143D02*
X73381009Y48529524D01*
X73381009Y48529524D02*
X73333390Y48434286D01*
X76136666Y22928990D02*
X76279523Y22881371D01*
X76279523Y22881371D02*
X76327142Y22833752D01*
X76327142Y22833752D02*
X76374761Y22738514D01*
X76374761Y22738514D02*
X76374761Y22595657D01*
X76374761Y22595657D02*
X76327142Y22500419D01*
X76327142Y22500419D02*
X76279523Y22452800D01*
X76279523Y22452800D02*
X76184285Y22405180D01*
X76184285Y22405180D02*
X75803333Y22405180D01*
X75803333Y22405180D02*
X75803333Y23405180D01*
X75803333Y23405180D02*
X76136666Y23405180D01*
X76136666Y23405180D02*
X76231904Y23357561D01*
X76231904Y23357561D02*
X76279523Y23309942D01*
X76279523Y23309942D02*
X76327142Y23214704D01*
X76327142Y23214704D02*
X76327142Y23119466D01*
X76327142Y23119466D02*
X76279523Y23024228D01*
X76279523Y23024228D02*
X76231904Y22976609D01*
X76231904Y22976609D02*
X76136666Y22928990D01*
X76136666Y22928990D02*
X75803333Y22928990D01*
X76755714Y22690895D02*
X77231904Y22690895D01*
X76660476Y22405180D02*
X76993809Y23405180D01*
X76993809Y23405180D02*
X77327142Y22405180D01*
X78231904Y22405180D02*
X77898571Y22881371D01*
X77660476Y22405180D02*
X77660476Y23405180D01*
X77660476Y23405180D02*
X78041428Y23405180D01*
X78041428Y23405180D02*
X78136666Y23357561D01*
X78136666Y23357561D02*
X78184285Y23309942D01*
X78184285Y23309942D02*
X78231904Y23214704D01*
X78231904Y23214704D02*
X78231904Y23071847D01*
X78231904Y23071847D02*
X78184285Y22976609D01*
X78184285Y22976609D02*
X78136666Y22928990D01*
X78136666Y22928990D02*
X78041428Y22881371D01*
X78041428Y22881371D02*
X77660476Y22881371D01*
X79184285Y22405180D02*
X78612857Y22405180D01*
X78898571Y22405180D02*
X78898571Y23405180D01*
X78898571Y23405180D02*
X78803333Y23262323D01*
X78803333Y23262323D02*
X78708095Y23167085D01*
X78708095Y23167085D02*
X78612857Y23119466D01*
X103144819Y10447143D02*
X102144819Y10447143D01*
X102621009Y10447143D02*
X102621009Y11018571D01*
X103144819Y11018571D02*
X102144819Y11018571D01*
X103144819Y11494762D02*
X102144819Y11494762D01*
X102144819Y11494762D02*
X102144819Y11732857D01*
X102144819Y11732857D02*
X102192438Y11875714D01*
X102192438Y11875714D02*
X102287676Y11970952D01*
X102287676Y11970952D02*
X102382914Y12018571D01*
X102382914Y12018571D02*
X102573390Y12066190D01*
X102573390Y12066190D02*
X102716247Y12066190D01*
X102716247Y12066190D02*
X102906723Y12018571D01*
X102906723Y12018571D02*
X103001961Y11970952D01*
X103001961Y11970952D02*
X103097200Y11875714D01*
X103097200Y11875714D02*
X103144819Y11732857D01*
X103144819Y11732857D02*
X103144819Y11494762D01*
X103097200Y12447143D02*
X103144819Y12590000D01*
X103144819Y12590000D02*
X103144819Y12828095D01*
X103144819Y12828095D02*
X103097200Y12923333D01*
X103097200Y12923333D02*
X103049580Y12970952D01*
X103049580Y12970952D02*
X102954342Y13018571D01*
X102954342Y13018571D02*
X102859104Y13018571D01*
X102859104Y13018571D02*
X102763866Y12970952D01*
X102763866Y12970952D02*
X102716247Y12923333D01*
X102716247Y12923333D02*
X102668628Y12828095D01*
X102668628Y12828095D02*
X102621009Y12637619D01*
X102621009Y12637619D02*
X102573390Y12542381D01*
X102573390Y12542381D02*
X102525771Y12494762D01*
X102525771Y12494762D02*
X102430533Y12447143D01*
X102430533Y12447143D02*
X102335295Y12447143D01*
X102335295Y12447143D02*
X102240057Y12494762D01*
X102240057Y12494762D02*
X102192438Y12542381D01*
X102192438Y12542381D02*
X102144819Y12637619D01*
X102144819Y12637619D02*
X102144819Y12875714D01*
X102144819Y12875714D02*
X102192438Y13018571D01*
X103144819Y13447143D02*
X102144819Y13447143D01*
X102144819Y13447143D02*
X102144819Y13828095D01*
X102144819Y13828095D02*
X102192438Y13923333D01*
X102192438Y13923333D02*
X102240057Y13970952D01*
X102240057Y13970952D02*
X102335295Y14018571D01*
X102335295Y14018571D02*
X102478152Y14018571D01*
X102478152Y14018571D02*
X102573390Y13970952D01*
X102573390Y13970952D02*
X102621009Y13923333D01*
X102621009Y13923333D02*
X102668628Y13828095D01*
X102668628Y13828095D02*
X102668628Y13447143D01*
X102763866Y14447143D02*
X102763866Y15209048D01*
X102478152Y16113809D02*
X103144819Y16113809D01*
X102097200Y15875714D02*
X102811485Y15637619D01*
X102811485Y15637619D02*
X102811485Y16256666D01*
X102573390Y16780476D02*
X102525771Y16685238D01*
X102525771Y16685238D02*
X102478152Y16637619D01*
X102478152Y16637619D02*
X102382914Y16590000D01*
X102382914Y16590000D02*
X102335295Y16590000D01*
X102335295Y16590000D02*
X102240057Y16637619D01*
X102240057Y16637619D02*
X102192438Y16685238D01*
X102192438Y16685238D02*
X102144819Y16780476D01*
X102144819Y16780476D02*
X102144819Y16970952D01*
X102144819Y16970952D02*
X102192438Y17066190D01*
X102192438Y17066190D02*
X102240057Y17113809D01*
X102240057Y17113809D02*
X102335295Y17161428D01*
X102335295Y17161428D02*
X102382914Y17161428D01*
X102382914Y17161428D02*
X102478152Y17113809D01*
X102478152Y17113809D02*
X102525771Y17066190D01*
X102525771Y17066190D02*
X102573390Y16970952D01*
X102573390Y16970952D02*
X102573390Y16780476D01*
X102573390Y16780476D02*
X102621009Y16685238D01*
X102621009Y16685238D02*
X102668628Y16637619D01*
X102668628Y16637619D02*
X102763866Y16590000D01*
X102763866Y16590000D02*
X102954342Y16590000D01*
X102954342Y16590000D02*
X103049580Y16637619D01*
X103049580Y16637619D02*
X103097200Y16685238D01*
X103097200Y16685238D02*
X103144819Y16780476D01*
X103144819Y16780476D02*
X103144819Y16970952D01*
X103144819Y16970952D02*
X103097200Y17066190D01*
X103097200Y17066190D02*
X103049580Y17113809D01*
X103049580Y17113809D02*
X102954342Y17161428D01*
X102954342Y17161428D02*
X102763866Y17161428D01*
X102763866Y17161428D02*
X102668628Y17113809D01*
X102668628Y17113809D02*
X102621009Y17066190D01*
X102621009Y17066190D02*
X102573390Y16970952D01*
X102144819Y17494762D02*
X102144819Y18113809D01*
X102144819Y18113809D02*
X102525771Y17780476D01*
X102525771Y17780476D02*
X102525771Y17923333D01*
X102525771Y17923333D02*
X102573390Y18018571D01*
X102573390Y18018571D02*
X102621009Y18066190D01*
X102621009Y18066190D02*
X102716247Y18113809D01*
X102716247Y18113809D02*
X102954342Y18113809D01*
X102954342Y18113809D02*
X103049580Y18066190D01*
X103049580Y18066190D02*
X103097200Y18018571D01*
X103097200Y18018571D02*
X103144819Y17923333D01*
X103144819Y17923333D02*
X103144819Y17637619D01*
X103144819Y17637619D02*
X103097200Y17542381D01*
X103097200Y17542381D02*
X103049580Y17494762D01*
X102144819Y18732857D02*
X102144819Y18828095D01*
X102144819Y18828095D02*
X102192438Y18923333D01*
X102192438Y18923333D02*
X102240057Y18970952D01*
X102240057Y18970952D02*
X102335295Y19018571D01*
X102335295Y19018571D02*
X102525771Y19066190D01*
X102525771Y19066190D02*
X102763866Y19066190D01*
X102763866Y19066190D02*
X102954342Y19018571D01*
X102954342Y19018571D02*
X103049580Y18970952D01*
X103049580Y18970952D02*
X103097200Y18923333D01*
X103097200Y18923333D02*
X103144819Y18828095D01*
X103144819Y18828095D02*
X103144819Y18732857D01*
X103144819Y18732857D02*
X103097200Y18637619D01*
X103097200Y18637619D02*
X103049580Y18590000D01*
X103049580Y18590000D02*
X102954342Y18542381D01*
X102954342Y18542381D02*
X102763866Y18494762D01*
X102763866Y18494762D02*
X102525771Y18494762D01*
X102525771Y18494762D02*
X102335295Y18542381D01*
X102335295Y18542381D02*
X102240057Y18590000D01*
X102240057Y18590000D02*
X102192438Y18637619D01*
X102192438Y18637619D02*
X102144819Y18732857D01*
X103240057Y19256667D02*
X103240057Y20018571D01*
X102240057Y20209048D02*
X102192438Y20256667D01*
X102192438Y20256667D02*
X102144819Y20351905D01*
X102144819Y20351905D02*
X102144819Y20590000D01*
X102144819Y20590000D02*
X102192438Y20685238D01*
X102192438Y20685238D02*
X102240057Y20732857D01*
X102240057Y20732857D02*
X102335295Y20780476D01*
X102335295Y20780476D02*
X102430533Y20780476D01*
X102430533Y20780476D02*
X102573390Y20732857D01*
X102573390Y20732857D02*
X103144819Y20161429D01*
X103144819Y20161429D02*
X103144819Y20780476D01*
X86868095Y107015180D02*
X86868095Y106205657D01*
X86868095Y106205657D02*
X86915714Y106110419D01*
X86915714Y106110419D02*
X86963333Y106062800D01*
X86963333Y106062800D02*
X87058571Y106015180D01*
X87058571Y106015180D02*
X87249047Y106015180D01*
X87249047Y106015180D02*
X87344285Y106062800D01*
X87344285Y106062800D02*
X87391904Y106110419D01*
X87391904Y106110419D02*
X87439523Y106205657D01*
X87439523Y106205657D02*
X87439523Y107015180D01*
X88391904Y107015180D02*
X87915714Y107015180D01*
X87915714Y107015180D02*
X87868095Y106538990D01*
X87868095Y106538990D02*
X87915714Y106586609D01*
X87915714Y106586609D02*
X88010952Y106634228D01*
X88010952Y106634228D02*
X88249047Y106634228D01*
X88249047Y106634228D02*
X88344285Y106586609D01*
X88344285Y106586609D02*
X88391904Y106538990D01*
X88391904Y106538990D02*
X88439523Y106443752D01*
X88439523Y106443752D02*
X88439523Y106205657D01*
X88439523Y106205657D02*
X88391904Y106110419D01*
X88391904Y106110419D02*
X88344285Y106062800D01*
X88344285Y106062800D02*
X88249047Y106015180D01*
X88249047Y106015180D02*
X88010952Y106015180D01*
X88010952Y106015180D02*
X87915714Y106062800D01*
X87915714Y106062800D02*
X87868095Y106110419D01*
X84368095Y79495180D02*
X85034761Y79495180D01*
X85034761Y79495180D02*
X84606190Y78495180D01*
X85844285Y79161847D02*
X85844285Y78495180D01*
X85606190Y79542800D02*
X85368095Y78828514D01*
X85368095Y78828514D02*
X85987142Y78828514D01*
X86368095Y78495180D02*
X86368095Y79495180D01*
X86368095Y79018990D02*
X86939523Y79018990D01*
X86939523Y78495180D02*
X86939523Y79495180D01*
X87987142Y78590419D02*
X87939523Y78542800D01*
X87939523Y78542800D02*
X87796666Y78495180D01*
X87796666Y78495180D02*
X87701428Y78495180D01*
X87701428Y78495180D02*
X87558571Y78542800D01*
X87558571Y78542800D02*
X87463333Y78638038D01*
X87463333Y78638038D02*
X87415714Y78733276D01*
X87415714Y78733276D02*
X87368095Y78923752D01*
X87368095Y78923752D02*
X87368095Y79066609D01*
X87368095Y79066609D02*
X87415714Y79257085D01*
X87415714Y79257085D02*
X87463333Y79352323D01*
X87463333Y79352323D02*
X87558571Y79447561D01*
X87558571Y79447561D02*
X87701428Y79495180D01*
X87701428Y79495180D02*
X87796666Y79495180D01*
X87796666Y79495180D02*
X87939523Y79447561D01*
X87939523Y79447561D02*
X87987142Y79399942D01*
X88891904Y79495180D02*
X88415714Y79495180D01*
X88415714Y79495180D02*
X88368095Y79018990D01*
X88368095Y79018990D02*
X88415714Y79066609D01*
X88415714Y79066609D02*
X88510952Y79114228D01*
X88510952Y79114228D02*
X88749047Y79114228D01*
X88749047Y79114228D02*
X88844285Y79066609D01*
X88844285Y79066609D02*
X88891904Y79018990D01*
X88891904Y79018990D02*
X88939523Y78923752D01*
X88939523Y78923752D02*
X88939523Y78685657D01*
X88939523Y78685657D02*
X88891904Y78590419D01*
X88891904Y78590419D02*
X88844285Y78542800D01*
X88844285Y78542800D02*
X88749047Y78495180D01*
X88749047Y78495180D02*
X88510952Y78495180D01*
X88510952Y78495180D02*
X88415714Y78542800D01*
X88415714Y78542800D02*
X88368095Y78590419D01*
X89272857Y79495180D02*
X89939523Y79495180D01*
X89939523Y79495180D02*
X89510952Y78495180D01*
X90225238Y79495180D02*
X90844285Y79495180D01*
X90844285Y79495180D02*
X90510952Y79114228D01*
X90510952Y79114228D02*
X90653809Y79114228D01*
X90653809Y79114228D02*
X90749047Y79066609D01*
X90749047Y79066609D02*
X90796666Y79018990D01*
X90796666Y79018990D02*
X90844285Y78923752D01*
X90844285Y78923752D02*
X90844285Y78685657D01*
X90844285Y78685657D02*
X90796666Y78590419D01*
X90796666Y78590419D02*
X90749047Y78542800D01*
X90749047Y78542800D02*
X90653809Y78495180D01*
X90653809Y78495180D02*
X90368095Y78495180D01*
X90368095Y78495180D02*
X90272857Y78542800D01*
X90272857Y78542800D02*
X90225238Y78590419D01*
X124956667Y46487800D02*
X125099524Y46440180D01*
X125099524Y46440180D02*
X125337619Y46440180D01*
X125337619Y46440180D02*
X125432857Y46487800D01*
X125432857Y46487800D02*
X125480476Y46535419D01*
X125480476Y46535419D02*
X125528095Y46630657D01*
X125528095Y46630657D02*
X125528095Y46725895D01*
X125528095Y46725895D02*
X125480476Y46821133D01*
X125480476Y46821133D02*
X125432857Y46868752D01*
X125432857Y46868752D02*
X125337619Y46916371D01*
X125337619Y46916371D02*
X125147143Y46963990D01*
X125147143Y46963990D02*
X125051905Y47011609D01*
X125051905Y47011609D02*
X125004286Y47059228D01*
X125004286Y47059228D02*
X124956667Y47154466D01*
X124956667Y47154466D02*
X124956667Y47249704D01*
X124956667Y47249704D02*
X125004286Y47344942D01*
X125004286Y47344942D02*
X125051905Y47392561D01*
X125051905Y47392561D02*
X125147143Y47440180D01*
X125147143Y47440180D02*
X125385238Y47440180D01*
X125385238Y47440180D02*
X125528095Y47392561D01*
X125861429Y47440180D02*
X126099524Y46440180D01*
X126099524Y46440180D02*
X126290000Y47154466D01*
X126290000Y47154466D02*
X126480476Y46440180D01*
X126480476Y46440180D02*
X126718572Y47440180D01*
X127623333Y46440180D02*
X127051905Y46440180D01*
X127337619Y46440180D02*
X127337619Y47440180D01*
X127337619Y47440180D02*
X127242381Y47297323D01*
X127242381Y47297323D02*
X127147143Y47202085D01*
X127147143Y47202085D02*
X127051905Y47154466D01*
X124491905Y91175180D02*
X124491905Y90365657D01*
X124491905Y90365657D02*
X124539524Y90270419D01*
X124539524Y90270419D02*
X124587143Y90222800D01*
X124587143Y90222800D02*
X124682381Y90175180D01*
X124682381Y90175180D02*
X124872857Y90175180D01*
X124872857Y90175180D02*
X124968095Y90222800D01*
X124968095Y90222800D02*
X125015714Y90270419D01*
X125015714Y90270419D02*
X125063333Y90365657D01*
X125063333Y90365657D02*
X125063333Y91175180D01*
X126063333Y90175180D02*
X125491905Y90175180D01*
X125777619Y90175180D02*
X125777619Y91175180D01*
X125777619Y91175180D02*
X125682381Y91032323D01*
X125682381Y91032323D02*
X125587143Y90937085D01*
X125587143Y90937085D02*
X125491905Y90889466D01*
X126682381Y91175180D02*
X126777619Y91175180D01*
X126777619Y91175180D02*
X126872857Y91127561D01*
X126872857Y91127561D02*
X126920476Y91079942D01*
X126920476Y91079942D02*
X126968095Y90984704D01*
X126968095Y90984704D02*
X127015714Y90794228D01*
X127015714Y90794228D02*
X127015714Y90556133D01*
X127015714Y90556133D02*
X126968095Y90365657D01*
X126968095Y90365657D02*
X126920476Y90270419D01*
X126920476Y90270419D02*
X126872857Y90222800D01*
X126872857Y90222800D02*
X126777619Y90175180D01*
X126777619Y90175180D02*
X126682381Y90175180D01*
X126682381Y90175180D02*
X126587143Y90222800D01*
X126587143Y90222800D02*
X126539524Y90270419D01*
X126539524Y90270419D02*
X126491905Y90365657D01*
X126491905Y90365657D02*
X126444286Y90556133D01*
X126444286Y90556133D02*
X126444286Y90794228D01*
X126444286Y90794228D02*
X126491905Y90984704D01*
X126491905Y90984704D02*
X126539524Y91079942D01*
X126539524Y91079942D02*
X126587143Y91127561D01*
X126587143Y91127561D02*
X126682381Y91175180D01*
D14*
%TO.C,D1*%
X122210000Y72424000D02*
X122210000Y72580000D01*
X122210000Y74740000D02*
X122210000Y74896000D01*
X118977666Y72581392D02*
G75*
G03*
X122209999Y72424485I1672334J1078608D01*
G01*
X119608871Y72580164D02*
G75*
G03*
X121690960Y72580001I1041129J1079836D01*
G01*
X121690960Y74739999D02*
G75*
G03*
X119608871Y74739836I-1040960J-1079999D01*
G01*
X122209999Y74895515D02*
G75*
G03*
X118977666Y74738608I-1559999J-1235515D01*
G01*
%TO.C,U4*%
X82490000Y73780000D02*
X82490000Y48140000D01*
X82490000Y48140000D02*
X92770000Y48140000D01*
X84980000Y73720000D02*
X84980000Y48200000D01*
X84980000Y48200000D02*
X90280000Y48200000D01*
X86630000Y73720000D02*
X84980000Y73720000D01*
X90280000Y73720000D02*
X88630000Y73720000D01*
X90280000Y48200000D02*
X90280000Y73720000D01*
X92770000Y73780000D02*
X82490000Y73780000D01*
X92770000Y48140000D02*
X92770000Y73780000D01*
X86630000Y73720000D02*
G75*
G03*
X88630000Y73720000I1000000J0D01*
G01*
%TO.C,C2*%
X41640000Y89820000D02*
X52140000Y89820000D01*
X41640000Y87980000D02*
X52140000Y87980000D01*
%TO.C,RN4*%
X105240000Y26800000D02*
X105240000Y24000000D01*
X105240000Y24000000D02*
X128440000Y24000000D01*
X107950000Y26800000D02*
X107950000Y24000000D01*
X128440000Y26800000D02*
X105240000Y26800000D01*
X128440000Y24000000D02*
X128440000Y26800000D01*
%TO.C,C10*%
X112760000Y35210000D02*
X123260000Y35210000D01*
X112760000Y33370000D02*
X123260000Y33370000D01*
%TO.C,U1*%
X21530000Y58310000D02*
X72450000Y58310000D01*
X72450000Y58310000D02*
X72450000Y71230000D01*
X21530000Y63770000D02*
X21530000Y58310000D01*
X21530000Y71230000D02*
X21530000Y65770000D01*
X72450000Y71230000D02*
X21530000Y71230000D01*
X21530000Y63770000D02*
G75*
G03*
X21530000Y65770000I0J1000000D01*
G01*
%TO.C,C5*%
X88550000Y66310000D02*
X88550000Y55810000D01*
X86710000Y66310000D02*
X86710000Y55810000D01*
%TO.C,C7*%
X54340000Y46640000D02*
X64840000Y46640000D01*
X54340000Y44800000D02*
X64840000Y44800000D01*
%TO.C,U14*%
X105290000Y29150000D02*
X130930000Y29150000D01*
X130930000Y29150000D02*
X130930000Y39430000D01*
X105350000Y31640000D02*
X130870000Y31640000D01*
X130870000Y31640000D02*
X130870000Y36940000D01*
X105350000Y33290000D02*
X105350000Y31640000D01*
X105350000Y36940000D02*
X105350000Y35290000D01*
X130870000Y36940000D02*
X105350000Y36940000D01*
X105290000Y39430000D02*
X105290000Y29150000D01*
X130930000Y39430000D02*
X105290000Y39430000D01*
X105350000Y33290000D02*
G75*
G03*
X105350000Y35290000I0J1000000D01*
G01*
%TO.C,C3*%
X26320000Y65419000D02*
X26320000Y64161000D01*
X24480000Y65419000D02*
X24480000Y64161000D01*
%TO.C,U2*%
X34690000Y12830000D02*
X32150000Y12830000D01*
X22760000Y13850000D02*
X24620000Y13850000D01*
X29520000Y13850000D02*
X73360000Y13850000D01*
X73360000Y13850000D02*
X73360000Y36950000D01*
X22760000Y16130000D02*
X25020000Y16130000D01*
X22760000Y36950000D02*
X22760000Y13850000D01*
X73360000Y36950000D02*
X22760000Y36950000D01*
X27970000Y14580000D02*
G75*
G03*
X27970000Y14580000I-900000J0D01*
G01*
X29620000Y14580000D02*
G75*
G03*
X29620000Y14580000I-2550000J0D01*
G01*
%TO.C,C6*%
X108870000Y93980000D02*
X108870000Y69850000D01*
X107030000Y93980000D02*
X107030000Y69850000D01*
%TO.C,D2*%
X129250000Y74896000D02*
X129250000Y74740000D01*
X129250000Y72580000D02*
X129250000Y72424000D01*
X132482334Y74738608D02*
G75*
G03*
X129250001Y74895515I-1672334J-1078608D01*
G01*
X131851129Y74739836D02*
G75*
G03*
X129769040Y74739999I-1041129J-1079836D01*
G01*
X129769040Y72580001D02*
G75*
G03*
X131851129Y72580164I1040960J1079999D01*
G01*
X129250001Y72424485D02*
G75*
G03*
X132482334Y72581392I1559999J1235515D01*
G01*
%TO.C,C4*%
X88550000Y98060000D02*
X88550000Y87560000D01*
X86710000Y98060000D02*
X86710000Y87560000D01*
%TO.C,RN3*%
X76030000Y26800000D02*
X76030000Y24000000D01*
X76030000Y24000000D02*
X99230000Y24000000D01*
X78740000Y26800000D02*
X78740000Y24000000D01*
X99230000Y26800000D02*
X76030000Y26800000D01*
X99230000Y24000000D02*
X99230000Y26800000D01*
%TO.C,J1*%
X131230000Y93950000D02*
X131230000Y95550000D01*
X130930000Y94250000D02*
X128830000Y94250000D01*
X130930000Y108950000D02*
X130930000Y94250000D01*
X129530000Y93950000D02*
X131230000Y93950000D01*
X123830000Y94250000D02*
X121730000Y94250000D01*
X121730000Y94250000D02*
X121730000Y96050000D01*
X121730000Y100450000D02*
X121730000Y108950000D01*
X121730000Y108950000D02*
X130930000Y108950000D01*
%TO.C,U13*%
X76080000Y29150000D02*
X101720000Y29150000D01*
X101720000Y29150000D02*
X101720000Y39430000D01*
X76140000Y31640000D02*
X101660000Y31640000D01*
X101660000Y31640000D02*
X101660000Y36940000D01*
X76140000Y33290000D02*
X76140000Y31640000D01*
X76140000Y36940000D02*
X76140000Y35290000D01*
X101660000Y36940000D02*
X76140000Y36940000D01*
X76080000Y39430000D02*
X76080000Y29150000D01*
X101720000Y39430000D02*
X76080000Y39430000D01*
X76140000Y33290000D02*
G75*
G03*
X76140000Y35290000I0J1000000D01*
G01*
%TO.C,RN1*%
X76070000Y40450000D02*
X78870000Y40450000D01*
X78870000Y40450000D02*
X78870000Y53490000D01*
X76070000Y43160000D02*
X78870000Y43160000D01*
X76070000Y53490000D02*
X76070000Y40450000D01*
X78870000Y53490000D02*
X76070000Y53490000D01*
%TO.C,R3*%
X127000000Y70790000D02*
X127000000Y71740000D01*
X126080000Y71740000D02*
X127920000Y71740000D01*
X127920000Y71740000D02*
X127920000Y75580000D01*
X126080000Y75580000D02*
X126080000Y71740000D01*
X127920000Y75580000D02*
X126080000Y75580000D01*
X127000000Y76530000D02*
X127000000Y75580000D01*
%TO.C,U11*%
X23840000Y51420000D02*
X23840000Y39270000D01*
X23840000Y39270000D02*
X43990000Y39270000D01*
X43990000Y52170000D02*
X24590000Y52170000D01*
X44740000Y40020000D02*
X44740000Y51420000D01*
X24590000Y52170000D02*
G75*
G03*
X23840000Y51420000I0J-750000D01*
G01*
X44740000Y51420000D02*
G75*
G03*
X43990000Y52170000I-750000J0D01*
G01*
X43990000Y39270000D02*
G75*
G03*
X44740000Y40020000I0J750000D01*
G01*
%TO.C,U3*%
X101490000Y101660000D02*
X101490000Y60900000D01*
X101490000Y60900000D02*
X114410000Y60900000D01*
X106950000Y101660000D02*
X101490000Y101660000D01*
X114410000Y101660000D02*
X108950000Y101660000D01*
X114410000Y60900000D02*
X114410000Y101660000D01*
X106950000Y101660000D02*
G75*
G03*
X108950000Y101660000I1000000J0D01*
G01*
%TO.C,SW6*%
X104020000Y11320000D02*
X105403000Y11320000D01*
X104020000Y11320000D02*
X104020000Y12704000D01*
X104260000Y11560000D02*
X126881000Y11560000D01*
X104260000Y11560000D02*
X104260000Y21460000D01*
X126881000Y11560000D02*
X126881000Y21460000D01*
X106045000Y14480000D02*
X107315000Y14480000D01*
X106165000Y14480000D02*
X106165000Y15833333D01*
X106285000Y14480000D02*
X106285000Y15833333D01*
X106405000Y14480000D02*
X106405000Y15833333D01*
X106525000Y14480000D02*
X106525000Y15833333D01*
X106645000Y14480000D02*
X106645000Y15833333D01*
X106765000Y14480000D02*
X106765000Y15833333D01*
X106885000Y14480000D02*
X106885000Y15833333D01*
X107005000Y14480000D02*
X107005000Y15833333D01*
X107125000Y14480000D02*
X107125000Y15833333D01*
X107245000Y14480000D02*
X107245000Y15833333D01*
X107315000Y14480000D02*
X107315000Y18540000D01*
X108585000Y14480000D02*
X109855000Y14480000D01*
X108705000Y14480000D02*
X108705000Y15833333D01*
X108825000Y14480000D02*
X108825000Y15833333D01*
X108945000Y14480000D02*
X108945000Y15833333D01*
X109065000Y14480000D02*
X109065000Y15833333D01*
X109185000Y14480000D02*
X109185000Y15833333D01*
X109305000Y14480000D02*
X109305000Y15833333D01*
X109425000Y14480000D02*
X109425000Y15833333D01*
X109545000Y14480000D02*
X109545000Y15833333D01*
X109665000Y14480000D02*
X109665000Y15833333D01*
X109785000Y14480000D02*
X109785000Y15833333D01*
X109855000Y14480000D02*
X109855000Y18540000D01*
X111125000Y14480000D02*
X112395000Y14480000D01*
X111245000Y14480000D02*
X111245000Y15833333D01*
X111365000Y14480000D02*
X111365000Y15833333D01*
X111485000Y14480000D02*
X111485000Y15833333D01*
X111605000Y14480000D02*
X111605000Y15833333D01*
X111725000Y14480000D02*
X111725000Y15833333D01*
X111845000Y14480000D02*
X111845000Y15833333D01*
X111965000Y14480000D02*
X111965000Y15833333D01*
X112085000Y14480000D02*
X112085000Y15833333D01*
X112205000Y14480000D02*
X112205000Y15833333D01*
X112325000Y14480000D02*
X112325000Y15833333D01*
X112395000Y14480000D02*
X112395000Y18540000D01*
X113665000Y14480000D02*
X114935000Y14480000D01*
X113785000Y14480000D02*
X113785000Y15833333D01*
X113905000Y14480000D02*
X113905000Y15833333D01*
X114025000Y14480000D02*
X114025000Y15833333D01*
X114145000Y14480000D02*
X114145000Y15833333D01*
X114265000Y14480000D02*
X114265000Y15833333D01*
X114385000Y14480000D02*
X114385000Y15833333D01*
X114505000Y14480000D02*
X114505000Y15833333D01*
X114625000Y14480000D02*
X114625000Y15833333D01*
X114745000Y14480000D02*
X114745000Y15833333D01*
X114865000Y14480000D02*
X114865000Y15833333D01*
X114935000Y14480000D02*
X114935000Y18540000D01*
X116205000Y14480000D02*
X117475000Y14480000D01*
X116325000Y14480000D02*
X116325000Y15833333D01*
X116445000Y14480000D02*
X116445000Y15833333D01*
X116565000Y14480000D02*
X116565000Y15833333D01*
X116685000Y14480000D02*
X116685000Y15833333D01*
X116805000Y14480000D02*
X116805000Y15833333D01*
X116925000Y14480000D02*
X116925000Y15833333D01*
X117045000Y14480000D02*
X117045000Y15833333D01*
X117165000Y14480000D02*
X117165000Y15833333D01*
X117285000Y14480000D02*
X117285000Y15833333D01*
X117405000Y14480000D02*
X117405000Y15833333D01*
X117475000Y14480000D02*
X117475000Y18540000D01*
X118745000Y14480000D02*
X120015000Y14480000D01*
X118865000Y14480000D02*
X118865000Y15833333D01*
X118985000Y14480000D02*
X118985000Y15833333D01*
X119105000Y14480000D02*
X119105000Y15833333D01*
X119225000Y14480000D02*
X119225000Y15833333D01*
X119345000Y14480000D02*
X119345000Y15833333D01*
X119465000Y14480000D02*
X119465000Y15833333D01*
X119585000Y14480000D02*
X119585000Y15833333D01*
X119705000Y14480000D02*
X119705000Y15833333D01*
X119825000Y14480000D02*
X119825000Y15833333D01*
X119945000Y14480000D02*
X119945000Y15833333D01*
X120015000Y14480000D02*
X120015000Y18540000D01*
X121285000Y14480000D02*
X122555000Y14480000D01*
X121405000Y14480000D02*
X121405000Y15833333D01*
X121525000Y14480000D02*
X121525000Y15833333D01*
X121645000Y14480000D02*
X121645000Y15833333D01*
X121765000Y14480000D02*
X121765000Y15833333D01*
X121885000Y14480000D02*
X121885000Y15833333D01*
X122005000Y14480000D02*
X122005000Y15833333D01*
X122125000Y14480000D02*
X122125000Y15833333D01*
X122245000Y14480000D02*
X122245000Y15833333D01*
X122365000Y14480000D02*
X122365000Y15833333D01*
X122485000Y14480000D02*
X122485000Y15833333D01*
X122555000Y14480000D02*
X122555000Y18540000D01*
X123825000Y14480000D02*
X125095000Y14480000D01*
X123945000Y14480000D02*
X123945000Y15833333D01*
X124065000Y14480000D02*
X124065000Y15833333D01*
X124185000Y14480000D02*
X124185000Y15833333D01*
X124305000Y14480000D02*
X124305000Y15833333D01*
X124425000Y14480000D02*
X124425000Y15833333D01*
X124545000Y14480000D02*
X124545000Y15833333D01*
X124665000Y14480000D02*
X124665000Y15833333D01*
X124785000Y14480000D02*
X124785000Y15833333D01*
X124905000Y14480000D02*
X124905000Y15833333D01*
X125025000Y14480000D02*
X125025000Y15833333D01*
X125095000Y14480000D02*
X125095000Y18540000D01*
X106045000Y15833333D02*
X107315000Y15833333D01*
X108585000Y15833333D02*
X109855000Y15833333D01*
X111125000Y15833333D02*
X112395000Y15833333D01*
X113665000Y15833333D02*
X114935000Y15833333D01*
X116205000Y15833333D02*
X117475000Y15833333D01*
X118745000Y15833333D02*
X120015000Y15833333D01*
X121285000Y15833333D02*
X122555000Y15833333D01*
X123825000Y15833333D02*
X125095000Y15833333D01*
X106045000Y18540000D02*
X106045000Y14480000D01*
X107315000Y18540000D02*
X106045000Y18540000D01*
X108585000Y18540000D02*
X108585000Y14480000D01*
X109855000Y18540000D02*
X108585000Y18540000D01*
X111125000Y18540000D02*
X111125000Y14480000D01*
X112395000Y18540000D02*
X111125000Y18540000D01*
X113665000Y18540000D02*
X113665000Y14480000D01*
X114935000Y18540000D02*
X113665000Y18540000D01*
X116205000Y18540000D02*
X116205000Y14480000D01*
X117475000Y18540000D02*
X116205000Y18540000D01*
X118745000Y18540000D02*
X118745000Y14480000D01*
X120015000Y18540000D02*
X118745000Y18540000D01*
X121285000Y18540000D02*
X121285000Y14480000D01*
X122555000Y18540000D02*
X121285000Y18540000D01*
X123825000Y18540000D02*
X123825000Y14480000D01*
X125095000Y18540000D02*
X123825000Y18540000D01*
X104260000Y21460000D02*
X126881000Y21460000D01*
%TO.C,C8*%
X113300000Y53070000D02*
X102800000Y53070000D01*
X113300000Y51230000D02*
X102800000Y51230000D01*
%TO.C,C11*%
X21640000Y26049000D02*
X21640000Y24791000D01*
X19800000Y26049000D02*
X19800000Y24791000D01*
%TO.C,U12*%
X72510000Y97850000D02*
X21470000Y97850000D01*
X21470000Y97850000D02*
X21470000Y79950000D01*
X72450000Y95360000D02*
X21530000Y95360000D01*
X21530000Y95360000D02*
X21530000Y82440000D01*
X72450000Y89900000D02*
X72450000Y95360000D01*
X72450000Y82440000D02*
X72450000Y87900000D01*
X21530000Y82440000D02*
X72450000Y82440000D01*
X72510000Y79950000D02*
X72510000Y97850000D01*
X21470000Y79950000D02*
X72510000Y79950000D01*
X72450000Y89900000D02*
G75*
G03*
X72450000Y87900000I0J-1000000D01*
G01*
%TO.C,U7*%
X123790000Y60530000D02*
X127640000Y60530000D01*
X125730000Y64829999D02*
G75*
G03*
X123373601Y63328807I0J-2599999D01*
G01*
X123407369Y61107955D02*
G75*
G03*
X123790000Y60530000I2322631J1122045D01*
G01*
X128086400Y63328807D02*
G75*
G03*
X125730000Y64830000I-2356400J-1098807D01*
G01*
X127639999Y60530001D02*
G75*
G03*
X128032382Y61117736I-1909999J1699999D01*
G01*
%TO.C,C9*%
X83550000Y35210000D02*
X94050000Y35210000D01*
X83550000Y33370000D02*
X94050000Y33370000D01*
%TO.C,R2*%
X124460000Y70790000D02*
X124460000Y71740000D01*
X123540000Y71740000D02*
X125380000Y71740000D01*
X125380000Y71740000D02*
X125380000Y75580000D01*
X123540000Y75580000D02*
X123540000Y71740000D01*
X125380000Y75580000D02*
X123540000Y75580000D01*
X124460000Y76530000D02*
X124460000Y75580000D01*
%TO.C,U8*%
X116900000Y53150000D02*
G75*
G03*
X116900000Y51150000I0J-1000000D01*
G01*
X98940000Y47010000D02*
X116960000Y47010000D01*
X116960000Y47010000D02*
X116960000Y57290000D01*
X99000000Y49500000D02*
X116900000Y49500000D01*
X116900000Y49500000D02*
X116900000Y51150000D01*
X116900000Y53150000D02*
X116900000Y54800000D01*
X99000000Y54800000D02*
X99000000Y49500000D01*
X116900000Y54800000D02*
X99000000Y54800000D01*
X98940000Y57290000D02*
X98940000Y47010000D01*
X116960000Y57290000D02*
X98940000Y57290000D01*
%TO.C,U6*%
X46870000Y40580000D02*
X72510000Y40580000D01*
X72510000Y40580000D02*
X72510000Y50860000D01*
X46930000Y43070000D02*
X72450000Y43070000D01*
X72450000Y43070000D02*
X72450000Y48370000D01*
X46930000Y44720000D02*
X46930000Y43070000D01*
X46930000Y48370000D02*
X46930000Y46720000D01*
X72450000Y48370000D02*
X46930000Y48370000D01*
X46870000Y50860000D02*
X46870000Y40580000D01*
X72510000Y50860000D02*
X46870000Y50860000D01*
X46930000Y44720000D02*
G75*
G03*
X46930000Y46720000I0J1000000D01*
G01*
%TO.C,BAR1*%
X75770000Y11000000D02*
X77470000Y11000000D01*
X76060000Y11290000D02*
X76060000Y21730000D01*
X101740000Y11290000D02*
X76060000Y11290000D01*
X75770000Y12700000D02*
X75770000Y11000000D01*
X76060000Y21730000D02*
X101740000Y21730000D01*
X101740000Y21730000D02*
X101740000Y11290000D01*
%TO.C,U5*%
X82490000Y105530000D02*
X82490000Y79890000D01*
X82490000Y79890000D02*
X92770000Y79890000D01*
X84980000Y105470000D02*
X84980000Y79950000D01*
X84980000Y79950000D02*
X90280000Y79950000D01*
X86630000Y105470000D02*
X84980000Y105470000D01*
X90280000Y105470000D02*
X88630000Y105470000D01*
X90280000Y79950000D02*
X90280000Y105470000D01*
X92770000Y105530000D02*
X82490000Y105530000D01*
X92770000Y79890000D02*
X92770000Y105530000D01*
X86630000Y105470000D02*
G75*
G03*
X88630000Y105470000I1000000J0D01*
G01*
%TO.C,SW1*%
X129790000Y50395000D02*
X129790000Y51895000D01*
X128540000Y54395000D02*
X124040000Y54395000D01*
X124040000Y47895000D02*
X128540000Y47895000D01*
X122790000Y51895000D02*
X122790000Y50395000D01*
%TO.C,U10*%
X120610000Y89630000D02*
X120610000Y84989000D01*
X120610000Y89630000D02*
X130850000Y89630000D01*
X120610000Y88120000D02*
X130850000Y88120000D01*
X120610000Y84989000D02*
X130850000Y84989000D01*
X123880000Y89630000D02*
X123880000Y88120000D01*
X127581000Y89630000D02*
X127581000Y88120000D01*
X130850000Y89630000D02*
X130850000Y84989000D01*
%TD*%
M02*
