%TF.GenerationSoftware,KiCad,Pcbnew,7.0.7*%
%TF.CreationDate,2023-09-28T02:10:51+03:00*%
%TF.ProjectId,main,6d61696e-2e6b-4696-9361-645f70636258,rev?*%
%TF.SameCoordinates,Original*%
%TF.FileFunction,Copper,L1,Top*%
%TF.FilePolarity,Positive*%
%FSLAX46Y46*%
G04 Gerber Fmt 4.6, Leading zero omitted, Abs format (unit mm)*
G04 Created by KiCad (PCBNEW 7.0.7) date 2023-09-28 02:10:51*
%MOMM*%
%LPD*%
G01*
G04 APERTURE LIST*
%TA.AperFunction,ComponentPad*%
%ADD10R,1.800000X1.800000*%
%TD*%
%TA.AperFunction,ComponentPad*%
%ADD11C,1.800000*%
%TD*%
%TA.AperFunction,ComponentPad*%
%ADD12R,1.600000X1.600000*%
%TD*%
%TA.AperFunction,ComponentPad*%
%ADD13O,1.600000X1.600000*%
%TD*%
%TA.AperFunction,ComponentPad*%
%ADD14C,1.600000*%
%TD*%
%TA.AperFunction,ComponentPad*%
%ADD15R,1.700000X1.700000*%
%TD*%
%TA.AperFunction,ComponentPad*%
%ADD16O,1.700000X1.700000*%
%TD*%
%TA.AperFunction,ComponentPad*%
%ADD17C,4.000000*%
%TD*%
%TA.AperFunction,ComponentPad*%
%ADD18C,1.400000*%
%TD*%
%TA.AperFunction,ComponentPad*%
%ADD19O,1.400000X1.400000*%
%TD*%
%TA.AperFunction,ComponentPad*%
%ADD20R,1.440000X1.440000*%
%TD*%
%TA.AperFunction,ComponentPad*%
%ADD21O,1.440000X1.440000*%
%TD*%
%TA.AperFunction,ComponentPad*%
%ADD22R,4.400000X1.800000*%
%TD*%
%TA.AperFunction,ComponentPad*%
%ADD23O,4.000000X1.800000*%
%TD*%
%TA.AperFunction,ComponentPad*%
%ADD24O,1.800000X4.000000*%
%TD*%
%TA.AperFunction,ComponentPad*%
%ADD25C,5.000000*%
%TD*%
%TA.AperFunction,ComponentPad*%
%ADD26C,2.000000*%
%TD*%
%TA.AperFunction,ComponentPad*%
%ADD27R,1.500000X1.500000*%
%TD*%
%TA.AperFunction,ComponentPad*%
%ADD28C,1.500000*%
%TD*%
%TA.AperFunction,ComponentPad*%
%ADD29R,2.032000X2.032000*%
%TD*%
%TA.AperFunction,ComponentPad*%
%ADD30C,2.032000*%
%TD*%
%TA.AperFunction,ComponentPad*%
%ADD31R,1.905000X2.000000*%
%TD*%
%TA.AperFunction,ComponentPad*%
%ADD32O,1.905000X2.000000*%
%TD*%
%TA.AperFunction,ViaPad*%
%ADD33C,0.800000*%
%TD*%
%TA.AperFunction,Conductor*%
%ADD34C,0.250000*%
%TD*%
%TA.AperFunction,Conductor*%
%ADD35C,1.000000*%
%TD*%
G04 APERTURE END LIST*
D10*
%TO.P,D1,1,K*%
%TO.N,Net-(D1-K)*%
X129540000Y73660000D03*
D11*
%TO.P,D1,2,A*%
%TO.N,+5V*%
X132080000Y73660000D03*
%TD*%
D12*
%TO.P,U4,1,OE*%
%TO.N,GND*%
X83820000Y72390000D03*
D13*
%TO.P,U4,2,D0*%
%TO.N,AD_{7}*%
X83820000Y69850000D03*
%TO.P,U4,3,D1*%
%TO.N,AD_{6}*%
X83820000Y67310000D03*
%TO.P,U4,4,D2*%
%TO.N,AD_{5}*%
X83820000Y64770000D03*
%TO.P,U4,5,D3*%
%TO.N,AD_{4}*%
X83820000Y62230000D03*
%TO.P,U4,6,D4*%
%TO.N,AD_{3}*%
X83820000Y59690000D03*
%TO.P,U4,7,D5*%
%TO.N,AD_{2}*%
X83820000Y57150000D03*
%TO.P,U4,8,D6*%
%TO.N,AD_{1}*%
X83820000Y54610000D03*
%TO.P,U4,9,D7*%
%TO.N,AD_{0}*%
X83820000Y52070000D03*
%TO.P,U4,10,GND*%
%TO.N,GND*%
X83820000Y49530000D03*
%TO.P,U4,11,Load*%
%TO.N,ALE*%
X91440000Y49530000D03*
%TO.P,U4,12,Q7*%
%TO.N,A_{0}*%
X91440000Y52070000D03*
%TO.P,U4,13,Q6*%
%TO.N,A_{1}*%
X91440000Y54610000D03*
%TO.P,U4,14,Q5*%
%TO.N,A_{2}*%
X91440000Y57150000D03*
%TO.P,U4,15,Q4*%
%TO.N,A_{3}*%
X91440000Y59690000D03*
%TO.P,U4,16,Q3*%
%TO.N,A_{4}*%
X91440000Y62230000D03*
%TO.P,U4,17,Q2*%
%TO.N,A_{5}*%
X91440000Y64770000D03*
%TO.P,U4,18,Q1*%
%TO.N,A_{6}*%
X91440000Y67310000D03*
%TO.P,U4,19,Q0*%
%TO.N,A_{7}*%
X91440000Y69850000D03*
%TO.P,U4,20,VCC*%
%TO.N,+5V*%
X91440000Y72390000D03*
%TD*%
D14*
%TO.P,C2,1*%
%TO.N,+5V*%
X40640000Y88900000D03*
%TO.P,C2,2*%
%TO.N,GND*%
X53340000Y88900000D03*
%TD*%
D12*
%TO.P,RN4,1,common*%
%TO.N,GND*%
X106680000Y25400000D03*
D13*
%TO.P,RN4,2,R1*%
%TO.N,Net-(RN4-R1)*%
X109220000Y25400000D03*
%TO.P,RN4,3,R2*%
%TO.N,Net-(RN4-R2)*%
X111760000Y25400000D03*
%TO.P,RN4,4,R3*%
%TO.N,Net-(RN4-R3)*%
X114300000Y25400000D03*
%TO.P,RN4,5,R4*%
%TO.N,Net-(RN4-R4)*%
X116840000Y25400000D03*
%TO.P,RN4,6,R5*%
%TO.N,Net-(RN4-R5)*%
X119380000Y25400000D03*
%TO.P,RN4,7,R6*%
%TO.N,Net-(RN4-R6)*%
X121920000Y25400000D03*
%TO.P,RN4,8,R7*%
%TO.N,Net-(RN4-R7)*%
X124460000Y25400000D03*
%TO.P,RN4,9,R8*%
%TO.N,Net-(RN4-R8)*%
X127000000Y25400000D03*
%TD*%
D15*
%TO.P,J2,1,Pin_1*%
%TO.N,GND*%
X17780000Y85090000D03*
D16*
%TO.P,J2,2,Pin_2*%
%TO.N,+5V*%
X17780000Y87630000D03*
%TO.P,J2,3,Pin_3*%
%TO.N,PS2CLK*%
X17780000Y90170000D03*
%TO.P,J2,4,Pin_4*%
%TO.N,PS2DATA*%
X17780000Y92710000D03*
%TD*%
D17*
%TO.P,H1,*%
%TO.N,*%
X19050000Y13970000D03*
%TD*%
D18*
%TO.P,R4,1*%
%TO.N,+5V*%
X33020000Y86360000D03*
D19*
%TO.P,R4,2*%
%TO.N,PS2CLK*%
X25400000Y86360000D03*
%TD*%
D14*
%TO.P,C10,1*%
%TO.N,+5V*%
X111760000Y34290000D03*
%TO.P,C10,2*%
%TO.N,GND*%
X124460000Y34290000D03*
%TD*%
D12*
%TO.P,U1,1,GND*%
%TO.N,GND*%
X22860000Y57150000D03*
D13*
%TO.P,U1,2,A14*%
%TO.N,A_{14}*%
X25400000Y57150000D03*
%TO.P,U1,3,A13*%
%TO.N,A_{13}*%
X27940000Y57150000D03*
%TO.P,U1,4,A12*%
%TO.N,A_{12}*%
X30480000Y57150000D03*
%TO.P,U1,5,A11*%
%TO.N,A_{11}*%
X33020000Y57150000D03*
%TO.P,U1,6,A10*%
%TO.N,A_{10}*%
X35560000Y57150000D03*
%TO.P,U1,7,A9*%
%TO.N,A_{9}*%
X38100000Y57150000D03*
%TO.P,U1,8,A8*%
%TO.N,A_{8}*%
X40640000Y57150000D03*
%TO.P,U1,9,AD7*%
%TO.N,AD_{7}*%
X43180000Y57150000D03*
%TO.P,U1,10,AD6*%
%TO.N,AD_{6}*%
X45720000Y57150000D03*
%TO.P,U1,11,AD5*%
%TO.N,AD_{5}*%
X48260000Y57150000D03*
%TO.P,U1,12,AD4*%
%TO.N,AD_{4}*%
X50800000Y57150000D03*
%TO.P,U1,13,AD3*%
%TO.N,AD_{3}*%
X53340000Y57150000D03*
%TO.P,U1,14,AD2*%
%TO.N,AD_{2}*%
X55880000Y57150000D03*
%TO.P,U1,15,AD1*%
%TO.N,AD_{1}*%
X58420000Y57150000D03*
%TO.P,U1,16,AD0*%
%TO.N,AD_{0}*%
X60960000Y57150000D03*
%TO.P,U1,17,NMI*%
%TO.N,Net-(RN1B-R2.2)*%
X63500000Y57150000D03*
%TO.P,U1,18,INTR*%
%TO.N,INT*%
X66040000Y57150000D03*
%TO.P,U1,19,CLK*%
%TO.N,CLK*%
X68580000Y57150000D03*
%TO.P,U1,20,GND*%
%TO.N,GND*%
X71120000Y57150000D03*
%TO.P,U1,21,RESET*%
%TO.N,RES*%
X71120000Y72390000D03*
%TO.P,U1,22,READY*%
%TO.N,Net-(RN1A-R1.2)*%
X68580000Y72390000D03*
%TO.P,U1,23,~{TEST}*%
%TO.N,GND*%
X66040000Y72390000D03*
%TO.P,U1,24,~{INTA}*%
%TO.N,unconnected-(U1-~{INTA}-Pad24)*%
X63500000Y72390000D03*
%TO.P,U1,25,ALE*%
%TO.N,ALE*%
X60960000Y72390000D03*
%TO.P,U1,26,DEN*%
%TO.N,unconnected-(U1-DEN-Pad26)*%
X58420000Y72390000D03*
%TO.P,U1,27,DT/~{R}*%
%TO.N,unconnected-(U1-DT{slash}~{R}-Pad27)*%
X55880000Y72390000D03*
%TO.P,U1,28,IO/~{M}*%
%TO.N,IO{slash}~{M}*%
X53340000Y72390000D03*
%TO.P,U1,29,WR*%
%TO.N,~{WR}*%
X50800000Y72390000D03*
%TO.P,U1,30,HLDA*%
%TO.N,unconnected-(U1-HLDA-Pad30)*%
X48260000Y72390000D03*
%TO.P,U1,31,HOLD*%
%TO.N,unconnected-(U1-HOLD-Pad31)*%
X45720000Y72390000D03*
%TO.P,U1,32,~{RD}*%
%TO.N,~{RD}*%
X43180000Y72390000D03*
%TO.P,U1,33,MN/~{MX}*%
%TO.N,Net-(RN1D-R4.2)*%
X40640000Y72390000D03*
%TO.P,U1,34,~{SSO}*%
%TO.N,unconnected-(U1-~{SSO}-Pad34)*%
X38100000Y72390000D03*
%TO.P,U1,35,A19/S6*%
%TO.N,AS_{19}*%
X35560000Y72390000D03*
%TO.P,U1,36,A18/S5*%
%TO.N,AS_{18}*%
X33020000Y72390000D03*
%TO.P,U1,37,A17/S4*%
%TO.N,AS_{17}*%
X30480000Y72390000D03*
%TO.P,U1,38,A16/S3*%
%TO.N,AS_{16}*%
X27940000Y72390000D03*
%TO.P,U1,39,A15*%
%TO.N,A_{15}*%
X25400000Y72390000D03*
%TO.P,U1,40,VCC*%
%TO.N,+5V*%
X22860000Y72390000D03*
%TD*%
D14*
%TO.P,C5,1*%
%TO.N,+5V*%
X87630000Y67310000D03*
%TO.P,C5,2*%
%TO.N,GND*%
X87630000Y54610000D03*
%TD*%
%TO.P,C7,1*%
%TO.N,+5V*%
X53340000Y45720000D03*
%TO.P,C7,2*%
%TO.N,GND*%
X66040000Y45720000D03*
%TD*%
D12*
%TO.P,U14,1,1OE*%
%TO.N,IN~{EN}*%
X106680000Y30480000D03*
D13*
%TO.P,U14,2,1A0*%
%TO.N,Net-(RN4-R1)*%
X109220000Y30480000D03*
%TO.P,U14,3,2Y0*%
%TO.N,AD_{4}*%
X111760000Y30480000D03*
%TO.P,U14,4,1A1*%
%TO.N,Net-(RN4-R2)*%
X114300000Y30480000D03*
%TO.P,U14,5,2Y1*%
%TO.N,AD_{5}*%
X116840000Y30480000D03*
%TO.P,U14,6,1A2*%
%TO.N,Net-(RN4-R3)*%
X119380000Y30480000D03*
%TO.P,U14,7,2Y2*%
%TO.N,AD_{6}*%
X121920000Y30480000D03*
%TO.P,U14,8,1A3*%
%TO.N,Net-(RN4-R4)*%
X124460000Y30480000D03*
%TO.P,U14,9,2Y3*%
%TO.N,AD_{7}*%
X127000000Y30480000D03*
%TO.P,U14,10,GND*%
%TO.N,GND*%
X129540000Y30480000D03*
%TO.P,U14,11,2A3*%
%TO.N,Net-(RN4-R8)*%
X129540000Y38100000D03*
%TO.P,U14,12,1Y3*%
%TO.N,AD_{3}*%
X127000000Y38100000D03*
%TO.P,U14,13,2A2*%
%TO.N,Net-(RN4-R7)*%
X124460000Y38100000D03*
%TO.P,U14,14,1Y2*%
%TO.N,AD_{2}*%
X121920000Y38100000D03*
%TO.P,U14,15,2A1*%
%TO.N,Net-(RN4-R6)*%
X119380000Y38100000D03*
%TO.P,U14,16,1Y1*%
%TO.N,AD_{1}*%
X116840000Y38100000D03*
%TO.P,U14,17,2A0*%
%TO.N,Net-(RN4-R5)*%
X114300000Y38100000D03*
%TO.P,U14,18,1Y0*%
%TO.N,AD_{0}*%
X111760000Y38100000D03*
%TO.P,U14,19,2OE*%
%TO.N,IN~{EN}*%
X109220000Y38100000D03*
%TO.P,U14,20,VCC*%
%TO.N,+5V*%
X106680000Y38100000D03*
%TD*%
D14*
%TO.P,C3,1*%
%TO.N,+5V*%
X25400000Y66040000D03*
%TO.P,C3,2*%
%TO.N,GND*%
X25400000Y63540000D03*
%TD*%
D20*
%TO.P,U2,1,A15*%
%TO.N,A_{15}*%
X33420000Y17780000D03*
D21*
%TO.P,U2,2,A12*%
%TO.N,A_{12}*%
X35960000Y17780000D03*
%TO.P,U2,3,A7*%
%TO.N,A_{7}*%
X38500000Y17780000D03*
%TO.P,U2,4,A6*%
%TO.N,A_{6}*%
X41040000Y17780000D03*
%TO.P,U2,5,A5*%
%TO.N,A_{5}*%
X43580000Y17780000D03*
%TO.P,U2,6,A4*%
%TO.N,A_{4}*%
X46120000Y17780000D03*
%TO.P,U2,7,A3*%
%TO.N,A_{3}*%
X48660000Y17780000D03*
%TO.P,U2,8,A2*%
%TO.N,A_{2}*%
X51200000Y17780000D03*
%TO.P,U2,9,A1*%
%TO.N,A_{1}*%
X53740000Y17780000D03*
%TO.P,U2,10,A0*%
%TO.N,A_{0}*%
X56280000Y17780000D03*
%TO.P,U2,11,D0*%
%TO.N,AD_{0}*%
X58820000Y17780000D03*
%TO.P,U2,12,D1*%
%TO.N,AD_{1}*%
X61360000Y17780000D03*
%TO.P,U2,13,D2*%
%TO.N,AD_{2}*%
X63900000Y17780000D03*
%TO.P,U2,14,GND*%
%TO.N,GND*%
X66440000Y17780000D03*
%TO.P,U2,15,D3*%
%TO.N,AD_{3}*%
X66440000Y33020000D03*
%TO.P,U2,16,D4*%
%TO.N,AD_{4}*%
X63900000Y33020000D03*
%TO.P,U2,17,D5*%
%TO.N,AD_{5}*%
X61360000Y33020000D03*
%TO.P,U2,18,D6*%
%TO.N,AD_{6}*%
X58820000Y33020000D03*
%TO.P,U2,19,D7*%
%TO.N,AD_{7}*%
X56280000Y33020000D03*
%TO.P,U2,20,~{CE}*%
%TO.N,ROM~{EN}*%
X53740000Y33020000D03*
%TO.P,U2,21,A10*%
%TO.N,A_{10}*%
X51200000Y33020000D03*
%TO.P,U2,22,~{OE}*%
%TO.N,~{RD}*%
X48660000Y33020000D03*
%TO.P,U2,23,A11*%
%TO.N,A_{11}*%
X46120000Y33020000D03*
%TO.P,U2,24,A9*%
%TO.N,A_{9}*%
X43580000Y33020000D03*
%TO.P,U2,25,A8*%
%TO.N,A_{8}*%
X41040000Y33020000D03*
%TO.P,U2,26,A13*%
%TO.N,A_{13}*%
X38500000Y33020000D03*
%TO.P,U2,27,A14*%
%TO.N,A_{14}*%
X35960000Y33020000D03*
%TO.P,U2,28,VCC*%
%TO.N,+5V*%
X33420000Y33020000D03*
%TD*%
D14*
%TO.P,C6,1*%
%TO.N,+5V*%
X107950000Y96520000D03*
%TO.P,C6,2*%
%TO.N,GND*%
X107950000Y67310000D03*
%TD*%
D10*
%TO.P,D2,1,K*%
%TO.N,Net-(D2-K)*%
X121920000Y73660000D03*
D11*
%TO.P,D2,2,A*%
%TO.N,RES*%
X119380000Y73660000D03*
%TD*%
D14*
%TO.P,C4,1*%
%TO.N,+5V*%
X87630000Y99060000D03*
%TO.P,C4,2*%
%TO.N,GND*%
X87630000Y86360000D03*
%TD*%
D12*
%TO.P,RN3,1,common*%
%TO.N,GND*%
X77470000Y25400000D03*
D13*
%TO.P,RN3,2,R1*%
%TO.N,Net-(RN3-R1)*%
X80010000Y25400000D03*
%TO.P,RN3,3,R2*%
%TO.N,Net-(RN3-R2)*%
X82550000Y25400000D03*
%TO.P,RN3,4,R3*%
%TO.N,Net-(RN3-R3)*%
X85090000Y25400000D03*
%TO.P,RN3,5,R4*%
%TO.N,Net-(RN3-R4)*%
X87630000Y25400000D03*
%TO.P,RN3,6,R5*%
%TO.N,Net-(RN3-R5)*%
X90170000Y25400000D03*
%TO.P,RN3,7,R6*%
%TO.N,Net-(RN3-R6)*%
X92710000Y25400000D03*
%TO.P,RN3,8,R7*%
%TO.N,Net-(RN3-R7)*%
X95250000Y25400000D03*
%TO.P,RN3,9,R8*%
%TO.N,Net-(RN3-R8)*%
X97790000Y25400000D03*
%TD*%
D17*
%TO.P,H2,*%
%TO.N,*%
X130810000Y13970000D03*
%TD*%
D22*
%TO.P,J1,1*%
%TO.N,Net-(U10-IN)*%
X126330000Y95250000D03*
D23*
%TO.P,J1,2*%
%TO.N,GND*%
X126330000Y101050000D03*
D24*
%TO.P,J1,3*%
%TO.N,N/C*%
X121530000Y98250000D03*
%TD*%
D12*
%TO.P,U13,1,~{Mr}*%
%TO.N,Net-(U13-~{Mr})*%
X77470000Y30480000D03*
D13*
%TO.P,U13,2,Q0*%
%TO.N,Net-(U13-Q0)*%
X80010000Y30480000D03*
%TO.P,U13,3,D0*%
%TO.N,AD_{0}*%
X82550000Y30480000D03*
%TO.P,U13,4,D1*%
%TO.N,AD_{1}*%
X85090000Y30480000D03*
%TO.P,U13,5,Q1*%
%TO.N,Net-(U13-Q1)*%
X87630000Y30480000D03*
%TO.P,U13,6,Q2*%
%TO.N,Net-(U13-Q2)*%
X90170000Y30480000D03*
%TO.P,U13,7,D2*%
%TO.N,AD_{2}*%
X92710000Y30480000D03*
%TO.P,U13,8,D3*%
%TO.N,AD_{3}*%
X95250000Y30480000D03*
%TO.P,U13,9,Q3*%
%TO.N,Net-(U13-Q3)*%
X97790000Y30480000D03*
%TO.P,U13,10,GND*%
%TO.N,GND*%
X100330000Y30480000D03*
%TO.P,U13,11,Cp*%
%TO.N,OUT~{EN}*%
X100330000Y38100000D03*
%TO.P,U13,12,Q4*%
%TO.N,Net-(U13-Q4)*%
X97790000Y38100000D03*
%TO.P,U13,13,D4*%
%TO.N,AD_{4}*%
X95250000Y38100000D03*
%TO.P,U13,14,D5*%
%TO.N,AD_{5}*%
X92710000Y38100000D03*
%TO.P,U13,15,Q5*%
%TO.N,Net-(U13-Q5)*%
X90170000Y38100000D03*
%TO.P,U13,16,Q6*%
%TO.N,Net-(U13-Q6)*%
X87630000Y38100000D03*
%TO.P,U13,17,D6*%
%TO.N,AD_{6}*%
X85090000Y38100000D03*
%TO.P,U13,18,D7*%
%TO.N,AD_{7}*%
X82550000Y38100000D03*
%TO.P,U13,19,Q7*%
%TO.N,Net-(U13-Q7)*%
X80010000Y38100000D03*
%TO.P,U13,20,VCC*%
%TO.N,+5V*%
X77470000Y38100000D03*
%TD*%
D12*
%TO.P,RN1,1,R1*%
%TO.N,+5V*%
X77470000Y41890000D03*
D13*
%TO.P,RN1,2,R1.2*%
%TO.N,Net-(RN1A-R1.2)*%
X77470000Y44430000D03*
%TO.P,RN1,3,R2.2*%
%TO.N,Net-(RN1B-R2.2)*%
X77470000Y46970000D03*
%TO.P,RN1,4,R3.2*%
%TO.N,unconnected-(RN1C-R3.2-Pad4)*%
X77470000Y49510000D03*
%TO.P,RN1,5,R4.2*%
%TO.N,Net-(RN1D-R4.2)*%
X77470000Y52050000D03*
%TD*%
D18*
%TO.P,R3,1*%
%TO.N,Net-(D2-K)*%
X124460000Y69850000D03*
D19*
%TO.P,R3,2*%
%TO.N,GND*%
X124460000Y77470000D03*
%TD*%
D14*
%TO.P,U11,*%
%TO.N,*%
X34290000Y49530000D03*
X34290000Y41910000D03*
D12*
%TO.P,U11,1,EN*%
%TO.N,unconnected-(U11-EN-Pad1)*%
X26670000Y41910000D03*
D13*
%TO.P,U11,2*%
%TO.N,unconnected-(U11-Pad2)*%
X29210000Y41910000D03*
%TO.P,U11,3*%
%TO.N,unconnected-(U11-Pad3)*%
X31750000Y41910000D03*
D14*
%TO.P,U11,5*%
%TO.N,GND*%
X36830000Y41910000D03*
%TO.P,U11,6*%
X39370000Y41910000D03*
%TO.P,U11,7,GND*%
X41910000Y41910000D03*
%TO.P,U11,8,OUT*%
%TO.N,Net-(U11-OUT)*%
X41910000Y49530000D03*
%TO.P,U11,9*%
X39370000Y49530000D03*
%TO.P,U11,10*%
X36830000Y49530000D03*
%TO.P,U11,12*%
%TO.N,+5V*%
X31750000Y49530000D03*
%TO.P,U11,13*%
X29210000Y49530000D03*
%TO.P,U11,14,Vcc*%
X26670000Y49530000D03*
%TD*%
D12*
%TO.P,U3,1,A18*%
%TO.N,A_{18}*%
X100330000Y100330000D03*
D13*
%TO.P,U3,2,A16*%
%TO.N,A_{16}*%
X100330000Y97790000D03*
%TO.P,U3,3,A14*%
%TO.N,A_{14}*%
X100330000Y95250000D03*
%TO.P,U3,4,A12*%
%TO.N,A_{12}*%
X100330000Y92710000D03*
%TO.P,U3,5,A7*%
%TO.N,A_{7}*%
X100330000Y90170000D03*
%TO.P,U3,6,A6*%
%TO.N,A_{6}*%
X100330000Y87630000D03*
%TO.P,U3,7,A5*%
%TO.N,A_{5}*%
X100330000Y85090000D03*
%TO.P,U3,8,A4*%
%TO.N,A_{4}*%
X100330000Y82550000D03*
%TO.P,U3,9,A3*%
%TO.N,A_{3}*%
X100330000Y80010000D03*
%TO.P,U3,10,A2*%
%TO.N,A_{2}*%
X100330000Y77470000D03*
%TO.P,U3,11,A1*%
%TO.N,A_{1}*%
X100330000Y74930000D03*
%TO.P,U3,12,A0*%
%TO.N,A_{0}*%
X100330000Y72390000D03*
%TO.P,U3,13,DQ0*%
%TO.N,AD_{0}*%
X100330000Y69850000D03*
%TO.P,U3,14,DQ1*%
%TO.N,AD_{1}*%
X100330000Y67310000D03*
%TO.P,U3,15,DQ2*%
%TO.N,AD_{2}*%
X100330000Y64770000D03*
%TO.P,U3,16,VSS*%
%TO.N,GND*%
X100330000Y62230000D03*
%TO.P,U3,17,DQ3*%
%TO.N,AD_{3}*%
X115570000Y62230000D03*
%TO.P,U3,18,DQ4*%
%TO.N,AD_{4}*%
X115570000Y64770000D03*
%TO.P,U3,19,DQ5*%
%TO.N,AD_{5}*%
X115570000Y67310000D03*
%TO.P,U3,20,DQ6*%
%TO.N,AD_{6}*%
X115570000Y69850000D03*
%TO.P,U3,21,DQ7*%
%TO.N,AD_{7}*%
X115570000Y72390000D03*
%TO.P,U3,22,CE#*%
%TO.N,RAM~{EN}*%
X115570000Y74930000D03*
%TO.P,U3,23,A10*%
%TO.N,A_{10}*%
X115570000Y77470000D03*
%TO.P,U3,24,OE#*%
%TO.N,~{RD}*%
X115570000Y80010000D03*
%TO.P,U3,25,A11*%
%TO.N,A_{11}*%
X115570000Y82550000D03*
%TO.P,U3,26,A9*%
%TO.N,A_{9}*%
X115570000Y85090000D03*
%TO.P,U3,27,A8*%
%TO.N,A_{8}*%
X115570000Y87630000D03*
%TO.P,U3,28,A13*%
%TO.N,A_{13}*%
X115570000Y90170000D03*
%TO.P,U3,29,WE#*%
%TO.N,~{WR}*%
X115570000Y92710000D03*
%TO.P,U3,30,A17*%
%TO.N,A_{17}*%
X115570000Y95250000D03*
%TO.P,U3,31,A15*%
%TO.N,A_{15}*%
X115570000Y97790000D03*
%TO.P,U3,32,VCC*%
%TO.N,+5V*%
X115570000Y100330000D03*
%TD*%
D12*
%TO.P,SW6,1*%
%TO.N,+5V*%
X106680000Y12700000D03*
D13*
%TO.P,SW6,2*%
X109220000Y12700000D03*
%TO.P,SW6,3*%
X111760000Y12700000D03*
%TO.P,SW6,4*%
X114300000Y12700000D03*
%TO.P,SW6,5*%
X116840000Y12700000D03*
%TO.P,SW6,6*%
X119380000Y12700000D03*
%TO.P,SW6,7*%
X121920000Y12700000D03*
%TO.P,SW6,8*%
X124460000Y12700000D03*
%TO.P,SW6,9*%
%TO.N,Net-(RN4-R8)*%
X124460000Y20320000D03*
%TO.P,SW6,10*%
%TO.N,Net-(RN4-R7)*%
X121920000Y20320000D03*
%TO.P,SW6,11*%
%TO.N,Net-(RN4-R6)*%
X119380000Y20320000D03*
%TO.P,SW6,12*%
%TO.N,Net-(RN4-R5)*%
X116840000Y20320000D03*
%TO.P,SW6,13*%
%TO.N,Net-(RN4-R4)*%
X114300000Y20320000D03*
%TO.P,SW6,14*%
%TO.N,Net-(RN4-R3)*%
X111760000Y20320000D03*
%TO.P,SW6,15*%
%TO.N,Net-(RN4-R2)*%
X109220000Y20320000D03*
%TO.P,SW6,16*%
%TO.N,Net-(RN4-R1)*%
X106680000Y20320000D03*
%TD*%
D14*
%TO.P,C8,1*%
%TO.N,+5V*%
X114300000Y52150000D03*
%TO.P,C8,2*%
%TO.N,GND*%
X101600000Y52150000D03*
%TD*%
%TO.P,C11,1*%
%TO.N,+5V*%
X20720000Y26670000D03*
%TO.P,C11,2*%
%TO.N,GND*%
X20720000Y24170000D03*
%TD*%
D18*
%TO.P,R5,1*%
%TO.N,+5V*%
X33020000Y91440000D03*
D19*
%TO.P,R5,2*%
%TO.N,PS2DATA*%
X25400000Y91440000D03*
%TD*%
D25*
%TO.P,LCD1,*%
%TO.N,*%
X20320000Y105410000D03*
X20320000Y50450000D03*
D26*
X33020000Y105410000D03*
X63500000Y105410000D03*
X66040000Y105410000D03*
D25*
X113280000Y105410000D03*
D26*
%TO.P,LCD1,1,GND*%
%TO.N,GND*%
X27940000Y105410000D03*
%TO.P,LCD1,2,Vdd*%
%TO.N,+5V*%
X30480000Y105410000D03*
%TO.P,LCD1,4,RS*%
%TO.N,Net-(LCD1-RS)*%
X35560000Y105410000D03*
%TO.P,LCD1,5,R~{W}*%
%TO.N,Net-(LCD1-R~{W})*%
X38100000Y105410000D03*
%TO.P,LCD1,6,E*%
%TO.N,Net-(LCD1-E)*%
X40640000Y105410000D03*
%TO.P,LCD1,7,D_{0}*%
%TO.N,Net-(LCD1-D_{0})*%
X43180000Y105410000D03*
%TO.P,LCD1,8,D_{1}*%
%TO.N,Net-(LCD1-D_{1})*%
X45720000Y105410000D03*
%TO.P,LCD1,9,D_{2}*%
%TO.N,Net-(LCD1-D_{2})*%
X48260000Y105410000D03*
%TO.P,LCD1,10,D_{3}*%
%TO.N,Net-(LCD1-D_{3})*%
X50800000Y105410000D03*
%TO.P,LCD1,11,D_{4}*%
%TO.N,Net-(LCD1-D_{4})*%
X53340000Y105410000D03*
%TO.P,LCD1,12,D_{5}*%
%TO.N,Net-(LCD1-D_{5})*%
X55880000Y105410000D03*
%TO.P,LCD1,13,D_{6}*%
%TO.N,Net-(LCD1-D_{6})*%
X58420000Y105410000D03*
%TO.P,LCD1,14,D_{7}*%
%TO.N,Net-(LCD1-D_{7})*%
X60960000Y105410000D03*
%TD*%
D14*
%TO.P,R1,1*%
%TO.N,INT*%
X66040000Y59690000D03*
D13*
%TO.P,R1,2*%
%TO.N,GND*%
X66040000Y69850000D03*
%TD*%
D12*
%TO.P,U12,1,PA3*%
%TO.N,Net-(LCD1-D_{3})*%
X71120000Y96520000D03*
D13*
%TO.P,U12,2,PA2*%
%TO.N,Net-(LCD1-D_{2})*%
X68580000Y96520000D03*
%TO.P,U12,3,PA1*%
%TO.N,Net-(LCD1-D_{1})*%
X66040000Y96520000D03*
%TO.P,U12,4,PA0*%
%TO.N,Net-(LCD1-D_{0})*%
X63500000Y96520000D03*
%TO.P,U12,5,~{RD}*%
%TO.N,~{RD}*%
X60960000Y96520000D03*
%TO.P,U12,6,~{CS}*%
%TO.N,IO~{EN}*%
X58420000Y96520000D03*
%TO.P,U12,7,GND*%
%TO.N,GND*%
X55880000Y96520000D03*
%TO.P,U12,8,A1*%
%TO.N,A_{1}*%
X53340000Y96520000D03*
%TO.P,U12,9,A0*%
%TO.N,A_{0}*%
X50800000Y96520000D03*
%TO.P,U12,10,PC7*%
%TO.N,unconnected-(U12-PC7-Pad10)*%
X48260000Y96520000D03*
%TO.P,U12,11,PC6*%
%TO.N,Net-(LCD1-E)*%
X45720000Y96520000D03*
%TO.P,U12,12,PC5*%
%TO.N,Net-(LCD1-R~{W})*%
X43180000Y96520000D03*
%TO.P,U12,13,PC4*%
%TO.N,Net-(LCD1-RS)*%
X40640000Y96520000D03*
%TO.P,U12,14,PC0*%
%TO.N,INT*%
X38100000Y96520000D03*
%TO.P,U12,15,PC1*%
%TO.N,unconnected-(U12-PC1-Pad15)*%
X35560000Y96520000D03*
%TO.P,U12,16,PC2*%
%TO.N,PS2CLK*%
X33020000Y96520000D03*
%TO.P,U12,17,PC3*%
%TO.N,unconnected-(U12-PC3-Pad17)*%
X30480000Y96520000D03*
%TO.P,U12,18,PB0*%
%TO.N,PS2DATA*%
X27940000Y96520000D03*
%TO.P,U12,19,PB1*%
%TO.N,unconnected-(U12-PB1-Pad19)*%
X25400000Y96520000D03*
%TO.P,U12,20,PB2*%
%TO.N,unconnected-(U12-PB2-Pad20)*%
X22860000Y96520000D03*
%TO.P,U12,21,PB3*%
%TO.N,unconnected-(U12-PB3-Pad21)*%
X22860000Y81280000D03*
%TO.P,U12,22,PB4*%
%TO.N,unconnected-(U12-PB4-Pad22)*%
X25400000Y81280000D03*
%TO.P,U12,23,PB5*%
%TO.N,unconnected-(U12-PB5-Pad23)*%
X27940000Y81280000D03*
%TO.P,U12,24,PB6*%
%TO.N,unconnected-(U12-PB6-Pad24)*%
X30480000Y81280000D03*
%TO.P,U12,25,PB7*%
%TO.N,unconnected-(U12-PB7-Pad25)*%
X33020000Y81280000D03*
%TO.P,U12,26,VCC*%
%TO.N,+5V*%
X35560000Y81280000D03*
%TO.P,U12,27,D7*%
%TO.N,AD_{7}*%
X38100000Y81280000D03*
%TO.P,U12,28,D6*%
%TO.N,AD_{6}*%
X40640000Y81280000D03*
%TO.P,U12,29,D5*%
%TO.N,AD_{5}*%
X43180000Y81280000D03*
%TO.P,U12,30,D4*%
%TO.N,AD_{4}*%
X45720000Y81280000D03*
%TO.P,U12,31,D3*%
%TO.N,AD_{3}*%
X48260000Y81280000D03*
%TO.P,U12,32,D2*%
%TO.N,AD_{2}*%
X50800000Y81280000D03*
%TO.P,U12,33,D1*%
%TO.N,AD_{1}*%
X53340000Y81280000D03*
%TO.P,U12,34,D0*%
%TO.N,AD_{0}*%
X55880000Y81280000D03*
%TO.P,U12,35,RESET*%
%TO.N,RES*%
X58420000Y81280000D03*
%TO.P,U12,36,~{WR}*%
%TO.N,~{WR}*%
X60960000Y81280000D03*
%TO.P,U12,37,PA7*%
%TO.N,Net-(LCD1-D_{7})*%
X63500000Y81280000D03*
%TO.P,U12,38,PA6*%
%TO.N,Net-(LCD1-D_{6})*%
X66040000Y81280000D03*
%TO.P,U12,39,PA5*%
%TO.N,Net-(LCD1-D_{5})*%
X68580000Y81280000D03*
%TO.P,U12,40,PA4*%
%TO.N,Net-(LCD1-D_{4})*%
X71120000Y81280000D03*
%TD*%
D27*
%TO.P,U7,1,~{RST}*%
%TO.N,Net-(U7-~{RST})*%
X123190000Y62230000D03*
D28*
%TO.P,U7,2,VCC*%
%TO.N,+5V*%
X125730000Y62230000D03*
%TO.P,U7,3,GND*%
%TO.N,GND*%
X128270000Y62230000D03*
%TD*%
D14*
%TO.P,C9,1*%
%TO.N,+5V*%
X82550000Y34290000D03*
%TO.P,C9,2*%
%TO.N,GND*%
X95250000Y34290000D03*
%TD*%
D18*
%TO.P,R2,1*%
%TO.N,Net-(D1-K)*%
X127000000Y69850000D03*
D19*
%TO.P,R2,2*%
%TO.N,GND*%
X127000000Y77470000D03*
%TD*%
D12*
%TO.P,U8,1*%
%TO.N,Net-(U6-IO7)*%
X115570000Y55960000D03*
D13*
%TO.P,U8,2*%
X113030000Y55960000D03*
%TO.P,U8,3*%
%TO.N,CLK*%
X110490000Y55960000D03*
%TO.P,U8,4*%
%TO.N,RES*%
X107950000Y55960000D03*
%TO.P,U8,5*%
X105410000Y55960000D03*
%TO.P,U8,6*%
%TO.N,Net-(U13-~{Mr})*%
X102870000Y55960000D03*
%TO.P,U8,7,GND*%
%TO.N,GND*%
X100330000Y55960000D03*
%TO.P,U8,8*%
%TO.N,RES*%
X100330000Y48340000D03*
%TO.P,U8,9*%
%TO.N,Net-(U7-~{RST})*%
X102870000Y48340000D03*
%TO.P,U8,10*%
X105410000Y48340000D03*
%TO.P,U8,11*%
%TO.N,unconnected-(U8-Pad11)*%
X107950000Y48340000D03*
%TO.P,U8,12*%
%TO.N,unconnected-(U8-Pad12)*%
X110490000Y48340000D03*
%TO.P,U8,13*%
%TO.N,unconnected-(U8-Pad13)*%
X113030000Y48340000D03*
%TO.P,U8,14,VCC*%
%TO.N,+5V*%
X115570000Y48340000D03*
%TD*%
D12*
%TO.P,U6,1,I1/CLK*%
%TO.N,Net-(U11-OUT)*%
X48260000Y41910000D03*
D13*
%TO.P,U6,2,I2*%
%TO.N,A_{8}*%
X50800000Y41910000D03*
%TO.P,U6,3,I3*%
%TO.N,A_{16}*%
X53340000Y41910000D03*
%TO.P,U6,4,I4*%
%TO.N,A_{17}*%
X55880000Y41910000D03*
%TO.P,U6,5,I5*%
%TO.N,A_{18}*%
X58420000Y41910000D03*
%TO.P,U6,6,I6*%
%TO.N,A_{19}*%
X60960000Y41910000D03*
%TO.P,U6,7,I7*%
%TO.N,~{RD}*%
X63500000Y41910000D03*
%TO.P,U6,8,I8*%
%TO.N,~{WR}*%
X66040000Y41910000D03*
%TO.P,U6,9,I9*%
%TO.N,IO{slash}~{M}*%
X68580000Y41910000D03*
%TO.P,U6,10,GND*%
%TO.N,GND*%
X71120000Y41910000D03*
%TO.P,U6,11,I10/~{OE}*%
X71120000Y49530000D03*
%TO.P,U6,12,IO8*%
%TO.N,unconnected-(U6-IO8-Pad12)*%
X68580000Y49530000D03*
%TO.P,U6,13,IO7*%
%TO.N,Net-(U6-IO7)*%
X66040000Y49530000D03*
%TO.P,U6,14,IO6*%
%TO.N,unconnected-(U6-IO6-Pad14)*%
X63500000Y49530000D03*
%TO.P,U6,15,IO5*%
%TO.N,IO~{EN}*%
X60960000Y49530000D03*
%TO.P,U6,16,IO4*%
%TO.N,IN~{EN}*%
X58420000Y49530000D03*
%TO.P,U6,17,I03*%
%TO.N,OUT~{EN}*%
X55880000Y49530000D03*
%TO.P,U6,18,IO2*%
%TO.N,RAM~{EN}*%
X53340000Y49530000D03*
%TO.P,U6,19,IO1*%
%TO.N,ROM~{EN}*%
X50800000Y49530000D03*
%TO.P,U6,20,VCC*%
%TO.N,+5V*%
X48260000Y49530000D03*
%TD*%
D29*
%TO.P,BAR1,1,A*%
%TO.N,Net-(U13-Q0)*%
X77470000Y12700000D03*
D30*
%TO.P,BAR1,2,A*%
%TO.N,Net-(U13-Q1)*%
X80010000Y12700000D03*
%TO.P,BAR1,3,A*%
%TO.N,Net-(U13-Q2)*%
X82550000Y12700000D03*
%TO.P,BAR1,4,A*%
%TO.N,Net-(U13-Q3)*%
X85090000Y12700000D03*
%TO.P,BAR1,5,A*%
%TO.N,Net-(U13-Q4)*%
X87630000Y12700000D03*
%TO.P,BAR1,6,A*%
%TO.N,Net-(U13-Q5)*%
X90170000Y12700000D03*
%TO.P,BAR1,7,A*%
%TO.N,Net-(U13-Q6)*%
X92710000Y12700000D03*
%TO.P,BAR1,8,A*%
%TO.N,Net-(U13-Q7)*%
X95250000Y12700000D03*
%TO.P,BAR1,9,A*%
%TO.N,unconnected-(BAR1-A-Pad9)*%
X97790000Y12700000D03*
%TO.P,BAR1,10,A*%
%TO.N,unconnected-(BAR1-A-Pad10)*%
X100330000Y12700000D03*
%TO.P,BAR1,11,K*%
%TO.N,unconnected-(BAR1-K-Pad11)*%
X100330000Y20320000D03*
%TO.P,BAR1,12,K*%
%TO.N,unconnected-(BAR1-K-Pad12)*%
X97790000Y20320000D03*
%TO.P,BAR1,13,K*%
%TO.N,Net-(RN3-R8)*%
X95250000Y20320000D03*
%TO.P,BAR1,14,K*%
%TO.N,Net-(RN3-R7)*%
X92710000Y20320000D03*
%TO.P,BAR1,15,K*%
%TO.N,Net-(RN3-R6)*%
X90170000Y20320000D03*
%TO.P,BAR1,16,K*%
%TO.N,Net-(RN3-R5)*%
X87630000Y20320000D03*
%TO.P,BAR1,17,K*%
%TO.N,Net-(RN3-R4)*%
X85090000Y20320000D03*
%TO.P,BAR1,18,K*%
%TO.N,Net-(RN3-R3)*%
X82550000Y20320000D03*
%TO.P,BAR1,19,K*%
%TO.N,Net-(RN3-R2)*%
X80010000Y20320000D03*
%TO.P,BAR1,20,K*%
%TO.N,Net-(RN3-R1)*%
X77470000Y20320000D03*
%TD*%
D12*
%TO.P,U5,1,OE*%
%TO.N,GND*%
X83820000Y104140000D03*
D13*
%TO.P,U5,2,D0*%
%TO.N,AS_{16}*%
X83820000Y101600000D03*
%TO.P,U5,3,D1*%
%TO.N,AS_{17}*%
X83820000Y99060000D03*
%TO.P,U5,4,D2*%
%TO.N,AS_{18}*%
X83820000Y96520000D03*
%TO.P,U5,5,D3*%
%TO.N,AS_{19}*%
X83820000Y93980000D03*
%TO.P,U5,6,D4*%
%TO.N,GND*%
X83820000Y91440000D03*
%TO.P,U5,7,D5*%
X83820000Y88900000D03*
%TO.P,U5,8,D6*%
X83820000Y86360000D03*
%TO.P,U5,9,D7*%
X83820000Y83820000D03*
%TO.P,U5,10,GND*%
X83820000Y81280000D03*
%TO.P,U5,11,Load*%
%TO.N,ALE*%
X91440000Y81280000D03*
%TO.P,U5,12,Q7*%
%TO.N,unconnected-(U5-Q7-Pad12)*%
X91440000Y83820000D03*
%TO.P,U5,13,Q6*%
%TO.N,unconnected-(U5-Q6-Pad13)*%
X91440000Y86360000D03*
%TO.P,U5,14,Q5*%
%TO.N,unconnected-(U5-Q5-Pad14)*%
X91440000Y88900000D03*
%TO.P,U5,15,Q4*%
%TO.N,unconnected-(U5-Q4-Pad15)*%
X91440000Y91440000D03*
%TO.P,U5,16,Q3*%
%TO.N,A_{19}*%
X91440000Y93980000D03*
%TO.P,U5,17,Q2*%
%TO.N,A_{18}*%
X91440000Y96520000D03*
%TO.P,U5,18,Q1*%
%TO.N,A_{17}*%
X91440000Y99060000D03*
%TO.P,U5,19,Q0*%
%TO.N,A_{16}*%
X91440000Y101600000D03*
%TO.P,U5,20,VCC*%
%TO.N,+5V*%
X91440000Y104140000D03*
%TD*%
D26*
%TO.P,SW1,1,1*%
%TO.N,Net-(U7-~{RST})*%
X129540000Y48895000D03*
X123040000Y48895000D03*
%TO.P,SW1,2,2*%
%TO.N,GND*%
X129540000Y53395000D03*
X123040000Y53395000D03*
%TD*%
D31*
%TO.P,U10,1,IN*%
%TO.N,Net-(U10-IN)*%
X123190000Y86360000D03*
D32*
%TO.P,U10,2,GND*%
%TO.N,GND*%
X125730000Y86360000D03*
%TO.P,U10,3,OUT*%
%TO.N,+5V*%
X128270000Y86360000D03*
%TD*%
D33*
%TO.N,Net-(U13-~{Mr})*%
X84334900Y46190500D03*
%TO.N,OUT~{EN}*%
X60132000Y43378500D03*
%TO.N,Net-(U13-Q7)*%
X74262800Y18668000D03*
%TO.N,Net-(U13-Q6)*%
X92524800Y36423400D03*
%TO.N,INT*%
X57567300Y67819300D03*
X39926400Y67819300D03*
%TO.N,IO~{EN}*%
X72172900Y51757600D03*
%TO.N,Net-(LCD1-D_{5})*%
X62663500Y103884600D03*
%TO.N,Net-(RN1D-R4.2)*%
X47601900Y54785400D03*
%TO.N,A_{19}*%
X58363500Y52848200D03*
X76780200Y54402500D03*
%TO.N,IO{slash}~{M}*%
X57500700Y69483400D03*
%TO.N,A_{17}*%
X77851900Y54587200D03*
X54760000Y48186500D03*
%TO.N,RAM~{EN}*%
X74355100Y65849400D03*
%TO.N,A_{16}*%
X78190200Y71803700D03*
X62151700Y64335500D03*
X62229600Y45905700D03*
%TO.N,A_{18}*%
X75813100Y44358000D03*
%TO.N,A_{8}*%
X85681500Y72534700D03*
%TO.N,A_{9}*%
X48760400Y43793000D03*
%TO.N,A_{11}*%
X77784100Y68057600D03*
%TO.N,~{RD}*%
X64714100Y74260200D03*
%TO.N,ROM~{EN}*%
X45253900Y46920500D03*
%TO.N,AD_{4}*%
X73225800Y61447900D03*
X95250000Y42456100D03*
%TO.N,A_{12}*%
X78578300Y66653500D03*
%TO.N,A_{0}*%
X80953600Y74427200D03*
X66280200Y87974600D03*
X75634700Y74639300D03*
%TO.N,A_{1}*%
X68847700Y75690800D03*
X79240900Y51560000D03*
%TO.N,A_{2}*%
X98611900Y56789800D03*
X99241400Y29044800D03*
%TO.N,A_{3}*%
X74190700Y57455900D03*
%TO.N,A_{4}*%
X79790300Y63427200D03*
%TO.N,A_{5}*%
X90236000Y53062300D03*
X72435400Y50560800D03*
%TO.N,A_{6}*%
X81600300Y66537300D03*
X74658900Y30481500D03*
%TO.N,A_{7}*%
X82354300Y80102400D03*
%TO.N,AD_{3}*%
X94059400Y43005600D03*
%TO.N,AD_{2}*%
X98251100Y45390100D03*
X91780800Y45390100D03*
%TO.N,AD_{1}*%
X97435200Y44602700D03*
X90792700Y44429300D03*
%TO.N,AD_{0}*%
X56500100Y79107900D03*
X104551100Y58416800D03*
%TO.N,Net-(RN1B-R2.2)*%
X64780700Y50339700D03*
%TD*%
D34*
%TO.N,Net-(U13-~{Mr})*%
X102870000Y55960000D02*
X101693100Y55960000D01*
X85476700Y47332300D02*
X84334900Y46190500D01*
X93433200Y47332300D02*
X85476700Y47332300D01*
X101693100Y55592200D02*
X93433200Y47332300D01*
X101693100Y55960000D02*
X101693100Y55592200D01*
%TO.N,OUT~{EN}*%
X100330000Y38100000D02*
X99153100Y38100000D01*
X63709900Y43378500D02*
X60132000Y43378500D01*
X64770000Y42318400D02*
X63709900Y43378500D01*
X64770000Y41427500D02*
X64770000Y42318400D01*
X65989400Y40208100D02*
X64770000Y41427500D01*
X71928300Y40208100D02*
X65989400Y40208100D01*
X74829200Y43109000D02*
X71928300Y40208100D01*
X78500600Y43109000D02*
X74829200Y43109000D01*
X80819400Y40790200D02*
X78500600Y43109000D01*
X96828700Y40790200D02*
X80819400Y40790200D01*
X99153100Y38465800D02*
X96828700Y40790200D01*
X99153100Y38100000D02*
X99153100Y38465800D01*
%TO.N,IN~{EN}*%
X109220000Y38100000D02*
X108043100Y38100000D01*
X58420000Y49530000D02*
X59596900Y49530000D01*
X59596900Y49164200D02*
X59596900Y49530000D01*
X61360900Y47400200D02*
X59596900Y49164200D01*
X66957700Y47400200D02*
X61360900Y47400200D01*
X68572400Y45785500D02*
X66957700Y47400200D01*
X77964800Y45785500D02*
X68572400Y45785500D01*
X82072500Y41677800D02*
X77964800Y45785500D01*
X104831100Y41677800D02*
X82072500Y41677800D01*
X108043100Y38465800D02*
X104831100Y41677800D01*
X108043100Y38100000D02*
X108043100Y38465800D01*
%TO.N,Net-(RN4-R5)*%
X119380000Y24036900D02*
X119380000Y25400000D01*
X116840000Y21496900D02*
X119380000Y24036900D01*
X116840000Y20320000D02*
X116840000Y21496900D01*
%TO.N,Net-(RN4-R4)*%
X114300000Y20320000D02*
X114300000Y21496900D01*
X116840000Y24036900D02*
X116840000Y25400000D01*
X114300000Y21496900D02*
X116840000Y24036900D01*
X120556900Y26576900D02*
X124460000Y30480000D01*
X118825900Y26576900D02*
X120556900Y26576900D01*
X118016900Y25767900D02*
X118825900Y26576900D01*
X118016900Y25400000D02*
X118016900Y25767900D01*
X116840000Y25400000D02*
X118016900Y25400000D01*
%TO.N,Net-(RN4-R1)*%
X109220000Y24036900D02*
X109220000Y25400000D01*
X106680000Y21496900D02*
X109220000Y24036900D01*
X106680000Y20320000D02*
X106680000Y21496900D01*
%TO.N,Net-(RN3-R7)*%
X92710000Y21683100D02*
X95250000Y24223100D01*
X92710000Y20320000D02*
X92710000Y21683100D01*
X95250000Y25400000D02*
X95250000Y24223100D01*
%TO.N,Net-(U13-Q7)*%
X89282000Y18668000D02*
X74262800Y18668000D01*
X95250000Y12700000D02*
X89282000Y18668000D01*
%TO.N,Net-(U13-Q6)*%
X88806900Y37734200D02*
X88806900Y38100000D01*
X90117700Y36423400D02*
X88806900Y37734200D01*
X92524800Y36423400D02*
X90117700Y36423400D01*
X87630000Y38100000D02*
X88806900Y38100000D01*
%TO.N,INT*%
X66040000Y59690000D02*
X66040000Y57150000D01*
X57567300Y67819300D02*
X39926400Y67819300D01*
%TO.N,PS2CLK*%
X17780000Y90170000D02*
X26670000Y90170000D01*
X25400000Y88900000D02*
X26670000Y90170000D01*
X25400000Y86360000D02*
X25400000Y88900000D01*
X26670000Y90170000D02*
X33020000Y96520000D01*
%TO.N,IO~{EN}*%
X62136900Y49895800D02*
X62136900Y49530000D01*
X63998700Y51757600D02*
X62136900Y49895800D01*
X72172900Y51757600D02*
X63998700Y51757600D01*
X60960000Y49530000D02*
X62136900Y49530000D01*
%TO.N,Net-(LCD1-D_{5})*%
X57296400Y103993600D02*
X55880000Y105410000D01*
X62554500Y103993600D02*
X57296400Y103993600D01*
X62663500Y103884600D02*
X62554500Y103993600D01*
%TO.N,Net-(LCD1-D_{3})*%
X71120000Y96520000D02*
X69943100Y96520000D01*
X69943100Y96854400D02*
X69943100Y96520000D01*
X63689800Y103107700D02*
X69943100Y96854400D01*
X62341800Y103107700D02*
X63689800Y103107700D01*
X61998600Y103450900D02*
X62341800Y103107700D01*
X52759100Y103450900D02*
X61998600Y103450900D01*
X50800000Y105410000D02*
X52759100Y103450900D01*
%TO.N,Net-(LCD1-D_{2})*%
X68580000Y96520000D02*
X67403100Y96520000D01*
X67403100Y96885800D02*
X67403100Y96520000D01*
X61340000Y102948900D02*
X67403100Y96885800D01*
X50721100Y102948900D02*
X61340000Y102948900D01*
X48260000Y105410000D02*
X50721100Y102948900D01*
%TO.N,Net-(LCD1-D_{1})*%
X66040000Y96520000D02*
X64863100Y96520000D01*
X48757400Y102372600D02*
X45720000Y105410000D01*
X59376300Y102372600D02*
X48757400Y102372600D01*
X64863100Y96885800D02*
X59376300Y102372600D01*
X64863100Y96520000D02*
X64863100Y96885800D01*
%TO.N,Net-(LCD1-D_{0})*%
X48130000Y100460000D02*
X43180000Y105410000D01*
X58750900Y100460000D02*
X48130000Y100460000D01*
X62323100Y96887800D02*
X58750900Y100460000D01*
X62323100Y96520000D02*
X62323100Y96887800D01*
X63500000Y96520000D02*
X62323100Y96520000D01*
%TO.N,AS_{16}*%
X83820000Y101600000D02*
X82643100Y101600000D01*
X27940000Y72390000D02*
X29116900Y72390000D01*
X67303600Y86260500D02*
X82643100Y101600000D01*
X67303600Y86260400D02*
X67303600Y86260500D01*
X49031500Y86260400D02*
X67303600Y86260400D01*
X44450000Y81678900D02*
X49031500Y86260400D01*
X44450000Y80793300D02*
X44450000Y81678900D01*
X42549600Y78892900D02*
X44450000Y80793300D01*
X35258200Y78892900D02*
X42549600Y78892900D01*
X29116900Y72751600D02*
X35258200Y78892900D01*
X29116900Y72390000D02*
X29116900Y72751600D01*
%TO.N,AS_{17}*%
X83820000Y99060000D02*
X82643100Y99060000D01*
X30480000Y72390000D02*
X31656900Y72390000D01*
X31656900Y72755800D02*
X31656900Y72390000D01*
X33471800Y74570700D02*
X31656900Y72755800D01*
X43270200Y74570700D02*
X33471800Y74570700D01*
X49530000Y80830500D02*
X43270200Y74570700D01*
X49530000Y81687700D02*
X49530000Y80830500D01*
X53557800Y85715500D02*
X49530000Y81687700D01*
X69298600Y85715500D02*
X53557800Y85715500D01*
X82643100Y99060000D02*
X69298600Y85715500D01*
%TO.N,AS_{18}*%
X83820000Y96520000D02*
X82643100Y96520000D01*
X33020000Y72390000D02*
X34196900Y72390000D01*
X34196900Y72755800D02*
X34196900Y72390000D01*
X35509900Y74068800D02*
X34196900Y72755800D01*
X45266000Y74068800D02*
X35509900Y74068800D01*
X52070000Y80872800D02*
X45266000Y74068800D01*
X52070000Y81692900D02*
X52070000Y80872800D01*
X55131900Y84754800D02*
X52070000Y81692900D01*
X70877900Y84754800D02*
X55131900Y84754800D01*
X82643100Y96520000D02*
X70877900Y84754800D01*
%TO.N,AS_{19}*%
X72077100Y83414000D02*
X82643100Y93980000D01*
X56255900Y83414000D02*
X72077100Y83414000D01*
X54610000Y81768100D02*
X56255900Y83414000D01*
X54610000Y80884400D02*
X54610000Y81768100D01*
X47292500Y73566900D02*
X54610000Y80884400D01*
X37545900Y73566900D02*
X47292500Y73566900D01*
X36736900Y72757900D02*
X37545900Y73566900D01*
X36736900Y72390000D02*
X36736900Y72757900D01*
X35560000Y72390000D02*
X36736900Y72390000D01*
X83820000Y93980000D02*
X82643100Y93980000D01*
%TO.N,ALE*%
X87041000Y78057900D02*
X90263100Y81280000D01*
X66627900Y78057900D02*
X87041000Y78057900D01*
X60960000Y72390000D02*
X66627900Y78057900D01*
X91440000Y81280000D02*
X90263100Y81280000D01*
%TO.N,Net-(RN1D-R4.2)*%
X77470000Y52050000D02*
X76293100Y52050000D01*
X54910200Y54785400D02*
X47601900Y54785400D01*
X57652700Y52042900D02*
X54910200Y54785400D01*
X59678200Y52042900D02*
X57652700Y52042900D01*
X60185900Y52550600D02*
X59678200Y52042900D01*
X75792500Y52550600D02*
X60185900Y52550600D01*
X76293100Y52050000D02*
X75792500Y52550600D01*
%TO.N,Net-(U11-OUT)*%
X36830000Y49530000D02*
X39370000Y49530000D01*
X39370000Y49530000D02*
X41910000Y49530000D01*
%TO.N,Net-(U7-~{RST})*%
X105410000Y48340000D02*
X102870000Y48340000D01*
D35*
X123040000Y48895000D02*
X129540000Y48895000D01*
D34*
X106586900Y48705800D02*
X106586900Y48340000D01*
X107422800Y49541700D02*
X106586900Y48705800D01*
X122393300Y49541700D02*
X107422800Y49541700D01*
X123040000Y48895000D02*
X122393300Y49541700D01*
X105410000Y48340000D02*
X106586900Y48340000D01*
%TO.N,Net-(U6-IO7)*%
X66040000Y49530000D02*
X67216900Y49530000D01*
X113030000Y55960000D02*
X115570000Y55960000D01*
X113030000Y55960000D02*
X111853100Y55960000D01*
X111853100Y55592200D02*
X111853100Y55960000D01*
X107007800Y50746900D02*
X111853100Y55592200D01*
X99449900Y50746900D02*
X107007800Y50746900D01*
X95378800Y46675800D02*
X99449900Y50746900D01*
X87309300Y46675800D02*
X95378800Y46675800D01*
X86045900Y45412400D02*
X87309300Y46675800D01*
X84012000Y45412400D02*
X86045900Y45412400D01*
X81267800Y48156600D02*
X84012000Y45412400D01*
X68257800Y48156600D02*
X81267800Y48156600D01*
X67216900Y49197500D02*
X68257800Y48156600D01*
X67216900Y49530000D02*
X67216900Y49197500D01*
D35*
%TO.N,Net-(U10-IN)*%
X126330000Y89500000D02*
X123190000Y86360000D01*
X126330000Y95250000D02*
X126330000Y89500000D01*
%TO.N,Net-(D2-K)*%
X121920000Y72390000D02*
X124460000Y69850000D01*
X121920000Y73660000D02*
X121920000Y72390000D01*
%TO.N,Net-(D1-K)*%
X129540000Y72390000D02*
X127000000Y69850000D01*
X129540000Y73660000D02*
X129540000Y72390000D01*
D34*
%TO.N,A_{19}*%
X75523200Y53145500D02*
X76780200Y54402500D01*
X58660800Y53145500D02*
X75523200Y53145500D01*
X58363500Y52848200D02*
X58660800Y53145500D01*
%TO.N,~{WR}*%
X51976900Y72755800D02*
X51976900Y72390000D01*
X53778800Y74557700D02*
X51976900Y72755800D01*
X54237700Y74557700D02*
X53778800Y74557700D01*
X60960000Y81280000D02*
X54237700Y74557700D01*
X50800000Y72390000D02*
X51976900Y72390000D01*
X62136900Y80914200D02*
X62136900Y81280000D01*
X63729200Y79321900D02*
X62136900Y80914200D01*
X85271300Y79321900D02*
X63729200Y79321900D01*
X91039400Y85090000D02*
X85271300Y79321900D01*
X93749200Y85090000D02*
X91039400Y85090000D01*
X97559200Y88900000D02*
X93749200Y85090000D01*
X110583100Y88900000D02*
X97559200Y88900000D01*
X114393100Y92710000D02*
X110583100Y88900000D01*
X115570000Y92710000D02*
X114393100Y92710000D01*
X60960000Y81280000D02*
X62136900Y81280000D01*
%TO.N,IO{slash}~{M}*%
X54516900Y72024200D02*
X54516900Y72390000D01*
X57057700Y69483400D02*
X54516900Y72024200D01*
X57500700Y69483400D02*
X57057700Y69483400D01*
X53340000Y72390000D02*
X54516900Y72390000D01*
%TO.N,RES*%
X105410000Y55960000D02*
X107950000Y55960000D01*
X71120000Y72390000D02*
X72296900Y72390000D01*
X72296900Y72400100D02*
X72296900Y72390000D01*
X75313000Y75416200D02*
X72296900Y72400100D01*
X75956500Y75416200D02*
X75313000Y75416200D01*
X76160000Y75212700D02*
X75956500Y75416200D01*
X94661200Y75212700D02*
X76160000Y75212700D01*
X96213900Y73660000D02*
X94661200Y75212700D01*
X119380000Y73660000D02*
X96213900Y73660000D01*
%TO.N,CLK*%
X69756900Y57515800D02*
X69756900Y57150000D01*
X71809100Y59568000D02*
X69756900Y57515800D01*
X74393000Y59568000D02*
X71809100Y59568000D01*
X75721300Y60896300D02*
X74393000Y59568000D01*
X104744600Y60896300D02*
X75721300Y60896300D01*
X109313100Y56327800D02*
X104744600Y60896300D01*
X109313100Y55960000D02*
X109313100Y56327800D01*
X110490000Y55960000D02*
X109313100Y55960000D01*
X68580000Y57150000D02*
X69756900Y57150000D01*
%TO.N,A_{17}*%
X91440000Y99060000D02*
X92616900Y99060000D01*
X77259600Y55179500D02*
X77851900Y54587200D01*
X76058300Y55179500D02*
X77259600Y55179500D01*
X74778000Y53899200D02*
X76058300Y55179500D01*
X57319800Y53899200D02*
X74778000Y53899200D01*
X55656700Y55562300D02*
X57319800Y53899200D01*
X47276500Y55562300D02*
X55656700Y55562300D01*
X46824800Y55110600D02*
X47276500Y55562300D01*
X46824800Y54461100D02*
X46824800Y55110600D01*
X47913700Y53372200D02*
X46824800Y54461100D01*
X51186600Y53372200D02*
X47913700Y53372200D01*
X54610000Y49948800D02*
X51186600Y53372200D01*
X54610000Y48336500D02*
X54610000Y49948800D01*
X54760000Y48186500D02*
X54610000Y48336500D01*
X106314900Y95250000D02*
X114393100Y95250000D01*
X105111400Y96453500D02*
X106314900Y95250000D01*
X95223400Y96453500D02*
X105111400Y96453500D01*
X92616900Y99060000D02*
X95223400Y96453500D01*
X115570000Y95250000D02*
X114393100Y95250000D01*
%TO.N,RAM~{EN}*%
X53340000Y49530000D02*
X52163100Y49530000D01*
X73630500Y65124800D02*
X74355100Y65849400D01*
X67529500Y65124800D02*
X73630500Y65124800D01*
X63955700Y61551000D02*
X67529500Y65124800D01*
X50981500Y61551000D02*
X63955700Y61551000D01*
X46990000Y57559500D02*
X50981500Y61551000D01*
X46990000Y56362900D02*
X46990000Y57559500D01*
X46302200Y55675100D02*
X46990000Y56362900D01*
X46302200Y54212600D02*
X46302200Y55675100D01*
X49282700Y51232100D02*
X46302200Y54212600D01*
X50828800Y51232100D02*
X49282700Y51232100D01*
X52163100Y49897800D02*
X50828800Y51232100D01*
X52163100Y49530000D02*
X52163100Y49897800D01*
%TO.N,A_{16}*%
X96426900Y97790000D02*
X92616900Y101600000D01*
X100330000Y97790000D02*
X96426900Y97790000D01*
X91440000Y101600000D02*
X92616900Y101600000D01*
X53340000Y41910000D02*
X54516900Y41910000D01*
X66253600Y68437400D02*
X62151700Y64335500D01*
X72295600Y68437400D02*
X66253600Y68437400D01*
X75661900Y71803700D02*
X72295600Y68437400D01*
X78190200Y71803700D02*
X75661900Y71803700D01*
X58146900Y45905700D02*
X62229600Y45905700D01*
X54516900Y42275700D02*
X58146900Y45905700D01*
X54516900Y41910000D02*
X54516900Y42275700D01*
%TO.N,A_{18}*%
X75326300Y44358000D02*
X75813100Y44358000D01*
X71678300Y40710000D02*
X75326300Y44358000D01*
X68106300Y40710000D02*
X71678300Y40710000D01*
X67310000Y41506300D02*
X68106300Y40710000D01*
X67310000Y42355700D02*
X67310000Y41506300D01*
X65492600Y44173100D02*
X67310000Y42355700D01*
X59506200Y44173100D02*
X65492600Y44173100D01*
X58420000Y43086900D02*
X59506200Y44173100D01*
X58420000Y41910000D02*
X58420000Y43086900D01*
%TO.N,A_{14}*%
X100330000Y95250000D02*
X99153100Y95250000D01*
X25400000Y57150000D02*
X26576900Y57150000D01*
X26576900Y57479800D02*
X26576900Y57150000D01*
X39577200Y70480100D02*
X26576900Y57479800D01*
X48107000Y70480100D02*
X39577200Y70480100D01*
X49530000Y71903100D02*
X48107000Y70480100D01*
X49530000Y72788300D02*
X49530000Y71903100D01*
X53080100Y76338400D02*
X49530000Y72788300D01*
X55174500Y76338400D02*
X53080100Y76338400D01*
X59690000Y80853900D02*
X55174500Y76338400D01*
X59690000Y81707100D02*
X59690000Y80853900D01*
X60895000Y82912100D02*
X59690000Y81707100D01*
X73461900Y82912100D02*
X60895000Y82912100D01*
X83259800Y92710000D02*
X73461900Y82912100D01*
X96613100Y92710000D02*
X83259800Y92710000D01*
X99153100Y95250000D02*
X96613100Y92710000D01*
%TO.N,A_{13}*%
X27940000Y57150000D02*
X29116900Y57150000D01*
X115570000Y90170000D02*
X114393100Y90170000D01*
X108043100Y83820000D02*
X114393100Y90170000D01*
X98020800Y83820000D02*
X108043100Y83820000D01*
X96750800Y82550000D02*
X98020800Y83820000D01*
X89775300Y82550000D02*
X96750800Y82550000D01*
X85786600Y78561300D02*
X89775300Y82550000D01*
X65399400Y78561300D02*
X85786600Y78561300D01*
X59690000Y72851900D02*
X65399400Y78561300D01*
X59690000Y70574000D02*
X59690000Y72851900D01*
X57822500Y68706500D02*
X59690000Y70574000D01*
X39643600Y68706500D02*
X57822500Y68706500D01*
X29116900Y58179800D02*
X39643600Y68706500D01*
X29116900Y57150000D02*
X29116900Y58179800D01*
%TO.N,A_{8}*%
X49736600Y40733100D02*
X50800000Y40733100D01*
X42136900Y33133400D02*
X49736600Y40733100D01*
X42136900Y33020000D02*
X42136900Y33133400D01*
X41040000Y33020000D02*
X42136900Y33020000D01*
X50800000Y41910000D02*
X50800000Y40733100D01*
X85681500Y72050100D02*
X85681500Y72534700D01*
X84751400Y71120000D02*
X85681500Y72050100D01*
X79817200Y71120000D02*
X84751400Y71120000D01*
X78765400Y70068200D02*
X79817200Y71120000D01*
X74989800Y70068200D02*
X78765400Y70068200D01*
X72857100Y67935500D02*
X74989800Y70068200D01*
X66850400Y67935500D02*
X72857100Y67935500D01*
X62473500Y63558600D02*
X66850400Y67935500D01*
X47048600Y63558600D02*
X62473500Y63558600D01*
X40640000Y57150000D02*
X47048600Y63558600D01*
%TO.N,A_{9}*%
X115570000Y85090000D02*
X115570000Y83913100D01*
X38100000Y57150000D02*
X39276900Y57150000D01*
X43580000Y33020000D02*
X44676900Y33020000D01*
X50599000Y43793000D02*
X48760400Y43793000D01*
X52003500Y42388500D02*
X50599000Y43793000D01*
X52003500Y41217800D02*
X52003500Y42388500D01*
X44676900Y33891200D02*
X52003500Y41217800D01*
X44676900Y33020000D02*
X44676900Y33891200D01*
X39276900Y57506000D02*
X39276900Y57150000D01*
X48151600Y66380700D02*
X39276900Y57506000D01*
X59187000Y66380700D02*
X48151600Y66380700D01*
X64770000Y71963700D02*
X59187000Y66380700D01*
X64770000Y72809000D02*
X64770000Y71963700D01*
X68443800Y76482800D02*
X64770000Y72809000D01*
X95619800Y76482800D02*
X68443800Y76482800D01*
X95812300Y76290300D02*
X95619800Y76482800D01*
X111850300Y76290300D02*
X95812300Y76290300D01*
X114393100Y78833100D02*
X111850300Y76290300D01*
X116092900Y78833100D02*
X114393100Y78833100D01*
X116802900Y79543100D02*
X116092900Y78833100D01*
X116802900Y83048000D02*
X116802900Y79543100D01*
X115937800Y83913100D02*
X116802900Y83048000D01*
X115570000Y83913100D02*
X115937800Y83913100D01*
%TO.N,A_{11}*%
X33020000Y57150000D02*
X34196900Y57150000D01*
X74045100Y68057600D02*
X77784100Y68057600D01*
X73169500Y67182000D02*
X74045100Y68057600D01*
X66806700Y67182000D02*
X73169500Y67182000D01*
X62681400Y63056700D02*
X66806700Y67182000D01*
X47421500Y63056700D02*
X62681400Y63056700D01*
X41910100Y57545300D02*
X47421500Y63056700D01*
X41910100Y56734100D02*
X41910100Y57545300D01*
X41122900Y55946900D02*
X41910100Y56734100D01*
X35034200Y55946900D02*
X41122900Y55946900D01*
X34196900Y56784200D02*
X35034200Y55946900D01*
X34196900Y57150000D02*
X34196900Y56784200D01*
%TO.N,~{RD}*%
X115570000Y80010000D02*
X114393100Y80010000D01*
X113123100Y78740000D02*
X114393100Y80010000D01*
X94171300Y78740000D02*
X113123100Y78740000D01*
X92485400Y77054100D02*
X94171300Y78740000D01*
X67508000Y77054100D02*
X92485400Y77054100D01*
X64714100Y74260200D02*
X67508000Y77054100D01*
X49756900Y33133600D02*
X49756900Y33020000D01*
X57356400Y40733100D02*
X49756900Y33133600D01*
X61514100Y40733100D02*
X57356400Y40733100D01*
X62323100Y41542100D02*
X61514100Y40733100D01*
X62323100Y41910000D02*
X62323100Y41542100D01*
X63500000Y41910000D02*
X62323100Y41910000D01*
X48660000Y33020000D02*
X49756900Y33020000D01*
%TO.N,A_{10}*%
X35560000Y57150000D02*
X36736900Y57150000D01*
X117347100Y79247100D02*
X115570000Y77470000D01*
X117347100Y85003500D02*
X117347100Y79247100D01*
X116075400Y86275200D02*
X117347100Y85003500D01*
X114802600Y86275200D02*
X116075400Y86275200D01*
X109807400Y81280000D02*
X114802600Y86275200D01*
X96001500Y81280000D02*
X109807400Y81280000D01*
X92277500Y77556000D02*
X96001500Y81280000D01*
X66872200Y77556000D02*
X92277500Y77556000D01*
X62230000Y72913800D02*
X66872200Y77556000D01*
X62230000Y71375000D02*
X62230000Y72913800D01*
X57897400Y67042400D02*
X62230000Y71375000D01*
X46263500Y67042400D02*
X57897400Y67042400D01*
X36736900Y57515800D02*
X46263500Y67042400D01*
X36736900Y57150000D02*
X36736900Y57515800D01*
%TO.N,ROM~{EN}*%
X50800000Y49530000D02*
X49623100Y49530000D01*
X49623100Y49895800D02*
X49623100Y49530000D01*
X48788700Y50730200D02*
X49623100Y49895800D01*
X47751900Y50730200D02*
X48788700Y50730200D01*
X45253900Y48232200D02*
X47751900Y50730200D01*
X45253900Y46920500D02*
X45253900Y48232200D01*
%TO.N,AD_{4}*%
X50800000Y57150000D02*
X51976900Y57150000D01*
X83820000Y62230000D02*
X82643100Y62230000D01*
X111760000Y30480000D02*
X112936900Y30480000D01*
X106545200Y42456100D02*
X95250000Y42456100D01*
X110490000Y38511300D02*
X106545200Y42456100D01*
X110490000Y37705700D02*
X110490000Y38511300D01*
X116427900Y31767800D02*
X110490000Y37705700D01*
X117218700Y31767800D02*
X116427900Y31767800D01*
X118030500Y30956000D02*
X117218700Y31767800D01*
X118030500Y29984800D02*
X118030500Y30956000D01*
X117328100Y29282400D02*
X118030500Y29984800D01*
X113768700Y29282400D02*
X117328100Y29282400D01*
X112936900Y30114200D02*
X113768700Y29282400D01*
X112936900Y30480000D02*
X112936900Y30114200D01*
X115570000Y64770000D02*
X115570000Y63593100D01*
X74007900Y62230000D02*
X73225800Y61447900D01*
X82643100Y62230000D02*
X74007900Y62230000D01*
X65272400Y61447900D02*
X73225800Y61447900D01*
X64221600Y60397100D02*
X65272400Y61447900D01*
X54922700Y60397100D02*
X64221600Y60397100D01*
X51976900Y57451300D02*
X54922700Y60397100D01*
X51976900Y57150000D02*
X51976900Y57451300D01*
X94998000Y42204100D02*
X95250000Y42456100D01*
X91873600Y42204100D02*
X94998000Y42204100D01*
X89995200Y44082500D02*
X91873600Y42204100D01*
X89995200Y44744300D02*
X89995200Y44082500D01*
X91421300Y46170400D02*
X89995200Y44744300D01*
X96239500Y46170400D02*
X91421300Y46170400D01*
X100138900Y50069800D02*
X96239500Y46170400D01*
X108028100Y50069800D02*
X100138900Y50069800D01*
X112161400Y54203100D02*
X108028100Y50069800D01*
X116007800Y54203100D02*
X112161400Y54203100D01*
X116791000Y54986300D02*
X116007800Y54203100D01*
X116791000Y62739900D02*
X116791000Y54986300D01*
X115937800Y63593100D02*
X116791000Y62739900D01*
X115570000Y63593100D02*
X115937800Y63593100D01*
%TO.N,A_{12}*%
X30480000Y57150000D02*
X31656900Y57150000D01*
X78551100Y66626300D02*
X78578300Y66653500D01*
X74033400Y66626300D02*
X78551100Y66626300D01*
X73083400Y65676300D02*
X74033400Y66626300D01*
X67371200Y65676300D02*
X73083400Y65676300D01*
X63747800Y62052900D02*
X67371200Y65676300D01*
X48878200Y62052900D02*
X63747800Y62052900D01*
X44450000Y57624700D02*
X48878200Y62052900D01*
X44450000Y56748300D02*
X44450000Y57624700D01*
X43134100Y55432400D02*
X44450000Y56748300D01*
X33008700Y55432400D02*
X43134100Y55432400D01*
X31656900Y56784200D02*
X33008700Y55432400D01*
X31656900Y57150000D02*
X31656900Y56784200D01*
%TO.N,A_{15}*%
X26576900Y72755800D02*
X26576900Y72390000D01*
X33839700Y80018600D02*
X26576900Y72755800D01*
X41136800Y80018600D02*
X33839700Y80018600D01*
X41910000Y80791800D02*
X41136800Y80018600D01*
X41910000Y81675400D02*
X41910000Y80791800D01*
X47432300Y87197700D02*
X41910000Y81675400D01*
X67317600Y87197700D02*
X47432300Y87197700D01*
X82896800Y102776900D02*
X67317600Y87197700D01*
X86446200Y102776900D02*
X82896800Y102776900D01*
X88986200Y105316900D02*
X86446200Y102776900D01*
X104764800Y105316900D02*
X88986200Y105316900D01*
X108487800Y101593900D02*
X104764800Y105316900D01*
X115990400Y101593900D02*
X108487800Y101593900D01*
X116765600Y100818700D02*
X115990400Y101593900D01*
X116765600Y99794700D02*
X116765600Y100818700D01*
X115937800Y98966900D02*
X116765600Y99794700D01*
X115570000Y98966900D02*
X115937800Y98966900D01*
X115570000Y97790000D02*
X115570000Y98966900D01*
X25400000Y72390000D02*
X26576900Y72390000D01*
%TO.N,A_{0}*%
X80741500Y74639300D02*
X80953600Y74427200D01*
X75634700Y74639300D02*
X80741500Y74639300D01*
X66028700Y87723100D02*
X66280200Y87974600D01*
X52802500Y87723100D02*
X66028700Y87723100D01*
X50800000Y89725600D02*
X52802500Y87723100D01*
X50800000Y96520000D02*
X50800000Y89725600D01*
X93023800Y74427200D02*
X80953600Y74427200D01*
X95061000Y72390000D02*
X93023800Y74427200D01*
X100330000Y72390000D02*
X95061000Y72390000D01*
%TO.N,A_{1}*%
X100330000Y74930000D02*
X99153100Y74930000D01*
X91440000Y54610000D02*
X90263100Y54610000D01*
X79973200Y51560000D02*
X79240900Y51560000D01*
X83193500Y48339700D02*
X79973200Y51560000D01*
X84294100Y48339700D02*
X83193500Y48339700D01*
X90263100Y54308700D02*
X84294100Y48339700D01*
X90263100Y54610000D02*
X90263100Y54308700D01*
X69075000Y75918100D02*
X68847700Y75690800D01*
X76164400Y75918100D02*
X69075000Y75918100D01*
X76327300Y75755200D02*
X76164400Y75918100D01*
X98327900Y75755200D02*
X76327300Y75755200D01*
X99153100Y74930000D02*
X98327900Y75755200D01*
%TO.N,A_{2}*%
X98251700Y57150000D02*
X98611900Y56789800D01*
X91440000Y57150000D02*
X98251700Y57150000D01*
X51200000Y17780000D02*
X52296900Y17780000D01*
X97916500Y27719900D02*
X99241400Y29044800D01*
X93337200Y27719900D02*
X97916500Y27719900D01*
X91440000Y25822700D02*
X93337200Y27719900D01*
X91440000Y24927400D02*
X91440000Y25822700D01*
X88512900Y22000300D02*
X91440000Y24927400D01*
X75583300Y22000300D02*
X88512900Y22000300D01*
X70256900Y16673900D02*
X75583300Y22000300D01*
X53289400Y16673900D02*
X70256900Y16673900D01*
X52296900Y17666400D02*
X53289400Y16673900D01*
X52296900Y17780000D02*
X52296900Y17666400D01*
%TO.N,A_{3}*%
X91440000Y59690000D02*
X90263100Y59690000D01*
X75247900Y58513100D02*
X74190700Y57455900D01*
X89086200Y58513100D02*
X75247900Y58513100D01*
X90263100Y59690000D02*
X89086200Y58513100D01*
%TO.N,A_{4}*%
X85844400Y62230000D02*
X91440000Y62230000D01*
X84647200Y63427200D02*
X85844400Y62230000D01*
X79790300Y63427200D02*
X84647200Y63427200D01*
%TO.N,A_{5}*%
X84996800Y47823100D02*
X90236000Y53062300D01*
X82752600Y47823100D02*
X84996800Y47823100D01*
X79850500Y50725200D02*
X82752600Y47823100D01*
X72599800Y50725200D02*
X79850500Y50725200D01*
X72435400Y50560800D02*
X72599800Y50725200D01*
%TO.N,A_{6}*%
X42136900Y17893600D02*
X42136900Y17780000D01*
X54724800Y30481500D02*
X42136900Y17893600D01*
X74658900Y30481500D02*
X54724800Y30481500D01*
X41040000Y17780000D02*
X42136900Y17780000D01*
X81600400Y66537300D02*
X81600300Y66537300D01*
X81600400Y66788100D02*
X81600400Y66537300D01*
X83326900Y68514600D02*
X81600400Y66788100D01*
X84631700Y68514600D02*
X83326900Y68514600D01*
X87013300Y66133000D02*
X84631700Y68514600D01*
X89062600Y66133000D02*
X87013300Y66133000D01*
X90239600Y67310000D02*
X89062600Y66133000D01*
X91440000Y67310000D02*
X90239600Y67310000D01*
%TO.N,A_{7}*%
X82354300Y80102500D02*
X82354300Y80102400D01*
X84306900Y80102500D02*
X82354300Y80102500D01*
X85019100Y80814700D02*
X84306900Y80102500D01*
X85019100Y81626900D02*
X85019100Y80814700D01*
X91022200Y87630000D02*
X85019100Y81626900D01*
X93957200Y87630000D02*
X91022200Y87630000D01*
X96497200Y90170000D02*
X93957200Y87630000D01*
X100330000Y90170000D02*
X96497200Y90170000D01*
%TO.N,AD_{7}*%
X115570000Y72390000D02*
X114393100Y72390000D01*
X83820000Y69850000D02*
X84996900Y69850000D01*
X83820000Y69850000D02*
X82643100Y69850000D01*
X88735400Y73588500D02*
X84996900Y69850000D01*
X93084500Y73588500D02*
X88735400Y73588500D01*
X95473600Y71199400D02*
X93084500Y73588500D01*
X113202500Y71199400D02*
X95473600Y71199400D01*
X114393100Y72390000D02*
X113202500Y71199400D01*
X80675100Y69850000D02*
X82643100Y69850000D01*
X77953300Y67128200D02*
X80675100Y69850000D01*
X73825500Y67128200D02*
X77953300Y67128200D01*
X73377400Y66680100D02*
X73825500Y67128200D01*
X67014600Y66680100D02*
X73377400Y66680100D01*
X62889300Y62554800D02*
X67014600Y66680100D01*
X48584800Y62554800D02*
X62889300Y62554800D01*
X43180000Y57150000D02*
X48584800Y62554800D01*
%TO.N,AD_{6}*%
X121920000Y30480000D02*
X120743100Y30480000D01*
X85090000Y38100000D02*
X86266900Y38100000D01*
X58820000Y33020000D02*
X59916900Y33020000D01*
X86266900Y36105500D02*
X86540200Y35832200D01*
X86266900Y38100000D02*
X86266900Y36105500D01*
X120743100Y30112100D02*
X120743100Y30480000D01*
X119411500Y28780500D02*
X120743100Y30112100D01*
X104416600Y28780500D02*
X119411500Y28780500D01*
X97641000Y35556100D02*
X104416600Y28780500D01*
X86816300Y35556100D02*
X97641000Y35556100D01*
X86540200Y35832200D02*
X86816300Y35556100D01*
X83272500Y32564500D02*
X86540200Y35832200D01*
X72686100Y32564500D02*
X83272500Y32564500D01*
X71133400Y34117200D02*
X72686100Y32564500D01*
X65939700Y34117200D02*
X71133400Y34117200D01*
X65170000Y33347500D02*
X65939700Y34117200D01*
X65170000Y32735900D02*
X65170000Y33347500D01*
X64353700Y31919600D02*
X65170000Y32735900D01*
X60880200Y31919600D02*
X64353700Y31919600D01*
X59916900Y32882900D02*
X60880200Y31919600D01*
X59916900Y33020000D02*
X59916900Y32882900D01*
X106022900Y69850000D02*
X115570000Y69850000D01*
X102190800Y66017900D02*
X106022900Y69850000D01*
X90090100Y66017900D02*
X102190800Y66017900D01*
X89703300Y65631100D02*
X90090100Y66017900D01*
X86675800Y65631100D02*
X89703300Y65631100D01*
X84996900Y67310000D02*
X86675800Y65631100D01*
X83820000Y67310000D02*
X84996900Y67310000D01*
%TO.N,AD_{5}*%
X115570000Y67310000D02*
X114393100Y67310000D01*
X83820000Y64770000D02*
X84996900Y64770000D01*
X92710000Y38100000D02*
X93886900Y38100000D01*
X116840000Y30480000D02*
X115663100Y30480000D01*
X48260000Y57150000D02*
X49436900Y57150000D01*
X83820000Y64770000D02*
X82643100Y64770000D01*
X115663100Y30845800D02*
X115663100Y30480000D01*
X114303600Y32205300D02*
X115663100Y30845800D01*
X110730400Y32205300D02*
X114303600Y32205300D01*
X106854600Y36081100D02*
X110730400Y32205300D01*
X95538000Y36081100D02*
X106854600Y36081100D01*
X93886900Y37732200D02*
X95538000Y36081100D01*
X93886900Y38100000D02*
X93886900Y37732200D01*
X86187500Y63579400D02*
X84996900Y64770000D01*
X102407000Y63579400D02*
X86187500Y63579400D01*
X107364400Y68536800D02*
X102407000Y63579400D01*
X113166300Y68536800D02*
X107364400Y68536800D01*
X114393100Y67310000D02*
X113166300Y68536800D01*
X82496000Y64622900D02*
X82643100Y64770000D01*
X67737500Y64622900D02*
X82496000Y64622900D01*
X64015100Y60900500D02*
X67737500Y64622900D01*
X52884600Y60900500D02*
X64015100Y60900500D01*
X49436900Y57452800D02*
X52884600Y60900500D01*
X49436900Y57150000D02*
X49436900Y57452800D01*
X91533100Y38465800D02*
X91533100Y38100000D01*
X90722000Y39276900D02*
X91533100Y38465800D01*
X84547300Y39276900D02*
X90722000Y39276900D01*
X83820000Y38549600D02*
X84547300Y39276900D01*
X83820000Y33858700D02*
X83820000Y38549600D01*
X83051100Y33089800D02*
X83820000Y33858700D01*
X77582900Y33089800D02*
X83051100Y33089800D01*
X76053600Y34619100D02*
X77582900Y33089800D01*
X63918900Y34619100D02*
X76053600Y34619100D01*
X62456900Y33157100D02*
X63918900Y34619100D01*
X62456900Y33020000D02*
X62456900Y33157100D01*
X61360000Y33020000D02*
X62456900Y33020000D01*
X92710000Y38100000D02*
X91533100Y38100000D01*
%TO.N,AD_{3}*%
X95250000Y30480000D02*
X94073100Y30480000D01*
X66440000Y33020000D02*
X67536900Y33020000D01*
X53340000Y57150000D02*
X54516900Y57150000D01*
X83820000Y59690000D02*
X82643100Y59690000D01*
X127000000Y38100000D02*
X125823100Y38100000D01*
X94286800Y43233000D02*
X94059400Y43005600D01*
X108355100Y43233000D02*
X94286800Y43233000D01*
X113030000Y38558100D02*
X108355100Y43233000D01*
X113030000Y37635700D02*
X113030000Y38558100D01*
X113775800Y36889900D02*
X113030000Y37635700D01*
X124980800Y36889900D02*
X113775800Y36889900D01*
X125823100Y37732200D02*
X124980800Y36889900D01*
X125823100Y38100000D02*
X125823100Y37732200D01*
X94073100Y30845800D02*
X94073100Y30480000D01*
X92857700Y32061200D02*
X94073100Y30845800D01*
X68495700Y32061200D02*
X92857700Y32061200D01*
X67536900Y33020000D02*
X68495700Y32061200D01*
X75224800Y59690000D02*
X82643100Y59690000D01*
X73363500Y57828700D02*
X75224800Y59690000D01*
X73363500Y57725600D02*
X73363500Y57828700D01*
X71601000Y55963100D02*
X73363500Y57725600D01*
X68067300Y55963100D02*
X71601000Y55963100D01*
X67310000Y56720400D02*
X68067300Y55963100D01*
X67310000Y60084400D02*
X67310000Y56720400D01*
X66496800Y60897600D02*
X67310000Y60084400D01*
X65431900Y60897600D02*
X66496800Y60897600D01*
X64417100Y59882800D02*
X65431900Y60897600D01*
X56884100Y59882800D02*
X64417100Y59882800D01*
X54516900Y57515600D02*
X56884100Y59882800D01*
X54516900Y57150000D02*
X54516900Y57515600D01*
%TO.N,AD_{2}*%
X55880000Y57150000D02*
X57056900Y57150000D01*
X83581800Y57150000D02*
X82643100Y57150000D01*
X83581800Y57150000D02*
X83820000Y57150000D01*
X121920000Y38100000D02*
X120743100Y38100000D01*
X92710000Y30480000D02*
X91533100Y30480000D01*
X63900000Y17780000D02*
X64996900Y17780000D01*
X113818800Y45390100D02*
X98251100Y45390100D01*
X120743100Y38465800D02*
X113818800Y45390100D01*
X120743100Y38100000D02*
X120743100Y38465800D01*
X98251100Y45390100D02*
X91780800Y45390100D01*
X57056900Y57517800D02*
X57056900Y57150000D01*
X57939100Y58400000D02*
X57056900Y57517800D01*
X63980800Y58400000D02*
X57939100Y58400000D01*
X64770000Y57610800D02*
X63980800Y58400000D01*
X64770000Y56689500D02*
X64770000Y57610800D01*
X65998300Y55461200D02*
X64770000Y56689500D01*
X73294600Y55461200D02*
X65998300Y55461200D01*
X74983400Y57150000D02*
X73294600Y55461200D01*
X82643100Y57150000D02*
X74983400Y57150000D01*
X64996900Y17893600D02*
X64996900Y17780000D01*
X75004200Y27900900D02*
X64996900Y17893600D01*
X89321800Y27900900D02*
X75004200Y27900900D01*
X91533100Y30112200D02*
X89321800Y27900900D01*
X91533100Y30480000D02*
X91533100Y30112200D01*
%TO.N,AD_{1}*%
X61360000Y17780000D02*
X62456900Y17780000D01*
X85090000Y30480000D02*
X83913100Y30480000D01*
X116840000Y38100000D02*
X115663100Y38100000D01*
X115663100Y38465800D02*
X115663100Y38100000D01*
X109526200Y44602700D02*
X115663100Y38465800D01*
X97435200Y44602700D02*
X109526200Y44602700D01*
X58420000Y57150000D02*
X59596900Y57150000D01*
X83820000Y54610000D02*
X82643100Y54610000D01*
X97261800Y44429300D02*
X97435200Y44602700D01*
X90792700Y44429300D02*
X97261800Y44429300D01*
X83913100Y30114200D02*
X83913100Y30480000D01*
X82201700Y28402800D02*
X83913100Y30114200D01*
X72942600Y28402800D02*
X82201700Y28402800D01*
X62456900Y17917100D02*
X72942600Y28402800D01*
X62456900Y17780000D02*
X62456900Y17917100D01*
X81570200Y55682900D02*
X82643100Y54610000D01*
X75851900Y55682900D02*
X81570200Y55682900D01*
X74570100Y54401100D02*
X75851900Y55682900D01*
X61978000Y54401100D02*
X74570100Y54401100D01*
X59596900Y56782200D02*
X61978000Y54401100D01*
X59596900Y57150000D02*
X59596900Y56782200D01*
%TO.N,AD_{0}*%
X55880000Y81280000D02*
X55880000Y80103100D01*
X59916900Y17893600D02*
X59916900Y17780000D01*
X71326400Y29303100D02*
X59916900Y17893600D01*
X80564100Y29303100D02*
X71326400Y29303100D01*
X81373100Y30112100D02*
X80564100Y29303100D01*
X81373100Y30480000D02*
X81373100Y30112100D01*
X82550000Y30480000D02*
X81373100Y30480000D01*
X58820000Y17780000D02*
X59916900Y17780000D01*
X60960000Y57150000D02*
X62136900Y57150000D01*
X83820000Y52070000D02*
X83820000Y53246900D01*
X84259800Y55880000D02*
X85011200Y55128600D01*
X83239800Y55880000D02*
X84259800Y55880000D01*
X82912300Y56207500D02*
X83239800Y55880000D01*
X74958400Y56207500D02*
X82912300Y56207500D01*
X73682100Y54931200D02*
X74958400Y56207500D01*
X63987900Y54931200D02*
X73682100Y54931200D01*
X62136900Y56782200D02*
X63987900Y54931200D01*
X62136900Y57150000D02*
X62136900Y56782200D01*
X84185800Y53246900D02*
X83820000Y53246900D01*
X85011200Y54072300D02*
X84185800Y53246900D01*
X85011200Y55128600D02*
X85011200Y54072300D01*
X56500100Y79483000D02*
X56500100Y79107900D01*
X55880000Y80103100D02*
X56500100Y79483000D01*
X89774600Y58416800D02*
X104551100Y58416800D01*
X87332400Y55974600D02*
X89774600Y58416800D01*
X85857200Y55974600D02*
X87332400Y55974600D01*
X85011200Y55128600D02*
X85857200Y55974600D01*
%TO.N,PS2DATA*%
X25400000Y91440000D02*
X24130000Y92710000D01*
X17780000Y92710000D02*
X24130000Y92710000D01*
X24130000Y92710000D02*
X27940000Y96520000D01*
%TO.N,Net-(RN1B-R2.2)*%
X77470000Y46970000D02*
X76293100Y46970000D01*
X64780700Y49070500D02*
X64780700Y50339700D01*
X65949000Y47902200D02*
X64780700Y49070500D01*
X67368600Y47902200D02*
X65949000Y47902200D01*
X68300800Y46970000D02*
X67368600Y47902200D01*
X76293100Y46970000D02*
X68300800Y46970000D01*
%TO.N,+5V*%
X35560000Y83820000D02*
X40640000Y88900000D01*
X33020000Y91440000D02*
X33020000Y86360000D01*
X22860000Y68580000D02*
X25400000Y66040000D01*
X22860000Y72390000D02*
X22860000Y68580000D01*
X124460000Y12700000D02*
X121920000Y12700000D01*
X121920000Y12700000D02*
X119380000Y12700000D01*
X119380000Y12700000D02*
X116840000Y12700000D01*
X116840000Y12700000D02*
X114300000Y12700000D01*
X114300000Y12700000D02*
X111760000Y12700000D01*
X111760000Y12700000D02*
X109220000Y12700000D01*
X109220000Y12700000D02*
X106680000Y12700000D01*
X35560000Y81280000D02*
X35560000Y83820000D01*
X87630000Y68580000D02*
X91440000Y72390000D01*
X87630000Y67310000D02*
X87630000Y68580000D01*
X111760000Y100330000D02*
X107950000Y96520000D01*
X115570000Y100330000D02*
X111760000Y100330000D01*
X87630000Y100330000D02*
X91187700Y103887700D01*
X87630000Y99060000D02*
X87630000Y100330000D01*
X91187700Y103887700D02*
X91440000Y104140000D01*
X33020000Y86360000D02*
X34702600Y84677500D01*
X34702600Y84677500D02*
X35560000Y83820000D01*
X17780000Y87630000D02*
X19006900Y87630000D01*
X22860000Y72390000D02*
X22860000Y73566900D01*
X24050600Y74757500D02*
X22860000Y73566900D01*
X24050600Y84677400D02*
X24050600Y74757500D01*
X34702500Y84677400D02*
X24050600Y84677400D01*
X34702600Y84677500D02*
X34702500Y84677400D01*
X21959500Y84677400D02*
X19006900Y87630000D01*
X24050600Y84677400D02*
X21959500Y84677400D01*
X21674100Y62314100D02*
X25400000Y66040000D01*
X21674100Y54525900D02*
X21674100Y62314100D01*
X26670000Y49530000D02*
X21674100Y54525900D01*
X27885600Y48314400D02*
X26670000Y49530000D01*
X27885600Y33020000D02*
X27885600Y48314400D01*
X33420000Y33020000D02*
X27885600Y33020000D01*
X110490000Y34290000D02*
X107901100Y36878900D01*
X111760000Y34290000D02*
X110490000Y34290000D01*
X107901100Y36878900D02*
X106680000Y38100000D01*
X81280000Y34290000D02*
X77777900Y37792100D01*
X82550000Y34290000D02*
X81280000Y34290000D01*
X77777900Y37792100D02*
X77470000Y38100000D01*
X77470000Y41890000D02*
X77470000Y40713100D01*
X77777900Y40405200D02*
X77470000Y40713100D01*
X77777900Y39786400D02*
X77777900Y40405200D01*
X29210000Y49530000D02*
X31750000Y49530000D01*
X48260000Y49530000D02*
X48260000Y48353100D01*
X77777900Y37792100D02*
X77777900Y39786400D01*
X52070000Y45720000D02*
X48260000Y49530000D01*
X53340000Y45720000D02*
X52070000Y45720000D01*
X27070000Y33020000D02*
X20720000Y26670000D01*
X27885600Y33020000D02*
X27070000Y33020000D01*
X100582300Y103887700D02*
X107950000Y96520000D01*
X91187700Y103887700D02*
X100582300Y103887700D01*
D35*
X132080000Y68580000D02*
X127463400Y63963400D01*
X132080000Y73660000D02*
X132080000Y68580000D01*
D34*
X96366100Y68640800D02*
X92616900Y72390000D01*
X102659600Y68640800D02*
X96366100Y68640800D01*
X104543600Y70524800D02*
X102659600Y68640800D01*
X113975500Y70524800D02*
X104543600Y70524800D01*
X114525200Y71074500D02*
X113975500Y70524800D01*
X120352300Y71074500D02*
X114525200Y71074500D01*
X127463400Y63963400D02*
X120352300Y71074500D01*
X91440000Y72390000D02*
X92616900Y72390000D01*
X77470000Y38100000D02*
X76293100Y38100000D01*
X57230800Y38100000D02*
X76293100Y38100000D01*
X52470000Y33339200D02*
X57230800Y38100000D01*
X52470000Y32735900D02*
X52470000Y33339200D01*
X42685600Y22951500D02*
X52470000Y32735900D01*
X20238900Y22951500D02*
X42685600Y22951500D01*
X19503300Y23687100D02*
X20238900Y22951500D01*
X19503300Y25453300D02*
X19503300Y23687100D01*
X20720000Y26670000D02*
X19503300Y25453300D01*
X35138000Y46142000D02*
X31750000Y49530000D01*
X46048900Y46142000D02*
X35138000Y46142000D01*
X48260000Y48353100D02*
X46048900Y46142000D01*
X95262200Y39786400D02*
X77777900Y39786400D01*
X96520000Y38528600D02*
X95262200Y39786400D01*
X96520000Y37622700D02*
X96520000Y38528600D01*
X97263800Y36878900D02*
X96520000Y37622700D01*
X107901100Y36878900D02*
X97263800Y36878900D01*
D35*
X127463400Y63963400D02*
X125730000Y62230000D01*
D34*
X115650000Y52150000D02*
X114300000Y52150000D01*
X125730000Y62230000D02*
X115650000Y52150000D01*
D35*
%TO.N,GND*%
X129540000Y53395000D02*
X123040000Y53395000D01*
X125730000Y77470000D02*
X127000000Y77470000D01*
D34*
X22860000Y61000000D02*
X25400000Y63540000D01*
X22860000Y57150000D02*
X22860000Y61000000D01*
X87630000Y86360000D02*
X83820000Y86360000D01*
D35*
X129540000Y60960000D02*
X128270000Y62230000D01*
X129540000Y53395000D02*
X129540000Y60960000D01*
D34*
X102870000Y62230000D02*
X107950000Y67310000D01*
X100330000Y62230000D02*
X102870000Y62230000D01*
D35*
X125730000Y86360000D02*
X125730000Y77470000D01*
X124460000Y77470000D02*
X125730000Y77470000D01*
X125730000Y77470000D02*
X127000000Y77470000D01*
X133730000Y67690000D02*
X128270000Y62230000D01*
X133730000Y74550000D02*
X133730000Y67690000D01*
X130810000Y77470000D02*
X133730000Y74550000D01*
X127000000Y77470000D02*
X130810000Y77470000D01*
D34*
X83820000Y86360000D02*
X83820000Y83820000D01*
X83820000Y83820000D02*
X83820000Y81280000D01*
X83820000Y88900000D02*
X83820000Y86360000D01*
X39370000Y41910000D02*
X41910000Y41910000D01*
X66440000Y17780000D02*
X67536900Y17780000D01*
X66040000Y72390000D02*
X66040000Y70657500D01*
X66040000Y70657500D02*
X66040000Y69850000D01*
X83820000Y72390000D02*
X82643100Y72390000D01*
X55880000Y91440000D02*
X53340000Y88900000D01*
X55880000Y96520000D02*
X55880000Y91440000D01*
X83820000Y91440000D02*
X83820000Y88900000D01*
D35*
X129280000Y89910000D02*
X125730000Y86360000D01*
X129280000Y98100000D02*
X129280000Y89910000D01*
X126330000Y101050000D02*
X129280000Y98100000D01*
D34*
X96520000Y34290000D02*
X100330000Y30480000D01*
X95250000Y34290000D02*
X96520000Y34290000D01*
X124460000Y34290000D02*
X125095000Y34290000D01*
X125730000Y34290000D02*
X129540000Y30480000D01*
X125095000Y34290000D02*
X125730000Y34290000D01*
X106680000Y25400000D02*
X107856900Y25400000D01*
X75156900Y25400000D02*
X77470000Y25400000D01*
X67536900Y17780000D02*
X75156900Y25400000D01*
X39370000Y41910000D02*
X36830000Y41910000D01*
X22860000Y57150000D02*
X22860000Y55973100D01*
X87630000Y54610000D02*
X87630000Y53975000D01*
X87630000Y53340000D02*
X83820000Y49530000D01*
X87630000Y53975000D02*
X87630000Y53340000D01*
X89615000Y55960000D02*
X99153100Y55960000D01*
X87630000Y53975000D02*
X89615000Y55960000D01*
X100330000Y55960000D02*
X99153100Y55960000D01*
X107856900Y25754800D02*
X107856900Y25400000D01*
X110051000Y27948900D02*
X107856900Y25754800D01*
X121061800Y27948900D02*
X110051000Y27948900D01*
X123096900Y29984000D02*
X121061800Y27948900D01*
X123096900Y32291900D02*
X123096900Y29984000D01*
X125095000Y34290000D02*
X123096900Y32291900D01*
X36830000Y41910000D02*
X36022600Y41910000D01*
X29901800Y48030800D02*
X36022600Y41910000D01*
X29038600Y48030800D02*
X29901800Y48030800D01*
X27940000Y49129400D02*
X29038600Y48030800D01*
X27940000Y50893100D02*
X27940000Y49129400D01*
X22860000Y55973100D02*
X27940000Y50893100D01*
X54703100Y96885800D02*
X54703100Y96520000D01*
X52687600Y98901300D02*
X54703100Y96885800D01*
X34448700Y98901300D02*
X52687600Y98901300D01*
X27940000Y105410000D02*
X34448700Y98901300D01*
X55880000Y96520000D02*
X54703100Y96520000D01*
X71645700Y70657500D02*
X66040000Y70657500D01*
X73568800Y72580600D02*
X71645700Y70657500D01*
X82452500Y72580600D02*
X73568800Y72580600D01*
X82643100Y72390000D02*
X82452500Y72580600D01*
X26149200Y24170000D02*
X20720000Y24170000D01*
X34690000Y32710800D02*
X26149200Y24170000D01*
X34690000Y40577400D02*
X34690000Y32710800D01*
X36022600Y41910000D02*
X34690000Y40577400D01*
X67310000Y45720000D02*
X71120000Y41910000D01*
X66040000Y45720000D02*
X67310000Y45720000D01*
X44602200Y44602200D02*
X41910000Y41910000D01*
X49130500Y44602200D02*
X44602200Y44602200D01*
X49199800Y44532900D02*
X49130500Y44602200D01*
X54242000Y44532900D02*
X49199800Y44532900D01*
X56401800Y46692700D02*
X54242000Y44532900D01*
X65067300Y46692700D02*
X56401800Y46692700D01*
X66040000Y45720000D02*
X65067300Y46692700D01*
X78646900Y25767900D02*
X78646900Y25400000D01*
X79455900Y26576900D02*
X78646900Y25767900D01*
X91484400Y26576900D02*
X79455900Y26576900D01*
X94122300Y29214800D02*
X91484400Y26576900D01*
X98251000Y29214800D02*
X94122300Y29214800D01*
X99153100Y30116900D02*
X98251000Y29214800D01*
X99153100Y30480000D02*
X99153100Y30116900D01*
X100330000Y30480000D02*
X99153100Y30480000D01*
X77470000Y25400000D02*
X78646900Y25400000D01*
%TD*%
M02*
