%TF.GenerationSoftware,Novarm,DipTrace,4.3.0.4*%
%TF.CreationDate,2023-09-26T18:22:54+01:00*%
%FSLAX26Y26*%
%MOIN*%
%TF.FileFunction,Copper,L1,Top*%
%TF.Part,Single*%
%TA.AperFunction,Conductor*%
%ADD13C,0.03937*%
%ADD14C,0.009843*%
%TA.AperFunction,ComponentPad*%
%ADD18R,0.070866X0.070866*%
%ADD19C,0.070866*%
%ADD20R,0.062992X0.062992*%
%ADD21C,0.062992*%
%ADD22C,0.062992*%
%ADD23C,0.15748*%
%ADD24R,0.056693X0.056693*%
%ADD25C,0.056693*%
%ADD26R,0.173228X0.070866*%
%ADD27O,0.15748X0.070866*%
%ADD28O,0.070866X0.15748*%
%ADD29C,0.055118*%
%ADD30C,0.055118*%
%ADD31C,0.19685*%
%ADD32C,0.07874*%
%ADD33R,0.059055X0.059055*%
%ADD34C,0.059055*%
%ADD35R,0.08X0.08*%
%ADD36C,0.08*%
%ADD37R,0.075X0.07874*%
%ADD38O,0.075X0.07874*%
%TA.AperFunction,ViaPad*%
%ADD39C,0.04*%
G75*
G01*
%LPD*%
X5047638Y3393701D2*
D13*
Y3443701D1*
X4547638Y3943701D1*
X2097638Y1793701D2*
D14*
X2047638D1*
X1897638Y1943701D1*
X897638Y2843701D2*
Y2693701D1*
X997638Y2593701D1*
X1397638Y3193701D2*
Y3293701D1*
X1597638Y3493701D1*
X3447638Y2643701D2*
Y2693701D1*
X3597638Y2843701D1*
X4397638Y1343701D2*
X4347638D1*
X4197638Y1493701D1*
X3447638Y3893701D2*
Y3943701D1*
X3597638Y4093701D1*
X3247638Y1343701D2*
X3197638D1*
X3047638Y1493701D1*
X4697638Y2893701D2*
D13*
Y2793701D1*
X4947638Y2543701D1*
Y2443701D1*
X3947638Y2193701D2*
D14*
Y2093701D1*
X3997638Y2043701D1*
X1313386Y1293701D2*
X1063386D1*
X813386Y1043701D1*
X4547638Y3943701D2*
X4397638D1*
X4247638Y3793701D1*
X3597638Y4093701D2*
D13*
X4247638D1*
X4397638Y3943701D1*
X897638Y2843701D2*
D14*
X1175670Y3121733D1*
X1325670D1*
X1397638Y3193701D1*
X2097638Y1793701D2*
X2181693Y1709646D1*
X2581913D1*
X2596992Y1724725D1*
X2837760D1*
X2919572Y1642913D1*
X3047638D1*
X4697638Y2793701D2*
X4044055D1*
X1147638Y1943701D2*
X1247638D1*
X4397638Y493701D2*
X4497638D1*
X1313386Y1293701D2*
Y1227599D1*
X1333071Y1207914D1*
X2421736D1*
X3047638Y1371575D2*
X2745712D1*
X3047638Y1642913D2*
X4093897Y1642914D1*
X4044055Y2793701D2*
X3647638D1*
X3597638Y2843701D1*
X1247638Y1943701D2*
X1293898Y1989961D1*
X1851378D1*
X1897638Y1943701D1*
X4497638Y493701D2*
X4597638D1*
X2563716Y813705D2*
X2598480Y848469D1*
X3598248D1*
X3746870Y1940122D2*
X3761788Y1955040D1*
X4193893D1*
X3947638Y2843701D2*
X3822103Y2969236D1*
X2078665D1*
X1397638Y2243701D2*
Y2079172D1*
X1377953Y2059488D1*
X1113586D1*
X1093901Y2039803D1*
Y1447170D1*
X1113587Y1427484D1*
X1336815D1*
X1356500Y1407799D1*
Y1270276D1*
X1376185Y1250591D1*
X1970276D1*
X2013386Y1293701D1*
X1397638Y2739492D2*
X1924216D1*
X1943901Y2759177D1*
Y3070276D1*
X1963586Y3089961D1*
X4501378D1*
X4547638Y3043701D1*
X1478661Y3129331D2*
X3643901D1*
X3804531Y3289961D1*
X4501378D1*
X4547638Y3243701D1*
X1297638Y2243701D2*
X1172047Y2118110D1*
X704130D1*
X684445Y2098425D1*
Y1011221D1*
X704130Y991536D1*
X1807481D1*
X1813386Y997441D1*
X1343901Y2124040D2*
Y2587051D1*
X1363586Y2606736D1*
X3017720D1*
X1443901Y2437524D2*
X3052484D1*
X997638Y2243701D2*
X1043901Y2289964D1*
Y2521851D1*
X1024216Y2541536D1*
X851378D1*
X831693Y2561221D1*
Y3520276D1*
X851378Y3539961D1*
X1974708D1*
X2086913Y3427756D1*
X2231693D1*
X2251378Y3447441D1*
Y3693705D1*
X2271063Y3713390D1*
X3200752D1*
X3231063Y3743701D1*
X3947638D1*
X3597638Y3993701D2*
X3797638D1*
X3947638Y3843701D1*
X1847480Y2472288D2*
X2878665D1*
X2443901Y2522130D2*
X2843901D1*
X2197638Y1779173D2*
X2443901D1*
X3093901Y3205201D2*
Y3374729D1*
X2933114Y3439965D2*
X3254263D1*
X2493744Y1744410D2*
X2858980D1*
X2878665Y1764095D1*
Y1919965D1*
X3493901Y1255040D2*
X2753811D1*
X2652236Y1153465D1*
X2133075D1*
X2113386Y1133775D1*
Y693701D1*
X3597638Y2143701D2*
X3533271Y2208067D1*
Y2254508D1*
X3506047Y2281732D1*
X3459137D1*
X3439452Y2262047D1*
Y2209647D1*
X3459138Y2189961D1*
X3474216D1*
X3493901Y2170276D1*
Y2055201D1*
X3947638Y2943701D2*
X3901378Y2989961D1*
X2257936D1*
X2243897Y3004000D1*
X3836145Y2193862D2*
X3786306Y2243701D1*
X3597638D1*
X2563716Y883232D2*
X4076535D1*
X3793901Y2025209D2*
X3683271Y2135839D1*
Y2178469D1*
X2832401Y937681D2*
X3793901D1*
X3348512Y2589965D2*
X3153429D1*
X3133743Y2570279D1*
Y2402760D1*
X3114058Y2383075D1*
X1863586D1*
X1843901Y2363390D1*
Y2112126D1*
X1756500Y2024725D1*
X2997799Y1406819D2*
X2476185D1*
X2456500Y1387134D1*
Y1192835D1*
X2436815Y1173150D1*
X1919370D1*
X1899681Y1153461D1*
Y879996D1*
X1713386Y693701D1*
X978661Y3994095D2*
X851374D1*
X1613386Y1293701D2*
Y1514448D1*
X1633071Y1534134D1*
X1977953D1*
X1997638Y1553818D1*
Y1643701D1*
X3513586Y3183780D2*
Y3320280D1*
X3533271Y3339965D1*
X3807701D1*
X3857697Y3389961D1*
X4493898D1*
X4547638Y3443701D1*
X1597638Y2243701D2*
X1756697Y2402760D1*
X3070909D1*
X3090594Y2422445D1*
Y2770280D1*
X3110279Y2789965D1*
X3338980D1*
X3358980Y2809965D1*
Y2824729D1*
X1497638Y2774256D2*
X1543901Y2820519D1*
Y3089961D1*
X1563586Y3109646D1*
X3803413D1*
X3883728Y3189961D1*
X4574212D1*
X4593897Y3209646D1*
Y3297441D1*
X4547638Y3343701D1*
X3247638Y1193701D2*
X3187717Y1133780D1*
X2333075D1*
X2313386Y1114090D1*
Y693701D1*
X2397638Y2243701D2*
X2443902Y2289965D1*
X2724216D1*
X2743901Y2270280D1*
Y2209650D1*
X2763586Y2189965D1*
X3181850D1*
X3193901Y1724729D2*
X4043740D1*
X2243901Y2769701D2*
X2397638D1*
X3181850Y2189965D2*
X3324216D1*
X3343901Y2170280D1*
Y2089964D1*
X3297638Y2043701D1*
X4043740Y1724729D2*
X4377952D1*
X4397638Y1705043D1*
Y1493701D1*
X3347638Y1193701D2*
Y1099015D1*
X3327953Y1079331D1*
X2433075D1*
X2413386Y1059641D1*
Y693701D1*
X3297638Y2143701D2*
X2317327D1*
X2297638Y2163390D1*
Y2243701D1*
X4597638Y1493701D2*
Y1304330D1*
X4577953Y1284646D1*
X4202216D1*
X4057531Y1429331D1*
X3513586D1*
X3493901Y1449016D1*
Y1520276D1*
X3474216Y1539961D1*
X3413586D1*
X3393901Y1520276D1*
Y1450327D1*
X4512870Y2324729D2*
X3870909D1*
X4597638Y1579331D2*
Y1937075D1*
X2598480Y1024882D2*
X2613559Y1039961D1*
X3393901D1*
X3413586Y1059646D1*
Y1109488D1*
X3433271Y1129173D1*
X3647638D1*
X3297638Y2243701D2*
X2946717D1*
X2880768Y2309650D1*
X2217327D1*
X2197638Y2289960D1*
Y2243701D1*
X3439452Y2489965D2*
X3893902D1*
X3947638Y2543701D1*
X3647638Y1129173D2*
X4824216D1*
X4843901Y1148858D1*
Y1447437D1*
X4797638Y1493701D1*
X2097638Y2243701D2*
X2197638Y2343701D1*
X3297638D1*
X2613386Y1293701D2*
X3647638D1*
X3747638Y1193701D1*
X3297638Y2343701D2*
X3501796D1*
X3555532Y2289965D1*
X4527949D1*
X4547638Y2309653D1*
Y2443701D1*
Y2543701D2*
X4293897D1*
X2843901Y1594410D2*
X2858980Y1579331D1*
X3747638D1*
X2513386Y1293701D2*
X2556496Y1336811D1*
X2832405D1*
X1997638Y2243701D2*
Y2302763D1*
X1952090Y2348311D1*
X4293897Y2543701D2*
X4140161Y2389965D1*
X3351374D1*
X3297638Y2443701D1*
X3747638Y1579331D2*
X4293897D1*
X3474216Y2246969D2*
X3513586Y2207599D1*
Y2109650D1*
X3533271Y2089965D1*
X3627500D1*
X3647185Y2070280D1*
Y1989965D1*
X2413386Y1293701D2*
Y1539960D1*
X2433071Y1559646D1*
X3581693D1*
X3647638Y1493701D1*
X2316618Y1410945D2*
X1943901D1*
X3647185Y1989965D2*
X3851224D1*
X3870909Y2009650D1*
Y2239961D1*
X3890594Y2259646D1*
X4593897D1*
X4613582Y2279331D1*
Y2577756D1*
X4547638Y2643701D1*
X3647638Y1493701D2*
X3693902Y1539965D1*
X4324055D1*
X4343740Y1559650D1*
Y1633780D1*
X2710949Y1475040D2*
X2775870Y1539961D1*
X3301378D1*
X3347638Y1493701D1*
X3297638Y2643701D2*
X3360146D1*
X3406406Y2597441D1*
X3474216D1*
X3493901Y2617126D1*
Y2670280D1*
X3513586Y2689965D1*
X3967027D1*
X4020763Y2743701D1*
X4547638D1*
X1797638Y2243701D2*
Y2178303D1*
X1693901Y2074567D1*
X2278665Y1524882D2*
X2253153Y1499370D1*
X1693901D1*
X1643901Y2492457D2*
X1797638D1*
X3347638Y1493701D2*
Y1409646D1*
X3367323Y1389961D1*
X3918901D1*
X4068901Y1239961D1*
X4751378D1*
X4797638Y1193701D1*
X3502086Y1094410D2*
X4524212D1*
X4543897Y1074725D1*
Y947441D1*
X4563582Y927756D1*
X4924216D1*
X4943901Y947441D1*
Y1139964D1*
X4997638Y1193701D1*
X3216614Y2655201D2*
Y2724016D1*
X3236299Y2743701D1*
X3297638D1*
X4997638Y1193701D2*
X5063587Y1127752D1*
X5228149D1*
X5247834Y1147437D1*
Y2924213D1*
X5228149Y2943898D1*
X4647835D1*
X4547638Y2843701D1*
X3293901Y1119020D2*
X3283822Y1108941D1*
X2358078D1*
X2348153Y1099016D1*
X3597638Y3193701D2*
X3548350D1*
Y3168701D1*
X3528665Y3149016D1*
X3487008D1*
X3467323Y3168701D1*
Y3306993D1*
X3493901Y3333571D1*
Y3420280D1*
X3513586Y3439965D1*
X3668031D1*
X3718035Y3389961D1*
X3554263Y2889965D2*
X2443902D1*
X2397638Y2843701D1*
X2967878Y2668559D2*
X1272780D1*
X1097638Y2843701D1*
X943897Y4197839D2*
X2993500D1*
X3297638Y3893701D1*
X1297638Y2703323D2*
X2898350D1*
X3297638Y3693701D2*
X2309137D1*
X2289452Y3674016D1*
Y3259646D1*
X2269767Y3239961D1*
X1463582D1*
X1443897Y3220276D1*
Y3117700D1*
X1397638Y3071440D1*
Y2843701D1*
X2697638Y2243701D2*
X2651378Y2197441D1*
X2363586D1*
X2343901Y2217126D1*
Y2270280D1*
X2324216Y2289965D1*
X2263586D1*
X2243901Y2270280D1*
Y2129016D1*
X2263586Y2109331D1*
X3212008D1*
X3231693Y2089646D1*
Y1848705D1*
X3251378Y1829020D1*
X4082957D1*
X4147638Y1893701D1*
X2197638Y3793701D2*
Y3747441D1*
Y3593701D1*
X2097638Y3493701D1*
X3747638Y1343701D2*
X3797638D1*
X3947638Y1193701D1*
X813386Y945276D2*
Y793701D1*
X1063386Y543701D1*
X2463386D1*
X2613386Y693701D1*
X3447638Y3393701D2*
Y3343701D1*
X3297638Y3193701D1*
X2597638Y1793701D2*
X2647638D1*
X2797638Y1943701D1*
X897638Y2243701D2*
Y2395276D1*
X997638Y2495276D1*
X4947638Y3393701D2*
D13*
Y3043701D1*
X4897638D1*
X3447638Y2143701D2*
D14*
Y2093701D1*
X3297638Y1943701D1*
X4897638Y1343701D2*
X4947638D1*
X5097638Y1193701D1*
X3947638Y2443701D2*
X4047638D1*
X4247638Y2643701D1*
X4547638Y1893701D2*
Y1993701D1*
X4497638Y2043701D1*
X4947638Y3043701D2*
D13*
X4997638D1*
X3297638Y3193701D2*
D14*
Y3593701D1*
X2197638Y3747441D2*
X871059D1*
X851374Y3767126D1*
Y3924571D1*
X871059Y3944256D1*
X1077948D1*
X1097638Y3963945D1*
Y4143701D1*
X1193901Y1760847D2*
X1330492D1*
X1447638Y1643701D1*
X2597638Y2843701D2*
X2643898Y2797441D1*
X3036146D1*
X3082406Y2843701D1*
X3297638D1*
X897638Y2243701D2*
X988465Y2152874D1*
X1143901D1*
X3047638Y993701D2*
X2797638D1*
X5097638Y2095866D2*
X4841732D1*
X3447638Y2143701D2*
X3363586Y2227752D1*
Y2270280D1*
X3343905Y2289961D1*
X3007248D1*
X3036146Y2797441D2*
X3055830Y2777757D1*
Y2535948D1*
X3007248Y2487366D1*
X2643901Y1689961D2*
X2751378D1*
X2797638Y1643701D1*
X1647638D2*
X1693902Y1597437D1*
X1943901D1*
Y1670276D1*
X1963586Y1689961D1*
X2643901D1*
X1547638Y1643701D2*
X1647638D1*
X1447638D2*
X1547638D1*
X4111299Y993701D2*
X4146063D1*
X4197638D1*
X3947638Y940414D2*
Y993701D1*
X4111299D1*
X2797638D2*
Y922602D1*
X2817323Y902917D1*
X3910141D1*
X3947638Y940414D1*
X4297638Y1493701D2*
X4356693Y1434646D1*
X4424216D1*
X4443901Y1454331D1*
Y1739807D1*
X4424216Y1759492D1*
X3113586D1*
X3093901Y1779177D1*
Y1869488D1*
X3074216Y1889173D1*
X2972488D1*
X2952803Y1908858D1*
Y2020118D1*
X2933118Y2039803D1*
X2393740D1*
X2297638Y1943701D1*
X2612874Y1855040D2*
X2163586D1*
X2143901Y1874725D1*
Y2129012D1*
X2343901Y3458937D2*
Y3635358D1*
X4797638Y2893701D2*
Y2843701D1*
X4897638Y2743701D1*
X5097638Y2893701D2*
Y2843701D1*
X4997638Y2743701D1*
X1697638Y4143701D2*
X1936449Y3904890D1*
X2386449D1*
X2497638Y3793701D1*
X1797638Y4143701D2*
X1985985Y3955354D1*
X2577949D1*
X2597638Y3935665D1*
Y3793701D1*
X1897638Y4143701D2*
X2010827Y4030512D1*
X2677948D1*
X2697638Y4010822D1*
Y3793701D1*
X2797638D2*
Y4030511D1*
X2777952Y4050197D1*
X2091142D1*
X1997638Y4143701D1*
X2478661Y3600599D2*
X2797638Y3281622D1*
Y3193701D1*
X2543897Y3851063D2*
Y3920591D1*
X1597638Y4143701D2*
X1378508Y3924571D1*
X917322D1*
X897638Y3904886D1*
Y3793701D1*
X1397638Y3855043D2*
X1158980D1*
X1097638Y3793701D1*
X997638Y3889807D2*
X1497634D1*
X2843901Y1800595D2*
Y1870122D1*
X2497638Y2005040D2*
X2502244Y2009646D1*
X2913433D1*
X2933118Y1989961D1*
Y1862599D1*
X2952804Y1842913D1*
X3047638D1*
X1597638Y2571973D2*
X2967878D1*
X4597638Y993701D2*
X4693740Y1089803D1*
X4877952D1*
X4897638Y1109488D1*
Y1193701D1*
X1447638Y1943701D2*
X1547638D1*
X1647638D2*
Y1893701D1*
X1897638Y1643701D1*
X1547638Y1943701D2*
X1647638D1*
X3447638Y1193701D2*
X3393901Y1139964D1*
Y1079331D1*
X3374216Y1059646D1*
X2528952D1*
X2509267Y1039961D1*
Y756496D1*
X2528952Y736811D1*
X2705708D1*
X2800389Y642130D1*
X3127953D1*
X3147638Y622445D1*
Y493701D1*
X3593901Y1059646D2*
X4224212D1*
X4243897Y1039961D1*
Y655083D1*
X4224212Y635398D1*
X3689335D1*
X3547638Y493701D1*
X3447638Y1424725D2*
X3462717Y1409646D1*
X4025113D1*
X4041771Y1392988D1*
X2886854Y453543D2*
X2901932Y438465D1*
X3692402D1*
X3747638Y493701D1*
X3047638Y1193701D2*
X2930224D1*
X4209134Y708071D2*
X2930224D1*
X3947638Y1794256D2*
X3187114D1*
X3167429Y1813941D1*
Y1969488D1*
X3147744Y1989173D1*
X3007252D1*
X2987567Y2008858D1*
Y2054882D1*
X2967882Y2074567D1*
X2678665D1*
X3947638Y1893701D2*
X4047638D1*
X4847638Y2443701D2*
X4643898Y2239961D1*
X4493898D1*
X4447638Y2193701D1*
X4841732Y1918701D2*
X5097638D1*
X4447638Y2193701D2*
X4347638D1*
X2197638Y2005040D2*
X2243901D1*
Y1917122D1*
X2263586Y1897437D1*
X2524216D1*
X2543901Y1917122D1*
Y1970276D1*
X2563586Y1989961D1*
X2893744D1*
X2913429Y1970276D1*
Y1708858D1*
X2933114Y1689173D1*
X3947638D1*
X2097638Y1874725D2*
X2043901Y1928462D1*
Y2343705D1*
X2063586Y2363390D1*
X3171039D1*
X3190726Y2383077D1*
Y2470280D1*
X3210411Y2489965D1*
X3367622D1*
X3402386Y2524729D1*
X3480968D1*
X3546204Y2589965D1*
X3963582D1*
X4063578Y2689961D1*
X4432673D1*
X4547638Y2193701D2*
X5177949D1*
X5197638Y2213389D1*
Y2893701D1*
X2617326Y3052154D2*
X2297638D1*
X2797641Y3038240D2*
X3862244D1*
X4347638Y1893701D2*
X4247638D1*
X1913386Y1293701D2*
X1956496Y1336811D1*
X2331697D1*
X2351382Y1356496D1*
Y1559646D1*
X2371067Y1579331D1*
X2433268D1*
X2497638Y1643701D1*
X2343897Y3748154D2*
X3017078D1*
X3108889Y3839965D1*
X3722551D1*
X3772555Y3789961D1*
X3998819D1*
X4098819Y3689961D1*
X4593897D1*
X4613582Y3670276D1*
Y3163386D1*
X4593897Y3143701D1*
X4547638D1*
X2397638Y3193701D2*
Y3620280D1*
X2417322Y3639965D1*
X3827382D1*
X3877386Y3589961D1*
X4493898D1*
X4547638Y3643701D1*
X2543901Y2739492D2*
X2528823Y2724414D1*
X2116925D1*
X1997638Y2843701D1*
D39*
X4044055Y2793701D3*
X2421736Y1207914D3*
X2745712Y1371575D3*
X3047638D3*
X4093897Y1642914D3*
X3598248Y848469D3*
X2563716Y813705D3*
X4193893Y1955040D3*
X3746870Y1940122D3*
X2078665Y2969236D3*
X1397638Y2739492D3*
X1478661Y3129331D3*
X1813386Y997441D3*
X3017720Y2606736D3*
X1343901Y2124040D3*
X3052484Y2437524D3*
X1443901D3*
X2878665Y2472288D3*
X1847480D3*
X2843901Y2522130D3*
X2443901D3*
Y1779173D3*
X2197638D3*
X3093901Y3374729D3*
Y3205201D3*
X3254263Y3439965D3*
X2933114D3*
X2878665Y1919965D3*
X2493744Y1744410D3*
X3493901Y1255040D3*
Y2055201D3*
X2243897Y3004000D3*
X3836145Y2193862D3*
X4076535Y883232D3*
X2563716D3*
X3683271Y2178469D3*
X3793901Y2025209D3*
Y937681D3*
X2832401D3*
X1756500Y2024725D3*
X3348512Y2589965D3*
X2997799Y1406819D3*
X851374Y3994095D3*
X978661D3*
X3513586Y3183780D3*
X3358980Y2824729D3*
X1497638Y2774256D3*
X3181850Y2189965D3*
X2397638Y2769701D3*
X2243901D3*
X3193901Y1724729D3*
X4043740D3*
X3870909Y2324729D3*
X4512870D3*
X4597638Y1937075D3*
Y1579331D3*
X3393901Y1450327D3*
X2598480Y1024882D3*
X3439452Y2489965D3*
X3647638Y1129173D3*
X4293897Y1579331D3*
X2832405Y1336811D3*
X2843901Y1594410D3*
X1952090Y2348311D3*
X4293897Y2543701D3*
X3747638Y1579331D3*
X3474216Y2246969D3*
X4343740Y1633780D3*
X1943901Y1410945D3*
X2316618D3*
X3647185Y1989965D3*
X2710949Y1475040D3*
X1693901Y2074567D3*
Y1499370D3*
X2278665Y1524882D3*
X1797638Y2492457D3*
X1643901D3*
X2348153Y1099016D3*
X3502086Y1094410D3*
X3216614Y2655201D3*
X3293901Y1119020D3*
X3718035Y3389961D3*
X3554263Y2889965D3*
X2967878Y2668559D3*
X943897Y4197839D3*
X2898350Y2703323D3*
X1297638D3*
X1193901Y1760847D3*
X1143901Y2152874D3*
X3947638Y940414D3*
X3007248Y2289961D3*
Y2487366D3*
X2643901Y1689961D3*
X4111299Y993701D3*
X2797638D3*
X2143901Y2129012D3*
X2612874Y1855040D3*
X2343901Y3635358D3*
Y3458937D3*
X2478661Y3600599D3*
X2543897Y3920591D3*
Y3851063D3*
X1397638Y3855043D3*
X1497634Y3889807D3*
X997638D3*
X2843901Y1870122D3*
Y1800595D3*
X2497638Y2005040D3*
X2967878Y2571973D3*
X1597638D3*
X3593901Y1059646D3*
X4041771Y1392988D3*
X3447638Y1424725D3*
X2886854Y453543D3*
X2930224Y1193701D3*
Y708071D3*
X4209134D3*
X2678665Y2074567D3*
X3947638Y1794256D3*
Y1689173D3*
X2197638Y2005040D3*
X4432673Y2689961D3*
X2097638Y1874725D3*
X2297638Y3052154D3*
X2617326D3*
X3862244Y3038240D3*
X2797641D3*
X2343897Y3748154D3*
X2543901Y2739492D3*
D18*
X4797638Y2893701D3*
D19*
X4697638D3*
D20*
X3297638Y2843701D3*
D21*
Y2743701D3*
Y2643701D3*
Y2543701D3*
Y2443701D3*
Y2343701D3*
Y2243701D3*
Y2143701D3*
Y2043701D3*
Y1943701D3*
X3597638D3*
Y2043701D3*
Y2143701D3*
Y2243701D3*
Y2343701D3*
Y2443701D3*
Y2543701D3*
Y2643701D3*
Y2743701D3*
Y2843701D3*
D22*
X1597638Y3493701D3*
X2097638D3*
D20*
X4197638Y993701D3*
D21*
X4297638D3*
X4397638D3*
X4497638D3*
X4597638D3*
X4697638D3*
X4797638D3*
X4897638D3*
X4997638D3*
D23*
X747638Y543701D3*
D22*
X4397638Y1343701D3*
X4897638D3*
D20*
X897638Y2243701D3*
D21*
X997638D3*
X1097638D3*
X1197638D3*
X1297638D3*
X1397638D3*
X1497638D3*
X1597638D3*
X1697638D3*
X1797638D3*
X1897638D3*
X1997638D3*
X2097638D3*
X2197638D3*
X2297638D3*
X2397638D3*
X2497638D3*
X2597638D3*
X2697638D3*
X2797638D3*
Y2843701D3*
X2697638D3*
X2597638D3*
X2497638D3*
X2397638D3*
X2297638D3*
X2197638D3*
X2097638D3*
X1997638D3*
X1897638D3*
X1797638D3*
X1697638D3*
X1597638D3*
X1497638D3*
X1397638D3*
X1297638D3*
X1197638D3*
X1097638D3*
X997638D3*
X897638D3*
D22*
X3447638Y2643701D3*
Y2143701D3*
X2097638Y1793701D3*
X2597638D3*
D20*
X4197638Y1193701D3*
D21*
X4297638D3*
X4397638D3*
X4497638D3*
X4597638D3*
X4697638D3*
X4797638D3*
X4897638D3*
X4997638D3*
X5097638D3*
Y1493701D3*
X4997638D3*
X4897638D3*
X4797638D3*
X4697638D3*
X4597638D3*
X4497638D3*
X4397638D3*
X4297638D3*
X4197638D3*
D22*
X997638Y2593701D3*
Y2495276D3*
D24*
X1313386Y693701D3*
D25*
X1413386D3*
X1513386D3*
X1613386D3*
X1713386D3*
X1813386D3*
X1913386D3*
X2013386D3*
X2113386D3*
X2213386D3*
X2313386D3*
X2413386D3*
X2513386D3*
X2613386D3*
Y1293701D3*
X2513386D3*
X2413386D3*
X2313386D3*
X2213386D3*
X2113386D3*
X2013386D3*
X1913386D3*
X1813386D3*
X1713386D3*
X1613386D3*
X1513386D3*
X1413386D3*
X1313386D3*
D22*
X4247638Y3793701D3*
Y2643701D3*
D18*
X5097638Y2893701D3*
D19*
X5197638D3*
D22*
X3447638Y3893701D3*
Y3393701D3*
D20*
X3047638Y993701D3*
D21*
X3147638D3*
X3247638D3*
X3347638D3*
X3447638D3*
X3547638D3*
X3647638D3*
X3747638D3*
X3847638D3*
D23*
X5147638Y543701D3*
D26*
X4971260Y3743701D3*
D27*
Y3972047D3*
D28*
X4782283Y3861811D3*
D20*
X3047638Y1193701D3*
D21*
X3147638D3*
X3247638D3*
X3347638D3*
X3447638D3*
X3547638D3*
X3647638D3*
X3747638D3*
X3847638D3*
X3947638D3*
Y1493701D3*
X3847638D3*
X3747638D3*
X3647638D3*
X3547638D3*
X3447638D3*
X3347638D3*
X3247638D3*
X3147638D3*
X3047638D3*
D20*
Y1642913D3*
D21*
Y1742913D3*
Y1842913D3*
Y1942913D3*
Y2042913D3*
D29*
X4997638Y2743701D3*
D30*
Y3043701D3*
D22*
X1347638Y1943701D3*
Y1643701D3*
D20*
X1047638D3*
D21*
X1147638D3*
X1247638D3*
D22*
X1447638D3*
X1547638D3*
X1647638D3*
Y1943701D3*
X1547638D3*
X1447638D3*
X1247638D3*
X1147638D3*
X1047638D3*
D20*
X3947638Y3943701D3*
D21*
Y3843701D3*
Y3743701D3*
Y3643701D3*
Y3543701D3*
Y3443701D3*
Y3343701D3*
Y3243701D3*
Y3143701D3*
Y3043701D3*
Y2943701D3*
Y2843701D3*
Y2743701D3*
Y2643701D3*
Y2543701D3*
Y2443701D3*
X4547638D3*
Y2543701D3*
Y2643701D3*
Y2743701D3*
Y2843701D3*
Y2943701D3*
Y3043701D3*
Y3143701D3*
Y3243701D3*
Y3343701D3*
Y3443701D3*
Y3543701D3*
Y3643701D3*
Y3743701D3*
Y3843701D3*
Y3943701D3*
D20*
X4197638Y493701D3*
D21*
X4297638D3*
X4397638D3*
X4497638D3*
X4597638D3*
X4697638D3*
X4797638D3*
X4897638D3*
Y793701D3*
X4797638D3*
X4697638D3*
X4597638D3*
X4497638D3*
X4397638D3*
X4297638D3*
X4197638D3*
D22*
X3997638Y2043701D3*
X4497638D3*
X813386Y1043701D3*
Y945276D3*
D31*
X797638Y4143701D3*
Y1979921D3*
D32*
X1297638Y4143701D3*
X2497638D3*
X2597638D3*
D31*
X4457480D3*
D32*
X1097638D3*
X1197638D3*
X1397638D3*
X1497638D3*
X1597638D3*
X1697638D3*
X1797638D3*
X1897638D3*
X1997638D3*
X2097638D3*
X2197638D3*
X2297638D3*
X2397638D3*
D20*
X2797638Y3793701D3*
D21*
X2697638D3*
X2597638D3*
X2497638D3*
X2397638D3*
X2297638D3*
X2197638D3*
X2097638D3*
X1997638D3*
X1897638D3*
X1797638D3*
X1697638D3*
X1597638D3*
X1497638D3*
X1397638D3*
X1297638D3*
X1197638D3*
X1097638D3*
X997638D3*
X897638D3*
Y3193701D3*
X997638D3*
X1097638D3*
X1197638D3*
X1297638D3*
X1397638D3*
X1497638D3*
X1597638D3*
X1697638D3*
X1797638D3*
X1897638D3*
X1997638D3*
X2097638D3*
X2197638D3*
X2297638D3*
X2397638D3*
X2497638D3*
X2597638D3*
X2697638D3*
X2797638D3*
D33*
X4847638Y2443701D3*
D34*
X4947638D3*
X5047638D3*
D22*
X3247638Y1343701D3*
X3747638D3*
D29*
X4897638Y2743701D3*
D30*
Y3043701D3*
D20*
X3947638Y1893701D3*
D21*
X4047638D3*
X4147638D3*
X4247638D3*
X4347638D3*
X4447638D3*
X4547638D3*
Y2193701D3*
X4447638D3*
X4347638D3*
X4247638D3*
X4147638D3*
X4047638D3*
X3947638D3*
D20*
X1897638Y1643701D3*
D21*
X1997638D3*
X2097638D3*
X2197638D3*
X2297638D3*
X2397638D3*
X2497638D3*
X2597638D3*
X2697638D3*
X2797638D3*
Y1943701D3*
X2697638D3*
X2597638D3*
X2497638D3*
X2397638D3*
X2297638D3*
X2197638D3*
X2097638D3*
X1997638D3*
X1897638D3*
D35*
X3047638Y493701D3*
D36*
X3147638D3*
X3247638D3*
X3347638D3*
X3447638D3*
X3547638D3*
X3647638D3*
X3747638D3*
X3847638D3*
X3947638D3*
Y793701D3*
X3847638D3*
X3747638D3*
X3647638D3*
X3547638D3*
X3447638D3*
X3347638D3*
X3247638D3*
X3147638D3*
X3047638D3*
D20*
X3297638Y4093701D3*
D21*
Y3993701D3*
Y3893701D3*
Y3793701D3*
Y3693701D3*
Y3593701D3*
Y3493701D3*
Y3393701D3*
Y3293701D3*
Y3193701D3*
X3597638D3*
Y3293701D3*
Y3393701D3*
Y3493701D3*
Y3593701D3*
Y3693701D3*
Y3793701D3*
Y3893701D3*
Y3993701D3*
Y4093701D3*
D32*
X5097638Y1918701D3*
X4841732D3*
X5097638Y2095866D3*
X4841732D3*
D37*
X4847638Y3393701D3*
D38*
X4947638D3*
X5047638D3*
M02*
