%TF.GenerationSoftware,Novarm,DipTrace,4.3.0.4*%
%TF.CreationDate,2023-09-26T18:22:54+01:00*%
%FSLAX26Y26*%
%MOIN*%
%TF.FileFunction,Copper,L2,Bot*%
%TF.Part,Single*%
%TA.AperFunction,Conductor*%
%ADD13C,0.03937*%
%ADD14C,0.009843*%
%TA.AperFunction,ComponentPad*%
%ADD18R,0.070866X0.070866*%
%ADD19C,0.070866*%
%ADD20R,0.062992X0.062992*%
%ADD21C,0.062992*%
%ADD22C,0.062992*%
%ADD23C,0.15748*%
%ADD24R,0.056693X0.056693*%
%ADD25C,0.056693*%
%ADD26R,0.173228X0.070866*%
%ADD27O,0.15748X0.070866*%
%ADD28O,0.070866X0.15748*%
%ADD29C,0.055118*%
%ADD30C,0.055118*%
%ADD31C,0.19685*%
%ADD32C,0.07874*%
%ADD33R,0.059055X0.059055*%
%ADD34C,0.059055*%
%ADD35R,0.08X0.08*%
%ADD36C,0.08*%
%ADD37R,0.075X0.07874*%
%ADD38O,0.075X0.07874*%
%TA.AperFunction,ViaPad*%
%ADD39C,0.04*%
G75*
G01*
%LPD*%
X5047638Y3393701D2*
D13*
Y3343701D1*
X4697638Y2993701D1*
Y2893701D1*
X1597638Y3493701D2*
D14*
X1343897Y3747441D1*
Y3997441D1*
X1197638Y4143701D1*
X4397638Y493701D2*
X4297638D1*
X997638Y2593701D2*
X1047638Y2543701D1*
Y1943701D1*
X4197638Y493701D2*
X4146063Y545275D1*
Y1469095D1*
X4126378Y1488780D1*
X4093897Y1521261D1*
Y1642914D1*
Y2070276D1*
X4074212Y2089961D1*
X4043898D1*
X3997638Y2043701D1*
X4597638Y493701D2*
X4697638D1*
X1313386Y1293701D2*
X1093901Y1513185D1*
Y1831493D1*
X1047638Y1877756D1*
Y1943701D1*
X2745712Y1371575D2*
Y1227599D1*
X2726027Y1207914D1*
X2421736D1*
X3047638Y1493701D2*
Y1371575D1*
X4074212Y2089961D2*
X4093897Y2109646D1*
Y2743859D1*
X4044055Y2793701D1*
X4197638Y1493701D2*
Y1539961D1*
X4177953Y1559646D1*
X4146063D1*
X4126378Y1539961D1*
Y1488780D1*
X4297638Y493701D2*
X4243898D1*
X4197638D1*
X1047638Y1943701D2*
X1147638D1*
X4797638Y493701D2*
X4897638D1*
X4697638D2*
X4797638D1*
X3598248Y848469D2*
X3613582Y863803D1*
Y887839D1*
X3697027Y971284D1*
Y1955040D1*
Y2024016D1*
X3677342Y2043701D1*
X3597638D1*
X3746870Y1940122D2*
X3731952Y1955040D1*
X3697027D1*
X2563716Y813705D2*
X2333390D1*
X2213386Y693701D1*
X3947638Y2843701D2*
X4174212D1*
X4193893Y2824020D1*
Y1955040D1*
X2078665Y2969236D2*
X2043897Y3004004D1*
Y3365256D1*
X1997638Y3411515D1*
Y3793701D1*
X1397638Y2243701D2*
Y2739492D1*
X1297638Y2243701D2*
X1343901Y2289964D1*
Y2994571D1*
X1478661Y3129331D1*
X1813386Y1293701D2*
Y997441D1*
X3017720Y2606736D2*
Y3320280D1*
X3037405Y3339965D1*
X3474216D1*
X3493901Y3359650D1*
Y3624016D1*
X3513586Y3643701D1*
X3947638D1*
X1413386Y693701D2*
Y798342D1*
X1456500Y841457D1*
Y1387263D1*
X1293901Y1549862D1*
Y2074040D1*
X1343901Y2124040D1*
X1217326D1*
X1197638Y2143728D1*
Y2243701D1*
X3052484Y2437524D2*
Y3220280D1*
X3072169Y3239965D1*
X3624216D1*
X3643901Y3259650D1*
Y3570276D1*
X3663586Y3589961D1*
X4501378D1*
X4547638Y3543701D1*
X1513386Y1293701D2*
Y1454783D1*
X1393901Y1574268D1*
Y2143725D1*
X1443901Y2193725D1*
Y2437524D1*
X1393901Y2143725D2*
X1374216Y2163410D1*
X1263586D1*
X1243901Y2183095D1*
Y2289965D1*
X1224216Y2309650D1*
X1163587D1*
X1097638Y2243701D1*
X997638D2*
Y1250591D1*
X1017323Y1230906D1*
X1350591D1*
X1413386Y1293701D1*
X1313386Y693701D2*
X943901Y1063185D1*
Y2789964D1*
X997638Y2843701D1*
X1063583Y2777756D1*
X1224216D1*
X1243901Y2797441D1*
Y3869764D1*
X1032401Y4081264D1*
Y4178154D1*
X1052086Y4197839D1*
X4182260D1*
X4201946Y4178153D1*
Y3863386D1*
X4221631Y3843701D1*
X4547638D1*
X3597638Y3993701D2*
X3520575D1*
X3374311Y4139965D1*
X2883271D1*
X2863586Y4120280D1*
Y2637611D1*
X2878665Y2622532D1*
Y2472288D1*
X1847480D2*
Y1395866D1*
X1867165Y1376181D1*
X1936815D1*
X1956500Y1356496D1*
Y1270276D1*
X1976185Y1250591D1*
X2136815D1*
X2156500Y1270276D1*
Y1366154D1*
X2097638Y1425016D1*
Y1643701D1*
X3597638Y3893701D2*
X3683271Y3979334D1*
Y3989961D1*
X4081975D1*
X4101663Y3970273D1*
Y3763387D1*
X4121349Y3743701D1*
X4547638D1*
X3683271Y3989961D2*
Y4139965D1*
X3663586Y4159650D1*
X2863586D1*
X2843901Y4139965D1*
Y2522130D1*
X2443901Y1779173D2*
Y2522130D1*
X2197638Y1643701D2*
Y1779173D1*
X3093901Y3374729D2*
X3259137Y3539965D1*
X3363586D1*
X3383271Y3559650D1*
Y3774016D1*
X3402956Y3793701D1*
X3597638D1*
X3093901Y3205201D2*
Y1709646D1*
X3074216Y1689961D1*
X2763586D1*
X2743901Y1670276D1*
Y1617122D1*
X2724216Y1597437D1*
X2343902D1*
X2297638Y1643701D1*
X3597638Y3793701D2*
X3680488D1*
X3830488Y3943701D1*
X3947638D1*
X3254263Y3439965D2*
X3423988D1*
X3443676Y3459653D1*
Y3674015D1*
X3463362Y3693701D1*
X3597638D1*
X2878665Y1919965D2*
X2933114Y1974414D1*
Y3439965D1*
X2493744Y1744410D2*
X2417327D1*
X2397638Y1724720D1*
Y1643701D1*
X3597638Y2143701D2*
X3781697D1*
X3801382Y2163386D1*
Y2924016D1*
X3821067Y2943701D1*
X3947638D1*
X3493901Y2055201D2*
Y1255040D1*
X2243897Y3004000D2*
Y3227756D1*
X2043897Y3427756D1*
Y3739960D1*
X2097638Y3793701D1*
X4076535Y883232D2*
Y1427753D1*
X4007012Y1497276D1*
Y1704251D1*
X3987326Y1723937D1*
X3855830D1*
X3836145Y1743622D1*
Y2193862D1*
X2563716Y883232D2*
X2202917D1*
X2013386Y693701D1*
X3836145Y2193862D2*
Y2870276D1*
X3855830Y2889961D1*
X3993897D1*
X4013582Y2909646D1*
Y2977756D1*
X3947638Y3043701D1*
X3597638Y2343701D2*
X3668905D1*
X3702956Y2309650D1*
X3762012D1*
X3781697Y2329335D1*
Y3124016D1*
X3801382Y3143701D1*
X3947638D1*
X3702956Y2309650D2*
X3683271Y2289965D1*
Y2178469D1*
X3793901Y937681D2*
Y2025209D1*
X2832401Y937681D2*
Y670276D1*
X2812716Y650591D1*
X1956496D1*
X1913386Y693701D1*
X3348512Y2589965D2*
X3474216D1*
X3493901Y2570280D1*
Y2547437D1*
X3597638Y2443701D1*
X1756500Y2024725D2*
Y750586D1*
X1813386Y693701D1*
X3597638Y2443701D2*
X3742326Y2588389D1*
Y3224015D1*
X3762012Y3243701D1*
X3947638D1*
X2997799Y1406819D2*
Y1520276D1*
X3017484Y1539961D1*
X3113586D1*
X3133271Y1559646D1*
Y2670280D1*
X3152956Y2689965D1*
X3493901D1*
X3513586Y2670280D1*
Y2627752D1*
X3597638Y2543701D1*
X3702956Y2649019D1*
Y3324016D1*
X3722641Y3343701D1*
X3947638D1*
X978661Y3994095D2*
Y4197839D1*
X998346Y4217524D1*
X4225860D1*
X4245545Y4197839D1*
Y3909648D1*
X4265232Y3889961D1*
X4593897D1*
X4613582Y3870276D1*
Y3009646D1*
X4593897Y2989961D1*
X4411989D1*
X4392304Y3009646D1*
Y3424015D1*
X4372618Y3443701D1*
X3947638D1*
X851374Y3994095D2*
Y2170976D1*
X910826Y2111524D1*
Y656891D1*
X930512Y637205D1*
X1436815D1*
X1456500Y656890D1*
Y736811D1*
X1476185Y756496D1*
X1550591D1*
X1613386Y693701D1*
X3947638Y3443701D2*
X3702956D1*
X3683271Y3424016D1*
Y2729334D1*
X3597638Y2643701D1*
X3947638Y3543701D2*
X3683271D1*
X3663586Y3524016D1*
Y2809649D1*
X3597638Y2743701D1*
X3551374Y2789965D1*
X3133271D1*
X3113586Y2770280D1*
Y1579331D1*
X3093901Y1559646D1*
X2886854D1*
X2867169Y1539961D1*
Y630906D1*
X2847484Y611221D1*
X1595866D1*
X1513386Y693701D1*
X3358980Y2824729D2*
Y3029174D1*
X3513586Y3183780D1*
X1597638Y2243701D2*
Y1448705D1*
X1613386Y1432957D1*
Y1293701D1*
X1497638Y2243701D2*
Y1591800D1*
X1556500Y1532938D1*
Y1270276D1*
X1576185Y1250591D1*
X1670276D1*
X1713386Y1293701D1*
X1497638Y2774256D2*
Y2243701D1*
X4043740Y1724729D2*
Y1804098D1*
X3993897Y1853941D1*
Y1939961D1*
X3951378Y1982480D1*
Y2088387D1*
X3993897Y2130906D1*
Y2697441D1*
X3947638Y2743701D1*
X3247638Y1193701D2*
Y1259645D1*
X3193901Y1313382D1*
Y1724729D1*
X2397638Y2243701D2*
Y2769701D1*
X2243901D2*
Y2926418D1*
X2197638Y2972681D1*
Y3193701D1*
X3193901Y1724729D2*
Y2177914D1*
X3181850Y2189965D1*
X2297638Y2243701D2*
Y2619067D1*
X2143901Y2772804D1*
Y3147437D1*
X2097638Y3193701D1*
X3297638Y2143701D2*
X3374216D1*
X3393901Y2124016D1*
Y1450327D1*
X3870909Y2324729D2*
Y2566972D1*
X3947638Y2643701D1*
X4597638Y1937075D2*
Y2239961D1*
X4512870Y2324729D1*
X4597638Y1493701D2*
Y1579331D1*
X3393901Y1450327D2*
Y1239964D1*
X3347638Y1193701D1*
X2197638Y2243701D2*
Y2426964D1*
X2043901Y2580701D1*
Y2892996D1*
X1997638Y2939259D1*
Y3193701D1*
X2598480Y1024882D2*
Y778795D1*
X2513386Y693701D1*
X3647638Y1193701D2*
Y1400882D1*
X3593901Y1454619D1*
Y1562630D1*
X3528665Y1627866D1*
Y2142677D1*
X3439452Y2231890D1*
Y2212205D1*
X3417130D1*
X3385634Y2243701D1*
X3297638D1*
X3439452Y2231890D2*
Y2489965D1*
X3647638Y1129173D2*
Y1193701D1*
X1897638Y3193701D2*
X1843901Y3139964D1*
Y2808472D1*
X1917326Y2735047D1*
Y2309651D1*
X1937012Y2289965D1*
X2051374D1*
X2097638Y2243701D1*
X4547638Y2443701D2*
X4593898Y2489961D1*
X4977952D1*
X4997638Y2470275D1*
Y1493701D1*
X2097638Y2243701D2*
Y2059488D1*
X2117323Y2039803D1*
X2224216D1*
X2243901Y2020118D1*
Y1485079D1*
X2263586Y1465394D1*
X2593700D1*
X2613386Y1445708D1*
Y1293701D1*
X4293897Y2543701D2*
Y1579331D1*
X1997638Y2243701D2*
Y2009646D1*
X2017323Y1989961D1*
X2124216D1*
X2143901Y1970276D1*
Y1465394D1*
X2163586Y1445709D1*
X2493700D1*
X2513386Y1426023D1*
Y1293701D1*
X2843901Y1594410D2*
Y1348307D1*
X2832405Y1336811D1*
X3747638Y1493701D2*
Y1579331D1*
X4293897D2*
X4343901Y1529327D1*
Y1247437D1*
X4397638Y1193701D1*
X1952090Y2348311D2*
X1943901Y2356500D1*
Y3239961D1*
X1924216Y3259646D1*
X1863583D1*
X1797638Y3193701D1*
X1943901Y1410945D2*
Y2197437D1*
X1897638Y2243701D1*
X3474216Y2246969D2*
Y2524016D1*
X3454531Y2543701D1*
X3297638D1*
X4343740Y1633780D2*
X4624216D1*
X4643901Y1614095D1*
Y1239964D1*
X4597638Y1193701D1*
X2413386Y1293701D2*
Y1391260D1*
X2393701Y1410945D1*
X2316618D1*
X3647638Y1493701D2*
X3647185Y1989965D1*
X1897638Y2243701D2*
Y2517905D1*
X1743901Y2671642D1*
Y3147437D1*
X1697638Y3193701D1*
X2278665Y1524882D2*
X2710949D1*
Y1475040D1*
X3297638Y2643701D2*
X3251378Y2597441D1*
Y2109650D1*
X3271063Y2089965D1*
X3327952D1*
X3347638Y2070279D1*
Y1493701D1*
X1693901Y1499370D2*
Y2074567D1*
X1797638Y2243701D2*
Y2492457D1*
X1643901D2*
Y2927839D1*
X1597638Y2974102D1*
Y3193701D1*
X2710949Y1475040D2*
Y1262363D1*
X2691263Y1242677D1*
X2364410D1*
X2313386Y1293701D1*
X1497638Y3193701D2*
X1543901Y3147437D1*
Y2512469D1*
X1697638Y2358732D1*
Y2243701D1*
X3216614Y2655201D2*
Y1853898D1*
X3247638Y1822874D1*
Y1493701D1*
X1697638Y2243701D2*
Y2156145D1*
X1791263Y2062520D1*
Y1356497D1*
X1810949Y1336811D1*
X1836815D1*
X1856500Y1317126D1*
Y1230906D1*
X1876185Y1211221D1*
X2213386D1*
X2235948D1*
X2348153Y1099016D1*
X2213386Y1293701D2*
Y1211221D1*
X3293901Y1119020D2*
X3477476D1*
X3502086Y1094410D1*
X3247638Y1493701D2*
X3293901Y1447437D1*
Y1119020D1*
X3718035Y3389961D2*
X3993897D1*
X4013582Y3370276D1*
Y3209646D1*
X3993897Y3189961D1*
X3781697D1*
X3762012Y3170276D1*
Y2409651D1*
X3742326Y2389965D1*
X3568035D1*
X3548350Y2370280D1*
Y1992988D1*
X3597638Y1943701D1*
Y3193701D2*
Y2933339D1*
X3554263Y2889965D1*
X2967878Y2668559D2*
Y3720280D1*
X2987563Y3739965D1*
X3324216D1*
X3343901Y3759650D1*
Y3947437D1*
X3297638Y3993701D1*
X943897Y4197839D2*
Y3147441D1*
X963582Y3127756D1*
X1177953D1*
X1197638Y3108071D1*
Y2843701D1*
X2898350Y2703323D2*
Y3774015D1*
X2918036Y3793701D1*
X3297638D1*
X1297638Y2843701D2*
Y2703323D1*
X4997638Y3043701D2*
D13*
Y2824433D1*
X5054724Y2767346D1*
Y2450787D1*
X5047638Y2443701D1*
X2097638Y3493701D2*
D14*
X2424212D1*
X2443897Y3474016D1*
Y3107899D1*
X2597638Y2954158D1*
Y2843701D1*
X5097638Y1193701D2*
Y656889D1*
X5077953Y637205D1*
X4463582D1*
X4443897Y617520D1*
Y458150D1*
X4424212Y438465D1*
X4130984D1*
X4111299Y458150D1*
Y993701D1*
X4247638Y2643701D2*
X4328661Y2562677D1*
Y2259646D1*
X4348346Y2239961D1*
X4477952D1*
X4497638Y2220275D1*
Y2043701D1*
X2613386Y693701D2*
X2797638Y877953D1*
Y993701D1*
X4897638Y1343701D2*
X4843901Y1397437D1*
Y1791138D1*
X4787598Y1847441D1*
X4767913Y1827756D1*
X4613583D1*
X4547638Y1893701D1*
X5047638Y2443701D2*
X5097638Y2393701D1*
Y2095866D1*
X4841732D2*
X4787598Y2041732D1*
Y1847441D1*
X4947638Y3393701D2*
Y3561090D1*
X5092326Y3705779D1*
Y3952362D1*
X5072641Y3972047D1*
X4971260D1*
X1143901Y2152874D2*
Y2104354D1*
X1193901Y2054354D1*
Y1760847D1*
X2597638Y1793701D2*
Y1736224D1*
X2643901Y1689961D1*
X3297638Y3593701D2*
X3363586Y3659649D1*
Y4027752D1*
X3297638Y4093701D1*
X3947638Y1193701D2*
X3993901Y1147437D1*
Y986677D1*
X3947638Y940414D1*
X3297638Y2843701D2*
Y3193701D1*
X3007248Y2487366D2*
Y2289961D1*
X2797638Y2243701D2*
Y1943701D1*
X2597638Y2843701D2*
Y2443701D1*
X2797638Y2243701D1*
Y993701D2*
Y1643701D1*
X4297638Y1493701D2*
Y1376645D1*
X4197638Y1276645D1*
Y1193701D1*
X2143901Y2129012D2*
X2224216D1*
X2243901Y2148697D1*
Y2563067D1*
X2097638Y2709330D1*
Y2843701D1*
X2612874Y1855040D2*
X2697638Y1770276D1*
Y1643701D1*
X2343901Y3635358D2*
X2297638Y3681621D1*
Y3793701D1*
X2343901Y3458937D2*
Y1997437D1*
X2397638Y1943701D1*
X2478661Y3600599D2*
X2443897Y3635363D1*
Y3839961D1*
X2424212Y3859646D1*
X2117322D1*
X2097638Y3879330D1*
Y4143701D1*
X2697638Y3193701D2*
X2643897Y3247441D1*
Y3866142D1*
X2624212Y3885827D1*
X2217322D1*
X2197638Y3905511D1*
Y4143701D1*
X2543897Y3920591D2*
X2317322D1*
X2297638Y3940275D1*
Y4143701D1*
X2543897Y3851063D2*
Y3247441D1*
X2597638Y3193701D1*
X2497638D2*
X2563583Y3127756D1*
X2724212D1*
X2743897Y3147441D1*
Y4048367D1*
X2724210Y4068054D1*
X2473285D1*
X2397638Y4143701D1*
X1397638D2*
Y3855043D1*
X1497638Y4143701D2*
X1497634Y3889807D1*
X997638Y3793701D2*
Y3889807D1*
X2843901Y1870122D2*
Y2353012D1*
X2697638Y2499275D1*
Y2843701D1*
X2843901Y1800595D2*
X2901583Y1742913D1*
X3047638D1*
X2497638Y2243701D2*
Y2005040D1*
X2597638Y2243701D2*
X2743901Y2097437D1*
Y1855043D1*
X2763586Y1835358D1*
X2940082D1*
X3047638Y1942913D1*
X2967878Y2571973D2*
Y2122673D1*
X3047638Y2042913D1*
X1597638Y2843701D2*
Y2571973D1*
X3147638Y993701D2*
X3047638Y893701D1*
Y793701D1*
X3247638Y993701D2*
Y893701D1*
X3147638Y793701D1*
X3347638Y993701D2*
X3293897Y939960D1*
Y894728D1*
X3247638Y848468D1*
Y793701D1*
X3447638Y993701D2*
X3347638Y893701D1*
Y793701D1*
X3547638Y993701D2*
X3447638Y893701D1*
Y793701D1*
X3647638Y993701D2*
X3593897Y939960D1*
Y906362D1*
X3547638Y860102D1*
Y793701D1*
X3747638Y993701D2*
Y893701D1*
X3647638Y793701D1*
X3847638Y993701D2*
Y893701D1*
X3747638Y793701D1*
X4297638Y993701D2*
X4197638Y893701D1*
Y793701D1*
X4297638Y1193701D2*
Y993701D1*
X4497638Y1193701D2*
X4397638Y1093701D1*
Y993701D1*
Y893701D1*
X4297638Y793701D1*
X4497638Y993701D2*
X4443897Y939960D1*
Y747441D1*
X4463582Y727756D1*
X4624212D1*
X4643897Y747441D1*
Y879335D1*
X4663582Y899020D1*
X4724212D1*
X4743897Y918705D1*
Y1036516D1*
X4697638Y1082775D1*
Y1193701D1*
X4443897Y747441D2*
X4424212Y727756D1*
X4397638D1*
Y793701D1*
X4597638Y993701D2*
X4497638Y893701D1*
Y793701D1*
X4597638D2*
Y893701D1*
X4697638Y993701D1*
X4543901Y1147437D1*
Y1447437D1*
X4497638Y1493701D1*
X4697638Y793701D2*
Y859649D1*
X4717323Y879335D1*
X4777953D1*
X4797638Y899019D1*
Y993701D1*
Y1100881D1*
X4743901Y1154618D1*
Y1216827D1*
X4697638Y1263090D1*
Y1493701D1*
X4897638D2*
X4943901Y1447437D1*
Y1039964D1*
X4897638Y993701D1*
Y859650D1*
X4877952Y839965D1*
X4843902D1*
X4797638Y793701D1*
X4897638D2*
X4997638Y893701D1*
Y993701D1*
X5043901Y1039964D1*
Y1439964D1*
X5097638Y1493701D1*
X4971260Y3743701D2*
X4867327D1*
X4847638Y3724011D1*
Y3393701D1*
X3147638Y1193701D2*
X2992173Y1038236D1*
Y549165D1*
X3047638Y493701D1*
X3247638D2*
X3192402Y438465D1*
X2984673D1*
X2964988Y458150D1*
Y1220276D1*
X2984673Y1239961D1*
X3174216D1*
X3193901Y1220276D1*
Y1079331D1*
X3213586Y1059646D1*
X3527953D1*
X3547638Y1079330D1*
Y1193701D1*
X3847638D2*
X3893901Y1147437D1*
Y887839D1*
X3913586Y868154D1*
X3982716D1*
X4002401Y848469D1*
Y738937D1*
X3982716Y719252D1*
X3573189D1*
X3347638Y493701D1*
X3847638Y1493701D2*
Y1397110D1*
X4022086Y1222662D1*
Y699567D1*
X4002401Y679882D1*
X3633819D1*
X3447638Y493701D1*
X3593901Y1059646D2*
Y1251591D1*
X3547638Y1297854D1*
Y1493701D1*
X4041771Y1392988D2*
Y568154D1*
X4022086Y548469D1*
X3702406D1*
X3647638Y493701D1*
X3447638Y1493701D2*
Y1424725D1*
X2886854Y453543D2*
Y1259646D1*
X2906539Y1279331D1*
X3127953D1*
X3147638Y1299015D1*
Y1493701D1*
X2930224Y708071D2*
Y1193701D1*
X4209134Y708071D2*
X4724212D1*
X4743897Y727756D1*
Y839965D1*
X4763582Y859650D1*
X4824216D1*
X4843901Y879335D1*
Y1240142D1*
X4743901Y1340142D1*
Y1597437D1*
X4447638Y1893701D1*
X2678665Y2074567D2*
X2597638Y1993539D1*
Y1943701D1*
X3947638Y1893701D2*
Y1794256D1*
X4847638Y2443701D2*
X4895870Y2395468D1*
Y1972839D1*
X4841732Y1918701D1*
X3947638Y1493701D2*
Y1689173D1*
X2197638Y1943701D2*
Y2005040D1*
X4547638Y2943701D2*
X4432673Y2828736D1*
Y2689961D1*
X2097638Y1943701D2*
Y1874725D1*
X4347638Y1893701D2*
X4425776Y1971839D1*
X4527949D1*
X4547638Y1991527D1*
Y2193701D1*
X2797638Y2843701D2*
X2797641Y3038240D1*
X2297638Y3193701D2*
Y3052154D1*
X4547638Y2193701D2*
Y2239960D1*
X4527952Y2259646D1*
X4368031D1*
X4348346Y2279331D1*
Y3070276D1*
X4328661Y3089961D1*
X3913965D1*
X3862244Y3038240D1*
X2797641D2*
X2631240D1*
X2617326Y3052154D1*
X2113386Y1293701D2*
X2043901Y1363185D1*
Y1897437D1*
X1997638Y1943701D1*
X1913386Y1293701D2*
Y1356496D1*
X1830634D1*
X1810949Y1376181D1*
Y2124547D1*
X1743901Y2191595D1*
Y2484403D1*
X1697638Y2530666D1*
Y2843701D1*
X2397638Y3793701D2*
X2343897D1*
Y3748154D1*
X1697638Y2843701D2*
Y3008157D1*
X1643901Y3061894D1*
Y3820276D1*
X1663586Y3839961D1*
X2351378D1*
X2397638Y3793701D1*
Y3193701D2*
Y2934473D1*
X2524216D1*
X2543901Y2914788D1*
Y2739492D1*
Y1697437D1*
X2597638Y1643701D1*
D39*
X4044055Y2793701D3*
X2421736Y1207914D3*
X2745712Y1371575D3*
X3047638D3*
X4093897Y1642914D3*
X3598248Y848469D3*
X2563716Y813705D3*
X4193893Y1955040D3*
X3746870Y1940122D3*
X2078665Y2969236D3*
X1397638Y2739492D3*
X1478661Y3129331D3*
X1813386Y997441D3*
X3017720Y2606736D3*
X1343901Y2124040D3*
X3052484Y2437524D3*
X1443901D3*
X2878665Y2472288D3*
X1847480D3*
X2843901Y2522130D3*
X2443901D3*
Y1779173D3*
X2197638D3*
X3093901Y3374729D3*
Y3205201D3*
X3254263Y3439965D3*
X2933114D3*
X2878665Y1919965D3*
X2493744Y1744410D3*
X3493901Y1255040D3*
Y2055201D3*
X2243897Y3004000D3*
X3836145Y2193862D3*
X4076535Y883232D3*
X2563716D3*
X3683271Y2178469D3*
X3793901Y2025209D3*
Y937681D3*
X2832401D3*
X1756500Y2024725D3*
X3348512Y2589965D3*
X2997799Y1406819D3*
X851374Y3994095D3*
X978661D3*
X3513586Y3183780D3*
X3358980Y2824729D3*
X1497638Y2774256D3*
X3181850Y2189965D3*
X2397638Y2769701D3*
X2243901D3*
X3193901Y1724729D3*
X4043740D3*
X3870909Y2324729D3*
X4512870D3*
X4597638Y1937075D3*
Y1579331D3*
X3393901Y1450327D3*
X2598480Y1024882D3*
X3439452Y2489965D3*
X3647638Y1129173D3*
X4293897Y1579331D3*
X2832405Y1336811D3*
X2843901Y1594410D3*
X1952090Y2348311D3*
X4293897Y2543701D3*
X3747638Y1579331D3*
X3474216Y2246969D3*
X4343740Y1633780D3*
X1943901Y1410945D3*
X2316618D3*
X3647185Y1989965D3*
X2710949Y1475040D3*
X1693901Y2074567D3*
Y1499370D3*
X2278665Y1524882D3*
X1797638Y2492457D3*
X1643901D3*
X2348153Y1099016D3*
X3502086Y1094410D3*
X3216614Y2655201D3*
X3293901Y1119020D3*
X3718035Y3389961D3*
X3554263Y2889965D3*
X2967878Y2668559D3*
X943897Y4197839D3*
X2898350Y2703323D3*
X1297638D3*
X1193901Y1760847D3*
X1143901Y2152874D3*
X3947638Y940414D3*
X3007248Y2289961D3*
Y2487366D3*
X2643901Y1689961D3*
X4111299Y993701D3*
X2797638D3*
X2143901Y2129012D3*
X2612874Y1855040D3*
X2343901Y3635358D3*
Y3458937D3*
X2478661Y3600599D3*
X2543897Y3920591D3*
Y3851063D3*
X1397638Y3855043D3*
X1497634Y3889807D3*
X997638D3*
X2843901Y1870122D3*
Y1800595D3*
X2497638Y2005040D3*
X2967878Y2571973D3*
X1597638D3*
X3593901Y1059646D3*
X4041771Y1392988D3*
X3447638Y1424725D3*
X2886854Y453543D3*
X2930224Y1193701D3*
Y708071D3*
X4209134D3*
X2678665Y2074567D3*
X3947638Y1794256D3*
Y1689173D3*
X2197638Y2005040D3*
X4432673Y2689961D3*
X2097638Y1874725D3*
X2297638Y3052154D3*
X2617326D3*
X3862244Y3038240D3*
X2797641D3*
X2343897Y3748154D3*
X2543901Y2739492D3*
D18*
X4797638Y2893701D3*
D19*
X4697638D3*
D20*
X3297638Y2843701D3*
D21*
Y2743701D3*
Y2643701D3*
Y2543701D3*
Y2443701D3*
Y2343701D3*
Y2243701D3*
Y2143701D3*
Y2043701D3*
Y1943701D3*
X3597638D3*
Y2043701D3*
Y2143701D3*
Y2243701D3*
Y2343701D3*
Y2443701D3*
Y2543701D3*
Y2643701D3*
Y2743701D3*
Y2843701D3*
D22*
X1597638Y3493701D3*
X2097638D3*
D20*
X4197638Y993701D3*
D21*
X4297638D3*
X4397638D3*
X4497638D3*
X4597638D3*
X4697638D3*
X4797638D3*
X4897638D3*
X4997638D3*
D23*
X747638Y543701D3*
D22*
X4397638Y1343701D3*
X4897638D3*
D20*
X897638Y2243701D3*
D21*
X997638D3*
X1097638D3*
X1197638D3*
X1297638D3*
X1397638D3*
X1497638D3*
X1597638D3*
X1697638D3*
X1797638D3*
X1897638D3*
X1997638D3*
X2097638D3*
X2197638D3*
X2297638D3*
X2397638D3*
X2497638D3*
X2597638D3*
X2697638D3*
X2797638D3*
Y2843701D3*
X2697638D3*
X2597638D3*
X2497638D3*
X2397638D3*
X2297638D3*
X2197638D3*
X2097638D3*
X1997638D3*
X1897638D3*
X1797638D3*
X1697638D3*
X1597638D3*
X1497638D3*
X1397638D3*
X1297638D3*
X1197638D3*
X1097638D3*
X997638D3*
X897638D3*
D22*
X3447638Y2643701D3*
Y2143701D3*
X2097638Y1793701D3*
X2597638D3*
D20*
X4197638Y1193701D3*
D21*
X4297638D3*
X4397638D3*
X4497638D3*
X4597638D3*
X4697638D3*
X4797638D3*
X4897638D3*
X4997638D3*
X5097638D3*
Y1493701D3*
X4997638D3*
X4897638D3*
X4797638D3*
X4697638D3*
X4597638D3*
X4497638D3*
X4397638D3*
X4297638D3*
X4197638D3*
D22*
X997638Y2593701D3*
Y2495276D3*
D24*
X1313386Y693701D3*
D25*
X1413386D3*
X1513386D3*
X1613386D3*
X1713386D3*
X1813386D3*
X1913386D3*
X2013386D3*
X2113386D3*
X2213386D3*
X2313386D3*
X2413386D3*
X2513386D3*
X2613386D3*
Y1293701D3*
X2513386D3*
X2413386D3*
X2313386D3*
X2213386D3*
X2113386D3*
X2013386D3*
X1913386D3*
X1813386D3*
X1713386D3*
X1613386D3*
X1513386D3*
X1413386D3*
X1313386D3*
D22*
X4247638Y3793701D3*
Y2643701D3*
D18*
X5097638Y2893701D3*
D19*
X5197638D3*
D22*
X3447638Y3893701D3*
Y3393701D3*
D20*
X3047638Y993701D3*
D21*
X3147638D3*
X3247638D3*
X3347638D3*
X3447638D3*
X3547638D3*
X3647638D3*
X3747638D3*
X3847638D3*
D23*
X5147638Y543701D3*
D26*
X4971260Y3743701D3*
D27*
Y3972047D3*
D28*
X4782283Y3861811D3*
D20*
X3047638Y1193701D3*
D21*
X3147638D3*
X3247638D3*
X3347638D3*
X3447638D3*
X3547638D3*
X3647638D3*
X3747638D3*
X3847638D3*
X3947638D3*
Y1493701D3*
X3847638D3*
X3747638D3*
X3647638D3*
X3547638D3*
X3447638D3*
X3347638D3*
X3247638D3*
X3147638D3*
X3047638D3*
D20*
Y1642913D3*
D21*
Y1742913D3*
Y1842913D3*
Y1942913D3*
Y2042913D3*
D29*
X4997638Y2743701D3*
D30*
Y3043701D3*
D22*
X1347638Y1943701D3*
Y1643701D3*
D20*
X1047638D3*
D21*
X1147638D3*
X1247638D3*
D22*
X1447638D3*
X1547638D3*
X1647638D3*
Y1943701D3*
X1547638D3*
X1447638D3*
X1247638D3*
X1147638D3*
X1047638D3*
D20*
X3947638Y3943701D3*
D21*
Y3843701D3*
Y3743701D3*
Y3643701D3*
Y3543701D3*
Y3443701D3*
Y3343701D3*
Y3243701D3*
Y3143701D3*
Y3043701D3*
Y2943701D3*
Y2843701D3*
Y2743701D3*
Y2643701D3*
Y2543701D3*
Y2443701D3*
X4547638D3*
Y2543701D3*
Y2643701D3*
Y2743701D3*
Y2843701D3*
Y2943701D3*
Y3043701D3*
Y3143701D3*
Y3243701D3*
Y3343701D3*
Y3443701D3*
Y3543701D3*
Y3643701D3*
Y3743701D3*
Y3843701D3*
Y3943701D3*
D20*
X4197638Y493701D3*
D21*
X4297638D3*
X4397638D3*
X4497638D3*
X4597638D3*
X4697638D3*
X4797638D3*
X4897638D3*
Y793701D3*
X4797638D3*
X4697638D3*
X4597638D3*
X4497638D3*
X4397638D3*
X4297638D3*
X4197638D3*
D22*
X3997638Y2043701D3*
X4497638D3*
X813386Y1043701D3*
Y945276D3*
D31*
X797638Y4143701D3*
Y1979921D3*
D32*
X1297638Y4143701D3*
X2497638D3*
X2597638D3*
D31*
X4457480D3*
D32*
X1097638D3*
X1197638D3*
X1397638D3*
X1497638D3*
X1597638D3*
X1697638D3*
X1797638D3*
X1897638D3*
X1997638D3*
X2097638D3*
X2197638D3*
X2297638D3*
X2397638D3*
D20*
X2797638Y3793701D3*
D21*
X2697638D3*
X2597638D3*
X2497638D3*
X2397638D3*
X2297638D3*
X2197638D3*
X2097638D3*
X1997638D3*
X1897638D3*
X1797638D3*
X1697638D3*
X1597638D3*
X1497638D3*
X1397638D3*
X1297638D3*
X1197638D3*
X1097638D3*
X997638D3*
X897638D3*
Y3193701D3*
X997638D3*
X1097638D3*
X1197638D3*
X1297638D3*
X1397638D3*
X1497638D3*
X1597638D3*
X1697638D3*
X1797638D3*
X1897638D3*
X1997638D3*
X2097638D3*
X2197638D3*
X2297638D3*
X2397638D3*
X2497638D3*
X2597638D3*
X2697638D3*
X2797638D3*
D33*
X4847638Y2443701D3*
D34*
X4947638D3*
X5047638D3*
D22*
X3247638Y1343701D3*
X3747638D3*
D29*
X4897638Y2743701D3*
D30*
Y3043701D3*
D20*
X3947638Y1893701D3*
D21*
X4047638D3*
X4147638D3*
X4247638D3*
X4347638D3*
X4447638D3*
X4547638D3*
Y2193701D3*
X4447638D3*
X4347638D3*
X4247638D3*
X4147638D3*
X4047638D3*
X3947638D3*
D20*
X1897638Y1643701D3*
D21*
X1997638D3*
X2097638D3*
X2197638D3*
X2297638D3*
X2397638D3*
X2497638D3*
X2597638D3*
X2697638D3*
X2797638D3*
Y1943701D3*
X2697638D3*
X2597638D3*
X2497638D3*
X2397638D3*
X2297638D3*
X2197638D3*
X2097638D3*
X1997638D3*
X1897638D3*
D35*
X3047638Y493701D3*
D36*
X3147638D3*
X3247638D3*
X3347638D3*
X3447638D3*
X3547638D3*
X3647638D3*
X3747638D3*
X3847638D3*
X3947638D3*
Y793701D3*
X3847638D3*
X3747638D3*
X3647638D3*
X3547638D3*
X3447638D3*
X3347638D3*
X3247638D3*
X3147638D3*
X3047638D3*
D20*
X3297638Y4093701D3*
D21*
Y3993701D3*
Y3893701D3*
Y3793701D3*
Y3693701D3*
Y3593701D3*
Y3493701D3*
Y3393701D3*
Y3293701D3*
Y3193701D3*
X3597638D3*
Y3293701D3*
Y3393701D3*
Y3493701D3*
Y3593701D3*
Y3693701D3*
Y3793701D3*
Y3893701D3*
Y3993701D3*
Y4093701D3*
D32*
X5097638Y1918701D3*
X4841732D3*
X5097638Y2095866D3*
X4841732D3*
D37*
X4847638Y3393701D3*
D38*
X4947638D3*
X5047638D3*
M02*
