%TF.GenerationSoftware,Novarm,DipTrace,4.3.0.4*%
%TF.CreationDate,2023-09-26T18:22:55+01:00*%
%FSLAX26Y26*%
%MOIN*%
%TF.FileFunction,Soldermask,Bot*%
%TF.Part,Single*%
%ADD20R,0.062992X0.062992*%
%ADD22C,0.062992*%
%ADD34C,0.059055*%
%ADD50O,0.078937X0.082677*%
%ADD52R,0.078937X0.082677*%
%ADD54C,0.083937*%
%ADD56R,0.083937X0.083937*%
%ADD59C,0.082677*%
%ADD60C,0.074803*%
%ADD61C,0.200787*%
%ADD63C,0.059055*%
%ADD66O,0.074803X0.161417*%
%ADD68O,0.161417X0.074803*%
%ADD70R,0.177165X0.074803*%
%ADD72C,0.06063*%
%ADD74R,0.06063X0.06063*%
%ADD76C,0.161417*%
%ADD78C,0.066929*%
%ADD79C,0.066929*%
%ADD80R,0.066929X0.066929*%
%ADD81R,0.074803X0.074803*%
G75*
G01*
%LPD*%
D81*
X4797638Y2893701D3*
D60*
X4697638D3*
D80*
X3297638Y2843701D3*
D79*
Y2743701D3*
Y2643701D3*
Y2543701D3*
Y2443701D3*
Y2343701D3*
Y2243701D3*
Y2143701D3*
Y2043701D3*
Y1943701D3*
X3597638D3*
Y2043701D3*
Y2143701D3*
Y2243701D3*
Y2343701D3*
Y2443701D3*
Y2543701D3*
Y2643701D3*
Y2743701D3*
Y2843701D3*
D78*
X1597638Y3493701D3*
X2097638D3*
D80*
X4197638Y993701D3*
D79*
X4297638D3*
X4397638D3*
X4497638D3*
X4597638D3*
X4697638D3*
X4797638D3*
X4897638D3*
X4997638D3*
D76*
X747638Y543701D3*
D78*
X4397638Y1343701D3*
X4897638D3*
D80*
X897638Y2243701D3*
D79*
X997638D3*
X1097638D3*
X1197638D3*
X1297638D3*
X1397638D3*
X1497638D3*
X1597638D3*
X1697638D3*
X1797638D3*
X1897638D3*
X1997638D3*
X2097638D3*
X2197638D3*
X2297638D3*
X2397638D3*
X2497638D3*
X2597638D3*
X2697638D3*
X2797638D3*
Y2843701D3*
X2697638D3*
X2597638D3*
X2497638D3*
X2397638D3*
X2297638D3*
X2197638D3*
X2097638D3*
X1997638D3*
X1897638D3*
X1797638D3*
X1697638D3*
X1597638D3*
X1497638D3*
X1397638D3*
X1297638D3*
X1197638D3*
X1097638D3*
X997638D3*
X897638D3*
D78*
X3447638Y2643701D3*
Y2143701D3*
X2097638Y1793701D3*
X2597638D3*
D80*
X4197638Y1193701D3*
D79*
X4297638D3*
X4397638D3*
X4497638D3*
X4597638D3*
X4697638D3*
X4797638D3*
X4897638D3*
X4997638D3*
X5097638D3*
Y1493701D3*
X4997638D3*
X4897638D3*
X4797638D3*
X4697638D3*
X4597638D3*
X4497638D3*
X4397638D3*
X4297638D3*
X4197638D3*
D78*
X997638Y2593701D3*
Y2495276D3*
D74*
X1313386Y693701D3*
D72*
X1413386D3*
X1513386D3*
X1613386D3*
X1713386D3*
X1813386D3*
X1913386D3*
X2013386D3*
X2113386D3*
X2213386D3*
X2313386D3*
X2413386D3*
X2513386D3*
X2613386D3*
Y1293701D3*
X2513386D3*
X2413386D3*
X2313386D3*
X2213386D3*
X2113386D3*
X2013386D3*
X1913386D3*
X1813386D3*
X1713386D3*
X1613386D3*
X1513386D3*
X1413386D3*
X1313386D3*
D78*
X4247638Y3793701D3*
Y2643701D3*
D81*
X5097638Y2893701D3*
D60*
X5197638D3*
D78*
X3447638Y3893701D3*
Y3393701D3*
D80*
X3047638Y993701D3*
D79*
X3147638D3*
X3247638D3*
X3347638D3*
X3447638D3*
X3547638D3*
X3647638D3*
X3747638D3*
X3847638D3*
D76*
X5147638Y543701D3*
D70*
X4971260Y3743701D3*
D68*
Y3972047D3*
D66*
X4782283Y3861811D3*
D80*
X3047638Y1193701D3*
D79*
X3147638D3*
X3247638D3*
X3347638D3*
X3447638D3*
X3547638D3*
X3647638D3*
X3747638D3*
X3847638D3*
X3947638D3*
Y1493701D3*
X3847638D3*
X3747638D3*
X3647638D3*
X3547638D3*
X3447638D3*
X3347638D3*
X3247638D3*
X3147638D3*
X3047638D3*
D80*
Y1642913D3*
D79*
Y1742913D3*
Y1842913D3*
Y1942913D3*
Y2042913D3*
D34*
X4997638Y2743701D3*
D63*
Y3043701D3*
D78*
X1347638Y1943701D3*
Y1643701D3*
D80*
X1047638D3*
D79*
X1147638D3*
X1247638D3*
D78*
X1447638D3*
X1547638D3*
X1647638D3*
Y1943701D3*
X1547638D3*
X1447638D3*
X1247638D3*
X1147638D3*
X1047638D3*
D80*
X3947638Y3943701D3*
D79*
Y3843701D3*
Y3743701D3*
Y3643701D3*
Y3543701D3*
Y3443701D3*
Y3343701D3*
Y3243701D3*
Y3143701D3*
Y3043701D3*
Y2943701D3*
Y2843701D3*
Y2743701D3*
Y2643701D3*
Y2543701D3*
Y2443701D3*
X4547638D3*
Y2543701D3*
Y2643701D3*
Y2743701D3*
Y2843701D3*
Y2943701D3*
Y3043701D3*
Y3143701D3*
Y3243701D3*
Y3343701D3*
Y3443701D3*
Y3543701D3*
Y3643701D3*
Y3743701D3*
Y3843701D3*
Y3943701D3*
D80*
X4197638Y493701D3*
D79*
X4297638D3*
X4397638D3*
X4497638D3*
X4597638D3*
X4697638D3*
X4797638D3*
X4897638D3*
Y793701D3*
X4797638D3*
X4697638D3*
X4597638D3*
X4497638D3*
X4397638D3*
X4297638D3*
X4197638D3*
D78*
X3997638Y2043701D3*
X4497638D3*
X813386Y1043701D3*
Y945276D3*
D61*
X797638Y4143701D3*
Y1979921D3*
D59*
X1297638Y4143701D3*
X2497638D3*
X2597638D3*
D61*
X4457480D3*
D59*
X1097638D3*
X1197638D3*
X1397638D3*
X1497638D3*
X1597638D3*
X1697638D3*
X1797638D3*
X1897638D3*
X1997638D3*
X2097638D3*
X2197638D3*
X2297638D3*
X2397638D3*
D80*
X2797638Y3793701D3*
D79*
X2697638D3*
X2597638D3*
X2497638D3*
X2397638D3*
X2297638D3*
X2197638D3*
X2097638D3*
X1997638D3*
X1897638D3*
X1797638D3*
X1697638D3*
X1597638D3*
X1497638D3*
X1397638D3*
X1297638D3*
X1197638D3*
X1097638D3*
X997638D3*
X897638D3*
Y3193701D3*
X997638D3*
X1097638D3*
X1197638D3*
X1297638D3*
X1397638D3*
X1497638D3*
X1597638D3*
X1697638D3*
X1797638D3*
X1897638D3*
X1997638D3*
X2097638D3*
X2197638D3*
X2297638D3*
X2397638D3*
X2497638D3*
X2597638D3*
X2697638D3*
X2797638D3*
D20*
X4847638Y2443701D3*
D22*
X4947638D3*
X5047638D3*
D78*
X3247638Y1343701D3*
X3747638D3*
D34*
X4897638Y2743701D3*
D63*
Y3043701D3*
D80*
X3947638Y1893701D3*
D79*
X4047638D3*
X4147638D3*
X4247638D3*
X4347638D3*
X4447638D3*
X4547638D3*
Y2193701D3*
X4447638D3*
X4347638D3*
X4247638D3*
X4147638D3*
X4047638D3*
X3947638D3*
D80*
X1897638Y1643701D3*
D79*
X1997638D3*
X2097638D3*
X2197638D3*
X2297638D3*
X2397638D3*
X2497638D3*
X2597638D3*
X2697638D3*
X2797638D3*
Y1943701D3*
X2697638D3*
X2597638D3*
X2497638D3*
X2397638D3*
X2297638D3*
X2197638D3*
X2097638D3*
X1997638D3*
X1897638D3*
D56*
X3047638Y493701D3*
D54*
X3147638D3*
X3247638D3*
X3347638D3*
X3447638D3*
X3547638D3*
X3647638D3*
X3747638D3*
X3847638D3*
X3947638D3*
Y793701D3*
X3847638D3*
X3747638D3*
X3647638D3*
X3547638D3*
X3447638D3*
X3347638D3*
X3247638D3*
X3147638D3*
X3047638D3*
D80*
X3297638Y4093701D3*
D79*
Y3993701D3*
Y3893701D3*
Y3793701D3*
Y3693701D3*
Y3593701D3*
Y3493701D3*
Y3393701D3*
Y3293701D3*
Y3193701D3*
X3597638D3*
Y3293701D3*
Y3393701D3*
Y3493701D3*
Y3593701D3*
Y3693701D3*
Y3793701D3*
Y3893701D3*
Y3993701D3*
Y4093701D3*
D59*
X5097638Y1918701D3*
X4841732D3*
X5097638Y2095866D3*
X4841732D3*
D52*
X4847638Y3393701D3*
D50*
X4947638D3*
X5047638D3*
M02*
