%TF.GenerationSoftware,Novarm,DipTrace,4.3.0.4*%
%TF.CreationDate,2023-09-26T18:22:57+01:00*%
%FSLAX26Y26*%
%MOIN*%
%TF.FileFunction,Plated,1,2,PTH,Drill*%
%TF.Part,Single*%
%TA.AperFunction,ComponentDrill*%
%ADD13C,0.03937*%
%TA.AperFunction,ViaDrill*%
%ADD40C,0.019121*%
%TA.AperFunction,ComponentDrill*%
%ADD41C,0.035433*%
%ADD42C,0.031496*%
%ADD43C,0.098425*%
%ADD44C,0.027559*%
%ADD45C,0.036*%
%ADD46C,0.043307*%
G75*
G01*
D41*
X4797638Y2893701D3*
X4697638D3*
D42*
X3297638Y2843701D3*
Y2743701D3*
Y2643701D3*
Y2543701D3*
Y2443701D3*
Y2343701D3*
Y2243701D3*
Y2143701D3*
Y2043701D3*
Y1943701D3*
X3597638D3*
Y2043701D3*
Y2143701D3*
Y2243701D3*
Y2343701D3*
Y2443701D3*
Y2543701D3*
Y2643701D3*
Y2743701D3*
Y2843701D3*
X1597638Y3493701D3*
X2097638D3*
X4197638Y993701D3*
X4297638D3*
X4397638D3*
X4497638D3*
X4597638D3*
X4697638D3*
X4797638D3*
X4897638D3*
X4997638D3*
D43*
X747638Y543701D3*
D42*
X4397638Y1343701D3*
X4897638D3*
X897638Y2243701D3*
X997638D3*
X1097638D3*
X1197638D3*
X1297638D3*
X1397638D3*
X1497638D3*
X1597638D3*
X1697638D3*
X1797638D3*
X1897638D3*
X1997638D3*
X2097638D3*
X2197638D3*
X2297638D3*
X2397638D3*
X2497638D3*
X2597638D3*
X2697638D3*
X2797638D3*
Y2843701D3*
X2697638D3*
X2597638D3*
X2497638D3*
X2397638D3*
X2297638D3*
X2197638D3*
X2097638D3*
X1997638D3*
X1897638D3*
X1797638D3*
X1697638D3*
X1597638D3*
X1497638D3*
X1397638D3*
X1297638D3*
X1197638D3*
X1097638D3*
X997638D3*
X897638D3*
X3447638Y2643701D3*
Y2143701D3*
X2097638Y1793701D3*
X2597638D3*
X4197638Y1193701D3*
X4297638D3*
X4397638D3*
X4497638D3*
X4597638D3*
X4697638D3*
X4797638D3*
X4897638D3*
X4997638D3*
X5097638D3*
Y1493701D3*
X4997638D3*
X4897638D3*
X4797638D3*
X4697638D3*
X4597638D3*
X4497638D3*
X4397638D3*
X4297638D3*
X4197638D3*
X997638Y2593701D3*
Y2495276D3*
D13*
X1313386Y693701D3*
X1413386D3*
X1513386D3*
X1613386D3*
X1713386D3*
X1813386D3*
X1913386D3*
X2013386D3*
X2113386D3*
X2213386D3*
X2313386D3*
X2413386D3*
X2513386D3*
X2613386D3*
Y1293701D3*
X2513386D3*
X2413386D3*
X2313386D3*
X2213386D3*
X2113386D3*
X2013386D3*
X1913386D3*
X1813386D3*
X1713386D3*
X1613386D3*
X1513386D3*
X1413386D3*
X1313386D3*
D42*
X4247638Y3793701D3*
Y2643701D3*
D41*
X5097638Y2893701D3*
X5197638D3*
D42*
X3447638Y3893701D3*
Y3393701D3*
X3047638Y993701D3*
X3147638D3*
X3247638D3*
X3347638D3*
X3447638D3*
X3547638D3*
X3647638D3*
X3747638D3*
X3847638D3*
D43*
X5147638Y543701D3*
X4920079Y3743701D2*
D42*
X5022441D1*
X4927953Y3972047D2*
X5014567D1*
X4782283Y3818504D2*
Y3905118D1*
X3047638Y1193701D3*
X3147638D3*
X3247638D3*
X3347638D3*
X3447638D3*
X3547638D3*
X3647638D3*
X3747638D3*
X3847638D3*
X3947638D3*
Y1493701D3*
X3847638D3*
X3747638D3*
X3647638D3*
X3547638D3*
X3447638D3*
X3347638D3*
X3247638D3*
X3147638D3*
X3047638D3*
Y1642913D3*
Y1742913D3*
Y1842913D3*
Y1942913D3*
Y2042913D3*
D44*
X4997638Y2743701D3*
Y3043701D3*
D42*
X1347638Y1943701D3*
Y1643701D3*
X1047638D3*
X1147638D3*
X1247638D3*
X1447638D3*
X1547638D3*
X1647638D3*
Y1943701D3*
X1547638D3*
X1447638D3*
X1247638D3*
X1147638D3*
X1047638D3*
X3947638Y3943701D3*
Y3843701D3*
Y3743701D3*
Y3643701D3*
Y3543701D3*
Y3443701D3*
Y3343701D3*
Y3243701D3*
Y3143701D3*
Y3043701D3*
Y2943701D3*
Y2843701D3*
Y2743701D3*
Y2643701D3*
Y2543701D3*
Y2443701D3*
X4547638D3*
Y2543701D3*
Y2643701D3*
Y2743701D3*
Y2843701D3*
Y2943701D3*
Y3043701D3*
Y3143701D3*
Y3243701D3*
Y3343701D3*
Y3443701D3*
Y3543701D3*
Y3643701D3*
Y3743701D3*
Y3843701D3*
Y3943701D3*
X4197638Y493701D3*
X4297638D3*
X4397638D3*
X4497638D3*
X4597638D3*
X4697638D3*
X4797638D3*
X4897638D3*
Y793701D3*
X4797638D3*
X4697638D3*
X4597638D3*
X4497638D3*
X4397638D3*
X4297638D3*
X4197638D3*
X3997638Y2043701D3*
X4497638D3*
X813386Y1043701D3*
Y945276D3*
D43*
X797638Y4143701D3*
Y1979921D3*
D41*
X1297638Y4143701D3*
X2497638D3*
X2597638D3*
D43*
X4457480D3*
D41*
X1097638D3*
X1197638D3*
X1397638D3*
X1497638D3*
X1597638D3*
X1697638D3*
X1797638D3*
X1897638D3*
X1997638D3*
X2097638D3*
X2197638D3*
X2297638D3*
X2397638D3*
D42*
X2797638Y3793701D3*
X2697638D3*
X2597638D3*
X2497638D3*
X2397638D3*
X2297638D3*
X2197638D3*
X2097638D3*
X1997638D3*
X1897638D3*
X1797638D3*
X1697638D3*
X1597638D3*
X1497638D3*
X1397638D3*
X1297638D3*
X1197638D3*
X1097638D3*
X997638D3*
X897638D3*
Y3193701D3*
X997638D3*
X1097638D3*
X1197638D3*
X1297638D3*
X1397638D3*
X1497638D3*
X1597638D3*
X1697638D3*
X1797638D3*
X1897638D3*
X1997638D3*
X2097638D3*
X2197638D3*
X2297638D3*
X2397638D3*
X2497638D3*
X2597638D3*
X2697638D3*
X2797638D3*
X4847638Y2443701D3*
X4947638D3*
X5047638D3*
X3247638Y1343701D3*
X3747638D3*
D44*
X4897638Y2743701D3*
Y3043701D3*
D42*
X3947638Y1893701D3*
X4047638D3*
X4147638D3*
X4247638D3*
X4347638D3*
X4447638D3*
X4547638D3*
Y2193701D3*
X4447638D3*
X4347638D3*
X4247638D3*
X4147638D3*
X4047638D3*
X3947638D3*
X1897638Y1643701D3*
X1997638D3*
X2097638D3*
X2197638D3*
X2297638D3*
X2397638D3*
X2497638D3*
X2597638D3*
X2697638D3*
X2797638D3*
Y1943701D3*
X2697638D3*
X2597638D3*
X2497638D3*
X2397638D3*
X2297638D3*
X2197638D3*
X2097638D3*
X1997638D3*
X1897638D3*
D45*
X3047638Y493701D3*
X3147638D3*
X3247638D3*
X3347638D3*
X3447638D3*
X3547638D3*
X3647638D3*
X3747638D3*
X3847638D3*
X3947638D3*
Y793701D3*
X3847638D3*
X3747638D3*
X3647638D3*
X3547638D3*
X3447638D3*
X3347638D3*
X3247638D3*
X3147638D3*
X3047638D3*
D42*
X3297638Y4093701D3*
Y3993701D3*
Y3893701D3*
Y3793701D3*
Y3693701D3*
Y3593701D3*
Y3493701D3*
Y3393701D3*
Y3293701D3*
Y3193701D3*
X3597638D3*
Y3293701D3*
Y3393701D3*
Y3493701D3*
Y3593701D3*
Y3693701D3*
Y3793701D3*
Y3893701D3*
Y3993701D3*
Y4093701D3*
D46*
X5097638Y1918701D3*
X4841732D3*
X5097638Y2095866D3*
X4841732D3*
X4847638Y3393701D3*
X4947638D3*
X5047638D3*
D40*
X4044055Y2793701D3*
X2421736Y1207914D3*
X2745712Y1371575D3*
X3047638D3*
X4093897Y1642914D3*
X3598248Y848469D3*
X2563716Y813705D3*
X4193893Y1955040D3*
X3746870Y1940122D3*
X2078665Y2969236D3*
X1397638Y2739492D3*
X1478661Y3129331D3*
X1813386Y997441D3*
X3017720Y2606736D3*
X1343901Y2124040D3*
X3052484Y2437524D3*
X1443901D3*
X2878665Y2472288D3*
X1847480D3*
X2843901Y2522130D3*
X2443901D3*
Y1779173D3*
X2197638D3*
X3093901Y3374729D3*
Y3205201D3*
X3254263Y3439965D3*
X2933114D3*
X2878665Y1919965D3*
X2493744Y1744410D3*
X3493901Y1255040D3*
Y2055201D3*
X2243897Y3004000D3*
X3836145Y2193862D3*
X4076535Y883232D3*
X2563716D3*
X3683271Y2178469D3*
X3793901Y2025209D3*
Y937681D3*
X2832401D3*
X1756500Y2024725D3*
X3348512Y2589965D3*
X2997799Y1406819D3*
X851374Y3994095D3*
X978661D3*
X3513586Y3183780D3*
X3358980Y2824729D3*
X1497638Y2774256D3*
X3181850Y2189965D3*
X2397638Y2769701D3*
X2243901D3*
X3193901Y1724729D3*
X4043740D3*
X3870909Y2324729D3*
X4512870D3*
X4597638Y1937075D3*
Y1579331D3*
X3393901Y1450327D3*
X2598480Y1024882D3*
X3439452Y2489965D3*
X3647638Y1129173D3*
X4293897Y1579331D3*
X2832405Y1336811D3*
X2843901Y1594410D3*
X1952090Y2348311D3*
X4293897Y2543701D3*
X3747638Y1579331D3*
X3474216Y2246969D3*
X4343740Y1633780D3*
X1943901Y1410945D3*
X2316618D3*
X3647185Y1989965D3*
X2710949Y1475040D3*
X1693901Y2074567D3*
Y1499370D3*
X2278665Y1524882D3*
X1797638Y2492457D3*
X1643901D3*
X2348153Y1099016D3*
X3502086Y1094410D3*
X3216614Y2655201D3*
X3293901Y1119020D3*
X3718035Y3389961D3*
X3554263Y2889965D3*
X2967878Y2668559D3*
X943897Y4197839D3*
X2898350Y2703323D3*
X1297638D3*
X1193901Y1760847D3*
X1143901Y2152874D3*
X3947638Y940414D3*
X3007248Y2289961D3*
Y2487366D3*
X2643901Y1689961D3*
X4111299Y993701D3*
X2797638D3*
X2143901Y2129012D3*
X2612874Y1855040D3*
X2343901Y3635358D3*
Y3458937D3*
X2478661Y3600599D3*
X2543897Y3920591D3*
Y3851063D3*
X1397638Y3855043D3*
X1497634Y3889807D3*
X997638D3*
X2843901Y1870122D3*
Y1800595D3*
X2497638Y2005040D3*
X2967878Y2571973D3*
X1597638D3*
X3593901Y1059646D3*
X4041771Y1392988D3*
X3447638Y1424725D3*
X2886854Y453543D3*
X2930224Y1193701D3*
Y708071D3*
X4209134D3*
X2678665Y2074567D3*
X3947638Y1794256D3*
Y1689173D3*
X2197638Y2005040D3*
X4432673Y2689961D3*
X2097638Y1874725D3*
X2297638Y3052154D3*
X2617326D3*
X3862244Y3038240D3*
X2797641D3*
X2343897Y3748154D3*
X2543901Y2739492D3*
M02*
