M48
INCH
T01C0.0191
T02C0.0276
T03C0.0315
T04C0.0354
T05C0.036
T06C0.0394
T07C0.0433
T08C0.0984
%
T01
X+040441Y+027937
X+038622Y+030382
X+035543Y+028900
X+033590Y+028247
X+032166Y+026552
X+033485Y+025900
X+034395Y+024900
X+034742Y+022470
X+034939Y+020552
X+036472Y+019900
X+037469Y+019401
X+037939Y+020252
X+038361Y+021939
X+038709Y+023247
X+036833Y+021785
X+039476Y+017943
X+039476Y+016892
X+040437Y+017247
X+040939Y+016429
X+042939Y+015793
X+043437Y+016338
X+045976Y+015793
X+045976Y+019371
X+045129Y+023247
X+042939Y+025437
X+044327Y+026900
X+041939Y+019550
X+040418Y+013930
X+037476Y+015793
X+034476Y+014247
X+033939Y+014503
X+034939Y+012550
X+035021Y+010944
X+035939Y+010596
X+036476Y+011292
X+037939Y+009377
X+039476Y+009404
X+040765Y+008832
X+041113Y+009937
X+042091Y+007081
X+035982Y+008485
X+032939Y+011190
X+030476Y+013716
X+029978Y+014068
X+028324Y+013368
X+027457Y+013716
X+027109Y+014750
X+028439Y+015944
X+028439Y+018006
X+028439Y+018701
X+028787Y+019200
X+026787Y+020746
X+024976Y+020050
X+026129Y+018550
X+024937Y+017444
X+024439Y+017792
X+026439Y+016900
X+022787Y+015249
X+023166Y+014109
X+024217Y+012079
X+023482Y+010990
X+025985Y+010249
X+025637Y+008832
X+025637Y+008137
X+027976Y+009937
X+028324Y+009377
X+029302Y+007081
X+028869Y+004535
X+029302Y+011937
X+031939Y+017247
X+031819Y+021900
X+030072Y+022900
X+030525Y+024375
X+030072Y+024874
X+029679Y+025720
X+030177Y+026067
X+029679Y+026686
X+028984Y+027033
X+028439Y+025221
X+028787Y+024723
X+025439Y+027395
X+023976Y+027697
X+022439Y+027697
X+022439Y+030040
X+022976Y+030522
X+020787Y+029692
X+026173Y+030522
X+027976Y+030382
X+030939Y+032052
X+030939Y+033747
X+032543Y+034400
X+029331Y+034400
X+024787Y+036006
X+023439Y+036354
X+023439Y+037482
X+025439Y+038511
X+025439Y+039206
X+023439Y+034589
X+014787Y+031293
X+014976Y+027743
X+013976Y+027395
X+012976Y+027033
X+014439Y+024375
X+015976Y+025720
X+016439Y+024925
X+017976Y+024925
X+018475Y+024723
X+019521Y+023483
X+021439Y+021290
X+021976Y+020050
X+020976Y+018747
X+021976Y+017792
X+019439Y+014109
X+016939Y+014994
X+018134Y+009974
X+011939Y+017608
X+013439Y+021240
X+011439Y+021529
X+016939Y+020746
X+017565Y+020247
X+024439Y+025221
X+035136Y+031838
X+037180Y+033900
X+014976Y+038898
X+013976Y+038550
X+009976Y+038898
X+009787Y+039941
X+008514Y+039941
X+009439Y+041978
T02
X+049976Y+027437
X+048976Y+027437
X+048976Y+030437
X+049976Y+030437
T03
X+032976Y+028437
X+032976Y+027437
X+032976Y+026437
X+032976Y+025437
X+032976Y+024437
X+032976Y+023437
X+032976Y+022437
X+032976Y+021437
X+032976Y+020437
X+032976Y+019437
X+034476Y+021437
X+035976Y+021437
X+035976Y+022437
X+035976Y+023437
X+035976Y+024437
X+035976Y+025437
X+035976Y+026437
X+035976Y+027437
X+035976Y+028437
X+034476Y+026437
X+039476Y+026437
X+039476Y+027437
X+039476Y+028437
X+039476Y+029437
X+039476Y+030437
X+039476Y+031437
X+039476Y+032437
X+039476Y+033437
X+039476Y+034437
X+039476Y+035437
X+039476Y+036437
X+039476Y+037437
X+039476Y+038437
X+039476Y+039437
X+042476Y+037937
X+045476Y+037437
X+045476Y+036437
X+045476Y+035437
X+045476Y+034437
X+045476Y+033437
X+045476Y+032437
X+045476Y+031437
X+045476Y+030437
X+045476Y+029437
X+045476Y+028437
X+045476Y+027437
X+045476Y+026437
X+045476Y+025437
X+045476Y+024437
X+045476Y+021937
X+044476Y+021937
X+043476Y+021937
X+042476Y+021937
X+041476Y+021937
X+040476Y+021937
X+039476Y+021937
X+039976Y+020437
X+039476Y+018937
X+040476Y+018937
X+041476Y+018937
X+042476Y+018937
X+043476Y+018937
X+044476Y+018937
X+045476Y+018937
X+044976Y+020437
X+048476Y+024437
X+049476Y+024437
X+050476Y+024437
X+042476Y+026437
X+039476Y+025437
X+039476Y+024437
X+035976Y+020437
X+035976Y+019437
X+036476Y+014937
X+037476Y+014937
X+038476Y+014937
X+039476Y+014937
X+037476Y+013437
X+037476Y+011937
X+038476Y+011937
X+039476Y+011937
X+038476Y+009937
X+037476Y+009937
X+036476Y+009937
X+035476Y+009937
X+034476Y+009937
X+033476Y+009937
X+032476Y+009937
X+031476Y+009937
X+030476Y+009937
X+030476Y+011937
X+031476Y+011937
X+032476Y+011937
X+033476Y+011937
X+034476Y+011937
X+035476Y+011937
X+036476Y+011937
X+035476Y+014937
X+034476Y+014937
X+033476Y+014937
X+032476Y+014937
X+031476Y+014937
X+030476Y+014937
X+030476Y+016429
X+030476Y+017429
X+030476Y+018429
X+030476Y+019429
X+030476Y+020429
X+027976Y+019437
X+026976Y+019437
X+025976Y+019437
X+024976Y+019437
X+023976Y+019437
X+022976Y+019437
X+021976Y+019437
X+020976Y+019437
X+019976Y+019437
X+018976Y+019437
X+020976Y+017937
X+020976Y+016437
X+021976Y+016437
X+022976Y+016437
X+023976Y+016437
X+024976Y+016437
X+025976Y+016437
X+026976Y+016437
X+027976Y+016437
X+025976Y+017937
X+025976Y+022437
X+024976Y+022437
X+023976Y+022437
X+022976Y+022437
X+021976Y+022437
X+020976Y+022437
X+019976Y+022437
X+018976Y+022437
X+017976Y+022437
X+016976Y+022437
X+015976Y+022437
X+014976Y+022437
X+013976Y+022437
X+012976Y+022437
X+011976Y+022437
X+010976Y+022437
X+009976Y+022437
X+008976Y+022437
X+009976Y+024953
X+009976Y+025937
X+009976Y+028437
X+010976Y+028437
X+011976Y+028437
X+012976Y+028437
X+013976Y+028437
X+014976Y+028437
X+015976Y+028437
X+016976Y+028437
X+017976Y+028437
X+018976Y+028437
X+019976Y+028437
X+020976Y+028437
X+021976Y+028437
X+022976Y+028437
X+023976Y+028437
X+024976Y+028437
X+025976Y+028437
X+026976Y+028437
X+027976Y+028437
X+027976Y+031937
X+026976Y+031937
X+025976Y+031937
X+024976Y+031937
X+023976Y+031937
X+022976Y+031937
X+021976Y+031937
X+020976Y+031937
X+019976Y+031937
X+018976Y+031937
X+017976Y+031937
X+016976Y+031937
X+015976Y+031937
X+014976Y+031937
X+013976Y+031937
X+012976Y+031937
X+011976Y+031937
X+010976Y+031937
X+009976Y+031937
X+008976Y+031937
X+008976Y+028437
X+010476Y+019437
X+011476Y+019437
X+012476Y+019437
X+013476Y+019437
X+014476Y+019437
X+015476Y+019437
X+016476Y+019437
X+016476Y+016437
X+015476Y+016437
X+014476Y+016437
X+013476Y+016437
X+012476Y+016437
X+011476Y+016437
X+010476Y+016437
X+008134Y+010437
X+008134Y+009453
X+018976Y+016437
X+019976Y+016437
X+026976Y+022437
X+027976Y+022437
X+032476Y+013437
X+041976Y+011937
X+042976Y+011937
X+043976Y+011937
X+044976Y+011937
X+045976Y+011937
X+046976Y+011937
X+047976Y+011937
X+048976Y+011937
X+049976Y+011937
X+050976Y+011937
X+049976Y+009937
X+048976Y+009937
X+047976Y+009937
X+046976Y+009937
X+045976Y+009937
X+044976Y+009937
X+043976Y+009937
X+042976Y+009937
X+041976Y+009937
X+041976Y+007937
X+042976Y+007937
X+043976Y+007937
X+044976Y+007937
X+045976Y+007937
X+046976Y+007937
X+047976Y+007937
X+048976Y+007937
X+048976Y+004937
X+047976Y+004937
X+046976Y+004937
X+045976Y+004937
X+044976Y+004937
X+043976Y+004937
X+042976Y+004937
X+041976Y+004937
X+043976Y+013437
X+043976Y+014937
X+042976Y+014937
X+041976Y+014937
X+044976Y+014937
X+045976Y+014937
X+046976Y+014937
X+047976Y+014937
X+048976Y+014937
X+049976Y+014937
X+050976Y+014937
X+048976Y+013437
X+035976Y+031937
X+035976Y+032937
X+035976Y+033937
X+035976Y+034937
X+035976Y+035937
X+035976Y+036937
X+035976Y+037937
X+035976Y+038937
X+035976Y+039937
X+035976Y+040937
X+034476Y+038937
X+032976Y+038937
X+032976Y+039937
X+032976Y+040937
X+032976Y+037937
X+032976Y+036937
X+032976Y+035937
X+032976Y+034937
X+032976Y+033937
X+032976Y+032937
X+032976Y+031937
X+034476Y+033937
X+027976Y+037937
X+026976Y+037937
X+025976Y+037937
X+024976Y+037937
X+023976Y+037937
X+022976Y+037937
X+021976Y+037937
X+020976Y+037937
X+019976Y+037937
X+018976Y+037937
X+017976Y+037937
X+016976Y+037937
X+015976Y+037937
X+014976Y+037937
X+013976Y+037937
X+012976Y+037937
X+011976Y+037937
X+010976Y+037937
X+009976Y+037937
X+008976Y+037937
X+015976Y+034937
X+020976Y+034937
X+045476Y+038437
X+045476Y+039437
T04
X+047976Y+028937
X+046976Y+028937
X+050976Y+028937
X+051976Y+028937
X+025976Y+041437
X+024976Y+041437
X+023976Y+041437
X+022976Y+041437
X+021976Y+041437
X+020976Y+041437
X+019976Y+041437
X+018976Y+041437
X+017976Y+041437
X+016976Y+041437
X+015976Y+041437
X+014976Y+041437
X+013976Y+041437
X+012976Y+041437
X+011976Y+041437
X+010976Y+041437
T05
X+030476Y+004937
X+031476Y+004937
X+032476Y+004937
X+033476Y+004937
X+034476Y+004937
X+035476Y+004937
X+036476Y+004937
X+037476Y+004937
X+038476Y+004937
X+039476Y+004937
X+039476Y+007937
X+038476Y+007937
X+037476Y+007937
X+036476Y+007937
X+035476Y+007937
X+034476Y+007937
X+033476Y+007937
X+032476Y+007937
X+031476Y+007937
X+030476Y+007937
T06
X+013134Y+006937
X+014134Y+006937
X+015134Y+006937
X+016134Y+006937
X+017134Y+006937
X+018134Y+006937
X+019134Y+006937
X+020134Y+006937
X+021134Y+006937
X+022134Y+006937
X+023134Y+006937
X+024134Y+006937
X+025134Y+006937
X+026134Y+006937
X+026134Y+012937
X+025134Y+012937
X+024134Y+012937
X+023134Y+012937
X+022134Y+012937
X+021134Y+012937
X+020134Y+012937
X+019134Y+012937
X+018134Y+012937
X+017134Y+012937
X+016134Y+012937
X+015134Y+012937
X+014134Y+012937
X+013134Y+012937
T07
X+050976Y+019187
X+050976Y+020959
X+048417Y+020959
X+048417Y+019187
X+048476Y+033937
X+049476Y+033937
X+050476Y+033937
T08
X+007476Y+005437
X+007976Y+019799
X+007976Y+041437
X+044575Y+041437
X+051476Y+005437
T00
M30
