%TF.GenerationSoftware,Novarm,DipTrace,4.3.0.4*%
%TF.CreationDate,2023-09-26T18:22:52+01:00*%
%FSLAX26Y26*%
%MOIN*%
%TF.FileFunction,Drawing,Top*%
%TF.Part,Single*%
%ADD10C,0.004724*%
%ADD17C,0.003937*%
G75*
G01*
%LPD*%
X4806693Y2847787D2*
D17*
Y2939614D1*
X4806715Y2939585D1*
X4688583Y2893701D2*
G02X4688583Y2893701I59055J0D01*
G01*
X3247638Y2896063D2*
Y1891339D1*
X3647638D1*
X3322638Y2854331D2*
X3362008Y2893701D1*
X3322638Y1893701D2*
Y2854331D1*
X3362008Y2893701D2*
X3572638D1*
Y1893701D1*
X3322638D1*
X3647638Y2896063D2*
X3247638D1*
X3647638Y1891339D2*
Y2896063D1*
X1587795Y3525197D2*
Y3462205D1*
X2105906D1*
Y3525197D2*
X1587795D1*
X2105906Y3462205D2*
Y3525197D1*
X4146850Y1042913D2*
Y944488D1*
X5048425D1*
X4247638Y1042913D2*
Y944488D1*
X5048425Y1042913D2*
X4146850D1*
X5048425Y944488D2*
Y1042913D1*
X4387795Y1375197D2*
Y1312205D1*
X4905906D1*
Y1375197D2*
X4387795D1*
X4905906Y1312205D2*
Y1375197D1*
X887008Y2253740D2*
X847638Y2293110D1*
X2847638Y2253740D2*
X887008D1*
X847638Y2293110D2*
Y2833661D1*
X2847638D1*
Y2253740D1*
X3479134Y2653543D2*
X3416142D1*
Y2135433D1*
X3479134D2*
Y2653543D1*
X3416142Y2135433D2*
X3479134D1*
X2087795Y1825197D2*
Y1762205D1*
X2605906D1*
Y1825197D2*
X2087795D1*
X2605906Y1762205D2*
Y1825197D1*
X4145276Y1143701D2*
X5150000D1*
Y1543701D1*
X4187008Y1218701D2*
X4147638Y1258071D1*
X5147638Y1218701D2*
X4187008D1*
X4147638Y1258071D2*
Y1468701D1*
X5147638D1*
Y1218701D1*
X4145276Y1543701D2*
Y1143701D1*
X5150000Y1543701D2*
X4145276D1*
X1029134Y2603543D2*
X966142D1*
Y2485433D1*
X1029134D2*
Y2603543D1*
X966142Y2485433D2*
X1029134D1*
X468504Y496850D2*
X610236D1*
X468504D2*
X413386Y548031D1*
X610236Y496850D2*
X688976Y555906D1*
X610236Y496850D2*
Y677953D1*
X943307Y542913D2*
X897638Y581496D1*
X2881890Y542913D2*
X943307D1*
X413386Y548031D2*
Y626772D1*
X688976Y555906D2*
Y618898D1*
X929528Y555906D2*
X688976D1*
X897638Y581496D2*
Y1444488D1*
X688976Y618898D2*
X897638D1*
X413386Y626772D2*
X468504Y677953D1*
Y496850D1*
X610236Y677953D2*
X688976Y618898D1*
X610236Y677953D2*
X468504D1*
X897638Y1444488D2*
X2881890D1*
Y542913D1*
X4279134Y3743701D2*
X4216142D1*
Y2693701D1*
X4279134D2*
Y3743701D1*
X4216142Y2693701D2*
X4279134D1*
X5088583Y2939614D2*
Y2847787D1*
X5088560Y2847816D1*
X5088583Y2893701D2*
G02X5088583Y2893701I59055J0D01*
G01*
X3479134Y3903543D2*
X3416142D1*
Y3385433D1*
X3479134D2*
Y3903543D1*
X3416142Y3385433D2*
X3479134D1*
X2996850Y1042913D2*
Y944488D1*
X3898425D1*
X3097638Y1042913D2*
Y944488D1*
X3898425Y1042913D2*
X2996850D1*
X3898425Y944488D2*
Y1042913D1*
X5148425Y3747638D2*
X5109055Y3708268D1*
X5148425Y4279134D2*
Y3747638D1*
X4794094Y3708268D2*
X5109055D1*
X4794094D2*
Y4279134D1*
X5148425D1*
X2995276Y1143701D2*
X4000000D1*
Y1543701D1*
X3037008Y1218701D2*
X2997638Y1258071D1*
X3997638Y1218701D2*
X3037008D1*
X2997638Y1258071D2*
Y1468701D1*
X3997638D1*
Y1218701D1*
X2995276Y1543701D2*
Y1143701D1*
X4000000Y1543701D2*
X2995276D1*
X2998425Y1592126D2*
X3096850D1*
Y2093701D1*
X2998425Y1692913D2*
X3096850D1*
X2998425Y2093701D2*
Y1592126D1*
X3096850Y2093701D2*
X2998425D1*
X4997638Y2743701D2*
Y2822835D1*
X4966142D2*
X5029134D1*
Y2964567D1*
X4966142D2*
Y2822835D1*
X5029134Y2964567D2*
X4966142D1*
X4997638Y3043701D2*
Y2964567D1*
X940157Y1543701D2*
Y2018110D1*
Y1543701D2*
X1729528D1*
X965748Y2043701D2*
X1729528D1*
X979528Y1583071D2*
Y1990551D1*
Y1583071D2*
X1701969D1*
X993307Y2004331D2*
X1701969D1*
X1715748Y1596850D2*
Y1990551D1*
X1755118Y2018110D2*
Y1569291D1*
X965748Y2043701D2*
G02X965748Y2043701I0J0D01*
G01*
X993307Y2004331D2*
G02X993307Y2004331I0J0D01*
G01*
X1715748Y1990551D2*
G02X1715748Y1990551I0J0D01*
G01*
X1701969Y1583071D2*
G02X1701969Y1583071I0J0D01*
G01*
X1755118Y2018110D2*
G02X1755118Y2018110I0J0D01*
G01*
X1729528Y1543701D2*
G02X1729528Y1543701I0J0D01*
G01*
X3957677Y3954331D2*
X3997047Y3993701D1*
X3957677Y2393701D2*
Y3954331D1*
X3997047Y3993701D2*
X4537598D1*
Y2393701D1*
X3957677D1*
X4144094Y451181D2*
X4104724Y490551D1*
X4990551Y451181D2*
X4144094D1*
X4104724Y490551D2*
Y836220D1*
X4172638Y563780D2*
X4222638D1*
X4176575D2*
Y617060D1*
X4180512Y563780D2*
Y617060D1*
X4184449Y563780D2*
Y617060D1*
X4188386Y563780D2*
Y617060D1*
X4192323Y563780D2*
Y617060D1*
X4196260Y563780D2*
Y617060D1*
X4200197Y563780D2*
Y617060D1*
X4204134Y563780D2*
Y617060D1*
X4208071Y563780D2*
Y617060D1*
X4212008Y563780D2*
Y617060D1*
X4215945Y563780D2*
Y617060D1*
X4219882Y563780D2*
Y617060D1*
X4222638Y563780D2*
Y723622D1*
X4272638Y563780D2*
X4322638D1*
X4276575D2*
Y617060D1*
X4280512Y563780D2*
Y617060D1*
X4284449Y563780D2*
Y617060D1*
X4288386Y563780D2*
Y617060D1*
X4292323Y563780D2*
Y617060D1*
X4296260Y563780D2*
Y617060D1*
X4300197Y563780D2*
Y617060D1*
X4304134Y563780D2*
Y617060D1*
X4308071Y563780D2*
Y617060D1*
X4312008Y563780D2*
Y617060D1*
X4315945Y563780D2*
Y617060D1*
X4319882Y563780D2*
Y617060D1*
X4322638Y563780D2*
Y723622D1*
X4372638Y563780D2*
X4422638D1*
X4376575D2*
Y617060D1*
X4380512Y563780D2*
Y617060D1*
X4384449Y563780D2*
Y617060D1*
X4388386Y563780D2*
Y617060D1*
X4392323Y563780D2*
Y617060D1*
X4396260Y563780D2*
Y617060D1*
X4400197Y563780D2*
Y617060D1*
X4404134Y563780D2*
Y617060D1*
X4408071Y563780D2*
Y617060D1*
X4412008Y563780D2*
Y617060D1*
X4415945Y563780D2*
Y617060D1*
X4419882Y563780D2*
Y617060D1*
X4422638Y563780D2*
Y723622D1*
X4472638Y563780D2*
X4522638D1*
X4476575D2*
Y617060D1*
X4480512Y563780D2*
Y617060D1*
X4484449Y563780D2*
Y617060D1*
X4488386Y563780D2*
Y617060D1*
X4492323Y563780D2*
Y617060D1*
X4496260Y563780D2*
Y617060D1*
X4500197Y563780D2*
Y617060D1*
X4504134Y563780D2*
Y617060D1*
X4508071Y563780D2*
Y617060D1*
X4512008Y563780D2*
Y617060D1*
X4515945Y563780D2*
Y617060D1*
X4519882Y563780D2*
Y617060D1*
X4522638Y563780D2*
Y723622D1*
X4572638Y563780D2*
X4622638D1*
X4576575D2*
Y617060D1*
X4580512Y563780D2*
Y617060D1*
X4584449Y563780D2*
Y617060D1*
X4588386Y563780D2*
Y617060D1*
X4592323Y563780D2*
Y617060D1*
X4596260Y563780D2*
Y617060D1*
X4600197Y563780D2*
Y617060D1*
X4604134Y563780D2*
Y617060D1*
X4608071Y563780D2*
Y617060D1*
X4612008Y563780D2*
Y617060D1*
X4615945Y563780D2*
Y617060D1*
X4619882Y563780D2*
Y617060D1*
X4622638Y563780D2*
Y723622D1*
X4672638Y563780D2*
X4722638D1*
X4676575D2*
Y617060D1*
X4680512Y563780D2*
Y617060D1*
X4684449Y563780D2*
Y617060D1*
X4688386Y563780D2*
Y617060D1*
X4692323Y563780D2*
Y617060D1*
X4696260Y563780D2*
Y617060D1*
X4700197Y563780D2*
Y617060D1*
X4704134Y563780D2*
Y617060D1*
X4708071Y563780D2*
Y617060D1*
X4712008Y563780D2*
Y617060D1*
X4715945Y563780D2*
Y617060D1*
X4719882Y563780D2*
Y617060D1*
X4722638Y563780D2*
Y723622D1*
X4772638Y563780D2*
X4822638D1*
X4776575D2*
Y617060D1*
X4780512Y563780D2*
Y617060D1*
X4784449Y563780D2*
Y617060D1*
X4788386Y563780D2*
Y617060D1*
X4792323Y563780D2*
Y617060D1*
X4796260Y563780D2*
Y617060D1*
X4800197Y563780D2*
Y617060D1*
X4804134Y563780D2*
Y617060D1*
X4808071Y563780D2*
Y617060D1*
X4812008Y563780D2*
Y617060D1*
X4815945Y563780D2*
Y617060D1*
X4819882Y563780D2*
Y617060D1*
X4822638Y563780D2*
Y723622D1*
X4872638Y563780D2*
X4922638D1*
X4876575D2*
Y617060D1*
X4880512Y563780D2*
Y617060D1*
X4884449Y563780D2*
Y617060D1*
X4888386Y563780D2*
Y617060D1*
X4892323Y563780D2*
Y617060D1*
X4896260Y563780D2*
Y617060D1*
X4900197Y563780D2*
Y617060D1*
X4904134Y563780D2*
Y617060D1*
X4908071Y563780D2*
Y617060D1*
X4912008Y563780D2*
Y617060D1*
X4915945Y563780D2*
Y617060D1*
X4919882Y563780D2*
Y617060D1*
X4922638Y563780D2*
Y723622D1*
X4172638Y617060D2*
X4222638D1*
X4272638D2*
X4322638D1*
X4372638D2*
X4422638D1*
X4472638D2*
X4522638D1*
X4572638D2*
X4622638D1*
X4672638D2*
X4722638D1*
X4772638D2*
X4822638D1*
X4872638D2*
X4922638D1*
X4172638Y723622D2*
Y563780D1*
X4222638Y723622D2*
X4172638D1*
X4272638D2*
Y563780D1*
X4322638Y723622D2*
X4272638D1*
X4372638D2*
Y563780D1*
X4422638Y723622D2*
X4372638D1*
X4472638D2*
Y563780D1*
X4522638Y723622D2*
X4472638D1*
X4572638D2*
Y563780D1*
X4622638Y723622D2*
X4572638D1*
X4672638D2*
Y563780D1*
X4722638Y723622D2*
X4672638D1*
X4772638D2*
Y563780D1*
X4822638Y723622D2*
X4772638D1*
X4872638D2*
Y563780D1*
X4922638Y723622D2*
X4872638D1*
X4104724Y836220D2*
X4990551D1*
Y451181D1*
X3987795Y2075197D2*
Y2012205D1*
X4505906D1*
Y2075197D2*
X3987795D1*
X4505906Y2012205D2*
Y2075197D1*
X844882Y1053543D2*
X781890D1*
Y935433D1*
X844882D2*
Y1053543D1*
X781890Y935433D2*
X844882D1*
X1697638Y4068701D2*
X2397638D1*
X697638Y4243701D2*
Y1881496D1*
X4555906D1*
Y4243701D1*
X697638D1*
X2850000Y3843701D2*
X845276D1*
Y3143701D1*
X2808268Y3783661D2*
X2847638Y3744291D1*
X847638Y3783661D2*
X2808268D1*
X2847638Y3744291D2*
Y3203740D1*
X847638D1*
Y3783661D1*
X2850000Y3143701D2*
Y3843701D1*
X845276Y3143701D2*
X2850000D1*
X4873228Y2380709D2*
X5020866D1*
X4947638Y2541339D2*
G02X4947638Y2541339I0J0D01*
G01*
X5022484Y2381003D2*
G02X5022484Y2381003I0J0D01*
G01*
X3237795Y1375197D2*
Y1312205D1*
X3755906D1*
Y1375197D2*
X3237795D1*
X3755906Y1312205D2*
Y1375197D1*
X4897638Y2743701D2*
Y2822835D1*
X4866142D2*
X4929134D1*
Y2964567D1*
X4866142D2*
Y2822835D1*
X4929134Y2964567D2*
X4866142D1*
X4897638Y3043701D2*
Y2964567D1*
X3895276Y1843701D2*
X4600000D1*
Y2243701D1*
X3937008Y1918701D2*
X3897638Y1958071D1*
X4597638Y1918701D2*
X3937008D1*
X3897638Y1958071D2*
Y2168701D1*
X4597638D1*
Y1918701D1*
X3895276Y2243701D2*
Y1843701D1*
X4600000Y2243701D2*
X3895276D1*
X1845276Y1593701D2*
X2850000D1*
Y1993701D1*
X1887008Y1668701D2*
X1847638Y1708071D1*
X2847638Y1668701D2*
X1887008D1*
X1847638Y1708071D2*
Y1918701D1*
X2847638D1*
Y1668701D1*
X1845276Y1993701D2*
Y1593701D1*
X2850000Y1993701D2*
X1845276D1*
X3047638Y443701D2*
X3997638D1*
Y843701D1*
X2997638Y493701D2*
X3047638Y443701D1*
X2997638Y493701D2*
Y843701D1*
X3997638D1*
X3247638Y4146063D2*
Y3141339D1*
X3647638D1*
X3322638Y4104331D2*
X3362008Y4143701D1*
X3322638Y3143701D2*
Y4104331D1*
X3362008Y4143701D2*
X3572638D1*
Y3143701D1*
X3322638D1*
X3647638Y4146063D2*
X3247638D1*
X3647638Y3141339D2*
Y4146063D1*
X5087795Y1889173D2*
X4969685D1*
X5087795Y2125394D2*
Y1889173D1*
X4969685D2*
X4851575D1*
Y2125394D1*
X5087795D1*
X4890332Y2007283D2*
G02X4890332Y2007283I79353J0D01*
G01*
X4750787Y3517717D2*
Y3344488D1*
Y3467717D2*
X5144488D1*
X4750787Y3344488D2*
X5144488D1*
X4874803Y3517717D2*
Y3467717D1*
X5020472Y3517717D2*
Y3467717D1*
X5144488Y3517717D2*
X4750787D1*
X5144488Y3344488D2*
Y3517717D1*
X4131850Y690132D2*
D10*
X4133276Y687280D1*
X4136161Y684395D1*
X4140472Y682969D1*
X4143324D1*
X4147635Y684395D1*
X4150487Y687280D1*
X4151946Y690132D1*
Y694443D1*
X4150487Y697328D1*
X4147635Y700180D1*
X4143324Y701639D1*
X4140472D1*
X4136161Y700180D1*
X4133276Y697328D1*
X4131850Y694443D1*
Y690132D1*
Y711088D2*
X4151946D1*
X4137587D2*
X4133276Y715399D1*
X4131850Y718284D1*
Y722562D1*
X4133276Y725447D1*
X4137587Y726873D1*
X4151946D1*
X1109683Y4022395D2*
D17*
X1105880Y4020494D1*
X1102033Y4016647D1*
X1100132Y4012844D1*
Y4005195D1*
X1102033Y4001348D1*
X1105880Y3997546D1*
X1109683Y3995600D1*
X1115431Y3993699D1*
X1125025D1*
X1130729Y3995600D1*
X1134576Y3997546D1*
X1138379Y4001348D1*
X1140324Y4005195D1*
Y4012844D1*
X1138379Y4016647D1*
X1134576Y4020494D1*
X1130729Y4022395D1*
X1125025D1*
Y4012844D1*
X1100132Y4057064D2*
X1140324D1*
X1100132Y4030269D1*
X1140324D1*
X1100132Y4064938D2*
X1140324D1*
Y4078335D1*
X1138379Y4084083D1*
X1134576Y4087930D1*
X1130729Y4089831D1*
X1125025Y4091732D1*
X1115431D1*
X1109683Y4089831D1*
X1105880Y4087930D1*
X1102033Y4084083D1*
X1100132Y4078335D1*
Y4064938D1*
X1519277Y3983924D2*
Y4001124D1*
X1517332Y4006872D1*
X1515431Y4008817D1*
X1511628Y4010718D1*
X1507781D1*
X1503979Y4008817D1*
X1502033Y4006872D1*
X1500132Y4001124D1*
Y3983924D1*
X1540324D1*
X1519277Y3997321D2*
X1540324Y4010718D1*
X1489653Y4028143D2*
X1491554Y4024340D1*
X1493455Y4022395D1*
X1497302Y4020494D1*
X1501149D1*
X1504952Y4022395D1*
X1506853Y4024340D1*
X1510700Y4026242D1*
X1514502D1*
X1518349Y4022395D1*
X1520250Y4018592D1*
X1522151Y4022395D1*
X1525998Y4026242D1*
X1529801D1*
X1533647Y4024340D1*
X1535549Y4022395D1*
X1539396Y4020494D1*
X1543198D1*
X1547045Y4022395D1*
X1548946Y4024340D1*
X1550847Y4028143D1*
X1500132Y4036017D2*
X1540324Y4045612D1*
X1500132Y4055162D1*
X1540324Y4064713D1*
X1500132Y4074308D1*
X1489653Y4082182D2*
X1491554Y4086028D1*
X1493455Y4087930D1*
X1497302Y4089831D1*
X1501149D1*
X1504952Y4087930D1*
X1506853Y4086028D1*
X1510700Y4084083D1*
X1514502D1*
X1518349Y4087930D1*
X1520250Y4091732D1*
X1522151Y4087930D1*
X1525998Y4084083D1*
X1529801D1*
X1533647Y4086028D1*
X1535549Y4087930D1*
X1539396Y4089831D1*
X1543198D1*
X1547045Y4087930D1*
X1548946Y4086028D1*
X1550847Y4082182D1*
X1489653Y4018592D2*
Y4099606D1*
X1927045Y4016207D2*
Y3976015D1*
X1940443D1*
X1946191Y3977960D1*
X1950038Y3981763D1*
X1951939Y3985609D1*
X1953840Y3991313D1*
Y4000908D1*
X1951939Y4006656D1*
X1950038Y4010459D1*
X1946191Y4014305D1*
X1940443Y4016207D1*
X1927045D1*
X1961714Y3969382D2*
X1998059D1*
X2015484Y4026686D2*
X2011681Y4024784D1*
X2009736Y4022883D1*
X2007835Y4019036D1*
Y4015190D1*
X2009736Y4011387D1*
X2011681Y4009486D1*
X2013583Y4005639D1*
Y4001836D1*
X2009736Y3997990D1*
X2005933Y3996088D1*
X2009736Y3994187D1*
X2013583Y3990340D1*
Y3986538D1*
X2011681Y3982691D1*
X2009736Y3980790D1*
X2007835Y3976943D1*
Y3973141D1*
X2009736Y3969294D1*
X2011681Y3967392D1*
X2015484Y3965491D1*
X2036755Y4026686D2*
X2023358D1*
Y3965491D1*
X2036755D1*
X2056125Y4016162D2*
X2050377Y4014261D1*
X2046531Y4008513D1*
X2044629Y3998962D1*
Y3993214D1*
X2046531Y3983664D1*
X2050377Y3977916D1*
X2056125Y3976015D1*
X2059928D1*
X2065676Y3977916D1*
X2069478Y3983664D1*
X2071424Y3993214D1*
Y3998962D1*
X2069478Y4008513D1*
X2065676Y4014261D1*
X2059928Y4016162D1*
X2056125D1*
X2069478Y4008513D2*
X2046531Y3983664D1*
X2081199Y3979861D2*
X2079298Y3977916D1*
X2081199Y3976015D1*
X2083145Y3977916D1*
X2081199Y3979861D1*
X2092920D2*
X2091019Y3977916D1*
X2092920Y3976015D1*
X2094866Y3977916D1*
X2092920Y3979861D1*
X2110389Y3976015D2*
X2129534Y4016162D1*
X2102740D1*
X2137408Y4026686D2*
X2150806D1*
Y3965491D1*
X2137408D1*
X2158680Y4026686D2*
X2162526Y4024784D1*
X2164428Y4022883D1*
X2166329Y4019036D1*
Y4015190D1*
X2164428Y4011387D1*
X2162526Y4009486D1*
X2160581Y4005639D1*
Y4001836D1*
X2164428Y3997990D1*
X2168230Y3996088D1*
X2164428Y3994187D1*
X2160581Y3990340D1*
Y3986538D1*
X2162526Y3982691D1*
X2164428Y3980790D1*
X2166329Y3976943D1*
Y3973141D1*
X2164428Y3969294D1*
X2162526Y3967392D1*
X2158680Y3965491D1*
X1600132Y4091732D2*
Y4066883D1*
X1640324D1*
Y4091732D1*
X1619277Y4066883D2*
Y4082182D1*
X1419277Y4030269D2*
Y4047469D1*
X1417332Y4053217D1*
X1415431Y4055162D1*
X1411628Y4057064D1*
X1407781D1*
X1403979Y4055162D1*
X1402033Y4053217D1*
X1400132Y4047469D1*
Y4030269D1*
X1440324D1*
X1419277Y4043666D2*
X1440324Y4057064D1*
X1405880Y4091732D2*
X1402033Y4087930D1*
X1400132Y4082182D1*
Y4074532D1*
X1402033Y4068784D1*
X1405880Y4064938D1*
X1409683D1*
X1413529Y4066883D1*
X1415431Y4068784D1*
X1417332Y4072587D1*
X1421179Y4084083D1*
X1423080Y4087930D1*
X1425025Y4089831D1*
X1428828Y4091732D1*
X1434576D1*
X1438379Y4087930D1*
X1440324Y4082182D1*
Y4074532D1*
X1438379Y4068784D1*
X1434576Y4064938D1*
X1200132Y3999491D2*
X1240324Y4014790D1*
X1200132Y4030088D1*
Y4060910D2*
X1240324D1*
X1219277D2*
X1215431Y4057108D1*
X1213529Y4053261D1*
Y4047513D1*
X1215431Y4043710D1*
X1219277Y4039864D1*
X1225025Y4037962D1*
X1228828D1*
X1234576Y4039864D1*
X1238379Y4043710D1*
X1240324Y4047513D1*
Y4053261D1*
X1238379Y4057108D1*
X1234576Y4060910D1*
X1200132Y4091732D2*
X1240324D1*
X1219277D2*
X1215431Y4087930D1*
X1213529Y4084083D1*
Y4078335D1*
X1215431Y4074532D1*
X1219277Y4070686D1*
X1225025Y4068784D1*
X1228828D1*
X1234576Y4070686D1*
X1238379Y4074532D1*
X1240324Y4078335D1*
Y4084083D1*
X1238379Y4087930D1*
X1234576Y4091732D1*
M02*
